<?xml version="1.0" encoding="UTF-8"?>
<svg width="256px" height="220px" viewBox="0 0 256 220" version="1.1" xmlns="http://www.w3.org/2000/svg" xmlns:xlink="http://www.w3.org/1999/xlink">
    <!-- Generator: Sketch 50.2 (55047) - http://www.bohemiancoding.com/sketch -->
    <title>Group</title>
    <desc>Created with Sketch.</desc>
    <defs></defs>
    <g id="Page-1" stroke="none" stroke-width="1" fill="none" fill-rule="evenodd">
        <g id="Artboard" transform="translate(-47.000000, -59.000000)">
            <g id="Group" transform="translate(47.000000, 59.000000)">
                <rect id="Rectangle" stroke="#979797" fill="#FFFFFF" x="8.5" y="55.5" width="240" height="158"></rect>
                <path d="M128,8 L128,8 C141.807119,8 153,19.1928813 153,33 L153,81 L103,81 L103,33 C103,19.1928813 114.192881,8 128,8 Z" id="Rectangle-2" fill="#FFFFFF"></path>
                <g id="v2-guest" fill="#A358DF" fill-rule="nonzero">
                    <path d="M247.652174,49.9017942 C252.26087,49.9017942 256,53.6482406 256,58.2659535 L256,211.635841 C256,216.253554 252.26087,220 247.652174,220 L8.34782609,220 C3.73913043,220 0,216.253554 0,211.635841 L0,58.2659535 C0,53.6482406 3.73913043,49.9017942 8.34782609,49.9017942 L93.3913043,49.9017942 L93.3913043,34.7853183 C93.3913043,15.6065632 108.913044,0 128,0 C147.086956,0 162.608696,15.6065621 162.608696,34.7853183 L162.608696,49.9017942 L247.652174,49.9017942 Z M110,34.9055911 L110,79 L146,79 L146,34.9055911 C146,25.0348372 137.928398,17 128,17 C118.071602,17 110,25.0348372 110,34.9055911 Z M148.454545,140 L227.545455,140 C230.859163,140 233.545455,137.313708 233.545455,134 C233.545455,130.686292 230.859163,128 227.545455,128 L148.454545,128 C145.140837,128 142.454545,130.686292 142.454545,134 C142.454545,137.313708 145.140837,140 148.454545,140 Z M148.454545,167 L227.545455,167 C230.859163,167 233.545455,164.313708 233.545455,161 C233.545455,157.686292 230.859163,155 227.545455,155 L148.454545,155 C145.140837,155 142.454545,157.686292 142.454545,161 C142.454545,164.313708 145.140837,167 148.454545,167 Z M69,143.873606 C57.3784348,143.873606 48.2976899,147.601819 42.1925967,154.405248 C36.775873,160.441567 34,168.629975 34,177.442379 C34,178.854914 35.1344821,180 36.5339367,180 L101.466063,180 C102.865518,180 104,178.854914 104,177.442379 C104,168.629975 101.224127,160.441567 95.8074033,154.405248 C89.7023101,147.601819 80.6215652,143.873606 69,143.873606 Z M70.2669683,136.840149 C81.9047371,136.840149 91.3303167,127.245242 91.3303167,115.420232 C91.3303167,103.594962 81.9047915,94 70.2669683,94 C58.6291451,94 49.2036199,103.594962 49.2036199,115.420232 C49.2036199,127.245242 58.6291996,136.840149 70.2669683,136.840149 Z" id="Combined-Shape"></path>
                </g>
            </g>
        </g>
    </g>
</svg>