<svg width="18" height="18" viewBox="0 0 18 18" fill="none" xmlns="http://www.w3.org/2000/svg">
<path d="M9 17.5C13.6944 17.5 17.5 13.6944 17.5 9C17.5 4.30558 13.6944 0.5 9 0.5C4.30558 0.5 0.5 4.30558 0.5 9C0.5 13.6944 4.30558 17.5 9 17.5Z" fill="#1C1F3B" stroke="white"/>
<mask id="path-2-inside-1" fill="white">
<path fill-rule="evenodd" clip-rule="evenodd" d="M5 7.90909L9 4L13 7.90909V13H10V9H8V13H5V10V7.90909Z"/>
</mask>
<path fill-rule="evenodd" clip-rule="evenodd" d="M5 7.90909L9 4L13 7.90909V13H10V9H8V13H5V10V7.90909Z" fill="white"/>
<path d="M9 4L9.69893 3.28481L9 2.60176L8.30107 3.28481L9 4ZM5 7.90909L4.30107 7.1939L4 7.48813V7.90909H5ZM13 7.90909H14V7.48813L13.6989 7.1939L13 7.90909ZM13 13V14H14V13H13ZM10 13H9V14H10V13ZM10 9H11V8H10V9ZM8 9V8H7V9H8ZM8 13V14H9V13H8ZM5 13H4V14H5V13ZM8.30107 3.28481L4.30107 7.1939L5.69893 8.62428L9.69893 4.71519L8.30107 3.28481ZM13.6989 7.1939L9.69893 3.28481L8.30107 4.71519L12.3011 8.62428L13.6989 7.1939ZM14 13V7.90909H12V13H14ZM10 14H13V12H10V14ZM9 9V13H11V9H9ZM8 10H10V8H8V10ZM9 13V9H7V13H9ZM5 14H8V12H5V14ZM4 10V13H6V10H4ZM4 7.90909V10H6V7.90909H4Z" fill="white" mask="url(#path-2-inside-1)"/>
</svg>
