<svg width="48" height="48" viewBox="0 0 48 48" fill="none" xmlns="http://www.w3.org/2000/svg">
<mask id="path-1-inside-1_1767:98688" fill="white">
<rect x="26" y="28" width="16" height="14" rx="1"/>
</mask>
<rect x="26" y="28" width="16" height="14" rx="1" stroke="#595AD4" stroke-width="4" stroke-linejoin="round" mask="url(#path-1-inside-1_1767:98688)"/>
<path d="M33.7481 37.95L33.7481 37.9501L33.7515 37.95L33.7577 37.95H34.7685C35.0201 37.95 35.2241 37.746 35.2241 37.4944C35.2241 37.2428 35.0201 37.0389 34.7685 37.0389H34.2054V33.0612H35.7389V33.4204C35.7389 33.672 35.9428 33.876 36.1944 33.876C36.446 33.876 36.65 33.672 36.65 33.4204V33.013C36.65 32.5364 36.2636 32.15 35.787 32.15H31.713C31.2364 32.15 30.85 32.5364 30.85 33.013V33.4204C30.85 33.672 31.054 33.876 31.3056 33.876C31.5572 33.876 31.7611 33.672 31.7611 33.4204V33.0612H33.2943V37.0389H32.7315C32.4799 37.0389 32.2759 37.2428 32.2759 37.4944C32.2759 37.746 32.4799 37.95 32.7315 37.95H33.7419L33.7481 37.95Z" fill="#595AD4" stroke="#595AD4" stroke-width="0.3" stroke-linecap="round"/>
<mask id="path-3-inside-2_1767:98688" fill="white">
<rect x="26" y="6" width="16" height="19" rx="1"/>
</mask>
<rect x="26" y="6" width="16" height="19" rx="1" stroke="#595AD4" stroke-width="4" stroke-linejoin="round" mask="url(#path-3-inside-2_1767:98688)"/>
<mask id="path-4-inside-3_1767:98688" fill="white">
<rect x="6" y="6" width="17" height="36" rx="1"/>
</mask>
<rect x="6" y="6" width="17" height="36" rx="1" stroke="#595AD4" stroke-width="4" stroke-linejoin="round" mask="url(#path-4-inside-3_1767:98688)"/>
<rect x="10.5" y="19.5" width="8" height="1" rx="0.5" stroke="#595AD4" stroke-linejoin="round"/>
<rect x="10.5" y="22.5" width="8" height="1" rx="0.5" stroke="#595AD4" stroke-linejoin="round"/>
<rect x="11.5" y="25.5" width="6" height="1" rx="0.5" stroke="#595AD4" stroke-linejoin="round"/>
<path fill-rule="evenodd" clip-rule="evenodd" d="M33.9081 10.625C33.2167 10.625 32.5535 10.8997 32.0646 11.3886C31.5757 11.8775 31.301 12.5407 31.301 13.2321C31.301 13.9236 31.5757 14.5867 32.0646 15.0757C32.2923 15.3033 32.5577 15.4846 32.8462 15.6132C32.2863 15.7504 31.7548 15.9955 31.2831 16.3384C30.5202 16.893 29.9525 17.675 29.6616 18.5722C29.5875 18.8005 29.6272 19.0505 29.7684 19.2446C29.9095 19.4387 30.135 19.5536 30.375 19.5536H37.4413C37.6813 19.5536 37.9068 19.4387 38.0479 19.2446C38.1891 19.0505 38.2288 18.8005 38.1547 18.5722C37.8638 17.675 37.2961 16.893 36.5332 16.3384C36.0614 15.9955 35.53 15.7503 34.9701 15.6132C35.2586 15.4846 35.524 15.3033 35.7517 15.0757C36.2406 14.5867 36.5153 13.9236 36.5153 13.2321C36.5153 12.5407 36.2406 11.8775 35.7517 11.3886C35.2627 10.8997 34.5996 10.625 33.9081 10.625ZM33.1253 12.4493C33.3329 12.2416 33.6145 12.125 33.9081 12.125C34.2018 12.125 34.4834 12.2416 34.691 12.4493C34.8986 12.6569 35.0153 12.9385 35.0153 13.2321C35.0153 13.5258 34.8986 13.8074 34.691 14.015C34.4834 14.2226 34.2018 14.3393 33.9081 14.3393C33.6145 14.3393 33.3329 14.2226 33.1253 14.015C32.9176 13.8074 32.801 13.5258 32.801 13.2321C32.801 12.9385 32.9176 12.6569 33.1253 12.4493ZM32.1651 17.5517C32.6717 17.1834 33.2819 16.9851 33.9081 16.9851C34.5344 16.9851 35.1446 17.1834 35.6512 17.5517C35.8511 17.697 36.0308 17.8658 36.187 18.0536H31.6293C31.7855 17.8658 31.9652 17.697 32.1651 17.5517Z" fill="#595AD4"/>
</svg>
