<svg width="173" height="126" viewBox="0 0 173 126" fill="none" xmlns="http://www.w3.org/2000/svg">
<mask id="mask0_2071:79620" style="mask-type:alpha" maskUnits="userSpaceOnUse" x="30" y="13" width="113" height="101">
<path d="M86.1159 113.862C86.1159 113.862 63.0686 97.7035 53.0815 87.498C41.5579 76.4422 29.266 61.134 30.0343 43.2745C30.0343 40.7231 30.8025 38.1718 31.5707 35.6204C34.6437 24.5645 43.8626 16.06 53.8497 13.5086C59.9957 12.6582 66.1416 12.6582 71.5193 15.2095C78.4335 17.7609 81.5064 22.8636 86.1159 27.9663C90.7253 22.8636 93.7983 17.7609 100.712 15.2095C106.858 12.6582 113.004 12.6582 119.15 13.5086C129.137 16.06 138.356 24.5645 141.429 35.6204C142.198 38.1718 142.966 40.7231 142.966 43.2745C143.734 60.2835 131.442 76.4422 119.919 87.498C109.931 97.7035 86.8841 113.862 86.1159 113.862Z" fill="#00CA72"/>
</mask>
<g mask="url(#mask0_2071:79620)">
<rect width="67" height="120" transform="matrix(0 1 1 0 27 -2)" fill="white"/>
<rect width="33.6207" height="113" transform="matrix(0 1 1 0 30 45.8003)" fill="#00CA72"/>
<rect width="52.5862" height="120.014" transform="matrix(0 1 1 0 26.8828 77.6968)" fill="#3F3F91"/>
</g>
</svg>
