<svg width="113" height="101" viewBox="0 0 113 101" fill="none" xmlns="http://www.w3.org/2000/svg">
<mask id="mask0_1767:98730" style="mask-type:alpha" maskUnits="userSpaceOnUse" x="0" y="0" width="113" height="101">
<path d="M56.1159 100.862C56.1159 100.862 33.0686 84.7035 23.0815 74.498C11.5579 63.4422 -0.733988 48.134 0.0342533 30.2745C0.0342533 27.7231 0.802495 25.1718 1.57074 22.6204C4.6437 11.5645 13.8626 3.05999 23.8497 0.508636C29.9957 -0.341817 36.1416 -0.341817 41.5193 2.20954C48.4335 4.7609 51.5064 9.86362 56.1159 14.9663C60.7253 9.86362 63.7983 4.7609 70.7125 2.20954C76.8584 -0.341817 83.0043 -0.341817 89.1503 0.508636C99.1374 3.05999 108.356 11.5645 111.429 22.6204C112.198 25.1718 112.966 27.7231 112.966 30.2745C113.734 47.2835 101.442 63.4422 89.9185 74.498C79.9314 84.7035 56.8841 100.862 56.1159 100.862Z" fill="#00CA72"/>
</mask>
<g mask="url(#mask0_1767:98730)">
<rect width="67" height="120" transform="matrix(0 1 1 0 -3 -15)" fill="white"/>
<rect width="33.6207" height="113" transform="matrix(0 1 1 0 0 32.8003)" fill="#00CA72"/>
<rect width="52.5862" height="120.014" transform="matrix(0 1 1 0 -3.11719 64.6968)" fill="#3F3F91"/>
</g>
</svg>
