<svg width="48" height="48" viewBox="0 0 48 48" fill="none" xmlns="http://www.w3.org/2000/svg">
<path d="M23.9995 27.2986C25.822 27.2986 27.2994 25.8213 27.2994 23.9988C27.2994 22.1764 25.822 20.699 23.9995 20.699C22.1771 20.699 20.6997 22.1764 20.6997 23.9988C20.6997 25.8213 22.1771 27.2986 23.9995 27.2986Z" stroke="#595AD4" stroke-width="2" stroke-linecap="round" stroke-linejoin="round"/>
<path d="M29.4444 29.4444C38.0355 20.8533 42.5624 11.4513 39.5555 8.44442C36.5487 5.43753 27.1466 9.96443 18.5556 18.5555C9.96446 27.1466 5.43756 36.5486 8.44444 39.5555C11.4513 42.5624 20.8533 38.0355 29.4444 29.4444Z" stroke="#595AD4" stroke-width="2" stroke-linecap="round" stroke-linejoin="round"/>
<path d="M39.5556 39.5556C42.5624 36.5487 38.0355 27.1467 29.4444 18.5556C20.8533 9.96449 11.4513 5.43759 8.44444 8.44447C5.43756 11.4514 9.96446 20.8534 18.5556 29.4445C27.1466 38.0356 36.5487 42.5625 39.5556 39.5556Z" stroke="#595AD4" stroke-width="2" stroke-linecap="round" stroke-linejoin="round"/>
</svg>
