<svg width="48" height="48" viewBox="0 0 48 48" fill="none" xmlns="http://www.w3.org/2000/svg">
<path d="M44.0001 3L39.7216 3.47575C36.3659 3.84868 33.2369 5.35244 30.8495 7.73968L11.4062 27.1801L19.8124 35.589L39.2597 16.1486C41.6481 13.7621 43.1522 10.6334 43.5242 7.27781L44.0001 3Z" stroke="#595AD4" stroke-width="2" stroke-linecap="round" stroke-linejoin="round"/>
<path d="M11.4064 27.1803L4.22543 24.7857C3.98495 24.7058 3.76891 24.5658 3.59786 24.3789C3.42682 24.1919 3.30646 23.9644 3.24823 23.7178C3.19001 23.4712 3.19586 23.2138 3.26522 22.9702C3.33459 22.7265 3.46517 22.5046 3.64453 22.3257L4.10449 21.8658C5.66647 20.3037 7.63266 19.2074 9.78271 18.6997C11.9328 18.1921 14.1817 18.2931 16.2776 18.9914L18.7658 19.82L11.4064 27.1803Z" stroke="#595AD4" stroke-width="2" stroke-linecap="round" stroke-linejoin="round"/>
<path d="M11.4064 27.1803L4.22543 24.7857C3.98495 24.7058 3.76891 24.5658 3.59786 24.3789C3.42682 24.1919 3.30646 23.9644 3.24823 23.7178C3.19001 23.4712 3.19586 23.2138 3.26522 22.9702C3.33459 22.7265 3.46517 22.5046 3.64453 22.3257L4.10449 21.8658C5.66647 20.3037 7.63266 19.2074 9.78271 18.6997C11.9328 18.1921 14.1817 18.2931 16.2776 18.9914L18.7658 19.82L11.4064 27.1803Z" stroke="#595AD4" stroke-width="2" stroke-linecap="round" stroke-linejoin="round"/>
<path d="M19.8125 35.5891L22.2075 42.769C22.2873 43.0095 22.4274 43.2255 22.6144 43.3965C22.8013 43.5675 23.0289 43.6879 23.2755 43.7461C23.5221 43.8043 23.7795 43.7984 24.0233 43.7291C24.267 43.6597 24.4889 43.5292 24.6679 43.3498L25.1298 42.8899C26.6918 41.328 27.7878 39.362 28.2952 37.2122C28.8026 35.0625 28.7013 32.814 28.0026 30.7186L27.1778 28.2407L19.8125 35.5891Z" stroke="#595AD4" stroke-width="2" stroke-linecap="round" stroke-linejoin="round"/>
<path d="M19.8125 35.5891L22.2075 42.769C22.2873 43.0095 22.4274 43.2255 22.6144 43.3965C22.8013 43.5675 23.0289 43.6879 23.2755 43.7461C23.5221 43.8043 23.7795 43.7984 24.0233 43.7291C24.267 43.6597 24.4889 43.5292 24.6679 43.3498L25.1298 42.8899C26.6918 41.328 27.7878 39.362 28.2952 37.2122C28.8026 35.0625 28.7013 32.814 28.0026 30.7186L27.1778 28.2407L19.8125 35.5891Z" stroke="#595AD4" stroke-width="2" stroke-linecap="round" stroke-linejoin="round"/>
<path d="M14.8143 36.6416C14.815 37.2274 14.7 37.8077 14.4758 38.3489C14.2516 38.8901 13.9226 39.3817 13.5077 39.7955C11.767 41.5359 3 43.9999 3 43.9999C3 43.9999 5.46436 35.2282 7.20508 33.4937C7.96975 32.7273 8.98751 32.2657 10.0679 32.1953" stroke="#595AD4" stroke-width="2" stroke-linecap="round" stroke-linejoin="round"/>
</svg>
