<svg width="173" height="126" viewBox="0 0 173 126" fill="none" xmlns="http://www.w3.org/2000/svg">
<path d="M42 31H71C78.732 31 85 37.268 85 45V65.5C85 73.232 91.268 79.5 99 79.5H123.5" stroke="#3F3F91" stroke-width="7"/>
<path d="M153.296 75.4713C153.576 86.2239 132.362 112.822 132.362 112.822C132.362 112.822 109.789 87.3673 109.508 76.6148C109.374 71.4506 111.551 66.4377 115.561 62.6789C119.572 58.9201 125.087 56.7232 130.894 56.5716C136.7 56.42 142.322 58.326 146.524 61.8704C150.725 65.4148 153.161 70.3072 153.296 75.4713V75.4713Z" fill="white"/>
<path d="M32.8 13.2896C34.2604 13.0974 35.7396 13.0974 37.2 13.2896V13.2896C38.6603 13.4819 40.0891 13.8647 41.45 14.4284V14.4284C42.8108 14.9921 44.0918 15.7317 45.2604 16.6284V16.6284C46.429 17.525 47.475 18.571 48.3716 19.7396V19.7396C49.2683 20.9082 50.0079 22.1892 50.5716 23.55V23.55C51.1353 24.9109 51.5181 26.3397 51.7104 27.8V27.8C51.9026 29.2604 51.9026 30.7396 51.7104 32.2V32.2C51.5181 33.6603 51.1353 35.0891 50.5716 36.45V36.45C50.0079 37.8108 49.2683 39.0918 48.3716 40.2604V40.2604C47.475 41.429 46.429 42.475 45.2604 43.3716V43.3716C44.0918 44.2683 42.8108 45.0079 41.45 45.5716V45.5716C40.0891 46.1353 38.6603 46.5181 37.2 46.7104V46.7104C35.7396 46.9026 34.2604 46.9026 32.8 46.7104V46.7104C31.3397 46.5181 29.9109 46.1353 28.55 45.5716V45.5716C27.1892 45.0079 25.9082 44.2683 24.7396 43.3716V43.3716C23.571 42.475 22.525 41.429 21.6284 40.2604V40.2604C20.7317 39.0918 19.9921 37.8108 19.4284 36.45V36.45C18.8647 35.0891 18.4819 33.6603 18.2896 32.2V32.2C18.0974 30.7396 18.0974 29.2604 18.2896 27.8V27.8C18.4819 26.3397 18.8647 24.9109 19.4284 23.55V23.55C19.9921 22.1892 20.7317 20.9082 21.6284 19.7396V19.7396C22.525 18.571 23.571 17.525 24.7396 16.6284V16.6284C25.9082 15.7317 27.1892 14.9921 28.55 14.4284V14.4284C29.9109 13.8647 31.3397 13.4819 32.8 13.2896V13.2896Z" fill="#00CA72"/>
</svg>
