<svg width="99" height="99" viewBox="0 0 99 99" fill="none" xmlns="http://www.w3.org/2000/svg">
<circle cx="49.5" cy="49.5" r="49.5" fill="white"/>
<mask id="mask0_1767:98712" style="mask-type:alpha" maskUnits="userSpaceOnUse" x="0" y="0" width="99" height="99">
<circle cx="49.4791" cy="49.4791" r="49.4791" fill="#3F3F91"/>
</mask>
<g mask="url(#mask0_1767:98712)">
<circle cx="49.4792" cy="127.065" r="54.1635" fill="#00CA72"/>
</g>
<path d="M46.3003 14.3982C46.3003 12.7006 47.7508 11.2927 49.4999 11.2927C51.249 11.2927 52.6995 12.7006 52.6995 14.3982V20.6093C52.6995 22.3069 51.249 23.7148 49.4999 23.7148C47.7508 23.7148 46.3003 22.3069 46.3003 20.6093V14.3982Z" fill="#3F3F91"/>
<path d="M20.6093 52.6998H14.3982C12.7006 52.6998 11.2927 51.2493 11.2927 49.5002C11.2927 47.751 12.7006 46.3005 14.3982 46.3005H20.6093C22.3069 46.3005 23.7148 47.751 23.7148 49.5002C23.7148 51.2493 22.3069 52.6998 20.6093 52.6998Z" fill="#3F3F91"/>
<path d="M31.0968 31.0963C29.8977 32.2962 27.9128 32.2962 26.7136 31.0963L22.3304 26.7107C21.1313 25.4695 21.1726 23.525 22.4131 22.3251C23.6123 21.1667 25.5145 21.1667 26.7136 22.3251L31.0968 26.7107C32.296 27.9106 32.296 29.8965 31.0968 31.0963Z" fill="#3F3F91"/>
<path d="M49.0857 59.4742C43.6394 59.5561 39.1909 55.2563 39.1494 49.8918C39.1078 47.271 40.1887 44.7321 42.1012 42.8893C45.2608 39.7771 71.3698 23.9293 74.3632 22.1275C75.361 21.5542 76.6082 21.8408 77.2318 22.7827C77.6476 23.4379 77.6476 24.2569 77.2318 24.9121C75.4025 27.8196 59.3131 53.5773 56.1534 56.6896C54.241 58.4914 51.7049 59.4742 49.0857 59.4742Z" fill="#3F3F91"/>
<path d="M78.3907 52.6998C76.693 52.6998 75.2852 51.2493 75.2852 49.5002C75.2852 47.751 76.693 46.3005 78.3907 46.3005H84.6017C86.2994 46.3005 87.7072 47.751 87.7072 49.5002C87.7072 51.2493 86.2994 52.6998 84.6017 52.6998H78.3907Z" fill="#3F3F91"/>
</svg>
