<svg width="32" height="32" viewBox="0 0 32 32" fill="none" xmlns="http://www.w3.org/2000/svg">
<path d="M14.7467 14.3904C13.5992 13.3769 12.1192 12.8204 10.5882 12.8269C9.07263 12.815 7.60537 13.3597 6.46474 14.3578C5.3241 15.3558 4.58941 16.7378 4.4 18.2415" stroke="#676879" stroke-width="1.5" stroke-linecap="round" stroke-linejoin="round"/>
<path d="M7.10711 7.80119C7.10711 8.72437 7.47385 9.60975 8.12664 10.2625C8.77943 10.9153 9.6648 11.2821 10.588 11.2821C11.5112 11.2821 12.3965 10.9153 13.0493 10.2625C13.7021 9.60975 14.0689 8.72437 14.0689 7.80119C14.0689 6.878 13.7021 5.99263 13.0493 5.33984C12.3965 4.68705 11.5112 4.32031 10.588 4.32031C9.6648 4.32031 8.77943 4.68705 8.12664 5.33984C7.47385 5.99263 7.10711 6.878 7.10711 7.80119V7.80119Z" stroke="#676879" stroke-width="1.5" stroke-linecap="round" stroke-linejoin="round"/>
<path d="M17.937 7.02766C17.937 7.74569 18.2223 8.43432 18.73 8.94204C19.2377 9.44977 19.9263 9.73501 20.6444 9.73501C21.3624 9.73501 22.051 9.44977 22.5588 8.94204C23.0665 8.43432 23.3517 7.74569 23.3517 7.02766C23.3517 6.30963 23.0665 5.621 22.5588 5.11328C22.051 4.60555 21.3624 4.32031 20.6444 4.32031C19.9263 4.32031 19.2377 4.60555 18.73 5.11328C18.2223 5.621 17.937 6.30963 17.937 7.02766V7.02766Z" stroke="#676879" stroke-width="1.5" stroke-linecap="round" stroke-linejoin="round"/>
<path d="M24.6664 12.8263C24.2971 12.1872 23.7807 11.6453 23.1601 11.2457C22.5395 10.8461 21.8325 10.6003 21.0978 10.5287C20.3632 10.4571 19.622 10.5618 18.9359 10.834C18.2498 11.1063 17.6385 11.5382 17.1528 12.094" stroke="#676879" stroke-width="1.5" stroke-linecap="round" stroke-linejoin="round"/>
<path d="M15.229 21.3318C15.229 22.973 15.881 24.547 17.0415 25.7075C18.202 26.868 19.776 27.52 21.4172 27.52C23.0584 27.52 24.6324 26.868 25.793 25.7075C26.9535 24.547 27.6054 22.973 27.6054 21.3318C27.6054 19.6906 26.9535 18.1166 25.793 16.956C24.6324 15.7955 23.0584 15.1436 21.4172 15.1436C19.776 15.1436 18.202 15.7955 17.0415 16.956C15.881 18.1166 15.229 19.6906 15.229 21.3318Z" stroke="#676879" stroke-width="1.5" stroke-linecap="round" stroke-linejoin="round"/>
<line x1="21.55" y1="18" x2="21.55" y2="25" stroke="#676879" stroke-width="1.5"/>
<line x1="18" y1="21.4502" x2="25" y2="21.4502" stroke="#676879" stroke-width="1.5"/>
</svg>
