<svg width="20" height="20" viewBox="0 0 20 20" fill="none" xmlns="http://www.w3.org/2000/svg">
<path fill-rule="evenodd" clip-rule="evenodd" d="M2.68243 2.68243C3.15127 2.21359 3.78715 1.9502 4.4502 1.9502C5.11324 1.9502 5.74912 2.21359 6.21796 2.68243C6.6868 3.15127 6.9502 3.78715 6.9502 4.4502C6.9502 4.85645 6.85131 5.25252 6.66687 5.60621L10.5135 9.45284C11.3188 8.86956 12.2928 8.5498 13.2998 8.5498L13.3252 8.54987L13.6921 6.71533C13.4308 6.59328 13.1901 6.42581 12.9822 6.21796C12.5134 5.74912 12.25 5.11324 12.25 4.4502C12.25 3.78715 12.5134 3.15127 12.9822 2.68243C13.4511 2.21359 14.087 1.9502 14.75 1.9502C15.413 1.9502 16.0489 2.21359 16.5178 2.68243C16.9866 3.15127 17.25 3.78715 17.25 4.4502C17.25 5.11324 16.9866 5.74912 16.5178 6.21796C16.1521 6.58362 15.6849 6.8243 15.1823 6.91254L14.8059 8.79489C15.4975 9.02612 16.1332 9.4157 16.6586 9.94105C17.5494 10.8318 18.0498 12.04 18.0498 13.2998C18.0498 14.5596 17.5494 15.7678 16.6586 16.6586C15.7678 17.5494 14.5596 18.0498 13.2998 18.0498C12.04 18.0498 10.8318 17.5494 9.94105 16.6586C9.4157 16.1332 9.02612 15.4975 8.79489 14.8059L6.91254 15.1823C6.8243 15.6849 6.58362 16.1521 6.21796 16.5178C5.74912 16.9866 5.11324 17.25 4.4502 17.25C3.78715 17.25 3.15127 16.9866 2.68243 16.5178C2.21359 16.0489 1.9502 15.413 1.9502 14.75C1.9502 14.087 2.21359 13.4511 2.68243 12.9822C3.15127 12.5134 3.78715 12.25 4.4502 12.25C5.11324 12.25 5.74912 12.5134 6.21796 12.9822C6.42581 13.1901 6.59328 13.4308 6.71533 13.6921L8.54987 13.3252C8.54983 13.3167 8.5498 13.3083 8.5498 13.2998C8.5498 12.2928 8.86956 11.3188 9.45284 10.5135L5.60621 6.66687C5.25252 6.85131 4.85645 6.9502 4.4502 6.9502C3.78715 6.9502 3.15127 6.6868 2.68243 6.21796C2.21359 5.74912 1.9502 5.11324 1.9502 4.4502C1.9502 3.78715 2.21359 3.15127 2.68243 2.68243ZM4.4502 3.4502C4.18498 3.4502 3.93062 3.55555 3.74309 3.74309C3.55555 3.93062 3.4502 4.18498 3.4502 4.4502C3.4502 4.71541 3.55555 4.96977 3.74309 5.1573C3.93062 5.34484 4.18498 5.4502 4.4502 5.4502C4.71541 5.4502 4.96977 5.34484 5.1573 5.1573C5.34484 4.96977 5.4502 4.71541 5.4502 4.4502C5.4502 4.18498 5.34484 3.93062 5.1573 3.74309C4.96977 3.55555 4.71541 3.4502 4.4502 3.4502ZM13.2998 10.0498C12.4379 10.0498 11.6112 10.3922 11.0017 11.0017C10.3922 11.6112 10.0498 12.4379 10.0498 13.2998C10.0498 14.1618 10.3922 14.9884 11.0017 15.5979C11.6112 16.2074 12.4379 16.5498 13.2998 16.5498C14.1618 16.5498 14.9884 16.2074 15.5979 15.5979C16.2074 14.9884 16.5498 14.1618 16.5498 13.2998C16.5498 12.4379 16.2074 11.6112 15.5979 11.0017C14.9884 10.3922 14.1618 10.0498 13.2998 10.0498ZM3.74309 14.0429C3.93062 13.8554 4.18498 13.75 4.4502 13.75C4.71541 13.75 4.96977 13.8554 5.1573 14.0429C5.34484 14.2304 5.4502 14.4848 5.4502 14.75C5.4502 15.0152 5.34484 15.2696 5.1573 15.4571C4.96977 15.6446 4.71541 15.75 4.4502 15.75C4.18498 15.75 3.93062 15.6446 3.74309 15.4571C3.55555 15.2696 3.4502 15.0152 3.4502 14.75C3.4502 14.4848 3.55555 14.2304 3.74309 14.0429ZM14.75 3.4502C14.4848 3.4502 14.2304 3.55555 14.0429 3.74309C13.8554 3.93062 13.75 4.18498 13.75 4.4502C13.75 4.71541 13.8554 4.96977 14.0429 5.1573C14.2304 5.34484 14.4848 5.4502 14.75 5.4502C15.0152 5.4502 15.2696 5.34484 15.4571 5.1573C15.6446 4.96977 15.75 4.71541 15.75 4.4502C15.75 4.18498 15.6446 3.93062 15.4571 3.74309C15.2696 3.55555 15.0152 3.4502 14.75 3.4502Z" fill="currentColor"/>
</svg>
