<svg width="20" height="20" viewBox="0 0 20 20" fill="none" xmlns="http://www.w3.org/2000/svg">
<path fill-rule="evenodd" clip-rule="evenodd" d="M8.55211 2C6.94464 2 5.63997 3.29644 5.62665 4.90077H4.21514C2.99175 4.90077 2 5.89253 2 7.11592V15.7887C2 17.012 2.99175 18.0038 4.21514 18.0038H12.8879C14.1113 18.0038 15.103 17.012 15.103 15.7887V14.3777C16.707 14.3639 18.0029 13.0595 18.0029 11.4523C18.0029 9.84509 16.707 8.5406 15.103 8.52682V7.11592C15.103 5.89253 14.1113 4.90077 12.8879 4.90077H11.4776C11.4643 3.29644 10.1596 2 8.55211 2ZM7.12654 4.92557C7.12654 4.13825 7.76479 3.5 8.55211 3.5C9.33943 3.5 9.97768 4.13825 9.97768 4.92557C9.97768 5.09353 9.94895 5.25316 9.89675 5.40083C9.81562 5.63038 9.85095 5.88503 9.99153 6.08381C10.1321 6.28259 10.3604 6.40077 10.6039 6.40077H12.8879C13.2828 6.40077 13.603 6.72095 13.603 7.11592V9.4002C13.603 9.6436 13.7212 9.87188 13.9199 10.0125C14.1186 10.153 14.3731 10.1884 14.6027 10.1074C14.7502 10.0554 14.9096 10.0267 15.0774 10.0267C15.8647 10.0267 16.5029 10.665 16.5029 11.4523C16.5029 12.2396 15.8647 12.8778 15.0774 12.8778C14.9096 12.8778 14.7502 12.8492 14.6027 12.7971C14.3731 12.7161 14.1186 12.7515 13.9199 12.8921C13.7212 13.0327 13.603 13.2609 13.603 13.5044V15.7887C13.603 16.1836 13.2828 16.5038 12.8879 16.5038H4.21514C3.82018 16.5038 3.5 16.1836 3.5 15.7887V7.11592C3.5 6.72095 3.82018 6.40077 4.21514 6.40077H6.50034C6.74381 6.40077 6.97212 6.28259 7.1127 6.08381C7.25327 5.88503 7.28861 5.63038 7.20747 5.40083C7.15528 5.25316 7.12654 5.09353 7.12654 4.92557ZM8.54997 9.25202C8.13576 9.25202 7.79997 9.5878 7.79997 10.002V10.7025H7.10111C6.68689 10.7025 6.35111 11.0382 6.35111 11.4525C6.35111 11.8667 6.68689 12.2025 7.10111 12.2025H7.79997V12.9028C7.79997 13.317 8.13576 13.6528 8.54997 13.6528C8.96418 13.6528 9.29997 13.317 9.29997 12.9028V12.2025H10.0019C10.4161 12.2025 10.7519 11.8667 10.7519 11.4525C10.7519 11.0383 10.4161 10.7025 10.0019 10.7025H9.29997V10.002C9.29997 9.5878 8.96418 9.25202 8.54997 9.25202Z" fill="#676879"/>
</svg>
