<svg width="20" height="20" viewBox="0 0 20 20" fill="none" xmlns="http://www.w3.org/2000/svg">
<path fill-rule="evenodd" clip-rule="evenodd" d="M5.6579 4.88C5.6579 3.28943 6.9472 2 8.53766 2C10.1281 2 11.4174 3.28943 11.4174 4.88C11.4174 4.89526 11.4173 4.91051 11.4171 4.92572H13.0502C14.1675 4.92572 15.0732 5.83153 15.0732 6.94891V8.58332C15.0889 8.58307 15.1045 8.58295 15.1202 8.58295C16.7107 8.58295 18 9.87237 18 11.4629C18 13.0535 16.7107 14.3429 15.1202 14.3429C15.1045 14.3429 15.0889 14.3428 15.0732 14.3426V15.9768C15.0732 17.0942 14.1675 18 13.0502 18H4.02304C2.90574 18 2 17.0942 2 15.9768V13.5322C2 13.3096 2.10806 13.1009 2.28982 12.9723C2.47157 12.8438 2.70441 12.8115 2.91427 12.8858C3.07072 12.9411 3.23976 12.9715 3.41737 12.9715C4.25045 12.9715 4.9258 12.2961 4.9258 11.4629C4.9258 10.6298 4.25045 9.95437 3.41737 9.95437C3.23975 9.95437 3.07072 9.98478 2.91427 10.0401C2.70441 10.1143 2.47157 10.0821 2.28982 9.95353C2.10806 9.82501 2 9.61625 2 9.39363V6.9489C2 5.83153 2.90575 4.92572 4.02304 4.92572H5.65825C5.65802 4.91051 5.6579 4.89526 5.6579 4.88ZM8.53766 3.37143C7.70458 3.37143 7.02923 4.04683 7.02923 4.88C7.02923 5.05755 7.05961 5.22652 7.11489 5.38292C7.18906 5.5928 7.15675 5.82562 7.02824 6.00736C6.89972 6.1891 6.69099 6.29715 6.46841 6.29715H4.02304C3.66311 6.29715 3.37133 6.58895 3.37133 6.9489V8.5833C3.38665 8.58306 3.402 8.58294 3.41737 8.58294C5.00783 8.58294 6.29714 9.87237 6.29714 11.4629C6.29714 13.0535 5.00783 14.3429 3.41737 14.3429C3.402 14.3429 3.38665 14.3428 3.37133 14.3426V15.9768C3.37133 16.3368 3.66311 16.6286 4.02304 16.6286H13.0502C13.4101 16.6286 13.7019 16.3368 13.7019 15.9768V13.5319C13.7019 13.3092 13.81 13.1004 13.9918 12.9719C14.1737 12.8434 14.4066 12.8112 14.6165 12.8855C14.7731 12.941 14.9424 12.9715 15.1202 12.9715C15.9533 12.9715 16.6287 12.2961 16.6287 11.4629C16.6287 10.6298 15.9533 9.95438 15.1202 9.95438C14.9424 9.95438 14.7731 9.98488 14.6165 10.0404C14.4066 10.1147 14.1737 10.0825 13.9918 9.95399C13.81 9.82548 13.7019 9.61667 13.7019 9.39399V6.94891C13.7019 6.58895 13.4101 6.29715 13.0502 6.29715H10.6069C10.3843 6.29715 10.1756 6.1891 10.0471 6.00736C9.91857 5.82562 9.88626 5.5928 9.96044 5.38292C10.0157 5.22652 10.0461 5.05755 10.0461 4.88C10.0461 4.04683 9.37074 3.37143 8.53766 3.37143Z" fill="currentColor"/>
</svg>
