<svg width="256" height="256" viewBox="0 0 256 256" fill="none" xmlns="http://www.w3.org/2000/svg">
<path d="M94.423 58.88C91.3475 55.1332 85.7382 54.7414 82.0613 58.0565C78.3917 61.3483 77.9918 67.0667 81.0232 70.9028L81.1026 71.0032L121.398 113.912C122.974 115.836 125.432 117 128.001 117C130.627 117 133.066 115.791 134.721 113.776L174.766 71.1563L174.842 71.0614C176.279 69.2602 177 67.1846 177 65.031C177 62.4068 175.93 59.8466 173.932 58.0523C170.201 54.6885 164.6 55.1929 161.444 59.0299L128.001 94.1403L94.423 58.88Z" fill="currentColor"/>
<path d="M161.577 197.12C164.652 200.867 170.262 201.259 173.939 197.943C177.608 194.652 178.008 188.933 174.977 185.097L174.897 184.997L134.602 142.088C133.026 140.164 130.568 139 127.999 139C125.373 139 122.934 140.209 121.279 142.224L81.2337 184.844L81.158 184.939C79.7209 186.74 78.9999 188.815 78.9999 190.969C78.9999 193.593 80.0701 196.153 82.0683 197.948C85.7986 201.311 91.3997 200.807 94.5559 196.97L127.999 161.86L161.577 197.12Z" fill="currentColor"/>
<path fill-rule="evenodd" clip-rule="evenodd" d="M256 128C256 198.692 198.692 256 128 256C57.3076 256 0 198.692 0 128C0 57.3076 57.3076 0 128 0C198.692 0 256 57.3076 256 128ZM240 128C240 189.856 189.856 240 128 240C66.1441 240 16 189.856 16 128C16 66.1441 66.1441 16 128 16C189.856 16 240 66.1441 240 128Z" fill="currentColor"/>
</svg>
