<svg width="20" height="20" viewBox="0 0 20 20"  xmlns="http://www.w3.org/2000/svg">

<path fill-rule="evenodd" clip-rule="evenodd" d="M10 12.7175L10.5303 13.2478C10.2374 13.5407 9.76256 13.5407 9.46967 13.2478L10 12.7175ZM8 11.7782L8.00808 11.7863L8.01759 11.7958L8.02709 11.8053L8.03656 11.8147L8.04602 11.8242L8.05546 11.8336L8.06488 11.8431L8.07428 11.8525L8.08367 11.8618L8.09303 11.8712L8.10238 11.8806L8.11171 11.8899L8.12102 11.8992L8.13032 11.9085L8.13959 11.9178L8.14884 11.927L8.15808 11.9363L8.16729 11.9455L8.17649 11.9547L8.18566 11.9638L8.19482 11.973L8.20396 11.9821L8.21307 11.9912L8.22217 12.0003L8.23124 12.0094L8.24029 12.0185L8.24933 12.0275L8.25834 12.0365L8.26733 12.0455L8.2763 12.0545L8.28525 12.0634L8.29417 12.0724L8.30308 12.0813L8.31196 12.0901L8.32082 12.099L8.32966 12.1078L8.33848 12.1167L8.34727 12.1254L8.35604 12.1342L8.36479 12.143L8.37352 12.1517L8.38222 12.1604L8.3909 12.1691L8.39955 12.1777L8.40819 12.1864L8.4168 12.195L8.42538 12.2036L8.43394 12.2121L8.44248 12.2207L8.45099 12.2292L8.45948 12.2377L8.46794 12.2461L8.47638 12.2546L8.4848 12.263L8.49319 12.2714L8.50155 12.2797L8.50989 12.2881L8.5182 12.2964L8.52649 12.3047L8.53475 12.3129L8.54299 12.3212L8.5512 12.3294L8.55938 12.3376L8.56754 12.3457L8.57567 12.3539L8.58378 12.362L8.59185 12.37L8.59991 12.3781L8.60793 12.3861L8.61593 12.3941L8.6239 12.4021L8.63184 12.41L8.63975 12.4179L8.64764 12.4258L8.6555 12.4337L8.66333 12.4415L8.67113 12.4493L8.6789 12.4571L8.68665 12.4648L8.69436 12.4725L8.70205 12.4802L8.70971 12.4879L8.71734 12.4955L8.72494 12.5031L8.73251 12.5107L8.74005 12.5182L8.74756 12.5257L8.75504 12.5332L8.7625 12.5407L8.76992 12.5481L8.77731 12.5555L8.78467 12.5628L8.792 12.5702L8.7993 12.5775L8.80657 12.5847L8.8138 12.592L8.82101 12.5992L8.82819 12.6064L8.83533 12.6135L8.84244 12.6206L8.84952 12.6277L8.85657 12.6347L8.86358 12.6418L8.87057 12.6487L8.87752 12.6557L8.88444 12.6626L8.89132 12.6695L8.89817 12.6764L8.90499 12.6832L8.91178 12.69L8.91853 12.6967L8.92525 12.7034L8.93194 12.7101L8.93859 12.7168L8.94521 12.7234L8.9518 12.73L8.95835 12.7365L8.96487 12.743L8.97135 12.7495L8.97779 12.756L8.98421 12.7624L8.99058 12.7688L8.99693 12.7751L9.00323 12.7814L9.00951 12.7877L9.01574 12.7939L9.02194 12.8001L9.02811 12.8063L9.03424 12.8124L9.04033 12.8185L9.04639 12.8246L9.05241 12.8306L9.05839 12.8366L9.06434 12.8425L9.07025 12.8484L9.07612 12.8543L9.08196 12.8601L9.08776 12.8659L9.09352 12.8717L9.09924 12.8774L9.10493 12.8831L9.11058 12.8888L9.11619 12.8944L9.12176 12.8999L9.12729 12.9055L9.13279 12.911L9.13825 12.9164L9.14366 12.9218L9.14904 12.9272L9.15438 12.9326L9.15968 12.9379L9.16495 12.9431L9.17017 12.9483L9.17535 12.9535L9.18049 12.9587L9.1856 12.9638L9.19066 12.9688L9.19568 12.9739L9.20066 12.9788L9.2056 12.9838L9.2105 12.9887L9.21536 12.9935L9.22018 12.9984L9.22496 13.0031L9.2297 13.0079L9.23439 13.0126L9.23904 13.0172L9.24366 13.0218L9.24823 13.0264L9.25275 13.0309L9.25724 13.0354L9.26168 13.0399L9.26608 13.0443L9.27044 13.0486L9.27476 13.0529L9.27903 13.0572L9.28326 13.0614L9.28744 13.0656L9.29159 13.0698L9.29569 13.0739L9.29974 13.0779L9.30375 13.0819L9.30772 13.0859L9.31165 13.0898L9.31553 13.0937L9.31936 13.0975L9.32315 13.1013L9.3269 13.1051L9.3306 13.1088L9.33425 13.1124L9.33786 13.116L9.34143 13.1196L9.34495 13.1231L9.34842 13.1266L9.35185 13.13L9.35524 13.1334L9.35857 13.1368L9.36187 13.14L9.36511 13.1433L9.36831 13.1465L9.37146 13.1496L9.37456 13.1527L9.37762 13.1558L9.38063 13.1588L9.3836 13.1618L9.38651 13.1647L9.38938 13.1676L9.3922 13.1704L9.39498 13.1732L9.3977 13.1759L9.40038 13.1786L9.40301 13.1812L9.40559 13.1838L9.40812 13.1863L9.4106 13.1888L9.41304 13.1912L9.41542 13.1936L9.41776 13.1959L9.42005 13.1982L9.42228 13.2005L9.42447 13.2027L9.42661 13.2048L9.4287 13.2069L9.43074 13.2089L9.43273 13.2109L9.43466 13.2128L9.43655 13.2147L9.43839 13.2166L9.44017 13.2184L9.44191 13.2201L9.44359 13.2218L9.44523 13.2234L9.44681 13.225L9.44834 13.2265L9.44982 13.228L9.45124 13.2294L9.45262 13.2308L9.45394 13.2321L9.45521 13.2334L9.45643 13.2346L9.45759 13.2358L9.45871 13.2369L9.45977 13.2379L9.46077 13.239L9.46173 13.2399L9.46263 13.2408L9.46348 13.2417L9.46427 13.2424L9.46501 13.2432L9.4657 13.2439L9.46633 13.2445L9.4669 13.2451L9.46743 13.2456L9.4679 13.2461L9.46831 13.2465L9.46867 13.2468L9.46898 13.2472L9.46922 13.2474L9.46942 13.2476L9.46956 13.2477L9.46964 13.2478L10 12.7175L10.5304 13.2478L10.5306 13.2476L10.531 13.2472L10.5315 13.2467L10.5321 13.2461L10.5328 13.2453L10.5338 13.2444L10.5348 13.2434L10.536 13.2422L10.5373 13.2409L10.5387 13.2394L10.5403 13.2378L10.5421 13.2361L10.5439 13.2343L10.5459 13.2323L10.548 13.2301L10.5503 13.2279L10.5527 13.2255L10.5552 13.223L10.5579 13.2203L10.5607 13.2175L10.5636 13.2146L10.5666 13.2116L10.5698 13.2084L10.5731 13.2051L10.5765 13.2016L10.5801 13.1981L10.5838 13.1944L10.5876 13.1906L10.5916 13.1866L10.5956 13.1825L10.5998 13.1783L10.6042 13.174L10.6086 13.1696L10.6132 13.165L10.6179 13.1603L10.6227 13.1555L10.6277 13.1505L10.6327 13.1455L10.6379 13.1403L10.6432 13.135L10.6487 13.1295L10.6542 13.124L10.6599 13.1183L10.6657 13.1125L10.6716 13.1066L10.6776 13.1006L10.6838 13.0944L10.69 13.0881L10.6964 13.0818L10.7029 13.0752L10.7095 13.0686L10.7163 13.0619L10.7231 13.055L10.7301 13.0481L10.7372 13.041L10.7444 13.0338L10.7517 13.0265L10.7591 13.0191L10.7666 13.0116L10.7743 13.0039L10.782 12.9962L10.7899 12.9883L10.7979 12.9803L10.806 12.9722L10.8142 12.964L10.8225 12.9557L10.8309 12.9473L10.8394 12.9388L10.848 12.9301L10.8568 12.9214L10.8656 12.9126L10.8746 12.9036L10.8836 12.8946L10.8928 12.8854L10.9021 12.8761L10.9114 12.8668L10.9209 12.8573L10.9305 12.8477L10.9402 12.838L10.9499 12.8282L10.9598 12.8183L10.9698 12.8084L10.9799 12.7983L10.9901 12.7881L11.0004 12.7778L11.0108 12.7674L11.0213 12.7569L11.0319 12.7463L11.0425 12.7356L11.0533 12.7249L11.0642 12.714L11.0752 12.703L11.0862 12.6919L11.0974 12.6808L11.1087 12.6695L11.12 12.6581L11.1315 12.6467L11.143 12.6351L11.1547 12.6235L11.1664 12.6118L11.1782 12.5999L11.1902 12.588L11.2022 12.576L11.2143 12.5639L11.2264 12.5517L11.2387 12.5395L11.2511 12.5271L11.2636 12.5146L11.2761 12.5021L11.2887 12.4894L11.3015 12.4767L11.3143 12.4639L11.3272 12.451L11.3401 12.438L11.3532 12.425L11.3664 12.4118L11.3796 12.3986L11.3929 12.3853L11.4063 12.3719L11.4198 12.3584L11.4334 12.3448L11.447 12.3311L11.4608 12.3174L11.4746 12.3036L11.4885 12.2897L11.5025 12.2757L11.5165 12.2617L11.5307 12.2475L11.5449 12.2333L11.5592 12.219L11.5735 12.2046L11.588 12.1902L11.6025 12.1757L11.6171 12.1611L11.6318 12.1464L11.6466 12.1316L11.6614 12.1168L11.6763 12.1019L11.6913 12.0869L11.7063 12.0719L11.7214 12.0567L11.7366 12.0415L11.7519 12.0263L11.7673 12.0109L11.7827 11.9955L11.7981 11.98L11.8137 11.9645L11.8293 11.9489L11.845 11.9332L11.8608 11.9174L11.8766 11.9016L11.8925 11.8857L11.9085 11.8697L11.9245 11.8537L11.9406 11.8376L11.9568 11.8214L11.973 11.8052L11.9893 11.7889L12.0057 11.7725L12.0221 11.7561L12.0386 11.7396L12.0551 11.7231L12.0717 11.7065L12.0884 11.6898L12.1051 11.673L12.1219 11.6562L12.1388 11.6394L12.1557 11.6225L12.1727 11.6055L12.1897 11.5885L12.2068 11.5714L12.224 11.5542L12.2412 11.537L12.2585 11.5197L12.2758 11.5024L12.2932 11.485L12.3106 11.4676L12.3281 11.4501L12.3456 11.4325L12.3632 11.4149L12.3809 11.3973L12.3986 11.3796L12.4164 11.3618L12.4342 11.344L12.4521 11.3261L12.47 11.3082L12.4879 11.2902L12.506 11.2722L12.524 11.2541L12.5422 11.236L12.5603 11.2179L12.5785 11.1996L12.5968 11.1814L12.6151 11.1631L12.6335 11.1447L12.6519 11.1263L12.6703 11.1078L12.6888 11.0893L12.7074 11.0708L12.726 11.0522L12.7446 11.0336L12.7633 11.0149L12.782 10.9962L12.8008 10.9774L12.8196 10.9586L12.8384 10.9398L12.8573 10.9209L12.8762 10.9019L12.8952 10.883L12.9142 10.864L12.9333 10.8449L12.9524 10.8258L12.9715 10.8067L12.9907 10.7875L13.0099 10.7683L13.0291 10.7491L13.0484 10.7298L13.0677 10.7105L13.087 10.6911L13.1064 10.6718L13.1258 10.6523L13.1453 10.6329L13.1648 10.6134L13.1843 10.5939L13.2039 10.5743L13.2234 10.5547L13.2431 10.5351L13.2627 10.5155L13.2824 10.4958L13.3021 10.4761L13.3218 10.4563L13.3416 10.4366L13.3614 10.4168L13.3812 10.3969L13.4011 10.3771L13.421 10.3572L13.4409 10.3373L13.4608 10.3174L13.4808 10.2974L13.5008 10.2774L13.5208 10.2574L13.5408 10.2374L13.5609 10.2173L13.581 10.1972L13.6011 10.1771L13.6212 10.157L13.6413 10.1368L13.6615 10.1167L13.6817 10.0965L13.7019 10.0763L13.7222 10.056L13.7424 10.0358L13.7627 10.0155L13.783 9.99519L13.8033 9.97488L13.8236 9.95455L13.844 9.9342L13.8643 9.91383L13.8847 9.89345L13.9051 9.87305L13.9255 9.85264L13.946 9.83221L13.9664 9.81177L13.9869 9.79131L14.0073 9.77084L14.0278 9.75036L14.0483 9.72987L14.0688 9.70936L14.0893 9.68884L14.1099 9.66831L14.1304 9.64777L14.151 9.62722L14.1715 9.60666L14.1921 9.58609L14.2127 9.56551L14.2333 9.54492L14.2539 9.52432L14.2745 9.50372L14.2951 9.48311L14.3157 9.4625L14.3363 9.44188L14.3569 9.42125L14.3776 9.40062L14.3982 9.37998L14.4188 9.35934L14.4395 9.3387L14.4601 9.31805L14.4808 9.2974L14.5014 9.27675L14.5221 9.2561L14.5427 9.23545L14.5634 9.21479L14.584 9.19414L14.6047 9.17348L14.6253 9.15283L14.646 9.13218L14.6666 9.11153L14.6873 9.09088L14.7079 9.07024L14.7286 9.0496L14.7492 9.02896L14.7699 9.00833L14.7905 8.9877L14.8111 8.96707L14.8317 8.94646L14.8523 8.92584L14.8729 8.90524L14.8935 8.88464L14.9141 8.86405L14.9347 8.84347L14.9553 8.82289L14.9758 8.80233L14.9964 8.78177L15.0169 8.76123L15.0375 8.74069L15.058 8.72017L15.0785 8.69966L15.099 8.67916L15.1195 8.65867L15.14 8.63819L15.1604 8.61773L15.1809 8.59728L15.2013 8.57685L15.2217 8.55643L15.2422 8.53603L15.2625 8.51564L15.2829 8.49527L15.3033 8.47491L15.3236 8.45458L15.3439 8.43426L15.3642 8.41395L15.3845 8.39367L15.4048 8.37341L15.425 8.35316L15.4452 8.33294L15.4654 8.31273L15.4856 8.29255L15.5058 8.27239L15.5259 8.25225L15.546 8.23213L15.5661 8.21204L15.5862 8.19197L15.6063 8.17192L15.6263 8.1519L15.6463 8.1319L15.6662 8.11193L15.6862 8.09199L15.7061 8.07207L15.726 8.05217L15.7459 8.03231L15.7657 8.01247L15.7855 7.99266L15.8053 7.97288L15.825 7.95313L15.8448 7.93341L15.8645 7.91372L15.8841 7.89405L15.9038 7.87442L15.9234 7.85483L15.9429 7.83526L15.9625 7.81573L15.982 7.79623L16.0014 7.77676L16.0209 7.75733L16.0403 7.73793L16.0596 7.71856L16.0789 7.69924L16.0982 7.67994L16.1175 7.66069L16.1367 7.64147L16.1559 7.62229L16.175 7.60314L16.1941 7.58404L16.2132 7.56497L16.2322 7.54595L16.2512 7.52696L16.2702 7.50801L16.2891 7.4891L16.3079 7.47024L16.3268 7.45142L16.3455 7.43264L16.3643 7.4139L16.383 7.3952L16.4016 7.37655L16.4202 7.35794L16.4388 7.33938L16.4573 7.32086L16.4758 7.30239L16.4942 7.28396L16.5126 7.26558L16.5309 7.24725L16.5492 7.22896L16.5675 7.21073L16.5856 7.19254L16.6038 7.1744L16.6219 7.15631L16.6399 7.13827L16.6579 7.12028L16.6758 7.10234L16.6937 7.08445L16.7116 7.06661L16.7294 7.04883L16.7471 7.0311L16.7648 7.01342L16.7824 6.99579L16.8 6.97822L16.8175 6.96071L16.8349 6.94325L16.8523 6.92584L16.8697 6.90849L16.887 6.8912L16.9042 6.87397L16.9214 6.85679L16.9385 6.83967L16.9556 6.82261L16.9726 6.80561L16.9895 6.78866L17.0064 6.77178L17.0232 6.75496L17.04 6.7382L17.0567 6.7215L17.0733 6.70486L17.0899 6.68829L17.1064 6.67177L17.1229 6.65532L17.1392 6.63894L17.1556 6.62262L17.1718 6.60636L17.188 6.59017L17.2041 6.57404L17.2202 6.55798L17.2362 6.54199L17.2521 6.52607L17.268 6.51021L17.2838 6.49442L17.2995 6.4787L17.3151 6.46305L17.3307 6.44746L17.3462 6.43195L17.3617 6.41651L17.377 6.40114L17.3923 6.38584L17.4076 6.37061L17.4227 6.35546L17.4378 6.34038L17.4528 6.32537L17.4677 6.31043L17.4826 6.29557L17.4974 6.28079L17.5121 6.26608L17.5267 6.25145L17.5413 6.23689L17.5558 6.22241L17.5702 6.208L17.5845 6.19368L17.5987 6.17943L17.6129 6.16526L17.627 6.15117L17.641 6.13716L17.6549 6.12323L17.6688 6.10938L17.6826 6.09561L17.6963 6.08193L17.7099 6.06832L17.7234 6.0548L17.7368 6.04136L17.7502 6.028L17.7634 6.01473L17.7766 6.00155L17.7897 5.98844L17.8027 5.97543L17.8157 5.9625L17.8285 5.94965L17.8413 5.93689L17.854 5.92422L17.8665 5.91164L17.879 5.89915L17.8914 5.88674L17.9038 5.87443L17.916 5.8622L17.9281 5.85006L17.9402 5.83802L17.9521 5.82607L17.964 5.8142L17.9757 5.80243L17.9874 5.79076L17.999 5.77917L18.0105 5.76768L18.0219 5.75628L18.0332 5.74498L18.0444 5.73377L18.0555 5.72266L18.0665 5.71165L18.0774 5.70073L18.0883 5.68991L18.099 5.67918L18.1096 5.66855L18.1202 5.65803L18.1306 5.6476L18.1409 5.63727L18.1511 5.62704L18.1613 5.61691L18.1713 5.60688L18.1812 5.59695L18.1911 5.58712L18.2008 5.5774L18.2104 5.56778L18.2199 5.55826L18.2293 5.54885L18.2386 5.53954L18.2478 5.53033C18.5407 5.23744 18.5407 4.76256 18.2478 4.46967C17.955 4.17678 17.4801 4.17678 17.1872 4.46967L17.178 4.47887L17.1687 4.48818L17.1593 4.4976L17.1497 4.50712L17.1401 4.51674L17.1304 4.52646L17.1206 4.53629L17.1106 4.54622L17.1006 4.55625L17.0905 4.56638L17.0803 4.57661L17.0699 4.58694L17.0595 4.59737L17.049 4.60789L17.0383 4.61852L17.0276 4.62925L17.0168 4.64007L17.0059 4.65099L16.9949 4.662L16.9837 4.67311L16.9725 4.68432L16.9612 4.69562L16.9498 4.70702L16.9383 4.71851L16.9268 4.7301L16.9151 4.74177L16.9033 4.75354L16.8915 4.76541L16.8795 4.77736L16.8675 4.7894L16.8553 4.80154L16.8431 4.81377L16.8308 4.82608L16.8184 4.83849L16.8059 4.85098L16.7933 4.86356L16.7806 4.87623L16.7679 4.88899L16.755 4.90184L16.7421 4.91477L16.7291 4.92778L16.716 4.94089L16.7028 4.95407L16.6895 4.96734L16.6762 4.9807L16.6627 4.99414L16.6492 5.00766L16.6356 5.02127L16.6219 5.03495L16.6081 5.04872L16.5943 5.06257L16.5804 5.0765L16.5663 5.09051L16.5523 5.1046L16.5381 5.11877L16.5238 5.13302L16.5095 5.14734L16.4951 5.16175L16.4806 5.17623L16.4661 5.19079L16.4514 5.20542L16.4367 5.22013L16.4219 5.23491L16.4071 5.24977L16.3921 5.26471L16.3771 5.27972L16.3621 5.2948L16.3469 5.30995L16.3317 5.32518L16.3164 5.34048L16.301 5.35585L16.2856 5.37129L16.2701 5.3868L16.2545 5.40239L16.2388 5.41804L16.2231 5.43376L16.2073 5.44955L16.1915 5.46541L16.1755 5.48133L16.1595 5.49732L16.1435 5.51338L16.1273 5.52951L16.1112 5.5457L16.0949 5.56196L16.0786 5.57828L16.0622 5.59466L16.0457 5.61111L16.0292 5.62763L16.0127 5.6442L15.996 5.66084L15.9793 5.67754L15.9626 5.6943L15.9457 5.71112L15.9289 5.728L15.9119 5.74495L15.8949 5.76195L15.8778 5.77901L15.8607 5.79613L15.8436 5.81331L15.8263 5.83054L15.809 5.84783L15.7917 5.86518L15.7743 5.88259L15.7568 5.90005L15.7393 5.91756L15.7217 5.93513L15.7041 5.95276L15.6864 5.97044L15.6687 5.98817L15.6509 6.00595L15.6331 6.02379L15.6152 6.04168L15.5972 6.05962L15.5793 6.07761L15.5612 6.09565L15.5431 6.11374L15.525 6.13188L15.5068 6.15007L15.4886 6.1683L15.4703 6.18659L15.4519 6.20492L15.4336 6.2233L15.4151 6.24173L15.3967 6.2602L15.3781 6.27872L15.3596 6.29728L15.341 6.31589L15.3223 6.33454L15.3036 6.35324L15.2849 6.37198L15.2661 6.39076L15.2473 6.40958L15.2284 6.42845L15.2095 6.44735L15.1906 6.4663L15.1716 6.48529L15.1525 6.50431L15.1335 6.52338L15.1144 6.54248L15.0952 6.56163L15.076 6.58081L15.0568 6.60003L15.0376 6.61928L15.0183 6.63858L14.999 6.6579L14.9796 6.67727L14.9602 6.69667L14.9408 6.7161L14.9213 6.73557L14.9018 6.75507L14.8823 6.7746L14.8627 6.79417L14.8431 6.81376L14.8235 6.83339L14.8038 6.85306L14.7841 6.87275L14.7644 6.89247L14.7446 6.91222L14.7249 6.932L14.705 6.95181L14.6852 6.97165L14.6653 6.99151L14.6455 7.01141L14.6255 7.03133L14.6056 7.05127L14.5856 7.07124L14.5656 7.09124L14.5456 7.11126L14.5255 7.13131L14.5055 7.15138L14.4854 7.17147L14.4653 7.19159L14.4451 7.21173L14.425 7.23189L14.4048 7.25207L14.3846 7.27228L14.3644 7.2925L14.3441 7.31275L14.3238 7.33301L14.3036 7.35329L14.2833 7.3736L14.2629 7.39392L14.2426 7.41425L14.2222 7.43461L14.2019 7.45498L14.1815 7.47537L14.1611 7.49577L14.1407 7.51619L14.1202 7.53662L14.0998 7.55707L14.0793 7.57753L14.0588 7.59801L14.0384 7.6185L14.0179 7.639L13.9973 7.65951L13.9768 7.68003L13.9563 7.70057L13.9357 7.72111L13.9152 7.74167L13.8946 7.76223L13.8741 7.78281L13.8535 7.80339L13.8329 7.82398L13.8123 7.84458L13.7917 7.86518L13.7711 7.8858L13.7504 7.90641L13.7298 7.92704L13.7092 7.94767L13.6886 7.9683L13.6679 7.98894L13.6473 8.00958L13.6266 8.03022L13.606 8.05087L13.5853 8.07152L13.5647 8.09217L13.544 8.11282L13.5234 8.13348L13.5027 8.15413L13.4821 8.17479L13.4614 8.19544L13.4408 8.21609L13.4201 8.23674L13.3995 8.25739L13.3788 8.27804L13.3582 8.29868L13.3375 8.31932L13.3169 8.33996L13.2963 8.36059L13.2756 8.38122L13.255 8.40184L13.2344 8.42245L13.2138 8.44306L13.1932 8.46366L13.1726 8.48426L13.152 8.50485L13.1314 8.52543L13.1109 8.546L13.0903 8.56656L13.0697 8.58711L13.0492 8.60765L13.0287 8.62818L13.0082 8.6487L12.9877 8.66921L12.9672 8.6897L12.9467 8.71018L12.9262 8.73065L12.9057 8.75111L12.8853 8.77155L12.8649 8.79198L12.8445 8.81239L12.8241 8.83279L12.8037 8.85317L12.7833 8.87354L12.763 8.89388L12.7426 8.91422L12.7223 8.93453L12.702 8.95482L12.6818 8.9751L12.6615 8.99535L12.6413 9.01559L12.6211 9.03581L12.6009 9.056L12.5807 9.07618L12.5605 9.09633L12.5404 9.11646L12.5203 9.13657L12.5002 9.15665L12.4801 9.17671L12.4601 9.19675L12.4401 9.21676L12.4201 9.23675L12.4002 9.25671L12.3802 9.27664L12.3603 9.29655L12.3404 9.31643L12.3206 9.33629L12.3007 9.35611L12.2809 9.37591L12.2612 9.39568L12.2414 9.41542L12.2217 9.43513L12.202 9.45481L12.1824 9.47446L12.1628 9.49407L12.1432 9.51366L12.1236 9.53321L12.1041 9.55273L12.0846 9.57222L12.0652 9.59167L12.0458 9.61109L12.0264 9.63048L12.007 9.64982L11.9877 9.66914L11.9684 9.68842L11.9492 9.70766L11.93 9.72686L11.9108 9.74603L11.8917 9.76515L11.8726 9.78424L11.8536 9.80329L11.8346 9.8223L11.8156 9.84128L11.7967 9.86021L11.7778 9.8791L11.7589 9.89794L11.7401 9.91675L11.7213 9.93551L11.7026 9.95423L11.6839 9.97291L11.6653 9.99155L11.6467 10.0101L11.6282 10.0287L11.6097 10.0472L11.5912 10.0656L11.5728 10.084L11.5545 10.1024L11.5361 10.1207L11.5179 10.139L11.4997 10.1572L11.4815 10.1754L11.4634 10.1935L11.4453 10.2116L11.4273 10.2296L11.4093 10.2475L11.3914 10.2655L11.3735 10.2833L11.3557 10.3011L11.3379 10.3189L11.3202 10.3366L11.3026 10.3543L11.285 10.3719L11.2674 10.3894L11.2499 10.4069L11.2325 10.4244L11.2151 10.4417L11.1978 10.4591L11.1805 10.4763L11.1633 10.4935L11.1462 10.5107L11.1291 10.5278L11.112 10.5448L11.095 10.5618L11.0781 10.5787L11.0613 10.5956L11.0445 10.6124L11.0277 10.6291L11.0111 10.6458L10.9944 10.6624L10.9779 10.679L10.9614 10.6954L10.945 10.7119L10.9286 10.7282L10.9123 10.7445L10.8961 10.7608L10.8799 10.7769L10.8638 10.793L10.8478 10.809L10.8318 10.825L10.8159 10.8409L10.8001 10.8567L10.7844 10.8725L10.7687 10.8882L10.753 10.9038L10.7375 10.9194L10.722 10.9349L10.7066 10.9503L10.6912 10.9656L10.676 10.9809L10.6608 10.9961L10.6457 11.0112L10.6306 11.0263L10.6156 11.0412L10.6007 11.0561L10.5859 11.071L10.5711 11.0857L10.5565 11.1004L10.5419 11.115L10.5273 11.1295L10.5129 11.144L10.4985 11.1583L10.4842 11.1726L10.47 11.1869L10.4559 11.201L10.4418 11.2151L10.4278 11.229L10.4139 11.2429L10.4001 11.2567L10.3864 11.2705L10.3727 11.2841L10.3592 11.2977L10.3457 11.3112L10.3323 11.3246L10.3189 11.3379L10.3057 11.3512L10.2926 11.3643L10.2795 11.3774L10.2665 11.3904L10.2536 11.4033L10.2408 11.4161L10.2281 11.4288L10.2154 11.4414L10.2029 11.454L10.1904 11.4664L10.1781 11.4788L10.1658 11.4911L10.1536 11.5033L10.1415 11.5154L10.1295 11.5274L10.1176 11.5393L10.1058 11.5511L10.094 11.5628L10.0824 11.5745L10.0708 11.586L10.0594 11.5975L10.048 11.6088L10.0368 11.6201L10.0256 11.6313L10.0145 11.6423L10.0035 11.6533L10 11.6569L9.99925 11.6561L9.9926 11.6495L9.98592 11.6428L9.97919 11.6361L9.97244 11.6293L9.96565 11.6225L9.95883 11.6157L9.95198 11.6088L9.9451 11.602L9.93818 11.595L9.93123 11.5881L9.92424 11.5811L9.91723 11.5741L9.91018 11.567L9.9031 11.56L9.89599 11.5528L9.88885 11.5457L9.88167 11.5385L9.87446 11.5313L9.86723 11.5241L9.85996 11.5168L9.85266 11.5095L9.84533 11.5022L9.83797 11.4948L9.83058 11.4874L9.82316 11.48L9.8157 11.4726L9.80822 11.4651L9.80071 11.4576L9.79317 11.45L9.7856 11.4425L9.778 11.4349L9.77037 11.4272L9.76271 11.4196L9.75502 11.4119L9.74731 11.4042L9.73956 11.3964L9.73179 11.3886L9.72399 11.3808L9.71616 11.373L9.7083 11.3652L9.70041 11.3573L9.6925 11.3494L9.68456 11.3414L9.67659 11.3334L9.66859 11.3254L9.66057 11.3174L9.65251 11.3094L9.64444 11.3013L9.63633 11.2932L9.6282 11.2851L9.62004 11.2769L9.61186 11.2687L9.60365 11.2605L9.59541 11.2523L9.58715 11.244L9.57886 11.2357L9.57055 11.2274L9.56221 11.2191L9.55385 11.2107L9.54546 11.2023L9.53704 11.1939L9.5286 11.1855L9.52014 11.177L9.51165 11.1685L9.50314 11.16L9.4946 11.1515L9.48604 11.1429L9.47746 11.1343L9.46885 11.1257L9.46021 11.1171L9.45156 11.1084L9.44288 11.0997L9.43418 11.091L9.42545 11.0823L9.4167 11.0736L9.40793 11.0648L9.39914 11.056L9.39032 11.0472L9.38148 11.0383L9.37262 11.0295L9.36374 11.0206L9.35483 11.0117L9.34591 11.0028L9.33696 10.9938L9.32799 10.9848L9.319 10.9759L9.30999 10.9668L9.30095 10.9578L9.2919 10.9488L9.28283 10.9397L9.27373 10.9306L9.26462 10.9215L9.25548 10.9123L9.24632 10.9032L9.23715 10.894L9.22795 10.8848L9.21874 10.8756L9.2095 10.8664L9.20025 10.8571L9.19098 10.8478L9.18168 10.8385L9.17237 10.8292L9.16304 10.8199L9.15369 10.8106L9.14433 10.8012L9.13494 10.7918L9.12554 10.7824L9.11612 10.773L9.10668 10.7635L9.09722 10.7541L9.08775 10.7446L9.07825 10.7351L9.06874 10.7256L9.05922 10.7161L9.04967 10.7065L9.04011 10.697L9.03054 10.6874L9.02094 10.6778L9.01133 10.6682L9.00171 10.6586L8.99206 10.6489L8.9824 10.6393L8.97273 10.6296L8.96304 10.6199L8.95334 10.6102L8.94361 10.6005L8.93388 10.5907L8.92413 10.581L8.91436 10.5712L8.90458 10.5614L8.89479 10.5516L8.88498 10.5418L8.87515 10.532L8.86531 10.5222L8.85546 10.5123L8.8456 10.5025L8.83572 10.4926L8.82582 10.4827L8.81592 10.4728L8.806 10.4629L8.79606 10.4529L8.78612 10.443L8.77616 10.433L8.76619 10.423L8.7562 10.4131L8.7462 10.4031L8.7362 10.3931L8.72617 10.383L8.71614 10.373L8.7061 10.363L8.69604 10.3529L8.68597 10.3428L8.67589 10.3328L8.6658 10.3227L8.6557 10.3126L8.64559 10.3024L8.63546 10.2923L8.62533 10.2822L8.61519 10.272L8.60503 10.2619L8.59487 10.2517L8.58469 10.2415L8.57451 10.2314L8.56431 10.2212L8.55411 10.211L8.54389 10.2008L8.53367 10.1905L8.53033 10.1872C8.53016 10.187 8.52999 10.1868 8.52982 10.1867L8.52344 10.1803L8.5132 10.1701L8.50295 10.1598L8.49269 10.1495L8.48242 10.1393L8.47215 10.129L8.46186 10.1187L8.45157 10.1084L8.44127 10.0981L8.43097 10.0878L8.42065 10.0775L8.41033 10.0672L8.4 10.0569L8.38966 10.0465L8.37932 10.0362L8.36896 10.0258L8.35861 10.0155L8.34824 10.0051L8.33787 9.99473L8.32749 9.98435L8.31711 9.97397L8.30672 9.96358L8.29632 9.95318L8.28592 9.94278L8.27552 9.93237L8.2651 9.92196L8.25469 9.91154L8.24426 9.90112L8.23384 9.89069L8.2234 9.88026L8.21297 9.86982L8.20253 9.85938L8.19208 9.84894L8.18163 9.83849L8.17117 9.82803L8.16072 9.81757L8.15025 9.80711L8.13979 9.79665L8.12932 9.78618L8.11885 9.7757L8.10837 9.76523L8.09789 9.75475L8.08741 9.74427L8.07692 9.73378L8.06644 9.72329L8.05595 9.7128L8.04545 9.70231L8.03496 9.69182L8.02446 9.68132L8.01397 9.67082L8.00347 9.66032L7.99296 9.64982L7.98246 9.63932L7.97196 9.62881L7.96145 9.61831L7.95095 9.6078L7.94044 9.5973L7.92993 9.58679L7.91942 9.57628L7.90891 9.56577L7.8984 9.55526L7.88789 9.54475L7.87739 9.53424L7.86688 9.52373L7.85637 9.51323L7.84586 9.50272L7.83535 9.49221L7.82485 9.4817L7.81434 9.4712L7.80383 9.46069L7.79333 9.45019L7.78283 9.43969L7.77233 9.42919L7.76183 9.41869L7.75133 9.40819L7.74084 9.3977L7.73035 9.3872L7.71985 9.37671L7.70937 9.36622L7.69888 9.35574L7.6884 9.34525L7.67792 9.33477L7.66744 9.3243L7.65697 9.31382L7.6465 9.30335L7.63603 9.29289L7.62557 9.28242L7.61511 9.27196L7.60465 9.26151L7.5942 9.25106L7.58375 9.24061L7.57331 9.23016L7.56287 9.21973L7.55243 9.20929L7.542 9.19886L7.53158 9.18844L7.52116 9.17802L7.51075 9.1676L7.50034 9.1572L7.48993 9.14679L7.47954 9.13639L7.46914 9.126L7.45876 9.11562L7.44838 9.10524L7.43801 9.09486L7.42764 9.0845L7.41728 9.07414L7.40693 9.06378L7.39658 9.05344L7.38624 9.0431L7.37591 9.03276L7.36558 9.02244L7.35526 9.01212L7.34495 9.00181L7.33465 8.99151L7.32436 8.98121L7.31407 8.97093L7.30379 8.96065L7.29352 8.95038L7.28326 8.94012L7.27301 8.92986L7.26276 8.91962L7.25253 8.90938L7.2423 8.89916L7.23208 8.88894L7.22188 8.87873L7.21168 8.86854L7.20149 8.85835L7.19131 8.84817L7.18114 8.838L7.17098 8.82784L7.16084 8.81769L7.1507 8.80756L7.14057 8.79743L7.13045 8.78731L7.12035 8.77721L7.11025 8.76711L7.10017 8.75703L7.0901 8.74696L7.08004 8.7369L7.06999 8.72685L7.05995 8.71681L7.04993 8.70678L7.03991 8.69677L7.02991 8.68677L7.01992 8.67678L7.00995 8.6668L6.99998 8.65684L6.99003 8.64689L6.98009 8.63695L6.97017 8.62703L6.96026 8.61712L6.95036 8.60722L6.94047 8.59733L6.9306 8.58746L6.92075 8.5776L6.9109 8.56776L6.90107 8.55793L6.89126 8.54812L6.88146 8.53832L6.87167 8.52853L6.8619 8.51876L6.85215 8.509L6.8424 8.49926L6.83268 8.48954L6.82297 8.47982L6.81327 8.47013L6.80359 8.46045L6.79393 8.45078L6.78428 8.44114L6.77465 8.43151L6.76503 8.42189L6.75543 8.41229L6.74585 8.40271L6.73628 8.39314L6.72673 8.38359L6.7172 8.37406L6.70768 8.36454L6.69819 8.35504L6.6887 8.34556L6.67924 8.3361L6.6698 8.32665L6.66037 8.31723L6.65096 8.30781L6.64157 8.29842L6.63219 8.28905L6.62284 8.27969L6.6135 8.27036L6.60418 8.26104L6.59488 8.25174L6.5856 8.24246L6.57634 8.2332L6.5671 8.22396L6.55788 8.21474L6.54868 8.20553L6.53949 8.19635L6.53033 8.18719C6.23744 7.89429 5.76256 7.89429 5.46967 8.18719C5.17678 8.48008 5.17678 8.95495 5.46967 9.24785L5.47883 9.25701L5.48802 9.26619L5.49722 9.2754L5.50644 9.28462L5.51568 9.29386L5.52494 9.30312L5.53422 9.3124L5.54352 9.3217L5.55284 9.33102L5.56218 9.34035L5.57153 9.34971L5.58091 9.35908L5.5903 9.36847L5.59971 9.37788L5.60914 9.38731L5.61858 9.39676L5.62804 9.40622L5.63753 9.4157L5.64702 9.4252L5.65654 9.43472L5.66607 9.44425L5.67562 9.4538L5.68519 9.46337L5.69477 9.47295L5.70437 9.48255L5.71399 9.49216L5.72362 9.5018L5.73327 9.51145L5.74293 9.52111L5.75261 9.53079L5.76231 9.54048L5.77202 9.5502L5.78174 9.55992L5.79148 9.56966L5.80124 9.57942L5.81101 9.58919L5.8208 9.59898L5.8306 9.60878L5.84041 9.61859L5.85024 9.62842L5.86009 9.63826L5.86994 9.64812L5.87981 9.65799L5.8897 9.66788L5.8996 9.67778L5.90951 9.68769L5.91943 9.69761L5.92937 9.70755L5.93932 9.7175L5.94929 9.72746L5.95926 9.73744L5.96925 9.74743L5.97925 9.75743L5.98927 9.76744L5.99929 9.77747L6.00933 9.78751L6.01938 9.79756L6.02944 9.80762L6.03951 9.81769L6.04959 9.82777L6.05969 9.83787L6.06979 9.84797L6.07991 9.85809L6.09004 9.86822L6.10018 9.87835L6.11032 9.8885L6.12048 9.89866L6.13065 9.90883L6.14083 9.91901L6.15102 9.9292L6.16122 9.93939L6.17142 9.9496L6.18164 9.95982L6.19187 9.97004L6.2021 9.98028L6.21235 9.99052L6.2226 10.0008L6.23286 10.011L6.24313 10.0213L6.25341 10.0316L6.26369 10.0419L6.27399 10.0522L6.28429 10.0625L6.2946 10.0728L6.30492 10.0831L6.31525 10.0934L6.32558 10.1038L6.33592 10.1141L6.34626 10.1244L6.35662 10.1348L6.36698 10.1452L6.37735 10.1555L6.38772 10.1659L6.3981 10.1763L6.40848 10.1867L6.41888 10.1971L6.42927 10.2075L6.43968 10.2179L6.45009 10.2283L6.4605 10.2387L6.47092 10.2491L6.48134 10.2595L6.49177 10.27L6.50221 10.2804L6.51265 10.2908L6.52309 10.3013L6.53354 10.3117L6.54399 10.3222L6.55445 10.3326L6.56491 10.3431L6.57537 10.3535L6.58584 10.364L6.59631 10.3745L6.60678 10.385L6.61726 10.3954L6.62774 10.4059L6.63822 10.4164L6.64871 10.4269L6.65919 10.4374L6.66969 10.4479L6.68018 10.4584L6.69067 10.4689L6.70117 10.4793L6.71167 10.4898L6.72217 10.5003L6.73267 10.5108L6.74318 10.5214L6.75368 10.5319L6.76419 10.5424L6.77469 10.5529L6.7852 10.5634L6.79571 10.5739L6.80622 10.5844L6.81673 10.5949L6.82723 10.6054L6.83774 10.6159L6.84825 10.6264L6.85876 10.6369L6.86927 10.6474L6.87978 10.658L6.89029 10.6685L6.90079 10.679L6.9113 10.6895L6.9218 10.7L6.9323 10.7105L6.93934 10.7175L6.93524 10.7216L6.92768 10.7292L6.92015 10.7367L6.91264 10.7442L6.90515 10.7517L6.89769 10.7592L6.89025 10.7666L6.88284 10.774L6.87545 10.7814L6.86808 10.7888L6.86073 10.7961L6.85341 10.8034L6.84611 10.8107L6.83884 10.818L6.83159 10.8253L6.82436 10.8325L6.81716 10.8397L6.80998 10.8469L6.80282 10.854L6.79568 10.8612L6.78857 10.8683L6.78148 10.8754L6.77442 10.8824L6.76738 10.8895L6.76036 10.8965L6.75336 10.9035L6.74639 10.9105L6.73944 10.9174L6.73251 10.9243L6.72561 10.9312L6.71873 10.9381L6.71187 10.945L6.70503 10.9518L6.69822 10.9586L6.69143 10.9654L6.68466 10.9722L6.67792 10.9789L6.6712 10.9857L6.6645 10.9924L6.65782 10.999L6.65117 11.0057L6.64454 11.0123L6.63793 11.0189L6.63134 11.0255L6.62478 11.0321L6.61823 11.0386L6.61171 11.0451L6.60522 11.0516L6.59874 11.0581L6.59229 11.0646L6.58586 11.071L6.57945 11.0774L6.57307 11.0838L6.5667 11.0902L6.56036 11.0965L6.55404 11.1028L6.54775 11.1091L6.54147 11.1154L6.53522 11.1216L6.52899 11.1279L6.52278 11.1341L6.51659 11.1403L6.51043 11.1464L6.50428 11.1526L6.49816 11.1587L6.49206 11.1648L6.48598 11.1709L6.47993 11.1769L6.47389 11.183L6.46788 11.189L6.46189 11.195L6.45592 11.2009L6.44997 11.2069L6.44404 11.2128L6.43814 11.2187L6.43225 11.2246L6.42639 11.2305L6.42055 11.2363L6.41473 11.2421L6.40894 11.2479L6.40316 11.2537L6.3974 11.2595L6.39167 11.2652L6.38596 11.2709L6.38027 11.2766L6.3746 11.2823L6.36895 11.2879L6.36332 11.2935L6.35771 11.2991L6.35213 11.3047L6.34656 11.3103L6.34102 11.3158L6.3355 11.3214L6.32999 11.3269L6.32451 11.3323L6.31905 11.3378L6.31361 11.3432L6.3082 11.3487L6.3028 11.3541L6.29742 11.3594L6.29207 11.3648L6.28673 11.3701L6.28141 11.3754L6.27612 11.3807L6.27085 11.386L6.26559 11.3913L6.26036 11.3965L6.25515 11.4017L6.24996 11.4069L6.24479 11.4121L6.23964 11.4172L6.23451 11.4223L6.2294 11.4275L6.22431 11.4325L6.21924 11.4376L6.21419 11.4427L6.20916 11.4477L6.20415 11.4527L6.19917 11.4577L6.1942 11.4627L6.18925 11.4676L6.18432 11.4725L6.17942 11.4774L6.17453 11.4823L6.16966 11.4872L6.16481 11.492L6.15999 11.4969L6.15518 11.5017L6.15039 11.5065L6.14562 11.5112L6.14087 11.516L6.13614 11.5207L6.13143 11.5254L6.12675 11.5301L6.12208 11.5348L6.11743 11.5394L6.1128 11.5441L6.10819 11.5487L6.10359 11.5533L6.09902 11.5578L6.09447 11.5624L6.08994 11.5669L6.08543 11.5714L6.08093 11.5759L6.07646 11.5804L6.072 11.5849L6.06757 11.5893L6.06315 11.5937L6.05875 11.5981L6.05438 11.6025L6.05002 11.6068L6.04568 11.6112L6.04136 11.6155L6.03706 11.6198L6.03277 11.6241L6.02851 11.6283L6.02427 11.6326L6.02004 11.6368L6.01584 11.641L6.01165 11.6452L6.00748 11.6494L6.00333 11.6535L6 11.6569L5.99925 11.6561L5.9926 11.6495L5.98592 11.6428L5.97919 11.6361L5.97244 11.6293L5.96565 11.6225L5.95883 11.6157L5.95198 11.6088L5.9451 11.602L5.93818 11.595L5.93123 11.5881L5.92424 11.5811L5.91723 11.5741L5.91018 11.567L5.9031 11.56L5.89599 11.5528L5.88884 11.5457L5.88167 11.5385L5.87446 11.5313L5.86723 11.5241L5.85996 11.5168L5.85266 11.5095L5.84533 11.5022L5.83797 11.4948L5.83058 11.4874L5.82316 11.48L5.8157 11.4726L5.80822 11.4651L5.80071 11.4576L5.79317 11.45L5.7856 11.4425L5.778 11.4349L5.77037 11.4272L5.76271 11.4196L5.75502 11.4119L5.74731 11.4042L5.73956 11.3964L5.73179 11.3886L5.72399 11.3808L5.71616 11.373L5.7083 11.3652L5.70041 11.3573L5.6925 11.3494L5.68456 11.3414L5.67659 11.3334L5.66859 11.3254L5.66057 11.3174L5.65251 11.3094L5.64444 11.3013L5.63633 11.2932L5.6282 11.2851L5.62004 11.2769L5.61186 11.2687L5.60365 11.2605L5.59541 11.2523L5.58715 11.244L5.57886 11.2357L5.57055 11.2274L5.56221 11.2191L5.55385 11.2107L5.54546 11.2023L5.53704 11.1939L5.5286 11.1855L5.52014 11.177L5.51165 11.1685L5.50314 11.16L5.4946 11.1515L5.48604 11.1429L5.47746 11.1343L5.46885 11.1257L5.46021 11.1171L5.45156 11.1084L5.44288 11.0997L5.43418 11.091L5.42545 11.0823L5.4167 11.0736L5.40793 11.0648L5.39914 11.056L5.39032 11.0472L5.38148 11.0383L5.37262 11.0295L5.36374 11.0206L5.35483 11.0117L5.34591 11.0028L5.33696 10.9938L5.32799 10.9848L5.319 10.9759L5.30999 10.9668L5.30095 10.9578L5.2919 10.9488L5.28283 10.9397L5.27373 10.9306L5.26462 10.9215L5.25548 10.9123L5.24632 10.9032L5.23715 10.894L5.22795 10.8848L5.21874 10.8756L5.2095 10.8664L5.20025 10.8571L5.19098 10.8478L5.18168 10.8385L5.17237 10.8292L5.16304 10.8199L5.15369 10.8106L5.14433 10.8012L5.13494 10.7918L5.12554 10.7824L5.11612 10.773L5.10668 10.7635L5.09722 10.7541L5.08775 10.7446L5.07825 10.7351L5.06874 10.7256L5.05922 10.7161L5.04967 10.7065L5.04011 10.697L5.03054 10.6874L5.02094 10.6778L5.01133 10.6682L5.00171 10.6586L4.99206 10.6489L4.9824 10.6393L4.97273 10.6296L4.96304 10.6199L4.95334 10.6102L4.94362 10.6005L4.93388 10.5907L4.92413 10.581L4.91436 10.5712L4.90458 10.5614L4.89479 10.5516L4.88498 10.5418L4.87515 10.532L4.86531 10.5222L4.85546 10.5123L4.8456 10.5025L4.83572 10.4926L4.82582 10.4827L4.81592 10.4728L4.806 10.4629L4.79606 10.4529L4.78612 10.443L4.77616 10.433L4.76619 10.423L4.7562 10.4131L4.7462 10.4031L4.7362 10.3931L4.72617 10.383L4.71614 10.373L4.7061 10.363L4.69604 10.3529L4.68597 10.3428L4.67589 10.3328L4.6658 10.3227L4.6557 10.3126L4.64559 10.3024L4.63546 10.2923L4.62533 10.2822L4.61519 10.272L4.60503 10.2619L4.59487 10.2517L4.58469 10.2415L4.57451 10.2314L4.56431 10.2212L4.55411 10.211L4.54389 10.2008L4.53367 10.1905L4.52344 10.1803L4.5132 10.1701L4.50295 10.1598L4.49269 10.1495L4.48242 10.1393L4.47215 10.129L4.46186 10.1187L4.45157 10.1084L4.44127 10.0981L4.43097 10.0878L4.42065 10.0775L4.41033 10.0672L4.4 10.0569L4.38966 10.0465L4.37932 10.0362L4.36896 10.0258L4.35861 10.0155L4.34824 10.0051L4.33787 9.99473L4.32749 9.98435L4.31711 9.97397L4.30672 9.96358L4.29632 9.95318L4.28592 9.94278L4.27552 9.93237L4.2651 9.92196L4.25469 9.91154L4.24426 9.90112L4.23384 9.89069L4.2234 9.88026L4.21297 9.86982L4.20253 9.85938L4.19208 9.84894L4.18163 9.83849L4.17117 9.82803L4.16072 9.81757L4.15025 9.80711L4.13979 9.79665L4.12932 9.78618L4.11885 9.7757L4.10837 9.76523L4.09789 9.75475L4.08741 9.74427L4.07692 9.73378L4.06644 9.72329L4.05595 9.7128L4.04545 9.70231L4.03496 9.69182L4.02446 9.68132L4.01397 9.67082L4.00347 9.66032L3.99296 9.64982L3.98246 9.63932L3.97196 9.62881L3.96145 9.61831L3.95095 9.6078L3.94044 9.5973L3.92993 9.58679L3.91942 9.57628L3.90891 9.56577L3.8984 9.55526L3.88789 9.54475L3.87739 9.53424L3.86688 9.52373L3.85637 9.51323L3.84586 9.50272L3.83535 9.49221L3.82485 9.4817L3.81434 9.4712L3.80384 9.46069L3.79333 9.45019L3.78283 9.43969L3.77233 9.42919L3.76183 9.41869L3.75133 9.40819L3.74084 9.3977L3.73035 9.3872L3.71985 9.37671L3.70937 9.36622L3.69888 9.35574L3.6884 9.34525L3.67792 9.33477L3.66744 9.3243L3.65697 9.31382L3.6465 9.30335L3.63603 9.29289L3.62557 9.28242L3.61511 9.27196L3.60465 9.26151L3.5942 9.25106L3.58375 9.24061L3.57331 9.23016L3.56287 9.21973L3.55243 9.20929L3.542 9.19886L3.53158 9.18844L3.52116 9.17802L3.51075 9.1676L3.50034 9.1572L3.48993 9.14679L3.47954 9.13639L3.46914 9.126L3.45876 9.11562L3.44838 9.10524L3.43801 9.09486L3.42764 9.0845L3.41728 9.07414L3.40692 9.06378L3.39658 9.05344L3.38624 9.0431L3.37591 9.03276L3.36558 9.02244L3.35526 9.01212L3.34495 9.00181L3.33465 8.99151L3.32435 8.98121L3.31407 8.97093L3.30379 8.96065L3.29352 8.95038L3.28326 8.94012L3.27301 8.92986L3.26276 8.91962L3.25253 8.90938L3.2423 8.89916L3.23208 8.88894L3.22188 8.87873L3.21168 8.86854L3.20149 8.85835L3.19131 8.84817L3.18114 8.838L3.17098 8.82784L3.16084 8.81769L3.1507 8.80756L3.14057 8.79743L3.13045 8.78731L3.12035 8.77721L3.11025 8.76711L3.10017 8.75703L3.0901 8.74696L3.08004 8.7369L3.06999 8.72685L3.05995 8.71681L3.04993 8.70678L3.03991 8.69677L3.02991 8.68677L3.01992 8.67678L3.00995 8.6668L2.99998 8.65684L2.99003 8.64689L2.98009 8.63695L2.97017 8.62703L2.96026 8.61712L2.95036 8.60722L2.94047 8.59733L2.9306 8.58746L2.92075 8.5776L2.9109 8.56776L2.90107 8.55793L2.89126 8.54812L2.88146 8.53832L2.87167 8.52853L2.8619 8.51876L2.85215 8.509L2.8424 8.49926L2.83268 8.48954L2.82297 8.47982L2.81327 8.47013L2.80359 8.46045L2.79393 8.45078L2.78428 8.44114L2.77465 8.43151L2.76503 8.42189L2.75543 8.41229L2.74585 8.40271L2.73628 8.39314L2.72673 8.38359L2.7172 8.37406L2.70768 8.36454L2.69819 8.35504L2.6887 8.34556L2.67924 8.3361L2.6698 8.32665L2.66037 8.31723L2.65096 8.30781L2.64157 8.29842L2.63219 8.28905L2.62284 8.27969L2.6135 8.27036L2.60418 8.26104L2.59488 8.25174L2.5856 8.24246L2.57634 8.2332L2.5671 8.22396L2.55788 8.21474L2.54868 8.20553L2.53949 8.19635L2.53033 8.18719C2.23744 7.89429 1.76256 7.89429 1.46967 8.18719C1.17678 8.48008 1.17678 8.95495 1.46967 9.24785L1.47883 9.25701L1.48802 9.26619L1.49722 9.2754L1.50644 9.28462L1.51568 9.29386L1.52494 9.30312L1.53422 9.3124L1.54352 9.3217L1.55284 9.33102L1.56218 9.34035L1.57153 9.34971L1.58091 9.35908L1.5903 9.36847L1.59971 9.37788L1.60914 9.38731L1.61858 9.39676L1.62804 9.40622L1.63753 9.4157L1.64702 9.4252L1.65654 9.43472L1.66607 9.44425L1.67562 9.4538L1.68519 9.46337L1.69477 9.47295L1.70437 9.48255L1.71399 9.49216L1.72362 9.5018L1.73327 9.51145L1.74293 9.52111L1.75261 9.53079L1.76231 9.54048L1.77202 9.5502L1.78174 9.55992L1.79148 9.56966L1.80124 9.57942L1.81101 9.58919L1.8208 9.59898L1.8306 9.60878L1.84041 9.61859L1.85024 9.62842L1.86009 9.63826L1.86994 9.64812L1.87981 9.65799L1.8897 9.66788L1.8996 9.67778L1.90951 9.68769L1.91943 9.69761L1.92937 9.70755L1.93932 9.7175L1.94929 9.72746L1.95926 9.73744L1.96925 9.74743L1.97925 9.75743L1.98927 9.76744L1.99929 9.77747L2.00933 9.78751L2.01938 9.79756L2.02944 9.80762L2.03951 9.81769L2.04959 9.82777L2.05969 9.83787L2.06979 9.84797L2.07991 9.85809L2.09004 9.86822L2.10018 9.87835L2.11032 9.8885L2.12048 9.89866L2.13065 9.90883L2.14083 9.91901L2.15102 9.9292L2.16122 9.93939L2.17142 9.9496L2.18164 9.95982L2.19187 9.97004L2.2021 9.98028L2.21235 9.99052L2.2226 10.0008L2.23286 10.011L2.24313 10.0213L2.25341 10.0316L2.26369 10.0419L2.27399 10.0522L2.28429 10.0625L2.2946 10.0728L2.30492 10.0831L2.31525 10.0934L2.32558 10.1038L2.33592 10.1141L2.34626 10.1244L2.35662 10.1348L2.36698 10.1452L2.37735 10.1555L2.38772 10.1659L2.3981 10.1763L2.40848 10.1867L2.41888 10.1971L2.42927 10.2075L2.43968 10.2179L2.45009 10.2283L2.4605 10.2387L2.47092 10.2491L2.48134 10.2595L2.49177 10.27L2.50221 10.2804L2.51265 10.2908L2.52309 10.3013L2.53354 10.3117L2.54399 10.3222L2.55445 10.3326L2.56491 10.3431L2.57537 10.3535L2.58584 10.364L2.59631 10.3745L2.60678 10.385L2.61726 10.3954L2.62774 10.4059L2.63822 10.4164L2.64871 10.4269L2.65919 10.4374L2.66969 10.4479L2.68018 10.4584L2.69067 10.4689L2.70117 10.4793L2.71167 10.4898L2.72217 10.5003L2.73267 10.5108L2.74318 10.5214L2.75368 10.5319L2.76419 10.5424L2.77469 10.5529L2.7852 10.5634L2.79571 10.5739L2.80622 10.5844L2.81673 10.5949L2.82723 10.6054L2.83774 10.6159L2.84825 10.6264L2.85876 10.6369L2.86927 10.6474L2.87978 10.658L2.89029 10.6685L2.90079 10.679L2.9113 10.6895L2.9218 10.7L2.9323 10.7105L2.94281 10.721L2.95331 10.7315L2.9638 10.742L2.9743 10.7525L2.98479 10.763L2.99529 10.7735L3.00578 10.784L3.01626 10.7944L3.02675 10.8049L3.03723 10.8154L3.04771 10.8259L3.05819 10.8364L3.06866 10.8468L3.07913 10.8573L3.08959 10.8678L3.10006 10.8782L3.11051 10.8887L3.12097 10.8991L3.13142 10.9096L3.14187 10.92L3.15231 10.9305L3.16274 10.9409L3.17318 10.9514L3.1836 10.9618L3.19403 10.9722L3.20444 10.9826L3.21486 10.993L3.22526 11.0034L3.23566 11.0138L3.24606 11.0242L3.25645 11.0346L3.26683 11.045L3.27721 11.0554L3.28758 11.0658L3.29795 11.0761L3.3083 11.0865L3.31866 11.0968L3.329 11.1072L3.33934 11.1175L3.34967 11.1278L3.35999 11.1382L3.37031 11.1485L3.38061 11.1588L3.39091 11.1691L3.4012 11.1794L3.41149 11.1897L3.42176 11.1999L3.43203 11.2102L3.44229 11.2205L3.45254 11.2307L3.46278 11.241L3.47301 11.2512L3.48323 11.2614L3.49345 11.2716L3.50365 11.2818L3.51385 11.292L3.52403 11.3022L3.53421 11.3124L3.54437 11.3225L3.55453 11.3327L3.56467 11.3428L3.5748 11.353L3.58493 11.3631L3.59504 11.3732L3.60514 11.3833L3.61523 11.3934L3.62531 11.4035L3.63538 11.4136L3.64544 11.4236L3.65548 11.4337L3.66551 11.4437L3.67554 11.4537L3.68554 11.4637L3.69554 11.4737L3.70553 11.4837L3.7155 11.4937L3.72546 11.5036L3.7354 11.5136L3.74534 11.5235L3.75526 11.5334L3.76516 11.5433L3.77506 11.5532L3.78494 11.5631L3.7948 11.573L3.80465 11.5828L3.81449 11.5927L3.82432 11.6025L3.83413 11.6123L3.84392 11.6221L3.8537 11.6319L3.86347 11.6416L3.87322 11.6514L3.88296 11.6611L3.89268 11.6709L3.90238 11.6806L3.91207 11.6902L3.92174 11.6999L3.9314 11.7096L3.94105 11.7192L3.95067 11.7288L3.96028 11.7385L3.96988 11.7481L3.97945 11.7576L3.98901 11.7672L3.99856 11.7767L4.00808 11.7863L4.01759 11.7958L4.02709 11.8053L4.03656 11.8147L4.04602 11.8242L4.05546 11.8336L4.06488 11.8431L4.07428 11.8525L4.08367 11.8618L4.09303 11.8712L4.10238 11.8806L4.11171 11.8899L4.12102 11.8992L4.13032 11.9085L4.13959 11.9178L4.14884 11.927L4.15808 11.9363L4.16729 11.9455L4.17649 11.9547L4.18566 11.9638L4.19482 11.973L4.20396 11.9821L4.21307 11.9912L4.22217 12.0003L4.23124 12.0094L4.24029 12.0185L4.24933 12.0275L4.25834 12.0365L4.26733 12.0455L4.2763 12.0545L4.28525 12.0634L4.29417 12.0724L4.30308 12.0813L4.31196 12.0901L4.32082 12.099L4.32966 12.1078L4.33848 12.1167L4.34727 12.1254L4.35604 12.1342L4.36479 12.143L4.37352 12.1517L4.38222 12.1604L4.3909 12.1691L4.39955 12.1777L4.40819 12.1864L4.4168 12.195L4.42538 12.2036L4.43394 12.2121L4.44248 12.2207L4.45099 12.2292L4.45948 12.2377L4.46794 12.2461L4.47638 12.2546L4.4848 12.263L4.49319 12.2714L4.50155 12.2797L4.50989 12.2881L4.5182 12.2964L4.52649 12.3047L4.53475 12.3129L4.54299 12.3212L4.5512 12.3294L4.55938 12.3376L4.56754 12.3457L4.57567 12.3539L4.58378 12.362L4.59185 12.37L4.59991 12.3781L4.60793 12.3861L4.61593 12.3941L4.6239 12.4021L4.63184 12.41L4.63975 12.4179L4.64764 12.4258L4.6555 12.4337L4.66333 12.4415L4.67113 12.4493L4.6789 12.4571L4.68665 12.4648L4.69436 12.4725L4.70205 12.4802L4.70971 12.4879L4.71734 12.4955L4.72494 12.5031L4.73251 12.5107L4.74005 12.5182L4.74756 12.5257L4.75504 12.5332L4.7625 12.5407L4.76992 12.5481L4.77731 12.5555L4.78467 12.5628L4.792 12.5702L4.7993 12.5775L4.80657 12.5847L4.8138 12.592L4.82101 12.5992L4.82818 12.6064L4.83533 12.6135L4.84244 12.6206L4.84952 12.6277L4.85657 12.6347L4.86358 12.6418L4.87057 12.6487L4.87752 12.6557L4.88444 12.6626L4.89132 12.6695L4.89817 12.6764L4.90499 12.6832L4.91178 12.69L4.91853 12.6967L4.92525 12.7034L4.93194 12.7101L4.93859 12.7168L4.94521 12.7234L4.9518 12.73L4.95835 12.7365L4.96487 12.743L4.97135 12.7495L4.97779 12.756L4.98421 12.7624L4.99058 12.7688L4.99693 12.7751L5.00323 12.7814L5.00951 12.7877L5.01574 12.7939L5.02194 12.8001L5.02811 12.8063L5.03424 12.8124L5.04033 12.8185L5.04639 12.8246L5.05241 12.8306L5.05839 12.8366L5.06434 12.8425L5.07025 12.8484L5.07612 12.8543L5.08196 12.8601L5.08776 12.8659L5.09352 12.8717L5.09924 12.8774L5.10493 12.8831L5.11058 12.8888L5.11619 12.8944L5.12176 12.8999L5.12729 12.9055L5.13279 12.911L5.13825 12.9164L5.14366 12.9218L5.14904 12.9272L5.15438 12.9326L5.15968 12.9379L5.16495 12.9431L5.17017 12.9483L5.17535 12.9535L5.18049 12.9587L5.1856 12.9638L5.19066 12.9688L5.19568 12.9739L5.20066 12.9788L5.2056 12.9838L5.2105 12.9887L5.21536 12.9935L5.22018 12.9984L5.22496 13.0031L5.2297 13.0079L5.23439 13.0126L5.23904 13.0172L5.24366 13.0218L5.24823 13.0264L5.25275 13.0309L5.25724 13.0354L5.26168 13.0399L5.26608 13.0443L5.27044 13.0486L5.27476 13.0529L5.27903 13.0572L5.28326 13.0614L5.28744 13.0656L5.29159 13.0698L5.29569 13.0739L5.29974 13.0779L5.30375 13.0819L5.30772 13.0859L5.31165 13.0898L5.31552 13.0937L5.31936 13.0975L5.32315 13.1013L5.3269 13.1051L5.3306 13.1088L5.33425 13.1124L5.33786 13.116L5.34143 13.1196L5.34495 13.1231L5.34842 13.1266L5.35185 13.13L5.35524 13.1334L5.35857 13.1368L5.36187 13.14L5.36511 13.1433L5.36831 13.1465L5.37146 13.1496L5.37456 13.1527L5.37762 13.1558L5.38063 13.1588L5.3836 13.1618L5.38651 13.1647L5.38938 13.1676L5.3922 13.1704L5.39498 13.1732L5.3977 13.1759L5.40038 13.1786L5.40301 13.1812L5.40559 13.1838L5.40812 13.1863L5.4106 13.1888L5.41304 13.1912L5.41542 13.1936L5.41776 13.1959L5.42005 13.1982L5.42228 13.2005L5.42447 13.2027L5.42661 13.2048L5.4287 13.2069L5.43074 13.2089L5.43273 13.2109L5.43466 13.2128L5.43655 13.2147L5.43839 13.2166L5.44017 13.2184L5.44191 13.2201L5.44359 13.2218L5.44523 13.2234L5.44681 13.225L5.44834 13.2265L5.44982 13.228L5.45124 13.2294L5.45262 13.2308L5.45394 13.2321L5.45521 13.2334L5.45643 13.2346L5.45759 13.2358L5.45871 13.2369L5.45977 13.2379L5.46077 13.239L5.46173 13.2399L5.46263 13.2408L5.46348 13.2417L5.46427 13.2424L5.46501 13.2432L5.4657 13.2439L5.46633 13.2445L5.4669 13.2451L5.46743 13.2456L5.4679 13.2461L5.46831 13.2465L5.46867 13.2468L5.46898 13.2472L5.46922 13.2474L5.46942 13.2476L5.46956 13.2477L5.46964 13.2478L6 12.7175L5.46967 13.2478C5.76256 13.5407 6.23744 13.5407 6.53033 13.2478L6 12.7175L6.53033 13.2478L6.53035 13.2478L6.53038 13.2478L6.53041 13.2478L6.53046 13.2477L6.53051 13.2477L6.53058 13.2476L6.53065 13.2475L6.53074 13.2474L6.53084 13.2473L6.53094 13.2472L6.53106 13.2471L6.53119 13.247L6.53133 13.2469L6.53148 13.2467L6.53163 13.2465L6.5318 13.2464L6.53198 13.2462L6.53217 13.246L6.53238 13.2458L6.53259 13.2456L6.53281 13.2454L6.53304 13.2451L6.53329 13.2449L6.53354 13.2446L6.53381 13.2444L6.53408 13.2441L6.53437 13.2438L6.53467 13.2435L6.53498 13.2432L6.5353 13.2429L6.53563 13.2425L6.53597 13.2422L6.53632 13.2419L6.53669 13.2415L6.53706 13.2411L6.53745 13.2407L6.53785 13.2403L6.53826 13.2399L6.53868 13.2395L6.53911 13.2391L6.53955 13.2386L6.54 13.2382L6.54047 13.2377L6.54094 13.2372L6.54143 13.2367L6.54193 13.2362L6.54244 13.2357L6.54296 13.2352L6.5435 13.2347L6.54404 13.2341L6.5446 13.2336L6.54517 13.233L6.54575 13.2324L6.54634 13.2318L6.54694 13.2312L6.54756 13.2306L6.54819 13.23L6.54882 13.2294L6.54948 13.2287L6.55014 13.228L6.55081 13.2274L6.5515 13.2267L6.5522 13.226L6.55291 13.2253L6.55363 13.2245L6.55436 13.2238L6.55511 13.2231L6.55587 13.2223L6.55664 13.2215L6.55742 13.2208L6.55822 13.22L6.55902 13.2192L6.55984 13.2183L6.56068 13.2175L6.56152 13.2167L6.56238 13.2158L6.56325 13.2149L6.56413 13.2141L6.56502 13.2132L6.56593 13.2123L6.56685 13.2113L6.56778 13.2104L6.56872 13.2095L6.56968 13.2085L6.57065 13.2075L6.57163 13.2065L6.57262 13.2056L6.57363 13.2045L6.57465 13.2035L6.57568 13.2025L6.57673 13.2014L6.57779 13.2004L6.57886 13.1993L6.57994 13.1982L6.58104 13.1971L6.58215 13.196L6.58327 13.1949L6.58441 13.1938L6.58556 13.1926L6.58672 13.1915L6.58789 13.1903L6.58908 13.1891L6.59029 13.1879L6.5915 13.1867L6.59273 13.1854L6.59397 13.1842L6.59522 13.183L6.59649 13.1817L6.59777 13.1804L6.59907 13.1791L6.60038 13.1778L6.6017 13.1765L6.60303 13.1751L6.60438 13.1738L6.60574 13.1724L6.60712 13.1711L6.60851 13.1697L6.60991 13.1683L6.61133 13.1668L6.61276 13.1654L6.6142 13.164L6.61566 13.1625L6.61713 13.161L6.61862 13.1596L6.62012 13.1581L6.62163 13.1565L6.62316 13.155L6.6247 13.1535L6.62626 13.1519L6.62783 13.1504L6.62941 13.1488L6.63101 13.1472L6.63262 13.1456L6.63424 13.1439L6.63588 13.1423L6.63754 13.1406L6.63921 13.139L6.64089 13.1373L6.64258 13.1356L6.6443 13.1339L6.64602 13.1322L6.64776 13.1304L6.64951 13.1287L6.65128 13.1269L6.65307 13.1251L6.65486 13.1233L6.65668 13.1215L6.6585 13.1197L6.66034 13.1178L6.6622 13.116L6.66407 13.1141L6.66596 13.1122L6.66786 13.1103L6.66977 13.1084L6.6717 13.1065L6.67364 13.1045L6.6756 13.1026L6.67758 13.1006L6.67957 13.0986L6.68157 13.0966L6.68359 13.0946L6.68562 13.0926L6.68767 13.0905L6.68973 13.0884L6.69181 13.0864L6.69391 13.0843L6.69602 13.0822L6.69814 13.08L6.70028 13.0779L6.70244 13.0757L6.70461 13.0736L6.70679 13.0714L6.70899 13.0692L6.71121 13.067L6.71344 13.0647L6.71569 13.0625L6.71795 13.0602L6.72023 13.058L6.72252 13.0557L6.72483 13.0533L6.72715 13.051L6.72949 13.0487L6.73185 13.0463L6.73422 13.044L6.73661 13.0416L6.73901 13.0392L6.74143 13.0367L6.74386 13.0343L6.74631 13.0319L6.74878 13.0294L6.75126 13.0269L6.75376 13.0244L6.75627 13.0219L6.7588 13.0194L6.76135 13.0168L6.76391 13.0143L6.76649 13.0117L6.76908 13.0091L6.77169 13.0065L6.77432 13.0039L6.77696 13.0012L6.77962 12.9986L6.78229 12.9959L6.78499 12.9932L6.78769 12.9905L6.79042 12.9878L6.79316 12.985L6.79591 12.9823L6.79869 12.9795L6.80148 12.9767L6.80428 12.9739L6.80711 12.9711L6.80994 12.9682L6.8128 12.9654L6.81567 12.9625L6.81856 12.9596L6.82147 12.9567L6.82439 12.9538L6.82733 12.9509L6.83028 12.9479L6.83326 12.9449L6.83625 12.9419L6.83925 12.9389L6.84228 12.9359L6.84532 12.9329L6.84837 12.9298L6.85145 12.9267L6.85454 12.9236L6.85765 12.9205L6.86077 12.9174L6.86391 12.9143L6.86707 12.9111L6.87025 12.9079L6.87344 12.9047L6.87666 12.9015L6.87988 12.8983L6.88313 12.895L6.88639 12.8918L6.88967 12.8885L6.89297 12.8852L6.89629 12.8819L6.89962 12.8786L6.90297 12.8752L6.90634 12.8718L6.90972 12.8685L6.91312 12.8651L6.91654 12.8616L6.91998 12.8582L6.92344 12.8547L6.92691 12.8513L6.9304 12.8478L6.93391 12.8443L6.93744 12.8407L6.94098 12.8372L6.94454 12.8336L6.94812 12.8301L6.95172 12.8265L6.95534 12.8228L6.95897 12.8192L6.96262 12.8156L6.96629 12.8119L6.96998 12.8082L6.97369 12.8045L6.97741 12.8008L6.98115 12.797L6.98491 12.7933L6.98869 12.7895L6.99249 12.7857L6.99631 12.7819L7.00014 12.778L7.00399 12.7742L7.00786 12.7703L7.01175 12.7664L7.01566 12.7625L7.01958 12.7586L7.02353 12.7547L7.02749 12.7507L7.03147 12.7467L7.03547 12.7427L7.03949 12.7387L7.04353 12.7347L7.04758 12.7306L7.05166 12.7265L7.05575 12.7224L7.05986 12.7183L7.06399 12.7142L7.06814 12.71L7.07231 12.7059L7.0765 12.7017L7.0807 12.6975L7.08493 12.6933L7.08917 12.689L7.09343 12.6847L7.09772 12.6805L7.10202 12.6762L7.10634 12.6718L7.11068 12.6675L7.11504 12.6631L7.11941 12.6588L7.12381 12.6544L7.12823 12.65L7.13266 12.6455L7.13712 12.6411L7.14159 12.6366L7.14609 12.6321L7.1506 12.6276L7.15513 12.623L7.15968 12.6185L7.16426 12.6139L7.16885 12.6093L7.17346 12.6047L7.17809 12.6001L7.18274 12.5954L7.18741 12.5908L7.1921 12.5861L7.1968 12.5814L7.20153 12.5766L7.20628 12.5719L7.21105 12.5671L7.21584 12.5623L7.22064 12.5575L7.22547 12.5527L7.23032 12.5479L7.23519 12.543L7.24008 12.5381L7.24498 12.5332L7.24991 12.5283L7.25486 12.5233L7.25983 12.5184L7.26482 12.5134L7.26982 12.5084L7.27485 12.5033L7.2799 12.4983L7.28497 12.4932L7.29006 12.4881L7.29517 12.483L7.3003 12.4779L7.30545 12.4727L7.31062 12.4676L7.31581 12.4624L7.32102 12.4572L7.32626 12.4519L7.33151 12.4467L7.33678 12.4414L7.34208 12.4361L7.34739 12.4308L7.35273 12.4255L7.35808 12.4201L7.36346 12.4147L7.36886 12.4093L7.37427 12.4039L7.37971 12.3985L7.38517 12.393L7.39065 12.3875L7.39616 12.382L7.40168 12.3765L7.40722 12.371L7.41279 12.3654L7.41837 12.3598L7.42398 12.3542L7.42961 12.3486L7.43526 12.3429L7.44093 12.3373L7.44662 12.3316L7.45233 12.3258L7.45806 12.3201L7.46382 12.3144L7.4696 12.3086L7.47539 12.3028L7.48121 12.297L7.48705 12.2911L7.49292 12.2853L7.4988 12.2794L7.5047 12.2735L7.51063 12.2675L7.51658 12.2616L7.52255 12.2556L7.52854 12.2496L7.53455 12.2436L7.54059 12.2376L7.54664 12.2315L7.55272 12.2255L7.55882 12.2194L7.56494 12.2132L7.57109 12.2071L7.57725 12.2009L7.58344 12.1947L7.58965 12.1885L7.59588 12.1823L7.60213 12.176L7.60841 12.1698L7.6147 12.1635L7.62102 12.1572L7.62736 12.1508L7.63373 12.1445L7.64011 12.1381L7.64652 12.1317L7.65295 12.1252L7.6594 12.1188L7.66588 12.1123L7.67238 12.1058L7.67889 12.0993L7.68544 12.0927L7.692 12.0862L7.69859 12.0796L7.7052 12.073L7.71183 12.0663L7.71848 12.0597L7.72516 12.053L7.73186 12.0463L7.73858 12.0396L7.74532 12.0329L7.75209 12.0261L7.75888 12.0193L7.76569 12.0125L7.77253 12.0056L7.77939 11.9988L7.78627 11.9919L7.79317 11.985L7.8001 11.9781L7.80705 11.9711L7.81402 11.9642L7.82102 11.9572L7.82804 11.9501L7.83508 11.9431L7.84214 11.936L7.84923 11.9289L7.85634 11.9218L7.86348 11.9147L7.87064 11.9075L7.87782 11.9004L7.88502 11.8932L7.89225 11.8859L7.8995 11.8787L7.90677 11.8714L7.91407 11.8641L7.92139 11.8568L7.92874 11.8494L7.93611 11.8421L7.9435 11.8347L7.95091 11.8273L7.95835 11.8198L7.96581 11.8124L7.9733 11.8049L7.98081 11.7974L7.98834 11.7898L7.9959 11.7823L8 11.7782Z" fill="currentColor"/>
</svg>
