<svg width="20" height="20" viewBox="0 0 20 20" fill="none" xmlns="http://www.w3.org/2000/svg">
<path d="M9.99922 17C9.99922 14.7879 5.9534 14.1485 3.61585 13.9634C3.17298 13.928 2.76136 13.7486 2.46222 13.4606C2.16309 13.1726 1.99817 12.797 2.00002 12.4078V4.55505C2.00011 4.3369 2.05263 4.12121 2.15416 3.92198C2.2557 3.72274 2.40399 3.54443 2.58939 3.39861C2.77479 3.25279 2.99317 3.14272 3.23034 3.07556C3.46751 3.0084 3.71817 2.98564 3.96604 3.00876C6.33381 3.22811 9.99922 3.90791 9.99922 6.01422V17Z" stroke="#676879" stroke-width="1.5" stroke-linecap="round" stroke-linejoin="round"/>
<path d="M10.0008 17C10.0008 14.7879 14.0466 14.1485 16.3841 13.9634C16.827 13.928 17.2386 13.7486 17.5378 13.4606C17.8369 13.1726 18.0018 12.797 18 12.4078V4.55505C17.9999 4.3369 17.9474 4.12121 17.8458 3.92198C17.7443 3.72274 17.596 3.54443 17.4106 3.39861C17.2252 3.25279 17.0068 3.14272 16.7697 3.07556C16.5325 3.0084 16.2818 2.98564 16.034 3.00876C13.6662 3.22811 10.0008 3.90791 10.0008 6.01422V17Z" stroke="#676879" stroke-width="1.5" stroke-linecap="round" stroke-linejoin="round"/>
</svg>
