<svg width="16" height="16" viewBox="0 0 16 16"  xmlns="http://www.w3.org/2000/svg">
<g clip-path="url(#clip0)">
<path fill-rule="evenodd" clip-rule="evenodd" d="M7.1185 0.561095C7.27851 0.21874 7.62211 0 8 0C8.37788 0 8.72148 0.21874 8.8815 0.561095L10.8578 4.78826H15.0269C15.4172 4.78826 15.7699 5.02148 15.9226 5.38094C16.075 5.73989 15.9986 6.15566 15.7273 6.43695L12.5882 9.69247L13.8628 14.7908C13.9573 15.1688 13.8173 15.5672 13.5061 15.8026C13.3332 15.9336 13.126 16 12.9187 16C12.753 16 12.5863 15.9578 12.4359 15.8718L8 13.3368L3.5641 15.8718C3.22607 16.0645 2.80462 16.0378 2.49384 15.8026C2.18274 15.5672 2.04273 15.1688 2.13723 14.7908L3.41182 9.69247L0.272724 6.43696C0.272705 6.43694 0.272743 6.43698 0.272724 6.43696C0.00146487 6.15567 -0.0749788 5.73988 0.0774319 5.38094C0.230058 5.02148 0.582753 4.78826 0.973118 4.78826H5.14217L7.1185 0.561095ZM7.79441 1.06927C7.79445 1.06936 7.79437 1.06918 7.79441 1.06927ZM8 1.509L9.93248 5.64237C10.0311 5.85341 10.243 5.98826 10.476 5.98826H14.4929L11.4935 9.09891C11.3499 9.24782 11.2932 9.46021 11.3434 9.6609L12.5696 14.5661L8.29769 12.1249C8.11322 12.0194 7.88677 12.0194 7.7023 12.1249L3.43035 14.5661L4.65664 9.6609C4.70681 9.46021 4.65006 9.24783 4.50647 9.09891L1.50706 5.98826H5.52398C5.75695 5.98826 5.96885 5.85341 6.06751 5.64237L8 1.509ZM3.30148 15.0816C3.30151 15.0815 3.30146 15.0817 3.30148 15.0816ZM14.8635 5.60395C14.8635 5.60397 14.8635 5.60393 14.8635 5.60395ZM8.20548 1.06949C8.20552 1.0694 8.20544 1.06958 8.20548 1.06949Z" fill="currentColor"/>
</g>
<defs>
<clipPath id="clip0">
<rect width="16" height="16" fill="white"/>
</clipPath>
</defs>
</svg>
