<svg width="16" height="16" viewBox="0 0 16 16" fill="none" xmlns="http://www.w3.org/2000/svg">
<path d="M8.84846 2.636C8.99331 2.23983 9.16378 1.97859 9.33668 1.82212C9.49341 1.68028 9.67635 1.59999 9.94227 1.59999H12.1667C12.6269 1.59999 13 1.24182 13 0.799995C13 0.35817 12.6269 0 12.1667 0H9.94227C9.24601 0 8.65557 0.239707 8.1935 0.657866C7.75109 1.05824 7.46075 1.5896 7.26369 2.13991L7.25464 2.16517L5.97024 6.72028H3.4992C3.03898 6.72028 2.6659 7.07846 2.6659 7.52028C2.6659 7.96211 3.03898 8.32028 3.4992 8.32028H5.51909L4.10475 13.3362C3.92773 13.964 3.33437 14.3999 2.65692 14.3999H0.833297C0.37308 14.3999 0 14.7581 0 15.1999C0 15.6417 0.37308 15.9999 0.833297 15.9999H2.65692C4.08709 15.9999 5.33974 15.0796 5.71344 13.7543L7.24566 8.32028H9.83225C10.2925 8.32028 10.6656 7.96211 10.6656 7.52028C10.6656 7.07846 10.2925 6.72028 9.83225 6.72028H7.69681L8.84846 2.636Z" fill="currentColor"/>
<path d="M15.675 10.1124C16.0244 10.3999 16.0649 10.9049 15.7654 11.2404L14.2301 12.96L15.7652 14.6794C16.0647 15.0148 16.0242 15.5199 15.6748 15.8074C15.3254 16.0949 14.7993 16.0561 14.4998 15.7206L13.1326 14.1892L11.7656 15.7204C11.466 16.0558 10.94 16.0947 10.5906 15.8071C10.2411 15.5196 10.2007 15.0146 10.5002 14.6791L12.0351 12.96L10.5 11.2406C10.2005 10.9052 10.241 10.4002 10.5904 10.1126C10.9398 9.82508 11.4659 9.86393 11.7654 10.1994L13.1326 11.7307L14.5 10.1991C14.7995 9.86367 15.3256 9.82482 15.675 10.1124Z" fill="currentColor"/>
</svg>
