<svg width="20" height="20" viewBox="0 0 20 20" fill="none" xmlns="http://www.w3.org/2000/svg">
<path d="M8.38281 12.9091C8.09268 13.2549 7.68256 13.5241 7.15245 13.7166C6.62234 13.9055 6.03492 14 5.39019 14C4.71323 14 4.11865 13.8538 3.60645 13.5615C3.09783 13.2656 2.70383 12.8378 2.42445 12.2781C2.14865 11.7184 2.00716 11.0606 2 10.3048V9.7754C2 8.99822 2.13074 8.3262 2.39221 7.75936C2.65726 7.18895 3.03694 6.75401 3.53123 6.45455C4.0291 6.15152 4.61115 6 5.27737 6C6.20506 6 6.93038 6.22103 7.45332 6.6631C7.97627 7.1016 8.2861 7.74153 8.38281 8.58289H6.81397C6.74233 8.13725 6.58294 7.81105 6.3358 7.60428C6.09223 7.3975 5.75554 7.29412 5.32572 7.29412C4.7777 7.29412 4.36042 7.49911 4.07388 7.90909C3.78733 8.31907 3.64227 8.9287 3.63868 9.73797V10.2353C3.63868 11.0517 3.79449 11.6684 4.10611 12.0856C4.41773 12.5027 4.87441 12.7112 5.47616 12.7112C6.08149 12.7112 6.5131 12.5829 6.77099 12.3262V10.984H5.30423V9.80214H8.38281V12.9091Z" fill="currentColor"/>
<path d="M11.4077 13.893H9.79584V6.10695H11.4077V13.893Z" fill="currentColor"/>
<path d="M17.6132 10.7112H14.5185V13.893H12.9066V6.10695H18V7.40642H14.5185V9.41711H17.6132V10.7112Z" fill="currentColor"/>
</svg>
