<svg width="20" height="20" viewBox="0 0 20 20" fill="none" xmlns="http://www.w3.org/2000/svg">
<path d="M15.4947 13.5053L14.392 15.7106C14.2763 15.942 14.2364 16.204 14.2779 16.4593C14.3194 16.7147 14.4403 16.9505 14.6233 17.1333C14.7377 17.2479 14.8736 17.3389 15.0231 17.4009C15.1727 17.463 15.3331 17.4949 15.495 17.4949C15.6569 17.4949 15.8173 17.463 15.9668 17.4009C16.1164 17.3389 16.2523 17.2479 16.3667 17.1333C16.5496 16.9504 16.6703 16.7146 16.7117 16.4592C16.7531 16.2039 16.7131 15.942 16.5973 15.7106L15.4947 13.5053Z" fill="currentColor"/>
<path d="M9.81267 5.30603C9.6584 5.15178 9.44917 5.06512 9.231 5.06512C9.01284 5.06512 8.80361 5.15178 8.64934 5.30603L3.99534 9.96136C3.76605 10.1904 3.58415 10.4625 3.46005 10.7619C3.33594 11.0613 3.27206 11.3822 3.27206 11.7064C3.27206 12.0305 3.33594 12.3514 3.46005 12.6508C3.58415 12.9503 3.76605 13.2223 3.99534 13.4514L6.322 15.7787C6.5511 16.0081 6.82316 16.1901 7.12264 16.3142C7.42212 16.4384 7.74314 16.5023 8.06734 16.5023C8.39154 16.5023 8.71255 16.4384 9.01203 16.3142C9.31151 16.1901 9.58358 16.0081 9.81267 15.7787L13.594 11.9974L15.3613 11.8007C15.4383 11.7921 15.5112 11.7619 15.5718 11.7137C15.6323 11.6655 15.678 11.6011 15.7037 11.5281C15.7293 11.455 15.7338 11.3762 15.7166 11.3008C15.6995 11.2253 15.6614 11.1562 15.6067 11.1014L9.81267 5.30603Z" stroke="currentColor" stroke-width="1.5" stroke-linecap="round" stroke-linejoin="round"/>
<path d="M5.22733 8.72733V5C5.22733 4.46957 5.43804 3.96086 5.81311 3.58579C6.18818 3.21071 6.69689 3 7.22732 3C7.48997 3 7.75004 3.05173 7.99269 3.15224C8.23534 3.25275 8.45582 3.40007 8.64154 3.58579C8.82726 3.7715 8.97457 3.99198 9.07508 4.23463C9.17559 4.47728 9.22732 4.73736 9.22732 5" stroke="currentColor" stroke-width="1.5" stroke-linecap="round" stroke-linejoin="round"/>
</svg>
