<svg width="20" height="20" viewBox="0 0 20 20" fill="none" xmlns="http://www.w3.org/2000/svg">
<g clip-path="url(#clip0)">
<path d="M2.57141 4.56839C2.57141 3.46382 3.46684 2.56839 4.57141 2.56839H15.4286C16.5331 2.56839 17.4286 3.46382 17.4286 4.56839V15.4255C17.4286 16.5301 16.5331 17.4255 15.4286 17.4255H4.57141C3.46684 17.4255 2.57141 16.5301 2.57141 15.4255V4.56839Z" stroke="currentColor" stroke-width="1.5" stroke-linecap="round" stroke-linejoin="round"/>
<path d="M6.28495 7.1398C6.22848 7.13995 6.17331 7.15684 6.12643 7.18832C6.07954 7.21981 6.04304 7.26448 6.02153 7.3167C6.00002 7.36892 5.99447 7.42635 6.00558 7.48172C6.01669 7.53709 6.04397 7.58793 6.08395 7.62781C6.12394 7.6677 6.17485 7.69483 6.23025 7.70579C6.28566 7.71676 6.34306 7.71105 6.39523 7.68941C6.44739 7.66776 6.49197 7.63114 6.52333 7.58417C6.55469 7.5372 6.57143 7.48199 6.57143 7.42552C6.57143 7.34974 6.54133 7.27707 6.48774 7.22348C6.43416 7.1699 6.36149 7.1398 6.28571 7.1398" stroke="currentColor" stroke-width="1.5" stroke-linecap="round" stroke-linejoin="round"/>
<path d="M15.1429 13.997L12.1943 9.55048C12.1426 9.47321 12.0728 9.40975 11.9909 9.36563C11.9091 9.3215 11.8177 9.29804 11.7247 9.29729C11.6317 9.29654 11.54 9.31852 11.4574 9.36132C11.3749 9.40412 11.304 9.46644 11.2511 9.54286L9.73107 11.7143L8.78859 10.9608C8.72673 10.9114 8.65528 10.8754 8.57877 10.855C8.50225 10.8347 8.42235 10.8305 8.34413 10.8427C8.2659 10.8548 8.19106 10.8831 8.12435 10.9258C8.05764 10.9684 8.00051 11.0244 7.95659 11.0903L6.01678 13.997H15.1429Z" stroke="currentColor" stroke-width="1.5" stroke-linecap="round" stroke-linejoin="round"/>
</g>
<defs>
<clipPath id="clip0">
<rect x="2" y="2" width="16" height="16" rx="2" fill="white"/>
</clipPath>
</defs>
</svg>
