<svg width="16" height="16" viewBox="0 0 16 16" xmlns="http://www.w3.org/2000/svg">
<g clip-path="url(#clip0)">
<path fill-rule="evenodd" clip-rule="evenodd" d="M8.67129 0.666894C8.67129 0.335524 8.40266 0.0668945 8.07129 0.0668945C7.73992 0.0668945 7.47129 0.335524 7.47129 0.666894V8.28933L5.12347 5.94151C4.88915 5.70719 4.50925 5.70719 4.27494 5.94151C4.04063 6.17582 4.04063 6.55572 4.27494 6.79004L7.64703 10.1621C7.88134 10.3964 8.26124 10.3964 8.49555 10.1621L11.8676 6.79004C12.102 6.55572 12.102 6.17582 11.8676 5.94151C11.6333 5.70719 11.2534 5.70719 11.0191 5.94151L8.67129 8.28933L8.67129 0.666894ZM1.19866 10.7334C0.571594 10.7334 0.0664062 11.2386 0.0664062 11.8657V15.0108C0.0664062 15.6379 0.571595 16.1431 1.19866 16.1431H14.8008C15.4279 16.1431 15.9331 15.6379 15.9331 15.0108V11.8657C15.9331 11.2386 15.4279 10.7334 14.8008 10.7334H11.0494C10.8071 10.7334 10.5886 10.8791 10.4955 11.1028C10.0875 12.0828 9.14679 12.7335 7.99961 12.7335C6.85236 12.7335 5.91126 12.0827 5.50333 11.1028C5.41021 10.8791 5.1917 10.7334 4.94941 10.7334H1.19866ZM1.26641 14.9431V11.9334H4.57247C5.23857 13.1545 6.5167 13.9335 7.99961 13.9335C9.4826 13.9335 10.7604 13.1545 11.4264 11.9334H14.7331V14.9431H1.26641Z" fill="currentColor"/>
</g>
<defs>
<clipPath id="clip0">
<rect width="16" height="16" fill="white"/>
</clipPath>
</defs>
</svg>
