<svg width="20" height="20" viewBox="0 0 20 20" fill="none" xmlns="http://www.w3.org/2000/svg">
<path fill-rule="evenodd" clip-rule="evenodd" d="M10 2.25C10.4142 2.25 10.75 2.58579 10.75 3V8.43953L12.0315 7.41435C12.3549 7.15559 12.8269 7.20803 13.0857 7.53148C13.3444 7.85493 13.292 8.32689 12.9685 8.58565L10.4732 10.5819C10.3441 10.687 10.1794 10.75 10 10.75C9.82058 10.75 9.65587 10.687 9.5268 10.5819L7.03148 8.58565C6.70803 8.32689 6.65559 7.85493 6.91435 7.53148C7.17311 7.20803 7.64507 7.15559 7.96852 7.41435L9.25 8.43953V3C9.25 2.58579 9.58579 2.25 10 2.25ZM2.76256 11.7626C3.09075 11.4344 3.53587 11.25 4 11.25H6.55467C6.82391 11.25 7.07249 11.3943 7.20599 11.6281C7.48731 12.1209 7.89393 12.5304 8.38462 12.8153C8.87531 13.1002 9.43261 13.2503 10 13.2503C10.5674 13.2503 11.1247 13.1002 11.6154 12.8153C12.1061 12.5304 12.5127 12.1209 12.794 11.6281C12.9275 11.3943 13.1761 11.25 13.4453 11.25H16C16.4641 11.25 16.9092 11.4344 17.2374 11.7626C17.5656 12.0908 17.75 12.5359 17.75 13V16C17.75 16.4641 17.5656 16.9092 17.2374 17.2374C16.9092 17.5656 16.4641 17.75 16 17.75H4C3.53587 17.75 3.09075 17.5656 2.76256 17.2374C2.43437 16.9092 2.25 16.4641 2.25 16V13C2.25 12.5359 2.43437 12.0908 2.76256 11.7626ZM4 12.75C3.9337 12.75 3.87011 12.7763 3.82322 12.8232C3.77634 12.8701 3.75 12.9337 3.75 13V16C3.75 16.0663 3.77634 16.1299 3.82322 16.1768C3.87011 16.2237 3.9337 16.25 4 16.25H16C16.0663 16.25 16.1299 16.2237 16.1768 16.1768C16.2237 16.1299 16.25 16.0663 16.25 16V13C16.25 12.9337 16.2237 12.8701 16.1768 12.8232C16.1299 12.7763 16.0663 12.75 16 12.75H13.8563C13.4654 13.3047 12.9584 13.7701 12.3685 14.1126C11.649 14.5302 10.8319 14.7503 10 14.7503C9.16808 14.7503 8.35095 14.5302 7.63149 14.1126C7.04161 13.7701 6.53459 13.3047 6.14374 12.75H4Z" fill="currentColor"/>
</svg>
