<svg width="16" height="16" viewBox="0 0 16 16" xmlns="http://www.w3.org/2000/svg">
<path fill-rule="evenodd" clip-rule="evenodd" d="M5.53301 3.66191C5.53301 2.33918 6.60529 1.26689 7.92802 1.26689C9.25075 1.26689 10.323 2.33918 10.323 3.66191C10.323 4.98464 9.25075 6.05693 7.92802 6.05693C6.60529 6.05693 5.53301 4.98464 5.53301 3.66191ZM7.92802 0.0668945C5.94255 0.0668945 4.33301 1.67644 4.33301 3.66191C4.33301 5.64738 5.94255 7.25693 7.92802 7.25693C9.91349 7.25693 11.523 5.64738 11.523 3.66191C11.523 1.67644 9.91349 0.0668945 7.92802 0.0668945ZM7.13723 8.40039C3.43064 8.40039 0.400391 11.3438 0.400391 15.0004C0.400391 15.3318 0.66902 15.6004 1.00039 15.6004H9.1235C9.45487 15.6004 9.7235 15.3318 9.7235 15.0004C9.7235 14.669 9.45487 14.4004 9.1235 14.4004H1.63431C1.94017 11.7112 4.27733 9.60039 7.13723 9.60039C8.43166 9.60039 9.66935 10.0429 10.6183 10.8267C10.8738 11.0377 11.252 11.0016 11.463 10.7461C11.674 10.4906 11.638 10.1125 11.3825 9.90144C10.2116 8.93438 8.70153 8.40039 7.13723 8.40039ZM13.0004 10.3999C13.3318 10.3999 13.6004 10.6685 13.6004 10.9999V12.3999H14.9996C15.331 12.3999 15.5996 12.6685 15.5996 12.9999C15.5996 13.3313 15.331 13.5999 14.9996 13.5999H13.6004V14.9999C13.6004 15.3313 13.3318 15.5999 13.0004 15.5999C12.669 15.5999 12.4004 15.3313 12.4004 14.9999V13.5999H10.9996C10.6682 13.5999 10.3996 13.3313 10.3996 12.9999C10.3996 12.6685 10.6682 12.3999 10.9996 12.3999H12.4004V10.9999C12.4004 10.6685 12.669 10.3999 13.0004 10.3999Z" fill="currentColor"/>
</svg>
