<svg width="20" height="20" viewBox="0 0 20 20" fill="none" xmlns="http://www.w3.org/2000/svg">
<path d="M5.72208 7.60015L11.182 4.24021C11.3663 4.10643 11.5855 4.02494 11.815 4.00487C12.0445 3.98481 12.2753 4.02696 12.4814 4.12661C12.6873 4.22643 12.8605 4.37973 12.9814 4.56934C13.1024 4.75895 13.1664 5.12126 13.1663 5.34406M5.72208 7.60015V12.4001M5.72208 7.60015H3.24069C2.91164 7.60015 2.59607 7.72658 2.36339 7.95162C2.13072 8.17666 2 8.48188 2 8.80013V11.2001C2 11.5183 2.13072 11.8236 2.36339 12.0486C2.59607 12.2736 2.91164 12.4001 3.24069 12.4001H5.72208M5.72208 7.60015V10.0001V12.4001M13.5596 10.3333V14.8983C13.5596 15.1212 13.4954 15.3396 13.3743 15.5292C13.2531 15.7188 13.0798 15.872 12.8737 15.9716C12.6676 16.0713 12.4369 16.1135 12.2074 16.0935C11.978 16.0734 11.7588 15.992 11.5744 15.8583L8.97175 14.4351" stroke="currentColor" stroke-width="1.5" stroke-linecap="round" stroke-linejoin="round"/>
<path fill-rule="evenodd" clip-rule="evenodd" d="M17.21 4.37147C17.455 4.70549 17.3828 5.17485 17.0488 5.4198L4.76779 16.9976C4.43376 17.2425 3.96441 17.1703 3.71946 16.8363C3.47451 16.5023 3.54672 16.0329 3.88074 15.788L16.1617 4.21019C16.4957 3.96524 16.9651 4.03745 17.21 4.37147Z" fill="currentColor"/>
</svg>
