<svg width="16" height="16" viewBox="0 0 16 16"  xmlns="http://www.w3.org/2000/svg">
<path fill-rule="evenodd" clip-rule="evenodd" d="M4.60039 0.999902C4.60039 0.668532 4.33176 0.399902 4.00039 0.399902C3.66902 0.399902 3.40039 0.668532 3.40039 0.999902V2.3999H2.00039C1.11674 2.3999 0.400391 3.11625 0.400391 3.9999V13.9999C0.400391 14.8836 1.11673 15.5999 2.00039 15.5999H7.22261C7.55398 15.5999 7.82261 15.3313 7.82261 14.9999C7.82261 14.6685 7.55398 14.3999 7.22261 14.3999H2.00039C1.77948 14.3999 1.60039 14.2208 1.60039 13.9999V6.5999H14.4004V8.2499C14.4004 8.58127 14.669 8.8499 15.0004 8.8499C15.3318 8.8499 15.6004 8.58127 15.6004 8.2499V3.9999C15.6004 3.11625 14.884 2.3999 14.0004 2.3999H11.6004V0.999902C11.6004 0.668532 11.3318 0.399902 11.0004 0.399902C10.669 0.399902 10.4004 0.668532 10.4004 0.999902V2.3999H4.60039V0.999902ZM1.60039 3.9999C1.60039 3.77899 1.77948 3.5999 2.00039 3.5999H14.0004C14.2213 3.5999 14.4004 3.77899 14.4004 3.9999V5.3999H1.60039V3.9999ZM14.5884 10.5639L10.7651 14.1748L9.41237 12.8972C9.17146 12.6697 8.79171 12.6805 8.56418 12.9215C8.33666 13.1624 8.34751 13.5421 8.58842 13.7696L10.3454 15.429C10.3429 15.4266 10.3413 15.4252 10.3468 15.4304L10.3531 15.4363C10.5844 15.6547 10.9458 15.6547 11.1771 15.4363L15.4124 11.4363C15.6533 11.2088 15.6641 10.829 15.4366 10.5881C15.2091 10.3472 14.8293 10.3364 14.5884 10.5639Z" fill="currentColor"/>
</svg>
