<svg width="20" height="20" viewBox="0 0 20 20" fill="none" xmlns="http://www.w3.org/2000/svg">
<path fill-rule="evenodd" clip-rule="evenodd" d="M16.9224 3.0777C17.2153 3.3706 17.2153 3.84547 16.9224 4.13836L4.13848 16.9223C3.84559 17.2152 3.37072 17.2152 3.07782 16.9223C2.78493 16.6294 2.78493 16.1545 3.07782 15.8616L15.8617 3.0777C16.1546 2.78481 16.6295 2.78481 16.9224 3.0777Z" fill="currentColor"/>
<path fill-rule="evenodd" clip-rule="evenodd" d="M12.158 5.05997C11.4057 4.57023 10.5076 4.28571 9.54286 4.28571C7.23555 4.28571 5.30913 5.91319 4.84783 8.08317C3.20554 8.5374 2 10.0417 2 11.8286C2 12.8362 2.38358 13.7543 3.01269 14.4448C3.13876 14.5992 3.33063 14.6978 3.54554 14.6978C3.92524 14.6978 4.23304 14.39 4.23304 14.0103C4.23304 13.811 4.14824 13.6315 4.01274 13.506C3.61396 13.061 3.37143 12.4731 3.37143 11.8286C3.37143 10.5565 4.31673 9.50409 5.54293 9.33737L6.07722 9.26472L6.13263 8.72837C6.31087 7.00308 7.77012 5.65713 9.54286 5.65713C10.254 5.65713 10.9148 5.87375 11.4626 6.24458C11.4647 6.24604 11.4669 6.24739 11.4691 6.24865C11.5761 6.31727 11.7033 6.35706 11.8398 6.35706C12.2195 6.35706 12.5273 6.04926 12.5273 5.66956C12.5273 5.40468 12.3775 5.17478 12.158 5.05997ZM14.1412 7.94025C14.1661 7.94025 14.1906 7.94156 14.2147 7.94412C16.3143 7.99738 18 9.71611 18 11.8286C18 13.9746 16.2603 15.7143 14.1143 15.7143C14.0545 15.7143 13.995 15.7129 13.9358 15.7102V15.7143H7.4232L7.42089 15.7143L7.41857 15.7143H7.36355L7.3618 15.7118C7.00976 15.6818 6.73339 15.3866 6.73339 15.0268C6.73339 14.6471 7.04119 14.3393 7.42089 14.3393C7.44468 14.3393 7.46819 14.3405 7.49136 14.3428H12.5644H12.9181H13.3153L14.1143 14.3428C15.5029 14.3428 16.6286 13.2172 16.6286 11.8286C16.6286 10.4573 15.5308 9.34241 14.1661 9.3148C14.1579 9.31509 14.1496 9.31525 14.1412 9.31525L14.1367 9.31523L13.8828 9.31525C13.5204 9.29596 13.2325 8.99498 13.2325 8.62775C13.2325 8.26051 13.5204 7.96053 13.8828 7.94123L13.9167 7.94025L13.92 7.94025L13.9232 7.94025H14.1367L14.1412 7.94025Z" fill="currentColor"/>
</svg>
