<svg width="32" height="32" viewBox="0 0 32 32" fill="none" xmlns="http://www.w3.org/2000/svg">
<path d="M11.5692 13.3419C11.5692 14.517 12.036 15.644 12.8669 16.4749C13.6978 17.3059 14.8248 17.7727 15.9999 17.7727C17.1751 17.7727 18.302 17.3059 19.133 16.4749C19.9639 15.644 20.4307 14.517 20.4307 13.3419C20.4307 12.1668 19.9639 11.0398 19.133 10.2089C18.302 9.37794 17.1751 8.91113 15.9999 8.91113C14.8248 8.91113 13.6978 9.37794 12.8669 10.2089C12.036 11.0398 11.5692 12.1668 11.5692 13.3419Z" stroke="#676879" stroke-width="1.47368" stroke-linecap="round" stroke-linejoin="round"/>
<path d="M8.43044 24.6842C9.22111 23.3852 10.3328 22.3116 11.6585 21.5665C12.9842 20.8215 14.4793 20.4302 16 20.4302C17.5207 20.4302 19.0158 20.8215 20.3415 21.5665C21.6671 22.3116 22.7788 23.3852 23.5695 24.6842" stroke="#676879" stroke-width="1.47368" stroke-linecap="round" stroke-linejoin="round"/>
<path d="M4.48007 16C4.48007 19.0553 5.69378 21.9854 7.8542 24.1459C10.0146 26.3063 12.9448 27.52 16.0001 27.52C19.0554 27.52 21.9855 26.3063 24.1459 24.1459C26.3064 21.9854 27.5201 19.0553 27.5201 16C27.5201 12.9447 26.3064 10.0145 24.1459 7.85411C21.9855 5.69369 19.0554 4.47998 16.0001 4.47998C12.9448 4.47998 10.0146 5.69369 7.8542 7.85411C5.69378 10.0145 4.48007 12.9447 4.48007 16V16Z" stroke="#676879" stroke-width="1.47368" stroke-linecap="round" stroke-linejoin="round"/>
</svg>
