<svg width="20" height="20" viewBox="0 0 20 20" fill="none" xmlns="http://www.w3.org/2000/svg">
<path fill-rule="evenodd" clip-rule="evenodd" d="M13.6441 2.50263C13.4009 2.41523 13.1412 2.38304 12.8839 2.4084C12.6267 2.43376 12.3783 2.51603 12.1567 2.64925C11.9352 2.78247 11.7461 2.9633 11.603 3.17864L11.6018 3.18045L9.26537 6.72627L4.36555 7.85775C4.14024 7.90739 3.93241 8.01674 3.76387 8.17438C3.59417 8.33312 3.47065 8.53488 3.40647 8.75822C3.34228 8.98155 3.33982 9.21811 3.39935 9.44273C3.4585 9.66594 3.57667 9.86907 3.74141 10.0308L6.83124 13.1211L2.57576 17.3766C2.34145 17.6109 2.34145 17.9908 2.57576 18.2251C2.81007 18.4595 3.18997 18.4595 3.42429 18.2251L7.6797 13.9697L10.7711 17.0617L10.7715 17.062C10.9345 17.2248 11.1382 17.3411 11.3613 17.3987C11.5844 17.4562 11.8189 17.4531 12.0404 17.3895C12.2619 17.3259 12.4623 17.2042 12.6209 17.037C12.7795 16.8698 12.8905 16.6632 12.9423 16.4387L12.9424 16.4386L14.0722 11.5414L17.6482 9.27326L17.6486 9.27301C17.869 9.13302 18.055 8.9453 18.1931 8.72375C18.3312 8.50219 18.4177 8.25244 18.4463 7.99295C18.475 7.73346 18.4449 7.47086 18.3584 7.22454C18.2719 6.97822 18.1312 6.75448 17.9466 6.56984L17.9465 6.56975L14.2905 2.91373L14.2899 2.91312C14.1077 2.73014 13.8872 2.58993 13.6441 2.50263ZM8.11999 12.7129L11.6194 16.2129L11.6195 16.213C11.6311 16.2245 11.6454 16.2327 11.6612 16.2367C11.677 16.2408 11.6936 16.2406 11.7092 16.2361C11.7249 16.2316 11.7391 16.2229 11.7503 16.2111C11.7615 16.1993 11.7694 16.1847 11.7731 16.1688L11.7731 16.1688L12.9582 11.0317C12.9937 10.878 13.0883 10.7444 13.2215 10.6599L17.0051 8.26015L17.0053 8.26003C17.0738 8.21644 17.1317 8.15802 17.1747 8.08907C17.2177 8.02006 17.2447 7.94227 17.2536 7.86144C17.2625 7.78062 17.2531 7.69883 17.2262 7.6221C17.1993 7.54542 17.1555 7.47577 17.098 7.41828L17.0979 7.41818L13.4409 3.76113L13.4398 3.76001C13.383 3.70292 13.3142 3.65919 13.2384 3.63196C13.1626 3.60474 13.0818 3.59471 13.0016 3.60261C12.9215 3.61051 12.8441 3.63614 12.7751 3.67763C12.7064 3.71899 12.6476 3.77508 12.6031 3.84187L12.6027 3.84252L10.1353 7.587C10.0505 7.71569 9.91944 7.80681 9.76929 7.84148L4.63214 9.02777L4.62404 9.02964L4.62403 9.02958C4.60889 9.03286 4.59492 9.04018 4.58361 9.05076C4.57229 9.06134 4.56406 9.07479 4.55978 9.08968C4.5555 9.10457 4.55534 9.12034 4.55931 9.13532C4.56327 9.15029 4.57123 9.16391 4.58232 9.17473L4.58776 9.18003L4.58773 9.18007L8.08806 12.681C8.09354 12.6861 8.09895 12.6913 8.10429 12.6966C8.10965 12.702 8.11488 12.7074 8.11999 12.7129Z" fill="currentColor"/>
</svg>
