<svg width="20" height="20" viewBox="0 0 20 20" fill="none" xmlns="http://www.w3.org/2000/svg">
<path fill-rule="evenodd" clip-rule="evenodd" d="M9.85532 3.75C9.77634 3.75 9.6992 3.7738 9.63396 3.8183C9.56871 3.86281 9.5184 3.92594 9.48957 3.99946L8.9889 5.27515C8.92686 5.43321 8.81303 5.56554 8.66603 5.6505L7.00888 6.60821C6.86142 6.69343 6.68935 6.72593 6.52097 6.70035L5.16775 6.4948C5.16763 6.49478 5.16787 6.49482 5.16775 6.4948C5.08965 6.48312 5.00948 6.4952 4.93837 6.52957C4.86716 6.56398 4.80799 6.6191 4.76861 6.68769L4.76695 6.69058L4.303 7.49048C4.30298 7.49051 4.30301 7.49045 4.303 7.49048C4.26333 7.55894 4.2452 7.63787 4.25109 7.71676C4.25698 7.7957 4.28657 7.87101 4.336 7.93284L5.19117 9.00409C5.29725 9.13698 5.35503 9.30196 5.35503 9.472V11.3851C5.35503 11.5549 5.29743 11.7197 5.19165 11.8524L4.3368 12.9256C4.28754 12.9873 4.25775 13.0629 4.25186 13.1417C4.24599 13.2202 4.26389 13.2988 4.30324 13.3671C4.30332 13.3672 4.30315 13.3669 4.30324 13.3671L4.76781 14.1681C4.8073 14.2365 4.86652 14.2915 4.93773 14.3257C5.00893 14.36 5.08882 14.372 5.16696 14.3602L6.52097 14.1545C6.68935 14.1289 6.86142 14.1614 7.00888 14.2466L8.66602 15.2044C8.81303 15.2893 8.92686 15.4217 8.9889 15.5797L9.48947 16.8551C9.5183 16.9287 9.56871 16.9921 9.63396 17.0366C9.6992 17.0811 9.77634 17.1049 9.85532 17.1049H10.7833C10.8623 17.1049 10.9394 17.0811 11.0047 17.0366C11.0699 16.9921 11.1202 16.9289 11.1491 16.8554L11.6497 15.5797C11.7118 15.4217 11.8256 15.2893 11.9726 15.2044L13.6297 14.2466C13.7772 14.1614 13.9493 14.1289 14.1177 14.1545L15.4717 14.3602C15.5498 14.372 15.6297 14.36 15.7009 14.3257C15.7721 14.2915 15.8313 14.2365 15.8708 14.1681L15.8717 14.1666L16.3356 13.3667C16.3753 13.2982 16.3934 13.2193 16.3875 13.1404C16.3816 13.0614 16.3521 12.9861 16.3026 12.9243L15.4475 11.8531C15.3414 11.7202 15.2836 11.5552 15.2836 11.3851V9.472C15.2836 9.3025 15.341 9.138 15.4465 9.00531L16.3021 7.9289C16.3514 7.86715 16.3809 7.79198 16.3868 7.71321C16.3926 7.63461 16.3747 7.55606 16.3354 7.48778C16.3353 7.48763 16.3355 7.48793 16.3354 7.48778L15.8708 6.68679C15.8313 6.61833 15.7721 6.56339 15.7009 6.52911C15.6297 6.49484 15.5498 6.48284 15.4717 6.49468L14.1177 6.70035C13.9493 6.72593 13.7772 6.69343 13.6297 6.60821L11.9726 5.6505C11.8256 5.56554 11.7118 5.43321 11.6497 5.27515L11.1492 3.99972C11.1203 3.92619 11.0699 3.86281 11.0047 3.8183C10.9394 3.7738 10.8623 3.75 10.7833 3.75H9.85532ZM8.78875 2.5791C9.10311 2.36469 9.47479 2.25 9.85531 2.25H10.7833C11.1638 2.25 11.5355 2.36469 11.8499 2.5791C12.1642 2.79347 12.4066 3.09755 12.5455 3.45171C12.5455 3.45179 12.5454 3.45162 12.5455 3.45171L12.9502 4.48301L14.1525 5.17785L15.2467 5.01165C15.6231 4.95461 16.0083 5.01239 16.3514 5.17751C16.6942 5.34248 16.9793 5.60687 17.1695 5.93622C17.1697 5.93655 17.1699 5.93688 17.1701 5.93721L17.6338 6.73667C17.8243 7.06618 17.911 7.44546 17.8826 7.82499C17.8542 8.20443 17.7122 8.56651 17.475 8.86401C17.4749 8.86409 17.475 8.86393 17.475 8.86401L16.7836 9.73377V11.1225L17.4743 11.9877C17.7124 12.2856 17.855 12.6485 17.8834 13.0288C17.9118 13.4091 17.8246 13.7891 17.6333 14.1191L17.1701 14.9176C17.1699 14.9179 17.1698 14.9182 17.1696 14.9185C16.9793 15.2479 16.6942 15.5124 16.3514 15.6773C16.0083 15.8425 15.6234 15.9003 15.247 15.8433L14.1525 15.677L12.9502 16.3718L12.5456 17.4029C12.5455 17.403 12.5456 17.4028 12.5456 17.4029C12.4067 17.757 12.1642 18.0614 11.8499 18.2758C11.5355 18.4902 11.1638 18.6049 10.7833 18.6049H9.85531C9.47479 18.6049 9.10311 18.4902 8.78875 18.2758C8.47446 18.0614 8.23206 17.7573 8.09316 17.4032C8.09313 17.4031 8.09319 17.4032 8.09316 17.4032L7.6884 16.3718L6.48611 15.677L5.39194 15.8432C5.01548 15.9003 4.63029 15.8425 4.2872 15.6773C3.94439 15.5124 3.65926 15.2479 3.46899 14.9185C3.46884 14.9182 3.46915 14.9187 3.46899 14.9185L3.00484 14.1182C2.81438 13.7887 2.72767 13.4094 2.75603 13.0299C2.78438 12.6505 2.9264 12.2885 3.16355 11.991L3.85503 11.1229V9.73465L3.16434 8.86945C2.92621 8.57155 2.78362 8.20867 2.75525 7.82836C2.72687 7.44804 2.81405 7.06802 3.00534 6.73809L3.46867 5.93925C3.65841 5.6095 3.94312 5.34456 4.28569 5.17901C4.62882 5.01319 5.01402 4.9548 5.39088 5.01149L5.39195 5.01165L6.48611 5.17785L7.6884 4.48301L8.09306 3.45196C8.23195 3.0977 8.47439 2.79352 8.78875 2.5791ZM8.17274 8.282C8.74205 7.71269 9.51419 7.39286 10.3193 7.39286C10.9197 7.39286 11.5066 7.5709 12.0059 7.90447C12.5051 8.23804 12.8942 8.71215 13.1239 9.26685C13.3537 9.82156 13.4138 10.4319 13.2967 11.0208C13.1796 11.6097 12.8904 12.1506 12.4659 12.5751C12.0413 12.9997 11.5004 13.2888 10.9116 13.406C10.3227 13.5231 9.7123 13.463 9.1576 13.2332C8.60289 13.0034 8.12878 12.6143 7.79521 12.1151C7.46164 11.6159 7.2836 11.029 7.2836 10.4286C7.2836 9.62345 7.60343 8.8513 8.17274 8.282ZM10.3193 8.89286C9.91202 8.89286 9.5214 9.05466 9.2334 9.34266C8.9454 9.63066 8.7836 10.0213 8.7836 10.4286C8.7836 10.7323 8.87367 11.0292 9.04241 11.2818C9.21116 11.5343 9.45101 11.7312 9.73162 11.8474C10.0122 11.9636 10.321 11.994 10.6189 11.9348C10.9168 11.8755 11.1905 11.7293 11.4052 11.5145C11.62 11.2997 11.7663 11.0261 11.8255 10.7282C11.8848 10.4303 11.8544 10.1215 11.7381 9.84088C11.6219 9.56026 11.4251 9.32042 11.1725 9.15167C10.92 8.98293 10.623 8.89286 10.3193 8.89286Z" fill="currentColor"/>
</svg>
