<svg width="20" height="20" viewBox="0 0 20 20" fill="none" xmlns="http://www.w3.org/2000/svg">
<path d="M5.72208 7.60015L11.182 4.24021C11.3663 4.10643 11.5855 4.02494 11.815 4.00487C12.0445 3.98481 12.2753 4.02696 12.4814 4.12661C12.6873 4.22643 12.8605 4.37973 12.9814 4.56934C13.1024 4.75895 13.1664 4.97739 13.1663 5.20019V14.8C13.1663 15.0229 13.1021 15.2413 12.981 15.4309C12.8598 15.6205 12.6865 15.7737 12.4804 15.8733C12.2743 15.973 12.0436 16.0152 11.8141 15.9952C11.5847 15.9751 11.3655 15.8937 11.1811 15.76L5.72208 12.4001M5.72208 7.60015H3.24069C2.91164 7.60015 2.59607 7.72658 2.36339 7.95162C2.13072 8.17666 2 8.48188 2 8.80013V11.2001C2 11.5183 2.13072 11.8236 2.36339 12.0486C2.59607 12.2736 2.91164 12.4001 3.24069 12.4001H5.72208M5.72208 7.60015V12.4001" stroke="currentColor" stroke-width="1.5" stroke-linecap="round" stroke-linejoin="round"/>
<path d="M16.8887 12.4003C17.235 12.1376 17.5151 11.8023 17.7077 11.4195C17.9003 11.0368 18.0003 10.6167 18.0003 10.1911C18.0003 9.76544 17.9003 9.34537 17.7077 8.96264C17.5151 8.57991 17.235 8.24455 16.8887 7.98193" stroke="currentColor" stroke-width="1.5" stroke-linecap="round" stroke-linejoin="round"/>
</svg>
