<svg width="20" height="21" viewBox="0 0 20 21" fill="none" xmlns="http://www.w3.org/2000/svg">
<g clip-path="url(#clip0_1582_247144)">
<path d="M3.6 17.7723C4.34558 17.7723 4.95 17.1678 4.95 16.4223C4.95 15.6767 4.34558 15.0723 3.6 15.0723C2.85442 15.0723 2.25 15.6767 2.25 16.4223C2.25 17.1678 2.85442 17.7723 3.6 17.7723Z" fill="currentColor"/>
<path d="M9.99941 17.7723C10.745 17.7723 11.3494 17.1678 11.3494 16.4223C11.3494 15.6767 10.745 15.0723 9.99941 15.0723C9.25383 15.0723 8.64941 15.6767 8.64941 16.4223C8.64941 17.1678 9.25383 17.7723 9.99941 17.7723Z" fill="currentColor"/>
<path d="M16.3998 17.7723C17.1454 17.7723 17.7498 17.1678 17.7498 16.4223C17.7498 15.6767 17.1454 15.0723 16.3998 15.0723C15.6542 15.0723 15.0498 15.6767 15.0498 16.4223C15.0498 17.1678 15.6542 17.7723 16.3998 17.7723Z" fill="currentColor"/>
<path d="M3.6 11.3719C4.34558 11.3719 4.95 10.7675 4.95 10.0219C4.95 9.27629 4.34558 8.67188 3.6 8.67188C2.85442 8.67188 2.25 9.27629 2.25 10.0219C2.25 10.7675 2.85442 11.3719 3.6 11.3719Z" fill="currentColor"/>
<path d="M9.99941 11.3719C10.745 11.3719 11.3494 10.7675 11.3494 10.0219C11.3494 9.27629 10.745 8.67188 9.99941 8.67188C9.25383 8.67188 8.64941 9.27629 8.64941 10.0219C8.64941 10.7675 9.25383 11.3719 9.99941 11.3719Z" fill="currentColor"/>
<path d="M16.3998 11.3719C17.1454 11.3719 17.7498 10.7675 17.7498 10.0219C17.7498 9.27629 17.1454 8.67188 16.3998 8.67188C15.6542 8.67188 15.0498 9.27629 15.0498 10.0219C15.0498 10.7675 15.6542 11.3719 16.3998 11.3719Z" fill="currentColor"/>
<path d="M3.6 4.97148C4.34558 4.97148 4.95 4.36707 4.95 3.62148C4.95 2.8759 4.34558 2.27148 3.6 2.27148C2.85442 2.27148 2.25 2.8759 2.25 3.62148C2.25 4.36707 2.85442 4.97148 3.6 4.97148Z" fill="currentColor"/>
<path d="M9.99941 4.97148C10.745 4.97148 11.3494 4.36707 11.3494 3.62148C11.3494 2.8759 10.745 2.27148 9.99941 2.27148C9.25383 2.27148 8.64941 2.8759 8.64941 3.62148C8.64941 4.36707 9.25383 4.97148 9.99941 4.97148Z" fill="currentColor"/>
<path d="M16.3998 4.97148C17.1454 4.97148 17.7498 4.36707 17.7498 3.62148C17.7498 2.8759 17.1454 2.27148 16.3998 2.27148C15.6542 2.27148 15.0498 2.8759 15.0498 3.62148C15.0498 4.36707 15.6542 4.97148 16.3998 4.97148Z" fill="currentColor"/>
</g>
<defs>
<clipPath id="clip0_1582_247144">
<rect width="16" height="16" fill="white" transform="translate(2 2.02148)"/>
</clipPath>
</defs>
</svg>
