<svg width="20" height="20" viewBox="0 0 20 20" fill="none" xmlns="http://www.w3.org/2000/svg">
<path fill-rule="evenodd" clip-rule="evenodd" d="M9.77324 5.63152L9.77399 5.63313L9.77324 5.63152ZM10.0157 6.15475L14.1823 15.1451C14.3723 15.555 14.8587 15.7333 15.2686 15.5433C15.6786 15.3533 15.8569 14.867 15.6669 14.457L11.2596 4.94734C11.2595 4.94695 11.2593 4.94655 11.2591 4.94615C11.1463 4.70182 10.9633 4.50367 10.7426 4.36873C10.5221 4.23387 10.2695 4.16513 10.0157 4.16513C9.76201 4.16513 9.50939 4.23387 9.28882 4.36873C9.06813 4.50367 8.88515 4.70181 8.77239 4.94614C8.7722 4.94654 8.77202 4.94694 8.77183 4.94734L4.36455 14.457C4.17456 14.867 4.35287 15.3533 4.76283 15.5433C5.1728 15.7333 5.65916 15.555 5.84916 15.1451L10.0157 6.15475Z" fill="currentColor"/>
<path fill-rule="evenodd" clip-rule="evenodd" d="M9.14669 4.1361C9.41112 3.97442 9.71316 3.89246 10.0159 3.89246C10.3186 3.89246 10.6206 3.97442 10.885 4.1361C11.1496 4.29786 11.3704 4.53626 11.5068 4.83183M11.5068 4.83183L15.9145 14.3424C16.1678 14.889 15.9301 15.5375 15.3834 15.7908C14.8368 16.0441 14.1883 15.8064 13.935 15.2598L10.0159 6.80336L6.09673 15.2598C5.8434 15.8064 5.19491 16.0441 4.6483 15.7908C4.10168 15.5375 3.86393 14.889 4.11726 14.3424L8.52426 4.8333L8.5249 4.83191C8.66133 4.5363 8.88211 4.29788 9.14669 4.1361M10.0159 4.43789C9.81112 4.43789 9.60792 4.49339 9.43122 4.60144C9.25442 4.70954 9.10923 4.86742 9.02014 5.06046L9.01967 5.06147L4.61212 14.5717C4.48546 14.845 4.60434 15.1693 4.87765 15.2959C5.15095 15.4226 5.4752 15.3037 5.60186 15.0304L9.76844 6.04012C9.8131 5.94375 9.90965 5.88207 10.0159 5.88207C10.1221 5.88207 10.2186 5.94375 10.2633 6.04012L14.4299 15.0304C14.5565 15.3037 14.8808 15.4226 15.1541 15.2959C15.4274 15.1693 15.5463 14.845 15.4196 14.5717L11.0123 5.06206L11.0116 5.06055C10.9225 4.8675 10.7773 4.70954 10.6005 4.60144C10.4238 4.49339 10.2206 4.43789 10.0159 4.43789ZM9.65871 5.38412C9.79536 5.32079 9.95748 5.38023 10.0208 5.51689L10.0216 5.5185C10.0849 5.65516 10.0255 5.81728 9.8888 5.88061C9.75214 5.94394 9.59002 5.8845 9.52669 5.74784L9.52594 5.74623C9.46261 5.60957 9.52205 5.44745 9.65871 5.38412Z" fill="currentColor"/>
<path fill-rule="evenodd" clip-rule="evenodd" d="M5.92474 11.5285C5.92474 11.0767 6.29104 10.7104 6.74289 10.7104H13.2881C13.7399 10.7104 14.1062 11.0767 14.1062 11.5285C14.1062 11.9804 13.7399 12.3466 13.2881 12.3466H6.74289C6.29104 12.3466 5.92474 11.9804 5.92474 11.5285Z" fill="currentColor"/>
<path fill-rule="evenodd" clip-rule="evenodd" d="M5.6521 11.5285C5.6521 10.926 6.14049 10.4376 6.74296 10.4376H13.2881C13.8906 10.4376 14.379 10.926 14.379 11.5285C14.379 12.1309 13.8906 12.6193 13.2881 12.6193H6.74296C6.14049 12.6193 5.6521 12.1309 5.6521 11.5285ZM6.74296 10.983C6.44173 10.983 6.19753 11.2272 6.19753 11.5285C6.19753 11.8297 6.44173 12.0739 6.74296 12.0739H13.2881C13.5894 12.0739 13.8336 11.8297 13.8336 11.5285C13.8336 11.2272 13.5894 10.983 13.2881 10.983H6.74296Z" fill="currentColor"/>
</svg>
