<svg width="20" height="20" viewBox="0 0 20 20" fill="none" xmlns="http://www.w3.org/2000/svg">
<path fill-rule="evenodd" clip-rule="evenodd" d="M10 2.25C9.96063 2.25 9.92197 2.25303 9.88423 2.25888C9.7087 2.28614 9.54712 2.37514 9.42989 2.51191L6.19913 6.28114C5.92956 6.59563 5.96598 7.06911 6.28047 7.33867C6.59497 7.60824 7.06844 7.57182 7.33801 7.25732L9.25 5.02667V12.6923C9.25 13.1065 9.58579 13.4423 10 13.4423C10.4142 13.4423 10.75 13.1065 10.75 12.6923V5.02822L12.6607 7.25732C12.9302 7.57182 13.4037 7.60824 13.7182 7.33867C14.0327 7.06911 14.0691 6.59563 13.7995 6.28114L10.5874 2.53369C10.4501 2.36083 10.238 2.25 10 2.25ZM3.75 13.769C3.75 13.3548 3.41421 13.019 3 13.019C2.58579 13.019 2.25 13.3548 2.25 13.769V14.846C2.25 15.6161 2.55594 16.3547 3.10052 16.8993C3.64509 17.4439 4.3837 17.7498 5.15385 17.7498H14.8462C15.6163 17.7498 16.3549 17.4439 16.8995 16.8993C17.4441 16.3547 17.75 15.6161 17.75 14.846V13.769C17.75 13.3548 17.4142 13.019 17 13.019C16.5858 13.019 16.25 13.3548 16.25 13.769V14.846C16.25 15.2183 16.1021 15.5754 15.8388 15.8386C15.5756 16.1019 15.2185 16.2498 14.8462 16.2498H5.15385C4.78152 16.2498 4.42445 16.1019 4.16118 15.8386C3.8979 15.5754 3.75 15.2183 3.75 14.846V13.769Z" fill="currentColor"/>
</svg>
