<svg width="20" height="20" viewBox="0 0 20 20" fill="none" xmlns="http://www.w3.org/2000/svg">
<path fill-rule="evenodd" clip-rule="evenodd" d="M7.75015 2C7.24254 2 6.7399 2.09998 6.27093 2.29423C5.80196 2.48849 5.37584 2.77321 5.01691 3.13214C4.65798 3.49108 4.37326 3.9172 4.179 4.38617C3.98475 4.85514 3.88477 5.35777 3.88477 5.86538C3.88477 6.37299 3.98475 6.87563 4.179 7.3446C4.37326 7.81357 4.65798 8.23969 5.01691 8.59862C5.37584 8.95756 5.80196 9.24228 6.27093 9.43653C6.7399 9.63079 7.24254 9.73077 7.75015 9.73077C8.25776 9.73077 8.7604 9.63079 9.22937 9.43653C9.69834 9.24228 10.1245 8.95756 10.4834 8.59862C10.8423 8.23969 11.127 7.81357 11.3213 7.3446C11.5156 6.87563 11.6155 6.37299 11.6155 5.86538C11.6155 5.35778 11.5156 4.85514 11.3213 4.38617C11.127 3.9172 10.8423 3.49108 10.4834 3.13214C10.1245 2.77321 9.69834 2.48849 9.22937 2.29423C8.7604 2.09998 8.25776 2 7.75015 2ZM6.84496 3.68005C7.13194 3.56118 7.43952 3.5 7.75015 3.5C8.06078 3.5 8.36836 3.56118 8.65534 3.68005C8.94233 3.79893 9.20308 3.97316 9.42273 4.1928C9.64238 4.41245 9.81661 4.67321 9.93548 4.96019C10.0544 5.24717 10.1155 5.55476 10.1155 5.86538C10.1155 6.17601 10.0544 6.4836 9.93548 6.77058C9.81661 7.05756 9.64238 7.31832 9.42273 7.53796C9.20308 7.75761 8.94232 7.93184 8.65534 8.05071C8.36836 8.16959 8.06078 8.23077 7.75015 8.23077C7.43952 8.23077 7.13194 8.16959 6.84496 8.05071C6.55798 7.93184 6.29722 7.75761 6.07757 7.53796C5.85792 7.31832 5.68369 7.05756 5.56482 6.77058C5.44595 6.4836 5.38477 6.17601 5.38477 5.86538C5.38477 5.55476 5.44595 5.24717 5.56482 4.96019C5.68369 4.67321 5.85792 4.41245 6.07757 4.1928C6.29722 3.97316 6.55797 3.79893 6.84496 3.68005ZM7.37491 10.6807C7.36306 10.6807 7.3512 10.6809 7.33935 10.6814C6.20884 10.7264 5.1101 11.0269 4.14751 11.5543C3.18491 12.0816 2.39044 12.8184 1.83955 13.6945C1.2887 14.5705 0.999703 15.557 1 16.5599V17.2483C1 17.6358 1.35443 17.9499 1.79163 17.9499H8.12014L8.12509 17.9499H8.203C8.67351 17.9499 8.96102 17.3967 8.78802 16.9591C8.69353 16.7201 8.47166 16.5467 8.21466 16.5467H8.12963L8.12469 16.5467H2.58328C2.58548 15.7874 2.80542 15.0409 3.22255 14.3775C3.64204 13.7104 4.24701 13.1494 4.97999 12.7479C5.70811 12.3489 6.53853 12.1205 7.39335 12.0839H8.10634C8.55476 12.1031 8.99646 12.175 9.42021 12.2967C9.6558 12.3644 9.90633 12.313 10.0942 12.1556C10.4963 11.8187 10.4913 11.1361 9.98878 10.9855C9.40239 10.8097 8.7888 10.7068 8.1655 10.6816C8.15198 10.681 8.13838 10.6807 8.12469 10.6807H7.37491ZM15.0925 13.0892C14.8939 13.0892 14.6998 13.1481 14.5346 13.2584C14.3695 13.3688 14.2408 13.5256 14.1648 13.7091C14.0888 13.8926 14.0689 14.0944 14.1077 14.2892C14.1464 14.484 14.242 14.6629 14.3825 14.8033C14.5229 14.9438 14.7018 15.0394 14.8966 15.0782C15.0914 15.1169 15.2933 15.097 15.4767 15.021C15.6602 14.945 15.817 14.8163 15.9274 14.6512C16.0377 14.4861 16.0966 14.2919 16.0966 14.0933C16.0966 13.827 15.9908 13.5716 15.8025 13.3833C15.6142 13.195 15.3588 13.0892 15.0925 13.0892ZM13.848 12.2309C14.2164 11.9848 14.6495 11.8534 15.0925 11.8534C15.6865 11.8534 16.2563 12.0894 16.6764 12.5095C17.0888 12.9219 17.3238 13.4787 17.3322 14.061C17.3327 14.0717 17.333 14.0824 17.333 14.0932V14.7884C17.333 14.8703 17.3656 14.9489 17.4235 15.0068C17.4814 15.0648 17.56 15.0973 17.642 15.0973C17.7239 15.0973 17.8025 15.0648 17.8604 15.0068C17.9184 14.9489 17.9509 14.8703 17.9509 14.7884V14.0933C17.9509 13.4496 17.7335 12.8247 17.334 12.32C16.9345 11.8152 16.3763 11.4601 15.7498 11.3123C15.1234 11.1644 14.4653 11.2324 13.8823 11.5052C13.2992 11.778 12.8254 12.2397 12.5375 12.8154C12.2496 13.3912 12.1646 14.0473 12.2962 14.6774C12.4277 15.3075 12.7682 15.8748 13.2624 16.2872C13.7566 16.6997 14.3756 16.9332 15.019 16.95C15.6625 16.9667 16.2928 16.7657 16.8078 16.3795C16.9139 16.3 17.0371 16.2597 17.1603 16.2561C16.9322 16.1813 16.7225 16.0536 16.5496 15.8807C16.534 15.865 16.5187 15.8491 16.5037 15.8328C16.3368 15.9682 16.1504 16.0796 15.9497 16.1628C15.5404 16.3323 15.09 16.3767 14.6555 16.2902C14.221 16.2038 13.8219 15.9905 13.5086 15.6772C13.1953 15.3639 12.982 14.9648 12.8956 14.5303C12.8092 14.0958 12.8535 13.6454 13.023 13.2361C13.1926 12.8268 13.4797 12.477 13.848 12.2309ZM16.0338 10.1095C15.1363 9.89765 14.1937 9.99503 13.3585 10.3858C12.5233 10.7767 11.8445 11.438 11.4322 12.2628C11.0198 13.0875 10.898 14.0273 11.0864 14.93C11.2749 15.8326 11.7626 16.6452 12.4705 17.236C13.1784 17.8269 14.0651 18.1614 14.9869 18.1854C15.9087 18.2094 16.8116 17.9214 17.5493 17.3682C17.8223 17.1634 17.8776 16.7761 17.6729 16.5031C17.6137 16.4243 17.5394 16.3636 17.4569 16.3221C17.518 16.3294 17.5798 16.3332 17.642 16.3332C18.0517 16.3332 18.4446 16.1704 18.7343 15.8807C19.024 15.591 19.1868 15.1981 19.1868 14.7884V14.0932C19.1867 13.1711 18.8753 12.276 18.3031 11.553C17.7308 10.83 16.9312 10.3213 16.0338 10.1095Z" fill="#676879"/>
</svg>
