<svg width="20" height="20" viewBox="0 0 20 20" fill="none" xmlns="http://www.w3.org/2000/svg">
<path fill-rule="evenodd" clip-rule="evenodd" d="M7.27093 2.29423C7.7399 2.09998 8.24254 2 8.75015 2C9.25776 2 9.7604 2.09998 10.2294 2.29423C10.6983 2.48849 11.1245 2.77321 11.4834 3.13214C11.8423 3.49108 12.127 3.9172 12.3213 4.38617C12.5156 4.85514 12.6155 5.35778 12.6155 5.86538C12.6155 6.37299 12.5156 6.87563 12.3213 7.3446C12.127 7.81357 11.8423 8.23969 11.4834 8.59862C11.1245 8.95756 10.6983 9.24228 10.2294 9.43653C9.7604 9.63079 9.25776 9.73077 8.75015 9.73077C8.24254 9.73077 7.7399 9.63079 7.27093 9.43653C6.80196 9.24228 6.37584 8.95756 6.01691 8.59862C5.65798 8.23969 5.37325 7.81357 5.179 7.3446C4.98475 6.87563 4.88477 6.37299 4.88477 5.86538C4.88477 5.35777 4.98475 4.85514 5.179 4.38617C5.37325 3.9172 5.65798 3.49108 6.01691 3.13214C6.37584 2.77321 6.80196 2.48849 7.27093 2.29423ZM8.75015 3.5C8.43952 3.5 8.13194 3.56118 7.84496 3.68005C7.55797 3.79893 7.29722 3.97316 7.07757 4.1928C6.85792 4.41245 6.68369 4.67321 6.56482 4.96019C6.44595 5.24717 6.38477 5.55476 6.38477 5.86538C6.38477 6.17601 6.44595 6.4836 6.56482 6.77058C6.68369 7.05756 6.85792 7.31832 7.07757 7.53796C7.29722 7.75761 7.55798 7.93184 7.84496 8.05071C8.13194 8.16959 8.43952 8.23077 8.75015 8.23077C9.06078 8.23077 9.36836 8.16959 9.65534 8.05071C9.94232 7.93184 10.2031 7.75761 10.4227 7.53796C10.6424 7.31832 10.8166 7.05756 10.9355 6.77058C11.0544 6.4836 11.1155 6.17601 11.1155 5.86538C11.1155 5.55476 11.0544 5.24717 10.9355 4.96019C10.8166 4.67321 10.6424 4.41245 10.4227 4.1928C10.2031 3.97316 9.94233 3.79893 9.65534 3.68005C9.36836 3.56118 9.06078 3.5 8.75015 3.5ZM8.33935 10.6814C8.3512 10.6809 8.36306 10.6807 8.37491 10.6807H9.12469C9.13838 10.6807 9.15198 10.681 9.1655 10.6816C9.7888 10.7068 10.4024 10.8097 10.9888 10.9855C11.4913 11.1361 11.4963 11.8187 11.0942 12.1556C10.9063 12.313 10.6558 12.3644 10.4202 12.2967C9.99646 12.175 9.55476 12.1031 9.10634 12.0839H8.39335C7.53853 12.1205 6.70811 12.3489 5.97999 12.7479C5.24701 13.1494 4.64204 13.7104 4.22255 14.3775C3.80542 15.0409 3.58548 15.7874 3.58328 16.5467H9.12469L9.12963 16.5467H9.21466C9.47166 16.5467 9.69353 16.7201 9.78802 16.9591C9.96102 17.3967 9.67351 17.9499 9.203 17.9499H9.12509L9.12014 17.9499H2.79163C2.35443 17.9499 2 17.6358 2 17.2483V16.5599C1.9997 15.557 2.2887 14.5705 2.83955 13.6945C3.39044 12.8184 4.18491 12.0816 5.14751 11.5543C6.1101 11.0269 7.20884 10.7264 8.33935 10.6814ZM18.0955 10H17.3728C17.1394 9.99998 16.9156 10.0906 16.748 10.251L14.5594 12.3408C14.0616 12.2119 13.5356 12.2205 13.0378 12.3699C12.4023 12.5606 11.8537 12.9683 11.4849 13.5214C11.1163 14.0744 10.9498 14.7389 11.0132 15.4012C11.0765 16.0635 11.3658 16.684 11.8331 17.1561C12.3005 17.6283 12.917 17.9226 13.5773 17.9867C14.2376 18.0509 14.8988 17.8808 15.4475 17.5068C15.996 17.1328 16.3975 16.5786 16.5846 15.9403C16.7308 15.4415 16.7394 14.9146 16.6133 14.4155L18.7366 12.2744C18.8205 12.1898 18.8867 12.0898 18.9317 11.9801C18.9768 11.8703 19 11.7527 19 11.6343V10.9075C19 10.669 18.9063 10.4389 18.7374 10.2682C18.5683 10.0973 18.3375 10 18.0955 10ZM15.3196 14.4882C15.3226 14.4954 15.3257 14.5025 15.3289 14.5096C15.4674 14.8519 15.4864 15.2324 15.3822 15.5878C15.276 15.9499 15.049 16.2619 14.7417 16.4715C14.4345 16.6809 14.0658 16.7753 13.6985 16.7396C13.3311 16.7039 12.9864 16.5401 12.7236 16.2746C12.4607 16.0091 12.2965 15.6582 12.2605 15.2819C12.2245 14.9055 12.3193 14.5288 12.5275 14.2165C12.7356 13.9043 13.0437 13.6763 13.3979 13.5701C13.7519 13.4638 14.1314 13.4853 14.4718 13.6311C14.7024 13.7298 14.9697 13.6815 15.1511 13.5083L17.513 11.253H17.747V11.4928L15.453 13.8061C15.2749 13.9857 15.2223 14.2548 15.3196 14.4882Z" fill="#676879"/>
</svg>
