<svg width="20" height="20" viewBox="0 0 24 24" fill="none" xmlns="http://www.w3.org/2000/svg">
<path d="M12.21 12.4259C11.2612 11.4964 10.059 10.8679 8.75429 10.6192C7.44957 10.3705 6.10047 10.5128 4.8763 11.0281C3.65213 11.5434 2.60744 12.4088 1.87335 13.5157C1.13925 14.6226 0.748452 15.9217 0.750005 17.2499" stroke="#676879" stroke-width="1.5" stroke-linecap="round" stroke-linejoin="round"/>
<path d="M7.5 9C9.77817 9 11.625 7.15317 11.625 4.875C11.625 2.59683 9.77817 0.75 7.5 0.75C5.22183 0.75 3.375 2.59683 3.375 4.875C3.375 7.15317 5.22183 9 7.5 9Z" stroke="#676879" stroke-width="1.5" stroke-linecap="round" stroke-linejoin="round"/>
<path d="M15.3096 19.5591C15.1025 19.5591 14.9346 19.3912 14.9346 19.1841C14.9346 18.977 15.1025 18.8091 15.3096 18.8091" stroke="#676879" stroke-width="1.5"/>
<path d="M15.3096 19.5591C15.5167 19.5591 15.6846 19.3912 15.6846 19.1841C15.6846 18.977 15.5167 18.8091 15.3096 18.8091" stroke="#676879" stroke-width="1.5"/>
<path d="M19.0863 17.7041L22.7743 14.0161C22.9253 13.8651 23.0451 13.6858 23.1269 13.4885C23.2086 13.2911 23.2507 13.0797 23.2507 12.8661C23.2507 12.6525 23.2086 12.441 23.1269 12.2437C23.0451 12.0464 22.9253 11.8671 22.7743 11.7161C22.6233 11.5651 22.444 11.4453 22.2467 11.3635C22.0494 11.2818 21.8379 11.2397 21.6243 11.2397C21.4107 11.2397 21.1992 11.2818 21.0019 11.3635C20.8046 11.4453 20.6253 11.5651 20.4743 11.7161L16.7903 15.4071C15.9218 15.0669 14.9626 15.036 14.074 15.3197C13.1854 15.6034 12.4215 16.1843 11.9108 16.9649C11.4001 17.7455 11.1737 18.6781 11.2696 19.6059C11.3655 20.5338 11.7779 21.4003 12.4375 22.0599C13.0971 22.7195 13.9636 23.1319 14.8915 23.2278C15.8193 23.3237 16.7519 23.0973 17.5325 22.5866C18.3131 22.0759 18.894 21.312 19.1777 20.4234C19.4614 19.5348 19.4305 18.5756 19.0903 17.7071L19.0863 17.7041Z" stroke="#676879" stroke-width="1.5" stroke-linecap="round" stroke-linejoin="round"/>
</svg>
