<svg width="20" height="20" viewBox="0 0 20 20" fill="none" xmlns="http://www.w3.org/2000/svg">
  <path fill-rule="evenodd" clip-rule="evenodd"
    d="M2 5C2 3.89543 2.89543 3 4 3H16C17.1046 3 18 3.89543 18 5V7H16.5V5C16.5 4.72386 16.2761 4.5 16 4.5H7.5L7.5 15.5H10V17H4C2.89543 17 2 16.1046 2 15V5ZM6 4.5H4C3.72386 4.5 3.5 4.72386 3.5 5V15C3.5 15.2761 3.72386 15.5 4 15.5H6L6 4.5ZM11.918 8.3661C11.7265 8.25583 11.4917 8.41298 11.5207 8.63202L11.9013 11.5126C11.9128 11.5996 11.8808 11.6867 11.8156 11.7455L9.65844 13.6921C9.49441 13.8401 9.57131 14.112 9.78858 14.1521L12.6458 14.6803C12.7321 14.6962 12.805 14.7536 12.8408 14.8337L14.0255 17.4869C14.1156 17.6886 14.3979 17.6995 14.5033 17.5053L15.5846 15.5114L18.3925 19.39C18.6354 19.7255 19.1043 19.8006 19.4398 19.5577C19.7753 19.3148 19.8504 18.8459 19.6075 18.5104L16.8712 14.7306L18.9841 14.5062C19.2038 14.4828 19.3014 14.2177 19.1492 14.0575L17.1481 11.9508C17.0877 11.8872 17.0624 11.7979 17.0806 11.712L17.6816 8.86923C17.7273 8.65306 17.5052 8.47832 17.3059 8.57354L14.6839 9.82571C14.6047 9.86352 14.512 9.85995 14.436 9.81616L11.918 8.3661Z"
    fill="currentColor" />
</svg>