<svg width="20" height="20" viewBox="0 0 20 20" fill="none" xmlns="http://www.w3.org/2000/svg">
<path fill-rule="evenodd" clip-rule="evenodd" d="M6.83801 3C6.83801 2.58579 6.50223 2.25 6.08801 2.25C5.6738 2.25 5.33801 2.58579 5.33801 3V5.15381V7.30769C5.33801 7.72191 5.6738 8.05769 6.08801 8.05769C6.50223 8.05769 6.83801 7.72191 6.83801 7.30769V5.90381H11.4726C11.8868 5.90381 12.2226 5.56802 12.2226 5.15381C12.2226 4.73959 11.8868 4.40381 11.4726 4.40381H6.83801V3ZM2.64227 4.9389C2.98489 4.59629 3.44957 4.40381 3.9341 4.40381C4.34831 4.40381 4.6841 4.73959 4.6841 5.15381C4.6841 5.56802 4.34831 5.90381 3.9341 5.90381C3.8474 5.90381 3.76424 5.93825 3.70293 5.99956C3.64162 6.06087 3.60718 6.14403 3.60718 6.23073V8.71149H16.1072V6.23073C16.1072 6.14403 16.0727 6.06087 16.0114 5.99956C15.9501 5.93825 15.867 5.90381 15.7803 5.90381H14.3765V7.30769C14.3765 7.72191 14.0407 8.05769 13.6265 8.05769C13.2123 8.05769 12.8765 7.72191 12.8765 7.30769V5.16301L12.8764 5.15381L12.8765 5.1446V3C12.8765 2.58579 13.2123 2.25 13.6265 2.25C14.0407 2.25 14.3765 2.58579 14.3765 3V4.40381H15.7803C16.2648 4.40381 16.7295 4.59629 17.0721 4.9389C17.4147 5.28152 17.6072 5.7462 17.6072 6.23073V9.46149V15.923C17.6072 16.4076 17.4147 16.8723 17.0721 17.2149C16.7295 17.5575 16.2648 17.75 15.7803 17.75H3.9341C3.44957 17.75 2.98489 17.5575 2.64227 17.2149C2.29966 16.8723 2.10718 16.4076 2.10718 15.923V9.46149V6.23073C2.10718 5.7462 2.29966 5.28152 2.64227 4.9389ZM3.60718 15.923V10.2115H16.1072V15.923C16.1072 16.0097 16.0727 16.0929 16.0114 16.1542C15.9501 16.2155 15.867 16.25 15.7803 16.25H3.9341C3.8474 16.25 3.76424 16.2155 3.70293 16.1542C3.64162 16.0929 3.60718 16.0097 3.60718 15.923Z" fill="currentColor"/>
</svg>
