<svg width="20" height="20" viewBox="0 0 20 20" fill="none" xmlns="http://www.w3.org/2000/svg">
<path fill-rule="evenodd" clip-rule="evenodd" d="M4.34315 4.34315C5.84283 2.84346 7.87663 2.00068 9.99743 2C9.9977 2 9.99797 2 9.99823 2C9.99882 2 9.99941 2 10 2C12.1217 2 14.1566 2.84286 15.6569 4.34315C17.1571 5.84344 18 7.87827 18 10C18 12.1217 17.1571 14.1566 15.6569 15.6569C14.1566 17.1571 12.1217 18 10 18C7.87827 18 5.84344 17.1571 4.34315 15.6569C2.84285 14.1566 2 12.1217 2 10C2 7.87827 2.84285 5.84344 4.34315 4.34315ZM9.23498 3.57184C7.79989 3.7426 6.45484 4.39025 5.42255 5.42255C4.20853 6.63656 3.5265 8.28312 3.5265 10C3.5265 11.7169 4.20853 13.3634 5.42255 14.5775C6.63656 15.7915 8.28312 16.4735 10 16.4735C11.4601 16.4735 12.8693 15.9802 14.0049 15.086L9.45853 10.5397C9.3154 10.3966 9.23498 10.2024 9.23498 10V3.57184ZM15.0845 14.0068C15.9797 12.8709 16.4735 11.4609 16.4735 10C16.4735 8.28312 15.7915 6.63656 14.5775 5.42255C13.5443 4.3894 12.1979 3.74153 10.7615 3.57142V9.68385L15.0845 14.0068Z" fill="currentColor"/>
</svg>
