<svg width="20" height="20" viewBox="0 0 20 20" fill="none" xmlns="http://www.w3.org/2000/svg">

<path d="M7.5 4C6.67157 4 6 3.32843 6 2.5C6 1.67157 6.67157 1 7.5 1C8.32843 1 9 1.67157 9 2.5C9 3.32843 8.32843 4 7.5 4Z" fill="currentColor"/>
<path d="M12.5 4C11.6716 4 11 3.32843 11 2.5C11 1.67157 11.6716 1 12.5 1C13.3284 1 14 1.67157 14 2.5C14 3.32843 13.3284 4 12.5 4Z" fill="currentColor"/>
<path d="M7.5 9C6.67157 9 6 8.32843 6 7.5C6 6.67157 6.67157 6 7.5 6C8.32843 6 9 6.67157 9 7.5C9 8.32843 8.32843 9 7.5 9Z" fill="currentColor"/>
<path d="M12.5 9C11.6716 9 11 8.32843 11 7.5C11 6.67157 11.6716 6 12.5 6C13.3284 6 14 6.67157 14 7.5C14 8.32843 13.3284 9 12.5 9Z" fill="currentColor"/>
<path d="M7.5 14C6.67157 14 6 13.3284 6 12.5C6 11.6716 6.67157 11 7.5 11C8.32843 11 9 11.6716 9 12.5C9 13.3284 8.32843 14 7.5 14Z" fill="currentColor"/>
<path d="M7.5 19C6.67157 19 6 18.3284 6 17.5C6 16.6716 6.67157 16 7.5 16C8.32843 16 9 16.6716 9 17.5C9 18.3284 8.32843 19 7.5 19Z" fill="currentColor"/>
<path d="M12.5 14C11.6716 14 11 13.3284 11 12.5C11 11.6716 11.6716 11 12.5 11C13.3284 11 14 11.6716 14 12.5C14 13.3284 13.3284 14 12.5 14Z" fill="currentColor"/>
<path d="M12.5 19C11.6716 19 11 18.3284 11 17.5C11 16.6716 11.6716 16 12.5 16C13.3284 16 14 16.6716 14 17.5C14 18.3284 13.3284 19 12.5 19Z" fill="currentColor"/>
</svg>
