<svg xmlns="http://www.w3.org/2000/svg" width="20" height="20" fill="currentColor" viewBox="0 0 20 20">
  <path fill-rule="evenodd" d="M5.44 14.49c-.28.3-.27.78.03 1.06.3.28.78.27 1.06-.03l.97-1.02c.78.27 1.6.42 2.42.41 2.9.04 5.7-1.96 7.37-3.79l.02-.02c.08-.09.21-.23.31-.39.11-.17.27-.45.27-.79s-.15-.63-.27-.79c-.11-.16-.23-.3-.31-.39l-.02-.02c-.65-.72-1.46-1.44-2.37-2.06l1.29-1.37c.28-.3.27-.78-.03-1.06a.755.755 0 0 0-1.06.03L13.6 5.87c-1.16-.59-2.41-.96-3.68-.94-2.85-.04-5.66 1.91-7.37 3.79-.18.2-.54.64-.54 1.21s.36 1 .54 1.2c.89.98 2.11 2.01 3.49 2.75l-.6.63v-.02Zm3.22-1.22c.42.09.83.14 1.25.14h.03c2.26.04 4.69-1.59 6.25-3.3l.02-.02s.07-.08.1-.12c.02-.02.04-.04.05-.06a.265.265 0 0 0-.05-.06c-.03-.04-.07-.07-.1-.12l-.02-.02c-.65-.72-1.44-1.4-2.3-1.96l-5.22 5.53-.01-.01Zm1.2-5.88c.32 0 .64.06.94.19.27.11.52.27.73.47L12.52 7c-.85-.38-1.74-.6-2.59-.59H9.9c-2.22-.04-4.65 1.55-6.24 3.3-.07.07-.11.14-.14.18v.03c.03.05.07.11.14.18.92 1.01 2.14 1.99 3.45 2.62l1.06-1.13-.04-.04c-.34-.34-.57-.78-.67-1.25-.09-.47-.05-.97.14-1.41.18-.45.5-.83.9-1.1.4-.27.87-.41 1.36-.41m.36 1.57a.94.94 0 0 0-.88.09c-.16.1-.28.25-.35.42-.07.17-.09.36-.05.55.04.18.13.35.26.48v.01l1.3-1.37c-.08-.07-.17-.13-.28-.18Z" clip-rule="evenodd"/>
</svg>
