<svg width="20" height="20" viewBox="0 0 20 20" fill="none" xmlns="http://www.w3.org/2000/svg">
<path fill-rule="evenodd" clip-rule="evenodd" d="M5.4945 14.6105C5.21017 14.9117 5.22386 15.3864 5.52507 15.6707C5.82628 15.9551 6.30096 15.9414 6.58529 15.6402L7.55161 14.6165C8.33448 14.8828 9.1487 15.0351 9.97049 15.0229C12.868 15.0658 15.6721 13.0643 17.3405 11.2281L17.3427 11.2256L17.3623 11.204L17.3623 11.204C17.4409 11.1171 17.5695 10.9749 17.6759 10.8166C17.7887 10.6487 17.9414 10.3712 17.9414 10.0229C17.9414 9.6747 17.7887 9.39719 17.6759 9.22929C17.5695 9.07097 17.4409 8.92878 17.3623 8.84187L17.3427 8.82021L17.3427 8.8202L17.3403 8.81753C16.6909 8.10349 15.882 7.37801 14.9721 6.75535L16.2615 5.3894C16.5458 5.08819 16.5322 4.61351 16.231 4.32918C15.9297 4.04485 15.4551 4.05854 15.1707 4.35975L13.6515 5.96915C12.4945 5.38151 11.2365 5.00608 9.97049 5.02481C7.11928 4.98263 4.30864 6.93962 2.60229 8.81784L2.60228 8.81784L2.60015 8.82021C2.41883 9.02151 2.05859 9.45817 2.05859 10.0229C2.05859 10.5877 2.41883 11.0243 2.60015 11.2256L2.60014 11.2256L2.60213 11.2278C3.49368 12.2098 4.71006 13.239 6.09199 13.9775L5.4945 14.6105ZM8.7116 13.3876C9.12834 13.4816 9.54584 13.5299 9.95787 13.5229C9.96629 13.5228 9.9747 13.5228 9.98311 13.5229C12.2434 13.561 14.669 11.9372 16.2294 10.2205L16.2454 10.2027L16.2454 10.2026L16.2455 10.2026C16.2847 10.1591 16.3174 10.1227 16.3498 10.0846C16.3692 10.0617 16.3857 10.0413 16.3998 10.0229C16.3857 10.0046 16.3692 9.98412 16.3498 9.96127C16.3174 9.92311 16.2847 9.88677 16.2455 9.84329L16.2454 9.84321L16.2454 9.84316L16.2294 9.82549C15.5785 9.11 14.7875 8.42208 13.9283 7.86113L8.7116 13.3876ZM12.5698 7.11509C11.7158 6.73457 10.8338 6.51044 9.98314 6.5248C9.97471 6.52494 9.96628 6.52494 9.95784 6.5248C7.73795 6.48735 5.30526 8.07384 3.71366 9.82524C3.64791 9.89835 3.60189 9.96068 3.57471 10.0099L3.56783 10.0229L3.57471 10.0359C3.60191 10.0852 3.64796 10.1476 3.71376 10.2207C4.63358 11.2335 5.85484 12.214 7.16586 12.8399L8.22825 11.7144C8.21386 11.7021 8.19983 11.6891 8.1862 11.6754C7.84446 11.3336 7.61175 10.8981 7.5175 10.424C7.42324 9.94994 7.47168 9.45856 7.65669 9.012C7.84169 8.56544 8.15495 8.18377 8.55686 7.91524C8.95872 7.64675 9.43115 7.50343 9.91444 7.50339L10.2761 9.07519C10.1616 9.02776 10.0388 9.00336 9.91484 9.00339H9.91464C9.72794 9.00339 9.54542 9.05875 9.39018 9.16248C9.23493 9.2662 9.11393 9.41363 9.04247 9.58612C8.97101 9.75861 8.9523 9.94841 8.9887 10.1315C9.02511 10.3147 9.115 10.4829 9.247 10.6149C9.25029 10.6182 9.25355 10.6215 9.25676 10.6249L10.553 9.25167C10.4718 9.17719 10.3781 9.11743 10.2761 9.07519L9.91464 7.50339C10.2356 7.50333 10.5535 7.56652 10.8501 7.68934C11.1208 7.80144 11.3689 7.96121 11.5827 8.16084L12.5698 7.11509Z" fill="currentColor"/>
</svg>
