<svg width="20" height="20" viewBox="0 0 20 20" fill="none" xmlns="http://www.w3.org/2000/svg">
<path fill-rule="evenodd" clip-rule="evenodd" d="M14.9911 3.80698C15.0822 3.7693 15.1799 3.74994 15.2785 3.75C15.3771 3.75006 15.4747 3.76955 15.5658 3.80734C15.6569 3.84514 15.7397 3.90051 15.8093 3.97028C15.879 4.04006 15.9343 4.12288 15.972 4.21401C16.0097 4.30515 16.029 4.40281 16.029 4.50142C16.0289 4.60004 16.0094 4.69768 15.9716 4.78876C15.9338 4.87985 15.8781 4.96293 15.8083 5.03262L9.62114 11.2198L8.38365 11.3965L8.56051 10.1564L14.7473 3.96962C14.8171 3.89993 14.8999 3.84466 14.9911 3.80698ZM15.2794 2.25C14.9838 2.24981 14.6911 2.30785 14.4179 2.4208C14.1447 2.53375 13.8962 2.69973 13.687 2.90862L7.32301 9.27262C7.20822 9.38741 7.13378 9.53634 7.11085 9.69705L6.75752 12.1744C6.72419 12.408 6.80281 12.6438 6.96972 12.8107C7.13663 12.9775 7.37236 13.0561 7.60602 13.0228L10.0807 12.6694C10.2414 12.6465 10.3902 12.572 10.505 12.4573L16.8687 6.09362C17.0778 5.88473 17.2438 5.63669 17.3571 5.36366C17.4704 5.09063 17.5288 4.79796 17.529 4.50237C17.5291 4.20677 17.4711 3.91402 17.3582 3.64086C17.2452 3.36769 17.0796 3.11944 16.8707 2.91029C16.6618 2.70114 16.4137 2.53518 16.1407 2.42188C15.8677 2.30859 15.575 2.25019 15.2794 2.25ZM3.71667 9.5498C3.19004 9.5498 2.73812 9.82141 2.43984 10.2071C2.14494 10.5884 2 11.073 2 11.5498V15.0498C2 15.5266 2.14494 16.0112 2.43984 16.3925C2.73811 16.7782 3.19004 17.0498 3.71667 17.0498H16.2833C16.81 17.0498 17.2619 16.7782 17.5602 16.3925C17.8551 16.0112 18 15.5266 18 15.0498V11.5498C18 11.073 17.8551 10.5884 17.5602 10.2071C17.2619 9.82141 16.81 9.5498 16.2833 9.5498H15.6964C15.2822 9.5498 14.9464 9.88559 14.9464 10.2998C14.9464 10.714 15.2822 11.0498 15.6964 11.0498H16.2833C16.285 11.0501 16.2901 11.0512 16.2991 11.0561C16.3139 11.064 16.3415 11.0832 16.3736 11.1247C16.4413 11.2122 16.5 11.3636 16.5 11.5498V15.0498C16.5 15.236 16.4413 15.3874 16.3736 15.4749C16.3415 15.5164 16.3139 15.5356 16.2991 15.5435C16.2901 15.5484 16.285 15.5496 16.2833 15.5498H3.71669C3.715 15.5496 3.70991 15.5484 3.70086 15.5435C3.68608 15.5356 3.6585 15.5164 3.62642 15.4749C3.55875 15.3874 3.5 15.236 3.5 15.0498V11.5498C3.5 11.3636 3.55875 11.2122 3.62642 11.1247C3.6585 11.0832 3.68608 11.064 3.70086 11.0561C3.70991 11.0512 3.715 11.0501 3.71669 11.0498H4.5C4.91421 11.0498 5.25 10.714 5.25 10.2998C5.25 9.88559 4.91421 9.5498 4.5 9.5498H3.71667Z" fill="currentColor"/>
</svg>
