<svg width="20" height="20" viewBox="0 0 20 20" fill="none" xmlns="http://www.w3.org/2000/svg">
  <path d="M10.0946 7.0028C9.84743 6.98784 9.60379 7.03316 9.39215 7.12898C9.18071 7.22472 9.01709 7.36333 8.9092 7.51843C8.80222 7.67224 8.75199 7.83853 8.75195 7.99983C8.75186 8.41404 8.416 8.74975 8.00179 8.74966C7.58758 8.74957 7.25186 8.41371 7.25195 7.9995C7.25206 7.51916 7.40354 7.0562 7.6778 6.66191C7.95116 6.26891 8.33363 5.96167 8.77346 5.76252C9.21309 5.56347 9.70083 5.47623 10.1852 5.50554C10.6695 5.53484 11.1422 5.68022 11.5515 5.93347C11.9611 6.18697 12.2971 6.54279 12.5094 6.97188C12.7225 7.40247 12.799 7.88326 12.7237 8.35797C12.6486 8.83184 12.4277 9.26655 12.1 9.61789C11.7732 9.96833 11.3525 10.2234 10.8903 10.3664C10.8264 10.3862 10.7875 10.4179 10.7688 10.4411C10.7597 10.4524 10.7556 10.461 10.7539 10.4659C10.7539 10.5 10.752 10.4749 10.752 10.4749V10.75C10.752 11.1642 10.4162 11.5 10.002 11.5C9.58774 11.5 9.25195 11.1642 9.25195 10.75V10.4758C9.25184 10.1143 9.38047 9.77272 9.60184 9.49863C9.82187 9.22621 10.1207 9.03434 10.447 8.93342C10.676 8.86255 10.8662 8.74157 11.003 8.59487C11.139 8.44908 11.2166 8.28472 11.2422 8.12305C11.2677 7.9622 11.2434 7.79544 11.1651 7.63724C11.086 7.47753 10.9512 7.32598 10.7621 7.20898C10.5727 7.09174 10.3418 7.01775 10.0946 7.0028Z" fill="currentColor"/>
  <path d="M9.44638 12.753C9.61083 12.6431 9.80417 12.5845 10.002 12.5845C10.2672 12.5845 10.5215 12.6898 10.7091 12.8774C10.8966 13.0649 11.002 13.3193 11.002 13.5845C11.002 13.7823 10.9433 13.9756 10.8334 14.14C10.7235 14.3045 10.5674 14.4327 10.3846 14.5084C10.2019 14.584 10.0008 14.6038 9.80686 14.5653C9.61288 14.5267 9.4347 14.4314 9.29485 14.2916C9.15499 14.1517 9.05975 13.9735 9.02117 13.7796C8.98258 13.5856 9.00239 13.3845 9.07807 13.2018C9.15376 13.0191 9.28193 12.8629 9.44638 12.753Z" fill="currentColor"/>
  <path fill-rule="evenodd" clip-rule="evenodd" d="M4.36581 4.36386C5.86061 2.86906 7.88798 2.0293 10.0019 2.0293C12.1159 2.0293 14.1433 2.86906 15.6381 4.36386C17.1329 5.85865 17.9726 7.88603 17.9726 9.99999C17.9726 12.1139 17.1329 14.1413 15.6381 15.6361C14.1433 17.1309 12.1159 17.9707 10.0019 17.9707C7.88798 17.9707 5.86061 17.1309 4.36581 15.6361C2.87102 14.1413 2.03125 12.1139 2.03125 9.99999C2.03125 7.88603 2.87102 5.85865 4.36581 4.36386ZM10.0019 3.5293C8.28581 3.5293 6.63996 4.21103 5.42647 5.42452C4.21298 6.63801 3.53125 8.28385 3.53125 9.99999C3.53125 11.7161 4.21298 13.362 5.42647 14.5755C6.63996 15.7889 8.28581 16.4707 10.0019 16.4707C11.7181 16.4707 13.3639 15.7889 14.5774 14.5755C15.7909 13.362 16.4726 11.7161 16.4726 9.99999C16.4726 8.28385 15.7909 6.63801 14.5774 5.42452C13.3639 4.21103 11.7181 3.5293 10.0019 3.5293Z" fill="currentColor"/>
</svg>
