<svg width="20" height="20" viewBox="0 0 20 20" fill="none" xmlns="http://www.w3.org/2000/svg">

<path d="M6 10.5C6 11.3284 5.32843 12 4.5 12C3.67157 12 3 11.3284 3 10.5C3 9.67157 3.67157 9 4.5 9C5.32843 9 6 9.67157 6 10.5Z" fill="currentColor"/>
<path d="M11.8333 10.5C11.8333 11.3284 11.1618 12 10.3333 12C9.50492 12 8.83334 11.3284 8.83334 10.5C8.83334 9.67157 9.50492 9 10.3333 9C11.1618 9 11.8333 9.67157 11.8333 10.5Z" fill="currentColor"/>
<path d="M17.6667 10.5C17.6667 11.3284 16.9951 12 16.1667 12C15.3383 12 14.6667 11.3284 14.6667 10.5C14.6667 9.67157 15.3383 9 16.1667 9C16.9951 9 17.6667 9.67157 17.6667 10.5Z" fill="currentColor"/>
</svg>
