<svg width="20" height="20" viewBox="0 0 20 20" fill="none" xmlns="http://www.w3.org/2000/svg">
<path fill-rule="evenodd" clip-rule="evenodd" d="M10 2.04999C10.4143 2.04999 10.75 2.38577 10.75 2.79999V3.61058C12.0546 3.75821 13.2785 4.34336 14.2159 5.28079C15.309 6.37389 15.9231 7.85644 15.9231 9.4023C15.9231 11.7406 16.1727 13.0548 16.3959 13.758C16.5068 14.1075 16.6088 14.2984 16.6645 14.3868C16.6835 14.4168 16.697 14.435 16.7038 14.4435C16.9179 14.6455 16.9953 14.9565 16.8964 15.2377C16.7908 15.538 16.5072 15.7389 16.1889 15.7389H12.9529C12.9516 15.8038 12.9418 15.8695 12.9226 15.9348C12.7439 16.5449 12.3725 17.0809 11.864 17.4623C11.3554 17.8437 10.7371 18.05 10.1015 18.05C9.46584 18.05 8.84746 17.8437 8.33891 17.4623C7.83037 17.0809 7.45905 16.5449 7.28027 15.9348C7.26115 15.8695 7.2513 15.8038 7.24997 15.7389H4.00001C3.71313 15.7389 3.45138 15.5752 3.32575 15.3173C3.20248 15.0643 3.23145 14.764 3.39963 14.5394C3.40133 14.5369 3.40486 14.5316 3.41004 14.5235C3.42459 14.5005 3.45231 14.4542 3.48918 14.3812C3.56285 14.2352 3.67358 13.9813 3.78854 13.5917C4.01863 12.812 4.26574 11.4886 4.26574 9.4023C4.26574 7.85644 4.87984 6.37389 5.97293 5.28079C6.865 4.38872 8.01646 3.81567 9.25004 3.63507V2.79999C9.25004 2.38577 9.58582 2.04999 10 2.04999ZM8.80705 15.7389C8.90698 15.9443 9.05465 16.1241 9.2389 16.2623C9.488 16.4491 9.79062 16.55 10.1015 16.55C10.4123 16.55 10.7149 16.4491 10.964 16.2623C11.1483 16.1241 11.2959 15.9443 11.3959 15.7389H8.80705ZM7.03359 6.34145C7.84538 5.52967 8.9464 5.07361 10.0944 5.07361C11.2425 5.07361 12.3435 5.52967 13.1553 6.34145C13.9671 7.15324 14.4231 8.25426 14.4231 9.4023C14.4231 11.8353 14.6814 13.3144 14.9661 14.2117L14.9748 14.2389H5.15815C5.18119 14.1682 5.20426 14.0941 5.22721 14.0163C5.50499 13.075 5.76574 11.6052 5.76574 9.4023C5.76574 8.25426 6.2218 7.15324 7.03359 6.34145Z" fill="currentColor"/>
</svg>
