<svg xmlns="http://www.w3.org/2000/svg" width="20" height="20" fill="currentColor" viewBox="0 0 20 20">
  <path fill-rule="evenodd" d="M16.575 7.627a.754.754 0 0 0 0-.12v-.024c0-.457-.181-.895-.504-1.218l-3.81-3.81a1.724 1.724 0 0 0-1.219-.505H5.145a1.723 1.723 0 0 0-1.723 1.723v12.654a1.723 1.723 0 0 0 1.723 1.723h9.707a1.724 1.724 0 0 0 1.723-1.723v-8.7ZM4.987 3.515a.223.223 0 0 1 .158-.065l5.066.055v3.088a1.723 1.723 0 0 0 1.723 1.724h3.141v8.01a.223.223 0 0 1-.223.223H5.145a.223.223 0 0 1-.223-.223V3.673c0-.059.023-.116.065-.158Zm6.724.511 2.79 2.79h-2.567a.223.223 0 0 1-.223-.223V4.026ZM7.384 15.34a1.03 1.03 0 0 1-.701-.252 1.045 1.045 0 0 1-.37-.608 1.007 1.007 0 0 1 .13-.694c.18-.312.505-.536.775-.691.11-.063.228-.125.354-.184a14.314 14.314 0 0 0 .453-2.808 8.05 8.05 0 0 1-.335-.579c-.167-.322-.317-.678-.356-1.01-.02-.167-.02-.397.086-.625a.946.946 0 0 1 .599-.515.942.942 0 0 1 .784.106c.215.137.338.335.41.487.141.3.2.68.226 1.036.015.215.02.45.017.697.245.355.536.734.848 1.102.36.425.73.817 1.072 1.133.166-.011.324-.016.473-.013.313.007.7.047 1.007.225.17.098.36.265.455.53.096.267.056.523-.02.721a1.015 1.015 0 0 1-.506.56 1.09 1.09 0 0 1-.675.08c-.35-.063-.695-.268-.981-.473a5.64 5.64 0 0 1-.21-.158 11.492 11.492 0 0 0-2.203.559 5.312 5.312 0 0 1-.086.214c-.135.316-.325.67-.601.902-.15.124-.368.248-.645.258Zm1.318-2.472a38.115 38.115 0 0 1 1.416-.364 45.25 45.25 0 0 1-1.123-1.27 45.17 45.17 0 0 1-.293 1.634Z" clip-rule="evenodd"/>
</svg>
