<svg width="20" height="20" viewBox="0 0 20 20" fill="none" xmlns="http://www.w3.org/2000/svg">
<path fill-rule="evenodd" clip-rule="evenodd" d="M7.51318 5.43037C8.17316 4.77038 9.06829 4.39961 10.0017 4.39961C10.935 4.39961 11.8301 4.77038 12.4901 5.43037C13.1501 6.09035 13.5209 6.98548 13.5209 7.91884C13.5209 8.8522 13.1501 9.74733 12.4901 10.4073C11.8301 11.0673 10.935 11.4381 10.0017 11.4381C9.06829 11.4381 8.17316 11.0673 7.51318 10.4073C6.8532 9.74733 6.48242 8.8522 6.48242 7.91884C6.48242 6.98548 6.8532 6.09035 7.51318 5.43037ZM10.0017 5.89961C9.46612 5.89961 8.95252 6.11235 8.57384 6.49103C8.19516 6.86971 7.98242 7.38331 7.98242 7.91884C7.98242 8.45437 8.19516 8.96797 8.57384 9.34665C8.95252 9.72533 9.46612 9.93807 10.0017 9.93807C10.5372 9.93807 11.0508 9.72533 11.4295 9.34665C11.8081 8.96797 12.0209 8.45437 12.0209 7.91884C12.0209 7.38331 11.8081 6.86971 11.4295 6.49103C11.0508 6.11235 10.5372 5.89961 10.0017 5.89961Z" fill="currentColor"/>
<path fill-rule="evenodd" clip-rule="evenodd" d="M10.0008 2.0498C7.89231 2.0498 5.8702 2.88739 4.37928 4.37831C2.88837 5.86922 2.05078 7.89133 2.05078 9.9998C2.05078 12.1083 2.88837 14.1304 4.37928 15.6213C4.50318 15.7452 4.63075 15.8646 4.76173 15.9794C4.77108 15.9879 4.78069 15.9963 4.79055 16.0045C6.23158 17.255 8.08036 17.9498 10.0008 17.9498C12.1093 17.9498 14.1314 17.1122 15.6223 15.6213C17.1132 14.1304 17.9508 12.1083 17.9508 9.9998C17.9508 7.89133 17.1132 5.86922 15.6223 4.37831C14.1314 2.88739 12.1093 2.0498 10.0008 2.0498ZM6.2925 15.2773C7.37119 16.0352 8.66461 16.4498 10.0008 16.4498C11.3369 16.4498 12.6302 16.0353 13.7088 15.2774C13.3315 14.8156 12.8699 14.4267 12.3466 14.1326C11.6302 13.73 10.8223 13.5186 10.0006 13.5186C9.17886 13.5186 8.37096 13.73 7.6546 14.1326C7.13136 14.4267 6.66982 14.8155 6.2925 15.2773ZM14.8283 14.2774C15.8706 13.1011 16.4508 11.5804 16.4508 9.9998C16.4508 8.28916 15.7712 6.64858 14.5616 5.43897C13.352 4.22936 11.7114 3.5498 10.0008 3.5498C8.29013 3.5498 6.64955 4.22936 5.43994 5.43897C4.23033 6.64858 3.55078 8.28916 3.55078 9.9998C3.55078 11.5803 4.13084 13.1009 5.17307 14.2772C5.66065 13.6931 6.25191 13.2003 6.91971 12.825C7.86047 12.2963 8.92145 12.0186 10.0006 12.0186C11.0797 12.0186 12.1407 12.2963 13.0815 12.825C13.7494 13.2003 14.3407 13.6932 14.8283 14.2774Z" fill="currentColor"/>
</svg>
