<svg xmlns="http://www.w3.org/2000/svg" width="20" height="20" fill="currentColor" viewBox="0 0 20 20">
  <path fill-rule="evenodd" d="M14.746 2.25c-.446 0-.874.177-1.19.493l-2.31 2.31a.732.732 0 0 0-.035.035L7.285 9.015a.747.747 0 0 0-.219.494 2.15 2.15 0 0 0-.77.495c-.27.27-.423.649-.518.945a7.055 7.055 0 0 0-.227.99 12.434 12.434 0 0 0-.134 1.195.75.75 0 0 0 .79.79l.103-.007.262-.022c.216-.02.512-.053.83-.105a7.05 7.05 0 0 0 .99-.227c.296-.095.675-.248.944-.518.22-.22.389-.484.495-.77a.747.747 0 0 0 .495-.22l3.96-3.96a.772.772 0 0 0 .023-.024l1.758-1.757.13.13a.184.184 0 0 1 0 .26l-2.97 2.97a.75.75 0 0 0 1.06 1.06l2.97-2.97a1.684 1.684 0 0 0 0-2.38l-.254-.256a1.682 1.682 0 0 0-.406-1.725l-.66-.66a1.684 1.684 0 0 0-1.19-.493Zm-5.41 7.754.035.036.425.425 2.9-2.9-.92-.92-2.9 2.9.425.425.035.034Zm-1.52.87a.65.65 0 0 1 .44.172l.039.039a.65.65 0 0 1-.02.9l.002-.002a.538.538 0 0 1-.08.048 1.849 1.849 0 0 1-.263.103 5.589 5.589 0 0 1-.926.199l.023-.153c.045-.277.104-.55.175-.774.036-.111.071-.199.104-.263a.485.485 0 0 1 .047-.079l-.001.001a.65.65 0 0 1 .46-.19Zm5.94-4.37 1.78-1.78a.184.184 0 0 0 0-.26l-.66-.66a.184.184 0 0 0-.26 0l-1.78 1.78.92.92Z" clip-rule="evenodd"/>
  <path d="M4.4 13.452a2.15 2.15 0 0 0 0 4.3h9.802a.75.75 0 0 0 0-1.5H4.4a.65.65 0 0 1 0-1.3h.465a.75.75 0 1 0 0-1.5H4.4Z"/>
</svg>
