<svg xmlns="http://www.w3.org/2000/svg" width="20" height="20" fill="currentColor" viewBox="0 0 20 20">
  <path fill-rule="evenodd" d="m11.921 11.453.001.001a.522.522 0 0 0 .731 0h.001a1.891 1.891 0 0 1 2.663 0l2.134 2.117a1.897 1.897 0 0 1 0 2.67l-.003.003-.506.505a4.287 4.287 0 0 1-5.347.57l-.012-.008a32.918 32.918 0 0 1-8.931-8.924 4.271 4.271 0 0 1 .646-5.334l.505-.504a1.902 1.902 0 0 1 2.674 0l.011.012 2.047 2.122a1.883 1.883 0 0 1-.004 2.654.52.52 0 0 0 0 .731v.001l3.39 3.384ZM5.417 3.611l2.038 2.113.014.015a.383.383 0 0 1 0 .54l-.005.004a2.02 2.02 0 0 0-.002 2.838l.003.003 3.396 3.39.007.008h.001l.002.002a2.022 2.022 0 0 0 2.836-.002l.004-.004a.39.39 0 0 1 .548 0l2.129 2.112a.397.397 0 0 1-.002.554l-.503.503a2.79 2.79 0 0 1-3.47.374A31.42 31.42 0 0 1 3.916 7.58a2.771 2.771 0 0 1 .427-3.45l.015-.016.5-.5a.403.403 0 0 1 .56-.003Z" clip-rule="evenodd"/>
  <path d="m17.666 5.124-1.82-.585a.515.515 0 0 1-.323-.331l-.57-1.866A.487.487 0 0 0 14.5 2a.473.473 0 0 0-.452.342l-.571 1.866a.492.492 0 0 1-.323.33l-1.82.586a.496.496 0 0 0-.334.464c0 .21.13.397.334.463l1.82.585c.15.055.28.177.323.331l.57 1.866a.487.487 0 0 0 .453.342.473.473 0 0 0 .452-.342l.571-1.866a.492.492 0 0 1 .323-.33l1.82-.586A.496.496 0 0 0 18 5.588c0-.21-.13-.398-.334-.464Z"/>
</svg>
