<svg width="20" height="20" viewBox="0 0 20 20" fill="none" xmlns="http://www.w3.org/2000/svg">
<path fill-rule="evenodd" clip-rule="evenodd" d="M11.7497 3.25772C12.113 3.22596 12.4792 3.2925 12.8078 3.45138C13.1363 3.6106 13.4168 3.8572 13.6137 4.16598C13.8109 4.47502 13.9165 4.83337 13.9163 5.20068V14.8C13.9163 15.1674 13.8104 15.5258 13.6129 15.8347C13.4157 16.1434 13.1357 16.3895 12.8069 16.5485C12.4784 16.7074 12.1122 16.774 11.749 16.7423C11.3962 16.7116 11.0568 16.589 10.7666 16.3856L10.7408 16.3671C10.7493 16.3733 10.758 16.3795 10.7666 16.3856L5.50977 13.1501H5.72208V12.4001L6.5 12.5L6.47208 11.981L11.5743 15.1213C11.5904 15.1312 11.6062 15.1418 11.6215 15.1529C11.6944 15.2058 11.7836 15.2396 11.8793 15.248C11.975 15.2563 12.0703 15.2385 12.1539 15.1981C12.2373 15.1578 12.304 15.0975 12.349 15.027C12.3938 14.9569 12.4163 14.8783 12.4163 14.8V5.20019C12.4163 5.12191 12.3939 5.04289 12.3491 4.9727C12.3043 4.90237 12.2379 4.84213 12.1547 4.80173C12.0711 4.76139 11.9759 4.74366 11.8803 4.75202C11.7846 4.76039 11.6954 4.79425 11.6225 4.84718C11.6071 4.85837 11.5913 4.86897 11.575 4.87895L6.47208 8.01925V7.60015L5.72208 7.60015V6.85015H5.5098L10.7674 3.61469C10.7587 3.6208 10.75 3.62699 10.7414 3.63325L10.7674 3.61469C11.0575 3.41116 11.3969 3.28856 11.7497 3.25772ZM4.97208 8.35015V11.6501H3.24069C3.10263 11.6501 2.97505 11.5968 2.8848 11.5095C2.7954 11.423 2.75 11.3112 2.75 11.2001V8.80013C2.75 8.68902 2.7954 8.57718 2.8848 8.49072C2.97505 8.40343 3.10263 8.35015 3.24069 8.35015H4.97208ZM5.5098 6.85015H3.24069C2.72065 6.85015 2.21708 7.04972 1.84198 7.41251C1.46603 7.77613 1.25 8.27473 1.25 8.80013V11.2001C1.25 11.7255 1.46603 12.2241 1.84198 12.5877C2.21708 12.9505 2.72066 13.1501 3.24069 13.1501H5.50977H5.72208V12.4001L6.5 12.5L6.47208 11.981V8.01925V7.60015L5.72208 7.60015V6.85015H5.5098Z" fill="currentColor"/>
<path fill-rule="evenodd" clip-rule="evenodd" d="M16.2911 7.52882C16.5414 7.19876 17.0118 7.13408 17.3419 7.38435C17.778 7.71509 18.1329 8.13906 18.3777 8.62555C18.6225 9.11215 18.7504 9.6476 18.7504 10.1911C18.7504 10.7347 18.6225 11.2701 18.3777 11.7567C18.1329 12.2432 17.778 12.6672 17.3419 12.9979C17.0118 13.2482 16.5414 13.1835 16.2911 12.8534C16.0408 12.5234 16.1055 12.0529 16.4356 11.8027C16.6921 11.6082 16.8974 11.3614 17.0377 11.0825C17.1781 10.8036 17.2504 10.4989 17.2504 10.1911C17.2504 9.88337 17.1781 9.57866 17.0377 9.29981C16.8974 9.02084 16.6921 8.7741 16.4356 8.5796C16.1055 8.32933 16.0408 7.85888 16.2911 7.52882Z" fill="currentColor"/>
</svg>
