<svg xmlns="http://www.w3.org/2000/svg" width="20" height="20" fill="currentColor" viewBox="0 0 20 20">
  <path fill-rule="evenodd" d="m10.242 11.422.01.032 1.062 3.317a.75.75 0 1 1-1.429.457l-.9-2.811h-4.77l-.9 2.812a.75.75 0 0 1-1.429-.458l1.062-3.317a.745.745 0 0 1 .01-.032l1.875-5.86A1.865 1.865 0 0 1 6.6 4.25c.82 0 1.522.545 1.767 1.312l1.875 5.86Zm-5.548-.505L6.26 6.019a.366.366 0 0 1 .339-.27c.135 0 .282.093.338.27l1.568 4.898H4.694Zm8.56-.642c0-.9.758-1.629 1.696-1.629.937 0 1.696.729 1.696 1.629v.22a3.326 3.326 0 0 1-1.824.552h-.318c-1.385 0-2.704.957-2.704 2.352 0 1.394 1.32 2.351 2.704 2.351v-.698.698h.043a3.154 3.154 0 0 0 .376-.032c.236-.03.561-.092.919-.216.256-.088.533-.21.808-.379a.717.717 0 0 0 .723.626c.401 0 .727-.313.727-.698v-4.776c0-1.671-1.41-3.025-3.15-3.025s-3.15 1.354-3.15 3.025c0 .385.325.698.727.698.401 0 .727-.313.727-.698Zm3.392 2.837v-1.03a4.818 4.818 0 0 1-1.824.361h-.318c-.784 0-1.25.513-1.25.956 0 .442.464.953 1.246.955h.005c.007 0 .021 0 .041-.002a3.196 3.196 0 0 0 .803-.163c.476-.165.989-.475 1.297-1.077Z" clip-rule="evenodd"/>
</svg>
