<svg width="20" height="20" viewBox="0 0 20 20" fill="none" xmlns="http://www.w3.org/2000/svg">
<path fill-rule="evenodd" clip-rule="evenodd" d="M7.23521 5.24354L7.25273 5.24373L7.27025 5.24353H8.72135C8.55118 6.62377 8.02255 7.73589 7.28225 8.57637C6.77574 7.9905 6.38451 7.30765 6.13374 6.57955C5.99258 6.16968 5.55095 5.95362 5.14734 6.09697C4.74373 6.24032 4.53097 6.6888 4.67213 7.09867C4.98186 7.99799 5.46737 8.85136 6.09998 9.58971C5.10317 10.2281 3.93537 10.5373 2.79063 10.5127C2.36313 10.5035 2.00924 10.8479 2.00018 11.2821C1.99112 11.7162 2.33032 12.0756 2.75781 12.0848C4.32392 12.1185 5.93434 11.6458 7.26508 10.6865C8.25569 11.4335 9.45562 11.9372 10.8072 12.0586L8.47644 16.7924C8.28521 17.1808 8.44023 17.653 8.82267 17.8472C9.20512 18.0414 9.67017 17.884 9.86139 17.4956L10.8305 15.5274H15.4602L16.5442 17.5846C16.7459 17.9675 17.2151 18.1118 17.5921 17.9069C17.9691 17.7021 18.1112 17.2256 17.9095 16.8428L13.7262 8.9037C13.5897 8.64458 13.3222 8.48442 13.0329 8.48848C12.7435 8.49255 12.4805 8.66016 12.3511 8.92302L11.567 10.5155C11.5489 10.5144 11.5307 10.5139 11.5122 10.5142C10.3573 10.5278 9.31732 10.1858 8.45174 9.61031C9.41904 8.51048 10.0986 7.05062 10.2802 5.24353H11.7271C12.1547 5.24353 12.5014 4.89153 12.5014 4.45731C12.5014 4.0231 12.1547 3.6711 11.7271 3.6711L8.02695 3.6711L8.02695 2.78622C8.02695 2.352 7.68032 2 7.25273 2C6.82514 2 6.47852 2.352 6.47852 2.78622V3.6711L2.77422 3.6711C2.34663 3.6711 2 4.0231 2 4.45732C2 4.89153 2.34663 5.24354 2.77422 5.24354L7.23521 5.24354ZM14.6316 13.9549L13.0669 10.9853L11.6047 13.9549H14.6316Z" fill="currentColor"/>
</svg>
