<svg width="20" height="20" viewBox="0 0 20 20" fill="none" xmlns="http://www.w3.org/2000/svg">
<path d="M10.002 10.75C9.58775 10.75 9.25196 10.4142 9.25196 9.99998L9.25196 6.38963C9.25196 5.97542 9.58775 5.63963 10.002 5.63963C10.4162 5.63963 10.752 5.97542 10.752 6.38963L10.752 9.99998C10.752 10.4142 10.4162 10.75 10.002 10.75Z" fill="currentColor"/>
<path d="M10.4623 13.9068C10.2962 14.0178 10.101 14.077 9.90126 14.077C9.63345 14.077 9.37661 13.9706 9.18724 13.7813C8.99787 13.5919 8.89149 13.3351 8.89149 13.0672C8.89149 12.8675 8.95071 12.6723 9.06167 12.5063C9.17262 12.3402 9.33033 12.2108 9.51484 12.1343C9.69935 12.0579 9.90238 12.0379 10.0983 12.0769C10.2941 12.1158 10.4741 12.212 10.6153 12.3532C10.7565 12.4945 10.8527 12.6744 10.8916 12.8703C10.9306 13.0661 10.9106 13.2692 10.8342 13.4537C10.7577 13.6382 10.6283 13.7959 10.4623 13.9068Z" fill="currentColor"/>
<path fill-rule="evenodd" clip-rule="evenodd" d="M15.6381 15.6361C14.1433 17.1309 12.1159 17.9707 10.002 17.9707C7.88801 17.9707 5.86063 17.1309 4.36583 15.6361C2.87104 14.1413 2.03127 12.114 2.03127 10C2.03127 7.88606 2.87104 5.85868 4.36583 4.36388C5.86063 2.86909 7.88801 2.02932 10.002 2.02932C12.1159 2.02932 14.1433 2.86909 15.6381 4.36388C17.1329 5.85868 17.9727 7.88605 17.9727 10C17.9727 12.114 17.1329 14.1413 15.6381 15.6361ZM10.002 16.4707C11.7181 16.4707 13.3639 15.789 14.5774 14.5755C15.7909 13.362 16.4727 11.7161 16.4727 10C16.4727 8.28388 15.7909 6.63803 14.5774 5.42454C13.3639 4.21105 11.7181 3.52932 10.002 3.52932C8.28583 3.52932 6.63998 4.21105 5.42649 5.42454C4.21301 6.63803 3.53127 8.28388 3.53127 10C3.53127 11.7161 4.21301 13.362 5.4265 14.5755C6.63998 15.789 8.28583 16.4707 10.002 16.4707Z" fill="currentColor"/>
</svg>
