<svg xmlns="http://www.w3.org/2000/svg" width="20" height="20" fill="currentColor" viewBox="0 0 20 20">
  <path d="M8.652 2.373a6.34 6.34 0 0 1 4.982 10.26l3.836 3.837a.75.75 0 0 1-1.062 1.06l-3.835-3.836a6.34 6.34 0 1 1-3.92-11.32Zm0 1.5a4.841 4.841 0 0 0-3.423 8.262 4.841 4.841 0 0 0 6.828.016l.016-.017.018-.017a4.84 4.84 0 0 0-3.439-8.244ZM8.7 6.05a.65.65 0 0 1 .65.65v1.35h1.35a.65.65 0 0 1 0 1.3H9.35v1.35a.651.651 0 0 1-1.3 0V9.35H6.7a.65.65 0 0 1 0-1.3h1.35V6.7a.65.65 0 0 1 .65-.65Z"/>
</svg>
