<svg width="20" height="20" viewBox="0 0 20 20" fill="none" xmlns="http://www.w3.org/2000/svg">
<path d="M17.6284 9.57782L16.5296 9.20195C15.4899 8.84624 14.6648 8.04267 14.2832 7.01156L13.8943 5.96172C13.7215 5.49657 13.278 5.18695 12.7812 5.18695C12.2729 5.18695 11.8221 5.50953 11.658 5.99053L11.2821 7.08932C10.9264 8.12908 10.1229 8.95425 9.09178 9.33588L8.04199 9.72471C7.57685 9.89752 7.26724 10.3411 7.26724 10.8379C7.26724 11.3463 7.58981 11.797 8.07079 11.9612L9.16955 12.337C10.2093 12.6928 11.0344 13.4963 11.416 14.5274L11.8048 15.5773C11.9776 16.0424 12.4212 16.352 12.918 16.352C13.4263 16.352 13.8771 16.0295 14.0412 15.5485L14.4171 14.4497C14.7728 13.4099 15.5763 12.5847 16.6074 12.2031L17.6572 11.8143C18.1223 11.6415 18.4319 11.1979 18.4319 10.7011C18.4319 10.1927 18.1094 9.74199 17.6284 9.57782Z" fill="currentColor"/>
<path d="M5.94339 7.60083C7.64775 7.60083 9.02941 6.21912 9.02941 4.51469C9.02941 2.81027 7.64775 1.42856 5.94339 1.42856C4.23902 1.42856 2.85736 2.81027 2.85736 4.51469C2.85736 6.21912 4.23902 7.60083 5.94339 7.60083Z" fill="currentColor"/>
<path d="M4.8205 15.7272V18.0588C4.8205 18.3419 5.05002 18.5714 5.33315 18.5714H7.66459C7.94772 18.5714 8.17725 18.3419 8.17725 18.0588V15.7272C8.17725 15.4441 7.94772 15.2146 7.66459 15.2146H5.33315C5.05002 15.2146 4.8205 15.4441 4.8205 15.7272Z" fill="currentColor"/>
</svg>
