<svg width="20" height="20" viewBox="0 0 20 20" fill="none" xmlns="http://www.w3.org/2000/svg">
<path fill-rule="evenodd" clip-rule="evenodd" d="M10 2.10596C9.661 2.10596 9.32868 2.20028 9.04023 2.37836C8.75177 2.55645 8.51855 2.81128 8.36665 3.11435L8.36633 3.11498L2.44277 14.9621L2.44269 14.9623C2.30353 15.2407 2.23784 15.5502 2.25185 15.8612C2.26586 16.1721 2.3591 16.4744 2.52272 16.7392C2.68635 17.0041 2.91493 17.2227 3.18678 17.3744C3.45863 17.5261 3.76473 17.6058 4.07604 17.606H4.07644H15.9236H15.924C16.2353 17.6058 16.5414 17.5261 16.8132 17.3744C17.0851 17.2227 17.3137 17.0041 17.4773 16.7392C17.6409 16.4744 17.7341 16.1721 17.7481 15.8612C17.7622 15.5502 17.6965 15.2407 17.5573 14.9623L17.5572 14.9621L11.6337 3.11498L11.6333 3.11435C11.4815 2.81128 11.2482 2.55645 10.9598 2.37836C10.6713 2.20028 10.339 2.10596 10 2.10596ZM9.82821 3.65471C9.87984 3.62284 9.93932 3.60596 10 3.60596C10.0607 3.60596 10.1202 3.62284 10.1718 3.65471C10.2233 3.68654 10.265 3.73207 10.2922 3.78622L10.2923 3.78645L16.2155 15.6328L16.2156 15.6329C16.2404 15.6827 16.2522 15.7381 16.2497 15.7937C16.2472 15.8493 16.2305 15.9034 16.2012 15.9508C16.1719 15.9982 16.131 16.0374 16.0823 16.0645C16.0337 16.0917 15.9789 16.1059 15.9232 16.106H4.07684C4.02112 16.1059 3.96633 16.0917 3.91767 16.0645C3.86901 16.0374 3.8281 15.9982 3.79881 15.9508C3.76953 15.9034 3.75284 15.8493 3.75033 15.7937C3.74783 15.7381 3.75956 15.6827 3.78441 15.6329L3.78449 15.6328L9.70765 3.78645L9.70777 3.7862C9.73496 3.73206 9.77666 3.68654 9.82821 3.65471ZM10 6.95135C10.4142 6.95135 10.75 7.28714 10.75 7.70135V10.9324C10.75 11.3466 10.4142 11.6824 10 11.6824C9.58579 11.6824 9.25 11.3466 9.25 10.9324V7.70135C9.25 7.28714 9.58579 6.95135 10 6.95135ZM9.2303 13.3937C9.43444 13.1896 9.7113 13.0749 9.99999 13.0749C10.2887 13.0749 10.5655 13.1896 10.7697 13.3937C10.9738 13.5979 11.0885 13.8747 11.0885 14.1634C11.0885 14.4521 10.9738 14.729 10.7697 14.9331C10.5655 15.1372 10.2887 15.2519 9.99999 15.2519C9.7113 15.2519 9.43444 15.1372 9.2303 14.9331C9.02617 14.729 8.91149 14.4521 8.91149 14.1634C8.91149 13.8747 9.02617 13.5979 9.2303 13.3937ZM9.99999 14.1749C10.003 14.1749 10.006 14.1737 10.0081 14.1715C10.0103 14.1694 10.0115 14.1665 10.0115 14.1634C10.0115 14.1604 10.0103 14.1574 10.0081 14.1553C10.006 14.1531 10.003 14.1519 9.99999 14.1519C9.99695 14.1519 9.99402 14.1531 9.99187 14.1553C9.98971 14.1574 9.9885 14.1604 9.9885 14.1634C9.9885 14.1665 9.98971 14.1694 9.99187 14.1715C9.99402 14.1737 9.99695 14.1749 9.99999 14.1749Z" fill="currentColor"/>
</svg>
