<svg width="20" height="20" viewBox="0 0 20 20" fill="none" xmlns="http://www.w3.org/2000/svg">
<path fill-rule="evenodd" clip-rule="evenodd" d="M3.53033 2.46967C3.23744 2.17678 2.76256 2.17678 2.46967 2.46967C2.17678 2.76256 2.17678 3.23744 2.46967 3.53033L8.97639 10.037L2.47093 16.5425C2.17804 16.8354 2.17804 17.3103 2.47093 17.6032C2.76382 17.8961 3.2387 17.8961 3.53159 17.6032L10.037 11.0977L16.5425 17.6032C16.8354 17.8961 17.3103 17.8961 17.6032 17.6032C17.8961 17.3103 17.8961 16.8354 17.6032 16.5425L11.0977 10.037L17.6044 3.53033C17.8973 3.23744 17.8973 2.76256 17.6044 2.46967C17.3115 2.17678 16.8367 2.17678 16.5438 2.46967L10.037 8.97639L3.53033 2.46967Z" fill="currentColor"/>
</svg>
