<svg xmlns="http://www.w3.org/2000/svg" width="20" height="20" fill="currentColor" viewBox="0 0 20 20">
  <path fill-rule="evenodd" d="M7.61 6.604 10 8.994l2.391-2.39A.713.713 0 1 1 13.4 7.612l-2.39 2.39 2.39 2.392a.713.713 0 1 1-1.007 1.008l-2.391-2.391L7.61 13.4a.713.713 0 0 1-1.008-1.007l2.39-2.391-2.39-2.391a.713.713 0 1 1 1.007-1.008Z" clip-rule="evenodd"/>
  <path fill-rule="evenodd" d="M17.95 10.003a7.95 7.95 0 1 0-15.9 0 7.95 7.95 0 0 0 15.9 0Zm-14.474 0a6.525 6.525 0 1 1 13.05 0 6.525 6.525 0 0 1-13.05 0Z" clip-rule="evenodd"/>
</svg>
