<svg width="20" height="20" viewBox="0 0 20 20" fill="none" xmlns="http://www.w3.org/2000/svg">
<path fill-rule="evenodd" clip-rule="evenodd" d="M3.71278 3.5C3.65814 3.5 3.60485 3.52177 3.56489 3.56193C3.52478 3.60223 3.50147 3.65781 3.50147 3.71667V12.3833C3.50147 12.4422 3.52478 12.4978 3.56489 12.5381C3.60486 12.5782 3.65814 12.6 3.71278 12.6H6.63786C7.05248 12.6 7.3886 12.9358 7.3886 13.35V15.4208L9.95142 12.8235C10.0925 12.6805 10.2851 12.6 10.4861 12.6H16.2872C16.3419 12.6 16.3951 12.5782 16.4351 12.5381C16.4752 12.4978 16.4985 12.4422 16.4985 12.3833V3.71667C16.4985 3.65781 16.4752 3.60224 16.4351 3.56193C16.3951 3.52177 16.3419 3.5 16.2872 3.5H3.71278ZM2.50014 2.50433C2.82101 2.18192 3.25712 2 3.71278 2H16.2872C16.7429 2 17.179 2.18192 17.4999 2.50433C17.8206 2.8266 18 3.26277 18 3.71667V12.3833C18 12.8372 17.8206 13.2734 17.4999 13.5957C17.179 13.9181 16.7429 14.1 16.2872 14.1H10.8002L7.34389 17.7422C6.80968 18.2836 5.88713 17.9057 5.88713 17.1455V14.1H3.71278C3.25712 14.1 2.82101 13.9181 2.50014 13.5957C2.17941 13.2734 2 12.8372 2 12.3833V3.71667C2 3.26277 2.17941 2.8266 2.50014 2.50433ZM4.88615 6.7875C4.88615 6.37328 5.22226 6.0375 5.63688 6.0375H14.2953C14.71 6.0375 15.0461 6.37328 15.0461 6.7875C15.0461 7.20171 14.71 7.5375 14.2953 7.5375H5.63688C5.22226 7.5375 4.88615 7.20171 4.88615 6.7875ZM4.88615 9.75781C4.88615 9.3436 5.22226 9.00781 5.63688 9.00781H12.3712C12.7859 9.00781 13.122 9.3436 13.122 9.75781C13.122 10.172 12.7859 10.5078 12.3712 10.5078H5.63688C5.22226 10.5078 4.88615 10.172 4.88615 9.75781Z" fill="currentColor"/>
</svg>
