<svg width="39" height="40" viewBox="0 0 39 40" fill="none" xmlns="http://www.w3.org/2000/svg">
<path fill-rule="evenodd" clip-rule="evenodd" d="M17.5505 29.501C17.5505 29.501 17.2339 29.501 17.0629 29.501H15.1129C12.1513 29.501 9.75039 27.0386 9.75039 24.001V20.569L9.75052 20.5486V11.0005L6.50496 13.9375C6.00038 14.5844 5.08004 14.6893 4.44933 14.1718C3.8186 13.6543 3.71635 12.7103 4.22093 12.0634L10.0709 6.56345C10.3485 6.20763 10.7687 6.00051 11.2129 6.00049C11.6572 6.00049 12.0774 6.20763 12.355 6.56345L18.205 12.0634C18.7095 12.7103 18.6073 13.6543 17.9766 14.1718C17.3458 14.6893 16.4255 14.5844 15.9209 13.9375L12.6754 11.0012V24.001C12.6754 25.3818 13.7667 26.501 15.1129 26.501H17.0629C17.2339 26.501 17.5505 26.501 17.5505 26.501L17.5508 24.001C17.5508 22.8964 18.4238 22.001 19.5009 22.001H33.1509C34.2277 22.001 35.1009 22.8964 35.1009 24.001V32.001C35.1009 33.1056 34.2277 34.001 33.1509 34.001H19.5009C18.4238 34.001 17.5508 33.1056 17.5508 32.001L17.5505 29.501ZM20.4759 25.001H32.1759V31.001H20.4759V25.001Z" fill="currentColor"/>
</svg>
