<svg width="39" height="40" viewBox="0 0 39 40" fill="none" xmlns="http://www.w3.org/2000/svg">
<path d="M4.38672 17C4.38672 13.6848 5.67076 10.5054 7.95635 8.16116C10.2419 5.81696 13.3419 4.5 16.5742 4.5C19.8065 4.5 22.9065 5.81696 25.192 8.16116C27.4776 10.5054 28.7617 13.6848 28.7617 17V30.3785H28.7632L32.1166 26.9394C32.6878 26.3535 33.6137 26.3535 34.1848 26.9394C34.756 27.5252 34.756 28.4748 34.1848 29.0606L28.3348 35.0606C28.0606 35.3419 27.6886 35.5 27.3007 35.5C26.9129 35.5 26.5408 35.3419 26.2666 35.0606L20.4166 29.0606C19.8455 28.4748 19.8455 27.5252 20.4166 26.9394C20.9878 26.3535 21.9137 26.3535 22.4848 26.9394L25.8367 30.377V17C25.8367 14.4804 24.8609 12.0641 23.1239 10.2825C21.3868 8.50088 19.0308 7.5 16.5742 7.5C14.1176 7.5 11.7617 8.5009 10.0246 10.2825C8.28758 12.0641 7.31172 14.4804 7.31172 17C7.31172 17.8284 6.65693 18.5 5.84922 18.5C5.04151 18.5 4.38672 17.8284 4.38672 17Z" fill="currentColor"/>
</svg>
