<svg xmlns="http://www.w3.org/2000/svg" width="20" height="21" fill="currentColor" viewBox="0 0 20 21">
  <path fill-rule="evenodd" d="M10.748 2.5a.75.75 0 1 0-1.5 0v1.27c-1.326.12-2.566.744-3.498 1.756-1.032 1.12-1.61 2.526-1.61 4.21 0 .709-.095 1.896-.193 2.934a105 105 0 0 1-.177 1.72l-.013.108-.004.037a.745.745 0 0 0-.003.032L1.939 16.15a.845.845 0 0 0-.233.236.755.755 0 0 0-.102.618.79.79 0 0 0 .147.288.914.914 0 0 0 .553.295.957.957 0 0 0 .624-.12L17.391 4.82a.815.815 0 0 0 .32-.51.776.776 0 0 0-.131-.578.911.911 0 0 0-.58-.32.953.953 0 0 0-.657.146l-2.325 2.033-.009-.01a7.024 7.024 0 0 0-1.122-.873 6.324 6.324 0 0 0-2.139-.858V2.5Zm2.136 4.082a5.52 5.52 0 0 0-.792-.6c-.601-.377-1.424-.732-2.38-.732-1.06 0-2.09.456-2.859 1.292-.776.843-1.214 1.886-1.214 3.195 0 .789-.101 2.044-.199 3.074l-.029.304 7.473-6.533ZM6.845 16.25h.304c.002.06.012.121.029.182a2.978 2.978 0 0 0 1.054 1.544 2.913 2.913 0 0 0 3.533 0c.508-.387.877-.93 1.054-1.544a.751.751 0 0 0 .03-.184h2.65a.75.75 0 0 0 .536-1.274.703.703 0 0 1-.039-.061 3.04 3.04 0 0 1-.26-.661c-.215-.735-.452-2.098-.452-4.515v-.004a8.166 8.166 0 0 0-.098-1.211 4.6 4.6 0 0 0-.014-.08l-.004-.023-.002-.007v-.005a.75.75 0 0 0-1.47.3l.002.01.008.05a6.695 6.695 0 0 1 .077.971c0 2.503.245 4.019.513 4.935l.023.075-7.475.002a.75.75 0 1 0 0 1.5Zm4.01.533c.185-.14.333-.324.434-.534H8.71c.1.21.249.394.433.534a1.414 1.414 0 0 0 1.714 0Z" clip-rule="evenodd"/>
</svg>
