<svg xmlns="http://www.w3.org/2000/svg" width="20" height="20" fill="currentColor" viewBox="0 0 20 20">
  <g clip-path="url(#a)">
    <path d="M4.5 2.25a2.25 2.25 0 1 1-4.5 0 2.25 2.25 0 0 1 4.5 0Zm7.75 0a2.25 2.25 0 1 1-4.5 0 2.25 2.25 0 0 1 4.5 0Zm7.75 0a2.25 2.25 0 1 1-4.5 0 2.25 2.25 0 0 1 4.5 0ZM4.5 10A2.25 2.25 0 1 1 0 10a2.25 2.25 0 0 1 4.5 0Zm7.75 0a2.25 2.25 0 1 1-4.5 0 2.25 2.25 0 0 1 4.5 0ZM20 10a2.25 2.25 0 1 1-4.5 0 2.25 2.25 0 0 1 4.5 0ZM4.5 17.75a2.25 2.25 0 1 1-4.5 0 2.25 2.25 0 0 1 4.5 0Zm7.75 0a2.25 2.25 0 1 1-4.5 0 2.25 2.25 0 0 1 4.5 0Zm7.75 0a2.25 2.25 0 1 1-4.5 0 2.25 2.25 0 0 1 4.5 0Z"/>
  </g>
  <defs>
    <clipPath id="a">
      <path d="M0 0h20v20H0z"/>
    </clipPath>
  </defs>
</svg>
