<svg width="39" height="39" viewBox="0 0 39 39" fill="none" xmlns="http://www.w3.org/2000/svg">
<path fill-rule="evenodd" clip-rule="evenodd" d="M20.3469 5.41144C19.9422 5.0069 19.2864 5.0069 18.8818 5.41144L12.0371 12.2561H10.1756C8.85972 12.2561 7.79297 13.3229 7.79297 14.6388V23.9637H3.96172C3.38959 23.9637 2.92578 24.4275 2.92578 24.9996V33.2871C2.92578 33.8592 3.38959 34.3231 3.96172 34.3231H14.3211C14.8932 34.3231 15.357 33.8592 15.357 33.2871V24.9996C15.357 24.4275 14.8932 23.9637 14.3211 23.9637H10.4864V14.9495H12.7869L18.8818 21.0444C19.2864 21.4488 19.9422 21.4488 20.3469 21.0444L26.471 14.9204C26.5614 14.9395 26.6551 14.9495 26.7511 14.9495H28.5124V23.9637H24.6804C24.1082 23.9637 23.6445 24.4275 23.6445 24.9996V33.2871C23.6445 33.8592 24.1082 34.3231 24.6804 34.3231H35.0399C35.6121 34.3231 36.0758 33.8592 36.0758 33.2871V24.9996C36.0758 24.4275 35.6121 23.9637 35.0399 23.9637H31.2057V14.6388C31.2057 13.3229 30.139 12.2561 28.823 12.2561H27.1915L20.3469 5.41144ZM19.6142 8.48804L14.8744 13.2279L19.6142 17.9679L24.3543 13.2279L19.6142 8.48804ZM5.61922 26.6571V31.6296H12.6636V26.6571H5.61922ZM33.3824 26.6571V31.6296H26.3381V26.6571H33.3824Z" fill="currentColor"/>
</svg>
