<svg width="260" height="106" viewBox="0 0 260 106" fill="none" xmlns="http://www.w3.org/2000/svg">
<path d="M8.092 15L4.158 5.2H5.348L9.338 15H8.092ZM0.126 15L4.116 5.2H5.32L1.386 15H0.126ZM2.016 12.214V11.15H7.462V12.214H2.016ZM10.4546 15V8H11.5046L11.5746 9.288V15H10.4546ZM15.3686 15V11.416L16.4886 10.996V15H15.3686ZM15.3686 11.416C15.3686 10.7253 15.2893 10.198 15.1306 9.834C14.9719 9.47 14.7526 9.22267 14.4726 9.092C14.1926 8.952 13.8753 8.882 13.5206 8.882C12.9046 8.882 12.4239 9.10133 12.0786 9.54C11.7426 9.96933 11.5746 10.5807 11.5746 11.374H11.0286C11.0286 10.6367 11.1359 10.002 11.3506 9.47C11.5653 8.938 11.8733 8.532 12.2746 8.252C12.6853 7.972 13.1799 7.832 13.7586 7.832C14.6079 7.832 15.2753 8.09333 15.7606 8.616C16.2553 9.13867 16.4979 9.932 16.4886 10.996L15.3686 11.416ZM18.7819 17.968C18.6045 17.968 18.3992 17.9307 18.1659 17.856C17.9325 17.7907 17.6852 17.702 17.4239 17.59L17.8439 16.652C18.0585 16.7453 18.2452 16.8153 18.4039 16.862C18.5719 16.9087 18.7025 16.932 18.7959 16.932C19.0479 16.932 19.2532 16.862 19.4119 16.722C19.5799 16.5913 19.7199 16.4 19.8319 16.148L20.6299 14.244L23.2199 8H24.4239L21.0639 15.98C20.8865 16.3907 20.6999 16.7453 20.5039 17.044C20.3172 17.3427 20.0885 17.5713 19.8179 17.73C19.5472 17.8887 19.2019 17.968 18.7819 17.968ZM20.3219 15L17.2979 8H18.4879L21.0919 14.23L21.4279 15H20.3219ZM29.68 15V7.202C29.68 6.474 29.848 5.928 30.184 5.564C30.5293 5.19067 31.052 5.004 31.752 5.004C31.9387 5.004 32.1487 5.03667 32.382 5.102C32.6153 5.16733 32.8627 5.26067 33.124 5.382L32.704 6.264C32.4893 6.18 32.3073 6.11467 32.158 6.068C32.0087 6.02133 31.8827 5.998 31.78 5.998C31.4533 5.998 31.206 6.10533 31.038 6.32C30.8793 6.52533 30.8 6.84733 30.8 7.286V15H29.68ZM28.392 8.966V8H32.83V8.966H28.392ZM37.173 15.168C36.4916 15.168 35.8896 15.014 35.367 14.706C34.8443 14.3887 34.4336 13.9547 34.135 13.404C33.8456 12.8533 33.701 12.2187 33.701 11.5C33.701 10.7813 33.8456 10.1467 34.135 9.596C34.4336 9.04533 34.8396 8.616 35.353 8.308C35.8756 7.99067 36.473 7.832 37.145 7.832C37.789 7.832 38.349 7.99533 38.825 8.322C39.3103 8.63933 39.6836 9.08733 39.945 9.666C40.2063 10.2447 40.337 10.926 40.337 11.71H39.217C39.217 11.1127 39.1376 10.604 38.979 10.184C38.8203 9.75467 38.5823 9.42333 38.265 9.19C37.957 8.95667 37.579 8.84 37.131 8.84C36.6736 8.84 36.2676 8.952 35.913 9.176C35.5676 9.39067 35.3016 9.69867 35.115 10.1C34.9283 10.5013 34.835 10.9727 34.835 11.514C34.835 12.046 34.9376 12.508 35.143 12.9C35.3483 13.2827 35.633 13.586 35.997 13.81C36.361 14.0247 36.7716 14.132 37.229 14.132C37.7143 14.132 38.125 14.0153 38.461 13.782C38.797 13.5487 39.063 13.2453 39.259 12.872L40.239 13.362C40.0616 13.726 39.8236 14.0433 39.525 14.314C39.2356 14.5847 38.8903 14.7947 38.489 14.944C38.097 15.0933 37.6583 15.168 37.173 15.168ZM34.443 11.71L34.457 10.744H39.651V11.71H34.443ZM44.8155 15.168C44.1342 15.168 43.5322 15.014 43.0095 14.706C42.4869 14.3887 42.0762 13.9547 41.7775 13.404C41.4882 12.8533 41.3435 12.2187 41.3435 11.5C41.3435 10.7813 41.4882 10.1467 41.7775 9.596C42.0762 9.04533 42.4822 8.616 42.9955 8.308C43.5182 7.99067 44.1155 7.832 44.7875 7.832C45.4315 7.832 45.9915 7.99533 46.4675 8.322C46.9529 8.63933 47.3262 9.08733 47.5875 9.666C47.8489 10.2447 47.9795 10.926 47.9795 11.71H46.8595C46.8595 11.1127 46.7802 10.604 46.6215 10.184C46.4629 9.75467 46.2249 9.42333 45.9075 9.19C45.5995 8.95667 45.2215 8.84 44.7735 8.84C44.3162 8.84 43.9102 8.952 43.5555 9.176C43.2102 9.39067 42.9442 9.69867 42.7575 10.1C42.5709 10.5013 42.4775 10.9727 42.4775 11.514C42.4775 12.046 42.5802 12.508 42.7855 12.9C42.9909 13.2827 43.2755 13.586 43.6395 13.81C44.0035 14.0247 44.4142 14.132 44.8715 14.132C45.3569 14.132 45.7675 14.0153 46.1035 13.782C46.4395 13.5487 46.7055 13.2453 46.9015 12.872L47.8815 13.362C47.7042 13.726 47.4662 14.0433 47.1675 14.314C46.8782 14.5847 46.5329 14.7947 46.1315 14.944C45.7395 15.0933 45.3009 15.168 44.8155 15.168ZM42.0855 11.71L42.0995 10.744H47.2935V11.71H42.0855ZM54.5721 15L54.5161 13.698V5.2H55.6361V15H54.5721ZM52.1501 15.168C51.5248 15.168 50.9741 15.014 50.4981 14.706C50.0221 14.398 49.6488 13.9687 49.3781 13.418C49.1168 12.858 48.9861 12.2187 48.9861 11.5C48.9861 10.772 49.1168 10.1327 49.3781 9.582C49.6488 9.03133 50.0221 8.602 50.4981 8.294C50.9741 7.986 51.5248 7.832 52.1501 7.832C52.7381 7.832 53.2514 7.986 53.6901 8.294C54.1381 8.602 54.4834 9.03133 54.7261 9.582C54.9688 10.1327 55.0901 10.772 55.0901 11.5C55.0901 12.2187 54.9688 12.858 54.7261 13.418C54.4834 13.9687 54.1381 14.398 53.6901 14.706C53.2514 15.014 52.7381 15.168 52.1501 15.168ZM52.4021 14.146C52.8128 14.146 53.1768 14.034 53.4941 13.81C53.8114 13.586 54.0588 13.2733 54.2361 12.872C54.4228 12.4707 54.5161 12.0133 54.5161 11.5C54.5161 10.9867 54.4228 10.5293 54.2361 10.128C54.0588 9.72667 53.8114 9.414 53.4941 9.19C53.1768 8.966 52.8081 8.854 52.3881 8.854C51.9494 8.854 51.5574 8.966 51.2121 9.19C50.8761 9.414 50.6101 9.72667 50.4141 10.128C50.2181 10.5293 50.1201 10.9867 50.1201 11.5C50.1201 12.0133 50.2181 12.4707 50.4141 12.872C50.6101 13.2733 50.8808 13.586 51.2261 13.81C51.5714 14.034 51.9634 14.146 52.4021 14.146ZM57.5952 15V5.2H58.7152V13.698L58.6592 15H57.5952ZM61.0812 15.168C60.4932 15.168 59.9752 15.014 59.5272 14.706C59.0886 14.398 58.7479 13.9687 58.5052 13.418C58.2626 12.858 58.1412 12.2187 58.1412 11.5C58.1412 10.772 58.2626 10.1327 58.5052 9.582C58.7479 9.03133 59.0886 8.602 59.5272 8.294C59.9752 7.986 60.4932 7.832 61.0812 7.832C61.7066 7.832 62.2572 7.986 62.7332 8.294C63.2092 8.602 63.5779 9.03133 63.8392 9.582C64.1099 10.1327 64.2452 10.772 64.2452 11.5C64.2452 12.2187 64.1099 12.858 63.8392 13.418C63.5779 13.9687 63.2092 14.398 62.7332 14.706C62.2572 15.014 61.7066 15.168 61.0812 15.168ZM60.8292 14.146C61.2679 14.146 61.6552 14.034 61.9912 13.81C62.3366 13.586 62.6072 13.2733 62.8032 12.872C63.0086 12.4707 63.1112 12.0133 63.1112 11.5C63.1112 10.9867 63.0132 10.5293 62.8172 10.128C62.6306 9.72667 62.3646 9.414 62.0192 9.19C61.6739 8.966 61.2819 8.854 60.8432 8.854C60.4326 8.854 60.0639 8.966 59.7372 9.19C59.4199 9.414 59.1679 9.72667 58.9812 10.128C58.8039 10.5293 58.7152 10.9867 58.7152 11.5C58.7152 12.0133 58.8039 12.4707 58.9812 12.872C59.1679 13.2733 59.4199 13.586 59.7372 13.81C60.0546 14.034 60.4186 14.146 60.8292 14.146ZM70.1104 15L70.0404 13.852V11.304C70.0404 10.7533 69.975 10.3007 69.8444 9.946C69.723 9.582 69.5317 9.31133 69.2704 9.134C69.0184 8.94733 68.6824 8.854 68.2624 8.854C67.861 8.854 67.511 8.93333 67.2124 9.092C66.923 9.25067 66.685 9.498 66.4984 9.834L65.4904 9.428C65.677 9.10133 65.901 8.81667 66.1624 8.574C66.4237 8.33133 66.727 8.14933 67.0724 8.028C67.427 7.89733 67.8284 7.832 68.2764 7.832C68.9204 7.832 69.457 7.958 69.8864 8.21C70.3157 8.462 70.6377 8.84 70.8524 9.344C71.067 9.83867 71.1697 10.4593 71.1604 11.206L71.1464 15H70.1104ZM68.0104 15.168C67.189 15.168 66.545 14.9813 66.0784 14.608C65.621 14.2253 65.3924 13.698 65.3924 13.026C65.3924 12.3167 65.6257 11.7753 66.0924 11.402C66.5684 11.0193 67.231 10.828 68.0804 10.828H70.0824V11.766H68.3324C67.679 11.766 67.2124 11.8733 66.9324 12.088C66.6617 12.3027 66.5264 12.6107 66.5264 13.012C66.5264 13.376 66.6617 13.6653 66.9324 13.88C67.203 14.0853 67.581 14.188 68.0664 14.188C68.4677 14.188 68.8177 14.0947 69.1164 13.908C69.415 13.7213 69.6437 13.4693 69.8024 13.152C69.961 12.8253 70.0404 12.4567 70.0404 12.046H70.7264C70.7264 12.998 70.493 13.7587 70.0264 14.328C69.5597 14.888 68.8877 15.168 68.0104 15.168ZM76.0571 15.168C75.3664 15.168 74.7551 15.014 74.2231 14.706C73.6911 14.3887 73.2757 13.9547 72.9771 13.404C72.6784 12.8533 72.5291 12.2187 72.5291 11.5C72.5291 10.7813 72.6737 10.1467 72.9631 9.596C73.2617 9.04533 73.6771 8.616 74.2091 8.308C74.7411 7.99067 75.3477 7.832 76.0291 7.832C76.7011 7.832 77.3031 7.986 77.8351 8.294C78.3671 8.602 78.7731 9.036 79.0531 9.596L78.0311 10.058C77.8444 9.68467 77.5737 9.39533 77.2191 9.19C76.8644 8.97533 76.4584 8.868 76.0011 8.868C75.5437 8.868 75.1377 8.98 74.7831 9.204C74.4377 9.428 74.1624 9.74067 73.9571 10.142C73.7611 10.534 73.6631 10.9867 73.6631 11.5C73.6631 12.0133 73.7611 12.4707 73.9571 12.872C74.1624 13.264 74.4424 13.572 74.7971 13.796C75.1611 14.02 75.5717 14.132 76.0291 14.132C76.4864 14.132 76.8924 14.0153 77.2471 13.782C77.6111 13.5487 77.8864 13.222 78.0731 12.802L79.0951 13.264C78.8151 13.8613 78.4091 14.328 77.8771 14.664C77.3451 15 76.7384 15.168 76.0571 15.168ZM81.6013 12.746L80.8873 11.976L84.6113 8H86.0253L81.6013 12.746ZM80.5093 15V5.2H81.6293V15H80.5093ZM84.9193 15L82.2593 10.982L82.9873 10.198L86.3053 15H84.9193ZM95.0752 15L95.0052 13.852V11.304C95.0052 10.7533 94.9399 10.3007 94.8092 9.946C94.6879 9.582 94.4965 9.31133 94.2352 9.134C93.9832 8.94733 93.6472 8.854 93.2272 8.854C92.8259 8.854 92.4759 8.93333 92.1772 9.092C91.8879 9.25067 91.6499 9.498 91.4632 9.834L90.4552 9.428C90.6419 9.10133 90.8659 8.81667 91.1272 8.574C91.3885 8.33133 91.6919 8.14933 92.0372 8.028C92.3919 7.89733 92.7932 7.832 93.2412 7.832C93.8852 7.832 94.4219 7.958 94.8512 8.21C95.2805 8.462 95.6025 8.84 95.8172 9.344C96.0319 9.83867 96.1345 10.4593 96.1252 11.206L96.1112 15H95.0752ZM92.9752 15.168C92.1539 15.168 91.5099 14.9813 91.0432 14.608C90.5859 14.2253 90.3572 13.698 90.3572 13.026C90.3572 12.3167 90.5905 11.7753 91.0572 11.402C91.5332 11.0193 92.1959 10.828 93.0452 10.828H95.0472V11.766H93.2972C92.6439 11.766 92.1772 11.8733 91.8972 12.088C91.6265 12.3027 91.4912 12.6107 91.4912 13.012C91.4912 13.376 91.6265 13.6653 91.8972 13.88C92.1679 14.0853 92.5459 14.188 93.0312 14.188C93.4325 14.188 93.7825 14.0947 94.0812 13.908C94.3799 13.7213 94.6085 13.4693 94.7672 13.152C94.9259 12.8253 95.0052 12.4567 95.0052 12.046H95.6912C95.6912 12.998 95.4579 13.7587 94.9912 14.328C94.5245 14.888 93.8525 15.168 92.9752 15.168ZM97.8999 15V5.2H99.0199V13.698L98.9639 15H97.8999ZM101.386 15.168C100.798 15.168 100.28 15.014 99.8319 14.706C99.3933 14.398 99.0526 13.9687 98.8099 13.418C98.5673 12.858 98.4459 12.2187 98.4459 11.5C98.4459 10.772 98.5673 10.1327 98.8099 9.582C99.0526 9.03133 99.3933 8.602 99.8319 8.294C100.28 7.986 100.798 7.832 101.386 7.832C102.011 7.832 102.562 7.986 103.038 8.294C103.514 8.602 103.883 9.03133 104.144 9.582C104.415 10.1327 104.55 10.772 104.55 11.5C104.55 12.2187 104.415 12.858 104.144 13.418C103.883 13.9687 103.514 14.398 103.038 14.706C102.562 15.014 102.011 15.168 101.386 15.168ZM101.134 14.146C101.573 14.146 101.96 14.034 102.296 13.81C102.641 13.586 102.912 13.2733 103.108 12.872C103.313 12.4707 103.416 12.0133 103.416 11.5C103.416 10.9867 103.318 10.5293 103.122 10.128C102.935 9.72667 102.669 9.414 102.324 9.19C101.979 8.966 101.587 8.854 101.148 8.854C100.737 8.854 100.369 8.966 100.042 9.19C99.7246 9.414 99.4726 9.72667 99.2859 10.128C99.1086 10.5293 99.0199 10.9867 99.0199 11.5C99.0199 12.0133 99.1086 12.4707 99.2859 12.872C99.4726 13.2733 99.7246 13.586 100.042 13.81C100.359 14.034 100.723 14.146 101.134 14.146ZM109.197 15.168C108.516 15.168 107.909 15.014 107.377 14.706C106.854 14.3887 106.444 13.9547 106.145 13.404C105.846 12.8533 105.697 12.2187 105.697 11.5C105.697 10.7813 105.842 10.1467 106.131 9.596C106.43 9.04533 106.84 8.616 107.363 8.308C107.895 7.99067 108.497 7.832 109.169 7.832C109.86 7.832 110.466 7.99067 110.989 8.308C111.521 8.616 111.932 9.04533 112.221 9.596C112.52 10.1467 112.669 10.7813 112.669 11.5C112.669 12.2187 112.52 12.8533 112.221 13.404C111.932 13.9547 111.526 14.3887 111.003 14.706C110.48 15.014 109.878 15.168 109.197 15.168ZM109.197 14.132C109.664 14.132 110.07 14.02 110.415 13.796C110.76 13.572 111.031 13.264 111.227 12.872C111.432 12.48 111.535 12.0227 111.535 11.5C111.535 10.9773 111.432 10.52 111.227 10.128C111.031 9.736 110.756 9.428 110.401 9.204C110.046 8.98 109.636 8.868 109.169 8.868C108.712 8.868 108.306 8.98 107.951 9.204C107.606 9.428 107.33 9.736 107.125 10.128C106.929 10.52 106.831 10.9773 106.831 11.5C106.831 12.0133 106.929 12.4707 107.125 12.872C107.33 13.264 107.61 13.572 107.965 13.796C108.329 14.02 108.74 14.132 109.197 14.132ZM119.026 15L118.956 13.712V8H120.076V15H119.026ZM114.042 12.004V8H115.162V11.584L114.042 12.004ZM115.162 11.584C115.162 12.2747 115.241 12.802 115.4 13.166C115.559 13.53 115.778 13.782 116.058 13.922C116.347 14.0527 116.669 14.118 117.024 14.118C117.631 14.118 118.102 13.8987 118.438 13.46C118.783 13.0213 118.956 12.41 118.956 11.626H119.502C119.502 12.3633 119.395 12.998 119.18 13.53C118.965 14.062 118.653 14.468 118.242 14.748C117.841 15.028 117.351 15.168 116.772 15.168C115.923 15.168 115.251 14.9067 114.756 14.384C114.271 13.8613 114.033 13.068 114.042 12.004L115.162 11.584ZM124.663 15.168C123.981 15.168 123.454 14.9907 123.081 14.636C122.707 14.2813 122.521 13.782 122.521 13.138V5.816H123.641V13.026C123.641 13.3807 123.734 13.656 123.921 13.852C124.117 14.0387 124.387 14.132 124.733 14.132C124.845 14.132 124.952 14.118 125.055 14.09C125.167 14.0527 125.311 13.9687 125.489 13.838L125.923 14.748C125.68 14.9067 125.461 15.014 125.265 15.07C125.069 15.1353 124.868 15.168 124.663 15.168ZM121.303 8.994V8H125.741V8.994H121.303ZM131.411 17.968C131.233 17.968 131.028 17.9307 130.795 17.856C130.561 17.7907 130.314 17.702 130.053 17.59L130.473 16.652C130.687 16.7453 130.874 16.8153 131.033 16.862C131.201 16.9087 131.331 16.932 131.425 16.932C131.677 16.932 131.882 16.862 132.041 16.722C132.209 16.5913 132.349 16.4 132.461 16.148L133.259 14.244L135.849 8H137.053L133.693 15.98C133.515 16.3907 133.329 16.7453 133.133 17.044C132.946 17.3427 132.717 17.5713 132.447 17.73C132.176 17.8887 131.831 17.968 131.411 17.968ZM132.951 15L129.927 8H131.117L133.721 14.23L134.057 15H132.951ZM141.08 15.168C140.399 15.168 139.792 15.014 139.26 14.706C138.737 14.3887 138.327 13.9547 138.028 13.404C137.729 12.8533 137.58 12.2187 137.58 11.5C137.58 10.7813 137.725 10.1467 138.014 9.596C138.313 9.04533 138.723 8.616 139.246 8.308C139.778 7.99067 140.38 7.832 141.052 7.832C141.743 7.832 142.349 7.99067 142.872 8.308C143.404 8.616 143.815 9.04533 144.104 9.596C144.403 10.1467 144.552 10.7813 144.552 11.5C144.552 12.2187 144.403 12.8533 144.104 13.404C143.815 13.9547 143.409 14.3887 142.886 14.706C142.363 15.014 141.761 15.168 141.08 15.168ZM141.08 14.132C141.547 14.132 141.953 14.02 142.298 13.796C142.643 13.572 142.914 13.264 143.11 12.872C143.315 12.48 143.418 12.0227 143.418 11.5C143.418 10.9773 143.315 10.52 143.11 10.128C142.914 9.736 142.639 9.428 142.284 9.204C141.929 8.98 141.519 8.868 141.052 8.868C140.595 8.868 140.189 8.98 139.834 9.204C139.489 9.428 139.213 9.736 139.008 10.128C138.812 10.52 138.714 10.9773 138.714 11.5C138.714 12.0133 138.812 12.4707 139.008 12.872C139.213 13.264 139.493 13.572 139.848 13.796C140.212 14.02 140.623 14.132 141.08 14.132ZM150.909 15L150.839 13.712V8H151.959V15H150.909ZM145.925 12.004V8H147.045V11.584L145.925 12.004ZM147.045 11.584C147.045 12.2747 147.124 12.802 147.283 13.166C147.442 13.53 147.661 13.782 147.941 13.922C148.23 14.0527 148.552 14.118 148.907 14.118C149.514 14.118 149.985 13.8987 150.321 13.46C150.666 13.0213 150.839 12.41 150.839 11.626H151.385C151.385 12.3633 151.278 12.998 151.063 13.53C150.848 14.062 150.536 14.468 150.125 14.748C149.724 15.028 149.234 15.168 148.655 15.168C147.806 15.168 147.134 14.9067 146.639 14.384C146.154 13.8613 145.916 13.068 145.925 12.004L147.045 11.584ZM154.53 11.206C154.53 10.45 154.674 9.83867 154.964 9.372C155.253 8.896 155.622 8.546 156.07 8.322C156.527 8.08867 157.008 7.972 157.512 7.972V9.022C157.101 9.022 156.704 9.092 156.322 9.232C155.948 9.36267 155.64 9.582 155.398 9.89C155.155 10.198 155.034 10.618 155.034 11.15L154.53 11.206ZM153.914 15V8H155.034V15H153.914ZM162.103 15V5.018H163.223V15H162.103ZM167.031 15V11.416L168.151 10.996V15H167.031ZM167.031 11.416C167.031 10.7253 166.947 10.198 166.779 9.834C166.62 9.47 166.401 9.22267 166.121 9.092C165.841 8.952 165.524 8.882 165.169 8.882C164.553 8.882 164.072 9.10133 163.727 9.54C163.391 9.96933 163.223 10.5807 163.223 11.374H162.677C162.677 10.6367 162.784 10.002 162.999 9.47C163.214 8.938 163.526 8.532 163.937 8.252C164.348 7.972 164.842 7.832 165.421 7.832C166.261 7.832 166.928 8.09333 167.423 8.616C167.918 9.13867 168.16 9.932 168.151 10.996L167.031 11.416ZM173.004 15.168C172.322 15.168 171.716 15.014 171.184 14.706C170.661 14.3887 170.25 13.9547 169.952 13.404C169.653 12.8533 169.504 12.2187 169.504 11.5C169.504 10.7813 169.648 10.1467 169.938 9.596C170.236 9.04533 170.647 8.616 171.17 8.308C171.702 7.99067 172.304 7.832 172.976 7.832C173.666 7.832 174.273 7.99067 174.796 8.308C175.328 8.616 175.738 9.04533 176.028 9.596C176.326 10.1467 176.476 10.7813 176.476 11.5C176.476 12.2187 176.326 12.8533 176.028 13.404C175.738 13.9547 175.332 14.3887 174.81 14.706C174.287 15.014 173.685 15.168 173.004 15.168ZM173.004 14.132C173.47 14.132 173.876 14.02 174.222 13.796C174.567 13.572 174.838 13.264 175.034 12.872C175.239 12.48 175.342 12.0227 175.342 11.5C175.342 10.9773 175.239 10.52 175.034 10.128C174.838 9.736 174.562 9.428 174.208 9.204C173.853 8.98 173.442 8.868 172.976 8.868C172.518 8.868 172.112 8.98 171.758 9.204C171.412 9.428 171.137 9.736 170.932 10.128C170.736 10.52 170.638 10.9773 170.638 11.5C170.638 12.0133 170.736 12.4707 170.932 12.872C171.137 13.264 171.417 13.572 171.772 13.796C172.136 14.02 172.546 14.132 173.004 14.132ZM180.663 15.168C179.981 15.168 179.454 14.9907 179.081 14.636C178.707 14.2813 178.521 13.782 178.521 13.138V5.816H179.641V13.026C179.641 13.3807 179.734 13.656 179.921 13.852C180.117 14.0387 180.387 14.132 180.733 14.132C180.845 14.132 180.952 14.118 181.055 14.09C181.167 14.0527 181.311 13.9687 181.489 13.838L181.923 14.748C181.68 14.9067 181.461 15.014 181.265 15.07C181.069 15.1353 180.868 15.168 180.663 15.168ZM177.303 8.994V8H181.741V8.994H177.303ZM186.347 15.168C185.665 15.168 185.063 15.014 184.541 14.706C184.018 14.3887 183.607 13.9547 183.309 13.404C183.019 12.8533 182.875 12.2187 182.875 11.5C182.875 10.7813 183.019 10.1467 183.309 9.596C183.607 9.04533 184.013 8.616 184.527 8.308C185.049 7.99067 185.647 7.832 186.319 7.832C186.963 7.832 187.523 7.99533 187.999 8.322C188.484 8.63933 188.857 9.08733 189.119 9.666C189.38 10.2447 189.511 10.926 189.511 11.71H188.391C188.391 11.1127 188.311 10.604 188.153 10.184C187.994 9.75467 187.756 9.42333 187.439 9.19C187.131 8.95667 186.753 8.84 186.305 8.84C185.847 8.84 185.441 8.952 185.087 9.176C184.741 9.39067 184.475 9.69867 184.289 10.1C184.102 10.5013 184.009 10.9727 184.009 11.514C184.009 12.046 184.111 12.508 184.317 12.9C184.522 13.2827 184.807 13.586 185.171 13.81C185.535 14.0247 185.945 14.132 186.403 14.132C186.888 14.132 187.299 14.0153 187.635 13.782C187.971 13.5487 188.237 13.2453 188.433 12.872L189.413 13.362C189.235 13.726 188.997 14.0433 188.699 14.314C188.409 14.5847 188.064 14.7947 187.663 14.944C187.271 15.0933 186.832 15.168 186.347 15.168ZM183.617 11.71L183.631 10.744H188.825V11.71H183.617ZM190.923 15V5.2H192.043V15H190.923ZM199.909 15.168C199.395 15.168 198.947 15.0933 198.565 14.944C198.182 14.7853 197.86 14.58 197.599 14.328C197.347 14.076 197.165 13.8007 197.053 13.502L198.033 13.096C198.191 13.4133 198.429 13.67 198.747 13.866C199.064 14.062 199.414 14.16 199.797 14.16C200.235 14.16 200.604 14.076 200.903 13.908C201.201 13.7307 201.351 13.4833 201.351 13.166C201.351 12.8767 201.239 12.6433 201.015 12.466C200.8 12.2887 200.478 12.144 200.049 12.032L199.377 11.85C198.742 11.682 198.247 11.43 197.893 11.094C197.538 10.7487 197.361 10.3613 197.361 9.932C197.361 9.26933 197.575 8.756 198.005 8.392C198.443 8.01867 199.092 7.832 199.951 7.832C200.361 7.832 200.735 7.89267 201.071 8.014C201.407 8.13533 201.696 8.308 201.939 8.532C202.181 8.74667 202.359 9.00333 202.471 9.302L201.491 9.736C201.369 9.41867 201.169 9.19 200.889 9.05C200.609 8.91 200.268 8.84 199.867 8.84C199.437 8.84 199.101 8.93333 198.859 9.12C198.616 9.29733 198.495 9.54933 198.495 9.876C198.495 10.0627 198.593 10.24 198.789 10.408C198.994 10.5667 199.293 10.6973 199.685 10.8L200.385 10.982C200.842 11.094 201.225 11.262 201.533 11.486C201.841 11.7007 202.074 11.948 202.233 12.228C202.391 12.508 202.471 12.8067 202.471 13.124C202.471 13.544 202.359 13.908 202.135 14.216C201.911 14.524 201.607 14.762 201.225 14.93C200.842 15.0887 200.403 15.168 199.909 15.168ZM206.612 15.168C205.931 15.168 205.403 14.9907 205.03 14.636C204.657 14.2813 204.47 13.782 204.47 13.138V5.816H205.59V13.026C205.59 13.3807 205.683 13.656 205.87 13.852C206.066 14.0387 206.337 14.132 206.682 14.132C206.794 14.132 206.901 14.118 207.004 14.09C207.116 14.0527 207.261 13.9687 207.438 13.838L207.872 14.748C207.629 14.9067 207.41 15.014 207.214 15.07C207.018 15.1353 206.817 15.168 206.612 15.168ZM203.252 8.994V8H207.69V8.994H203.252ZM213.542 15L213.472 13.852V11.304C213.472 10.7533 213.407 10.3007 213.276 9.946C213.155 9.582 212.963 9.31133 212.702 9.134C212.45 8.94733 212.114 8.854 211.694 8.854C211.293 8.854 210.943 8.93333 210.644 9.092C210.355 9.25067 210.117 9.498 209.93 9.834L208.922 9.428C209.109 9.10133 209.333 8.81667 209.594 8.574C209.855 8.33133 210.159 8.14933 210.504 8.028C210.859 7.89733 211.26 7.832 211.708 7.832C212.352 7.832 212.889 7.958 213.318 8.21C213.747 8.462 214.069 8.84 214.284 9.344C214.499 9.83867 214.601 10.4593 214.592 11.206L214.578 15H213.542ZM211.442 15.168C210.621 15.168 209.977 14.9813 209.51 14.608C209.053 14.2253 208.824 13.698 208.824 13.026C208.824 12.3167 209.057 11.7753 209.524 11.402C210 11.0193 210.663 10.828 211.512 10.828H213.514V11.766H211.764C211.111 11.766 210.644 11.8733 210.364 12.088C210.093 12.3027 209.958 12.6107 209.958 13.012C209.958 13.376 210.093 13.6653 210.364 13.88C210.635 14.0853 211.013 14.188 211.498 14.188C211.899 14.188 212.249 14.0947 212.548 13.908C212.847 13.7213 213.075 13.4693 213.234 13.152C213.393 12.8253 213.472 12.4567 213.472 12.046H214.158C214.158 12.998 213.925 13.7587 213.458 14.328C212.991 14.888 212.319 15.168 211.442 15.168ZM216.887 17.968C216.71 17.968 216.505 17.9307 216.271 17.856C216.038 17.7907 215.791 17.702 215.529 17.59L215.949 16.652C216.164 16.7453 216.351 16.8153 216.509 16.862C216.677 16.9087 216.808 16.932 216.901 16.932C217.153 16.932 217.359 16.862 217.517 16.722C217.685 16.5913 217.825 16.4 217.937 16.148L218.735 14.244L221.325 8H222.529L219.169 15.98C218.992 16.3907 218.805 16.7453 218.609 17.044C218.423 17.3427 218.194 17.5713 217.923 17.73C217.653 17.8887 217.307 17.968 216.887 17.968ZM218.427 15L215.403 8H216.593L219.197 14.23L219.533 15H218.427ZM225.096 10.786L225.082 9.876L225.81 9.848C226.426 9.83867 226.93 9.666 227.322 9.33C227.714 8.98467 227.91 8.518 227.91 7.93C227.91 7.398 227.724 6.95933 227.35 6.614C226.986 6.25933 226.51 6.082 225.922 6.082C225.493 6.082 225.115 6.18467 224.788 6.39C224.471 6.586 224.256 6.83333 224.144 7.132L223.094 6.81C223.281 6.28733 223.617 5.86267 224.102 5.536C224.597 5.2 225.204 5.032 225.922 5.032C226.538 5.032 227.08 5.158 227.546 5.41C228.013 5.65267 228.382 5.99333 228.652 6.432C228.923 6.87067 229.058 7.37 229.058 7.93C229.058 8.49933 228.923 8.99867 228.652 9.428C228.382 9.85733 228.008 10.1933 227.532 10.436C227.056 10.6693 226.506 10.786 225.88 10.786H225.096ZM225.67 15.196C225.446 15.196 225.26 15.1213 225.11 14.972C224.961 14.8227 224.886 14.6407 224.886 14.426C224.886 14.202 224.961 14.0153 225.11 13.866C225.26 13.7167 225.446 13.642 225.67 13.642C225.894 13.642 226.076 13.7167 226.216 13.866C226.366 14.0153 226.44 14.202 226.44 14.426C226.44 14.6407 226.366 14.8227 226.216 14.972C226.076 15.1213 225.894 15.196 225.67 15.196ZM225.096 12.368L225.082 9.974H226.244V12.368H225.096Z" fill="#323338"/>
<rect x="0.5" y="26.5" width="259" height="79" rx="3.5" fill="white"/>
<rect x="0.5" y="26.5" width="259" height="79" rx="3.5" stroke="#C3C6D4"/>
<path d="M17.302 53V43.2H18.492V53H17.302ZM24.2398 53V43.2H25.3598V53H24.2398ZM30.4099 53.168C29.7286 53.168 29.1219 53.014 28.5899 52.706C28.0673 52.3887 27.6566 51.9547 27.3579 51.404C27.0593 50.8533 26.9099 50.2187 26.9099 49.5C26.9099 48.7813 27.0546 48.1467 27.3439 47.596C27.6426 47.0453 28.0533 46.616 28.5759 46.308C29.1079 45.9907 29.7099 45.832 30.3819 45.832C31.0726 45.832 31.6793 45.9907 32.2019 46.308C32.7339 46.616 33.1446 47.0453 33.4339 47.596C33.7326 48.1467 33.8819 48.7813 33.8819 49.5C33.8819 50.2187 33.7326 50.8533 33.4339 51.404C33.1446 51.9547 32.7386 52.3887 32.2159 52.706C31.6933 53.014 31.0913 53.168 30.4099 53.168ZM30.4099 52.132C30.8766 52.132 31.2826 52.02 31.6279 51.796C31.9733 51.572 32.2439 51.264 32.4399 50.872C32.6453 50.48 32.7479 50.0227 32.7479 49.5C32.7479 48.9773 32.6453 48.52 32.4399 48.128C32.2439 47.736 31.9686 47.428 31.6139 47.204C31.2593 46.98 30.8486 46.868 30.3819 46.868C29.9246 46.868 29.5186 46.98 29.1639 47.204C28.8186 47.428 28.5433 47.736 28.3379 48.128C28.1419 48.52 28.0439 48.9773 28.0439 49.5C28.0439 50.0133 28.1419 50.4707 28.3379 50.872C28.5433 51.264 28.8233 51.572 29.1779 51.796C29.5419 52.02 29.9526 52.132 30.4099 52.132ZM37.4013 53L40.2573 46H41.4333L38.5073 53H37.4013ZM37.3313 53L34.4053 46H35.5673L38.4233 53H37.3313ZM45.4347 53.168C44.7533 53.168 44.1513 53.014 43.6287 52.706C43.106 52.3887 42.6953 51.9547 42.3967 51.404C42.1073 50.8533 41.9627 50.2187 41.9627 49.5C41.9627 48.7813 42.1073 48.1467 42.3967 47.596C42.6953 47.0453 43.1013 46.616 43.6147 46.308C44.1373 45.9907 44.7347 45.832 45.4067 45.832C46.0507 45.832 46.6107 45.9953 47.0867 46.322C47.572 46.6393 47.9453 47.0873 48.2067 47.666C48.468 48.2447 48.5987 48.926 48.5987 49.71H47.4787C47.4787 49.1127 47.3993 48.604 47.2407 48.184C47.082 47.7547 46.844 47.4233 46.5267 47.19C46.2187 46.9567 45.8407 46.84 45.3927 46.84C44.9353 46.84 44.5293 46.952 44.1747 47.176C43.8293 47.3907 43.5633 47.6987 43.3767 48.1C43.19 48.5013 43.0967 48.9727 43.0967 49.514C43.0967 50.046 43.1993 50.508 43.4047 50.9C43.61 51.2827 43.8947 51.586 44.2587 51.81C44.6227 52.0247 45.0333 52.132 45.4907 52.132C45.976 52.132 46.3867 52.0153 46.7227 51.782C47.0587 51.5487 47.3247 51.2453 47.5207 50.872L48.5007 51.362C48.3233 51.726 48.0853 52.0433 47.7867 52.314C47.4973 52.5847 47.152 52.7947 46.7507 52.944C46.3587 53.0933 45.92 53.168 45.4347 53.168ZM42.7047 49.71L42.7187 48.744H47.9127V49.71H42.7047ZM55.1913 53L55.1353 51.698V43.2H56.2553V53H55.1913ZM52.7693 53.168C52.1439 53.168 51.5933 53.014 51.1173 52.706C50.6413 52.398 50.2679 51.9687 49.9973 51.418C49.7359 50.858 49.6053 50.2187 49.6053 49.5C49.6053 48.772 49.7359 48.1327 49.9973 47.582C50.2679 47.0313 50.6413 46.602 51.1173 46.294C51.5933 45.986 52.1439 45.832 52.7693 45.832C53.3573 45.832 53.8706 45.986 54.3093 46.294C54.7573 46.602 55.1026 47.0313 55.3453 47.582C55.5879 48.1327 55.7093 48.772 55.7093 49.5C55.7093 50.2187 55.5879 50.858 55.3453 51.418C55.1026 51.9687 54.7573 52.398 54.3093 52.706C53.8706 53.014 53.3573 53.168 52.7693 53.168ZM53.0213 52.146C53.4319 52.146 53.7959 52.034 54.1133 51.81C54.4306 51.586 54.6779 51.2733 54.8553 50.872C55.0419 50.4707 55.1353 50.0133 55.1353 49.5C55.1353 48.9867 55.0419 48.5293 54.8553 48.128C54.6779 47.7267 54.4306 47.414 54.1133 47.19C53.7959 46.966 53.4273 46.854 53.0073 46.854C52.5686 46.854 52.1766 46.966 51.8313 47.19C51.4953 47.414 51.2293 47.7267 51.0333 48.128C50.8373 48.5293 50.7393 48.9867 50.7393 49.5C50.7393 50.0133 50.8373 50.4707 51.0333 50.872C51.2293 51.2733 51.4999 51.586 51.8453 51.81C52.1906 52.034 52.5826 52.146 53.0213 52.146ZM64.3054 53.168C63.624 53.168 63.0967 52.9907 62.7234 52.636C62.35 52.2813 62.1634 51.782 62.1634 51.138V43.816H63.2834V51.026C63.2834 51.3807 63.3767 51.656 63.5634 51.852C63.7594 52.0387 64.03 52.132 64.3754 52.132C64.4874 52.132 64.5947 52.118 64.6974 52.09C64.8094 52.0527 64.954 51.9687 65.1314 51.838L65.5654 52.748C65.3227 52.9067 65.1034 53.014 64.9074 53.07C64.7114 53.1353 64.5107 53.168 64.3054 53.168ZM60.9454 46.994V46H65.3834V46.994H60.9454ZM66.9644 53V43.018H68.0844V53H66.9644ZM71.8924 53V49.416L73.0124 48.996V53H71.8924ZM71.8924 49.416C71.8924 48.7253 71.8084 48.198 71.6404 47.834C71.4817 47.47 71.2624 47.2227 70.9824 47.092C70.7024 46.952 70.385 46.882 70.0304 46.882C69.4144 46.882 68.9337 47.1013 68.5884 47.54C68.2524 47.9693 68.0844 48.5807 68.0844 49.374H67.5384C67.5384 48.6367 67.6457 48.002 67.8604 47.47C68.075 46.938 68.3877 46.532 68.7984 46.252C69.209 45.972 69.7037 45.832 70.2824 45.832C71.1224 45.832 71.7897 46.0933 72.2844 46.616C72.779 47.1387 73.0217 47.932 73.0124 48.996L71.8924 49.416ZM77.837 53.168C77.1557 53.168 76.5537 53.014 76.031 52.706C75.5083 52.3887 75.0977 51.9547 74.799 51.404C74.5097 50.8533 74.365 50.2187 74.365 49.5C74.365 48.7813 74.5097 48.1467 74.799 47.596C75.0977 47.0453 75.5037 46.616 76.017 46.308C76.5397 45.9907 77.137 45.832 77.809 45.832C78.453 45.832 79.013 45.9953 79.489 46.322C79.9743 46.6393 80.3477 47.0873 80.609 47.666C80.8703 48.2447 81.001 48.926 81.001 49.71H79.881C79.881 49.1127 79.8017 48.604 79.643 48.184C79.4843 47.7547 79.2463 47.4233 78.929 47.19C78.621 46.9567 78.243 46.84 77.795 46.84C77.3377 46.84 76.9317 46.952 76.577 47.176C76.2317 47.3907 75.9657 47.6987 75.779 48.1C75.5923 48.5013 75.499 48.9727 75.499 49.514C75.499 50.046 75.6017 50.508 75.807 50.9C76.0123 51.2827 76.297 51.586 76.661 51.81C77.025 52.0247 77.4357 52.132 77.893 52.132C78.3783 52.132 78.789 52.0153 79.125 51.782C79.461 51.5487 79.727 51.2453 79.923 50.872L80.903 51.362C80.7257 51.726 80.4877 52.0433 80.189 52.314C79.8997 52.5847 79.5543 52.7947 79.153 52.944C78.761 53.0933 78.3223 53.168 77.837 53.168ZM75.107 49.71L75.121 48.744H80.315V49.71H75.107ZM85.8726 53V43.2H86.9926V51.698L86.9366 53H85.8726ZM89.3586 53.168C88.7706 53.168 88.2526 53.014 87.8046 52.706C87.3659 52.398 87.0252 51.9687 86.7826 51.418C86.5399 50.858 86.4186 50.2187 86.4186 49.5C86.4186 48.772 86.5399 48.1327 86.7826 47.582C87.0252 47.0313 87.3659 46.602 87.8046 46.294C88.2526 45.986 88.7706 45.832 89.3586 45.832C89.9839 45.832 90.5346 45.986 91.0106 46.294C91.4866 46.602 91.8552 47.0313 92.1166 47.582C92.3872 48.1327 92.5226 48.772 92.5226 49.5C92.5226 50.2187 92.3872 50.858 92.1166 51.418C91.8552 51.9687 91.4866 52.398 91.0106 52.706C90.5346 53.014 89.9839 53.168 89.3586 53.168ZM89.1066 52.146C89.5452 52.146 89.9326 52.034 90.2686 51.81C90.6139 51.586 90.8846 51.2733 91.0806 50.872C91.2859 50.4707 91.3886 50.0133 91.3886 49.5C91.3886 48.9867 91.2906 48.5293 91.0946 48.128C90.9079 47.7267 90.6419 47.414 90.2966 47.19C89.9512 46.966 89.5592 46.854 89.1206 46.854C88.7099 46.854 88.3412 46.966 88.0146 47.19C87.6972 47.414 87.4452 47.7267 87.2586 48.128C87.0812 48.5293 86.9926 48.9867 86.9926 49.5C86.9926 50.0133 87.0812 50.4707 87.2586 50.872C87.4452 51.2733 87.6972 51.586 88.0146 51.81C88.3319 52.034 88.6959 52.146 89.1066 52.146ZM94.6917 49.206C94.6917 48.45 94.8364 47.8387 95.1257 47.372C95.415 46.896 95.7837 46.546 96.2317 46.322C96.689 46.0887 97.1697 45.972 97.6737 45.972V47.022C97.263 47.022 96.8664 47.092 96.4837 47.232C96.1104 47.3627 95.8024 47.582 95.5597 47.89C95.317 48.198 95.1957 48.618 95.1957 49.15L94.6917 49.206ZM94.0757 53V46H95.1957V53H94.0757ZM101.872 53.168C101.191 53.168 100.589 53.014 100.066 52.706C99.5435 52.3887 99.1328 51.9547 98.8342 51.404C98.5448 50.8533 98.4002 50.2187 98.4002 49.5C98.4002 48.7813 98.5448 48.1467 98.8342 47.596C99.1328 47.0453 99.5388 46.616 100.052 46.308C100.575 45.9907 101.172 45.832 101.844 45.832C102.488 45.832 103.048 45.9953 103.524 46.322C104.01 46.6393 104.383 47.0873 104.644 47.666C104.906 48.2447 105.036 48.926 105.036 49.71H103.916C103.916 49.1127 103.837 48.604 103.678 48.184C103.52 47.7547 103.282 47.4233 102.964 47.19C102.656 46.9567 102.278 46.84 101.83 46.84C101.373 46.84 100.967 46.952 100.612 47.176C100.267 47.3907 100.001 47.6987 99.8142 48.1C99.6275 48.5013 99.5342 48.9727 99.5342 49.514C99.5342 50.046 99.6368 50.508 99.8422 50.9C100.048 51.2827 100.332 51.586 100.696 51.81C101.06 52.0247 101.471 52.132 101.928 52.132C102.414 52.132 102.824 52.0153 103.16 51.782C103.496 51.5487 103.762 51.2453 103.958 50.872L104.938 51.362C104.761 51.726 104.523 52.0433 104.224 52.314C103.935 52.5847 103.59 52.7947 103.188 52.944C102.796 53.0933 102.358 53.168 101.872 53.168ZM99.1422 49.71L99.1562 48.744H104.35V49.71H99.1422ZM110.761 53L110.691 51.852V49.304C110.691 48.7533 110.625 48.3007 110.495 47.946C110.373 47.582 110.182 47.3113 109.921 47.134C109.669 46.9473 109.333 46.854 108.913 46.854C108.511 46.854 108.161 46.9333 107.863 47.092C107.573 47.2507 107.335 47.498 107.149 47.834L106.141 47.428C106.327 47.1013 106.551 46.8167 106.813 46.574C107.074 46.3313 107.377 46.1493 107.723 46.028C108.077 45.8973 108.479 45.832 108.927 45.832C109.571 45.832 110.107 45.958 110.537 46.21C110.966 46.462 111.288 46.84 111.503 47.344C111.717 47.8387 111.82 48.4593 111.811 49.206L111.797 53H110.761ZM108.661 53.168C107.839 53.168 107.195 52.9813 106.729 52.608C106.271 52.2253 106.043 51.698 106.043 51.026C106.043 50.3167 106.276 49.7753 106.743 49.402C107.219 49.0193 107.881 48.828 108.731 48.828H110.733V49.766H108.983C108.329 49.766 107.863 49.8733 107.583 50.088C107.312 50.3027 107.177 50.6107 107.177 51.012C107.177 51.376 107.312 51.6653 107.583 51.88C107.853 52.0853 108.231 52.188 108.717 52.188C109.118 52.188 109.468 52.0947 109.767 51.908C110.065 51.7213 110.294 51.4693 110.453 51.152C110.611 50.8253 110.691 50.4567 110.691 50.046H111.377C111.377 50.998 111.143 51.7587 110.677 52.328C110.21 52.888 109.538 53.168 108.661 53.168ZM114.677 50.746L113.963 49.976L117.687 46H119.101L114.677 50.746ZM113.585 53V43.2H114.705V53H113.585ZM117.995 53L115.335 48.982L116.063 48.198L119.381 53H117.995ZM121.08 53V45.202C121.08 44.474 121.248 43.928 121.584 43.564C121.93 43.1907 122.452 43.004 123.152 43.004C123.339 43.004 123.549 43.0367 123.782 43.102C124.016 43.1673 124.263 43.2607 124.524 43.382L124.104 44.264C123.89 44.18 123.708 44.1147 123.558 44.068C123.409 44.0213 123.283 43.998 123.18 43.998C122.854 43.998 122.606 44.1053 122.438 44.32C122.28 44.5253 122.2 44.8473 122.2 45.286V53H121.08ZM119.792 46.966V46H124.23V46.966H119.792ZM129.819 53L129.749 51.852V49.304C129.749 48.7533 129.684 48.3007 129.553 47.946C129.432 47.582 129.241 47.3113 128.979 47.134C128.727 46.9473 128.391 46.854 127.971 46.854C127.57 46.854 127.22 46.9333 126.921 47.092C126.632 47.2507 126.394 47.498 126.207 47.834L125.199 47.428C125.386 47.1013 125.61 46.8167 125.871 46.574C126.133 46.3313 126.436 46.1493 126.781 46.028C127.136 45.8973 127.537 45.832 127.985 45.832C128.629 45.832 129.166 45.958 129.595 46.21C130.025 46.462 130.347 46.84 130.561 47.344C130.776 47.8387 130.879 48.4593 130.869 49.206L130.855 53H129.819ZM127.719 53.168C126.898 53.168 126.254 52.9813 125.787 52.608C125.33 52.2253 125.101 51.698 125.101 51.026C125.101 50.3167 125.335 49.7753 125.801 49.402C126.277 49.0193 126.94 48.828 127.789 48.828H129.791V49.766H128.041C127.388 49.766 126.921 49.8733 126.641 50.088C126.371 50.3027 126.235 50.6107 126.235 51.012C126.235 51.376 126.371 51.6653 126.641 51.88C126.912 52.0853 127.29 52.188 127.775 52.188C128.177 52.188 128.527 52.0947 128.825 51.908C129.124 51.7213 129.353 51.4693 129.511 51.152C129.67 50.8253 129.749 50.4567 129.749 50.046H130.435C130.435 50.998 130.202 51.7587 129.735 52.328C129.269 52.888 128.597 53.168 127.719 53.168ZM135.094 53.168C134.581 53.168 134.133 53.0933 133.75 52.944C133.367 52.7853 133.045 52.58 132.784 52.328C132.532 52.076 132.35 51.8007 132.238 51.502L133.218 51.096C133.377 51.4133 133.615 51.67 133.932 51.866C134.249 52.062 134.599 52.16 134.982 52.16C135.421 52.16 135.789 52.076 136.088 51.908C136.387 51.7307 136.536 51.4833 136.536 51.166C136.536 50.8767 136.424 50.6433 136.2 50.466C135.985 50.2887 135.663 50.144 135.234 50.032L134.562 49.85C133.927 49.682 133.433 49.43 133.078 49.094C132.723 48.7487 132.546 48.3613 132.546 47.932C132.546 47.2693 132.761 46.756 133.19 46.392C133.629 46.0187 134.277 45.832 135.136 45.832C135.547 45.832 135.92 45.8927 136.256 46.014C136.592 46.1353 136.881 46.308 137.124 46.532C137.367 46.7467 137.544 47.0033 137.656 47.302L136.676 47.736C136.555 47.4187 136.354 47.19 136.074 47.05C135.794 46.91 135.453 46.84 135.052 46.84C134.623 46.84 134.287 46.9333 134.044 47.12C133.801 47.2973 133.68 47.5493 133.68 47.876C133.68 48.0627 133.778 48.24 133.974 48.408C134.179 48.5667 134.478 48.6973 134.87 48.8L135.57 48.982C136.027 49.094 136.41 49.262 136.718 49.486C137.026 49.7007 137.259 49.948 137.418 50.228C137.577 50.508 137.656 50.8067 137.656 51.124C137.656 51.544 137.544 51.908 137.32 52.216C137.096 52.524 136.793 52.762 136.41 52.93C136.027 53.0887 135.589 53.168 135.094 53.168ZM141.798 53.168C141.116 53.168 140.589 52.9907 140.216 52.636C139.842 52.2813 139.656 51.782 139.656 51.138V43.816H140.776V51.026C140.776 51.3807 140.869 51.656 141.056 51.852C141.252 52.0387 141.522 52.132 141.868 52.132C141.98 52.132 142.087 52.118 142.19 52.09C142.302 52.0527 142.446 51.9687 142.624 51.838L143.058 52.748C142.815 52.9067 142.596 53.014 142.4 53.07C142.204 53.1353 142.003 53.168 141.798 53.168ZM138.438 46.994V46H142.876V46.994H138.438ZM147.916 53V43.2H149.036V51.698L148.98 53H147.916ZM151.402 53.168C150.814 53.168 150.296 53.014 149.848 52.706C149.409 52.398 149.068 51.9687 148.826 51.418C148.583 50.858 148.462 50.2187 148.462 49.5C148.462 48.772 148.583 48.1327 148.826 47.582C149.068 47.0313 149.409 46.602 149.848 46.294C150.296 45.986 150.814 45.832 151.402 45.832C152.027 45.832 152.578 45.986 153.054 46.294C153.53 46.602 153.898 47.0313 154.16 47.582C154.43 48.1327 154.566 48.772 154.566 49.5C154.566 50.2187 154.43 50.858 154.16 51.418C153.898 51.9687 153.53 52.398 153.054 52.706C152.578 53.014 152.027 53.168 151.402 53.168ZM151.15 52.146C151.588 52.146 151.976 52.034 152.312 51.81C152.657 51.586 152.928 51.2733 153.124 50.872C153.329 50.4707 153.432 50.0133 153.432 49.5C153.432 48.9867 153.334 48.5293 153.138 48.128C152.951 47.7267 152.685 47.414 152.34 47.19C151.994 46.966 151.602 46.854 151.164 46.854C150.753 46.854 150.384 46.966 150.058 47.19C149.74 47.414 149.488 47.7267 149.302 48.128C149.124 48.5293 149.036 48.9867 149.036 49.5C149.036 50.0133 149.124 50.4707 149.302 50.872C149.488 51.2733 149.74 51.586 150.058 51.81C150.375 52.034 150.739 52.146 151.15 52.146ZM160.921 53L160.851 51.712V46H161.971V53H160.921ZM155.937 50.004V46H157.057V49.584L155.937 50.004ZM157.057 49.584C157.057 50.2747 157.136 50.802 157.295 51.166C157.453 51.53 157.673 51.782 157.953 51.922C158.242 52.0527 158.564 52.118 158.919 52.118C159.525 52.118 159.997 51.8987 160.333 51.46C160.678 51.0213 160.851 50.41 160.851 49.626H161.397C161.397 50.3633 161.289 50.998 161.075 51.53C160.86 52.062 160.547 52.468 160.137 52.748C159.735 53.028 159.245 53.168 158.667 53.168C157.817 53.168 157.145 52.9067 156.651 52.384C156.165 51.8613 155.927 51.068 155.937 50.004L157.057 49.584ZM166.557 53.168C165.876 53.168 165.349 52.9907 164.975 52.636C164.602 52.2813 164.415 51.782 164.415 51.138V43.816H165.535V51.026C165.535 51.3807 165.629 51.656 165.815 51.852C166.011 52.0387 166.282 52.132 166.627 52.132C166.739 52.132 166.847 52.118 166.949 52.09C167.061 52.0527 167.206 51.9687 167.383 51.838L167.817 52.748C167.575 52.9067 167.355 53.014 167.159 53.07C166.963 53.1353 166.763 53.168 166.557 53.168ZM163.197 46.994V46H167.635V46.994H163.197ZM175.307 53.168C174.626 53.168 174.099 52.9907 173.725 52.636C173.352 52.2813 173.165 51.782 173.165 51.138V43.816H174.285V51.026C174.285 51.3807 174.379 51.656 174.565 51.852C174.761 52.0387 175.032 52.132 175.377 52.132C175.489 52.132 175.597 52.118 175.699 52.09C175.811 52.0527 175.956 51.9687 176.133 51.838L176.567 52.748C176.325 52.9067 176.105 53.014 175.909 53.07C175.713 53.1353 175.513 53.168 175.307 53.168ZM171.947 46.994V46H176.385V46.994H171.947ZM177.966 53V43.018H179.086V53H177.966ZM182.894 53V49.416L184.014 48.996V53H182.894ZM182.894 49.416C182.894 48.7253 182.81 48.198 182.642 47.834C182.484 47.47 182.264 47.2227 181.984 47.092C181.704 46.952 181.387 46.882 181.032 46.882C180.416 46.882 179.936 47.1013 179.59 47.54C179.254 47.9693 179.086 48.5807 179.086 49.374H178.54C178.54 48.6367 178.648 48.002 178.862 47.47C179.077 46.938 179.39 46.532 179.8 46.252C180.211 45.972 180.706 45.832 181.284 45.832C182.124 45.832 182.792 46.0933 183.286 46.616C183.781 47.1387 184.024 47.932 184.014 48.996L182.894 49.416ZM188.839 53.168C188.158 53.168 187.556 53.014 187.033 52.706C186.51 52.3887 186.1 51.9547 185.801 51.404C185.512 50.8533 185.367 50.2187 185.367 49.5C185.367 48.7813 185.512 48.1467 185.801 47.596C186.1 47.0453 186.506 46.616 187.019 46.308C187.542 45.9907 188.139 45.832 188.811 45.832C189.455 45.832 190.015 45.9953 190.491 46.322C190.976 46.6393 191.35 47.0873 191.611 47.666C191.872 48.2447 192.003 48.926 192.003 49.71H190.883C190.883 49.1127 190.804 48.604 190.645 48.184C190.486 47.7547 190.248 47.4233 189.931 47.19C189.623 46.9567 189.245 46.84 188.797 46.84C188.34 46.84 187.934 46.952 187.579 47.176C187.234 47.3907 186.968 47.6987 186.781 48.1C186.594 48.5013 186.501 48.9727 186.501 49.514C186.501 50.046 186.604 50.508 186.809 50.9C187.014 51.2827 187.299 51.586 187.663 51.81C188.027 52.0247 188.438 52.132 188.895 52.132C189.38 52.132 189.791 52.0153 190.127 51.782C190.463 51.5487 190.729 51.2453 190.925 50.872L191.905 51.362C191.728 51.726 191.49 52.0433 191.191 52.314C190.902 52.5847 190.556 52.7947 190.155 52.944C189.763 53.0933 189.324 53.168 188.839 53.168ZM186.109 49.71L186.123 48.744H191.317V49.71H186.109ZM196.945 55.8V46H197.995L198.065 47.288V55.8H196.945ZM200.431 53.168C199.843 53.168 199.325 53.014 198.877 52.706C198.438 52.398 198.097 51.9687 197.855 51.418C197.612 50.858 197.491 50.2187 197.491 49.5C197.491 48.772 197.612 48.1327 197.855 47.582C198.097 47.0313 198.438 46.602 198.877 46.294C199.325 45.986 199.843 45.832 200.431 45.832C201.056 45.832 201.607 45.986 202.083 46.294C202.559 46.602 202.927 47.0313 203.189 47.582C203.459 48.1327 203.595 48.772 203.595 49.5C203.595 50.2187 203.459 50.858 203.189 51.418C202.927 51.9687 202.559 52.398 202.083 52.706C201.607 53.014 201.056 53.168 200.431 53.168ZM200.179 52.146C200.617 52.146 201.005 52.034 201.341 51.81C201.686 51.586 201.957 51.2733 202.153 50.872C202.358 50.4707 202.461 50.0133 202.461 49.5C202.461 48.9867 202.363 48.5293 202.167 48.128C201.98 47.7267 201.714 47.414 201.369 47.19C201.023 46.966 200.631 46.854 200.193 46.854C199.782 46.854 199.413 46.966 199.087 47.19C198.769 47.414 198.517 47.7267 198.331 48.128C198.153 48.5293 198.065 48.9867 198.065 49.5C198.065 50.0133 198.153 50.4707 198.331 50.872C198.517 51.2733 198.769 51.586 199.087 51.81C199.404 52.034 199.768 52.146 200.179 52.146ZM208.24 53.168C207.559 53.168 206.952 53.014 206.42 52.706C205.897 52.3887 205.487 51.9547 205.188 51.404C204.889 50.8533 204.74 50.2187 204.74 49.5C204.74 48.7813 204.885 48.1467 205.174 47.596C205.473 47.0453 205.883 46.616 206.406 46.308C206.938 45.9907 207.54 45.832 208.212 45.832C208.903 45.832 209.509 45.9907 210.032 46.308C210.564 46.616 210.975 47.0453 211.264 47.596C211.563 48.1467 211.712 48.7813 211.712 49.5C211.712 50.2187 211.563 50.8533 211.264 51.404C210.975 51.9547 210.569 52.3887 210.046 52.706C209.523 53.014 208.921 53.168 208.24 53.168ZM208.24 52.132C208.707 52.132 209.113 52.02 209.458 51.796C209.803 51.572 210.074 51.264 210.27 50.872C210.475 50.48 210.578 50.0227 210.578 49.5C210.578 48.9773 210.475 48.52 210.27 48.128C210.074 47.736 209.799 47.428 209.444 47.204C209.089 46.98 208.679 46.868 208.212 46.868C207.755 46.868 207.349 46.98 206.994 47.204C206.649 47.428 206.373 47.736 206.168 48.128C205.972 48.52 205.874 48.9773 205.874 49.5C205.874 50.0133 205.972 50.4707 206.168 50.872C206.373 51.264 206.653 51.572 207.008 51.796C207.372 52.02 207.783 52.132 208.24 52.132ZM216.361 53.168C215.68 53.168 215.073 53.014 214.541 52.706C214.018 52.3887 213.608 51.9547 213.309 51.404C213.01 50.8533 212.861 50.2187 212.861 49.5C212.861 48.7813 213.006 48.1467 213.295 47.596C213.594 47.0453 214.004 46.616 214.527 46.308C215.059 45.9907 215.661 45.832 216.333 45.832C217.024 45.832 217.63 45.9907 218.153 46.308C218.685 46.616 219.096 47.0453 219.385 47.596C219.684 48.1467 219.833 48.7813 219.833 49.5C219.833 50.2187 219.684 50.8533 219.385 51.404C219.096 51.9547 218.69 52.3887 218.167 52.706C217.644 53.014 217.042 53.168 216.361 53.168ZM216.361 52.132C216.828 52.132 217.234 52.02 217.579 51.796C217.924 51.572 218.195 51.264 218.391 50.872C218.596 50.48 218.699 50.0227 218.699 49.5C218.699 48.9773 218.596 48.52 218.391 48.128C218.195 47.736 217.92 47.428 217.565 47.204C217.21 46.98 216.8 46.868 216.333 46.868C215.876 46.868 215.47 46.98 215.115 47.204C214.77 47.428 214.494 47.736 214.289 48.128C214.093 48.52 213.995 48.9773 213.995 49.5C213.995 50.0133 214.093 50.4707 214.289 50.872C214.494 51.264 214.774 51.572 215.129 51.796C215.493 52.02 215.904 52.132 216.361 52.132ZM221.388 53V43.2H222.508V53H221.388ZM234.279 53L236.645 46H237.779L235.399 53H234.279ZM229.519 53L231.885 46H232.935L230.597 53H229.519ZM229.463 53L227.083 46H228.217L230.555 53H229.463ZM234.279 53L231.941 46H233.005L235.343 53H234.279ZM243.05 53L242.98 51.852V49.304C242.98 48.7533 242.914 48.3007 242.784 47.946C242.662 47.582 242.471 47.3113 242.21 47.134C241.958 46.9473 241.622 46.854 241.202 46.854C240.8 46.854 240.45 46.9333 240.152 47.092C239.862 47.2507 239.624 47.498 239.438 47.834L238.43 47.428C238.616 47.1013 238.84 46.8167 239.102 46.574C239.363 46.3313 239.666 46.1493 240.012 46.028C240.366 45.8973 240.768 45.832 241.216 45.832C241.86 45.832 242.396 45.958 242.826 46.21C243.255 46.462 243.577 46.84 243.792 47.344C244.006 47.8387 244.109 48.4593 244.1 49.206L244.086 53H243.05ZM240.95 53.168C240.128 53.168 239.484 52.9813 239.018 52.608C238.56 52.2253 238.332 51.698 238.332 51.026C238.332 50.3167 238.565 49.7753 239.032 49.402C239.508 49.0193 240.17 48.828 241.02 48.828H243.022V49.766H241.272C240.618 49.766 240.152 49.8733 239.872 50.088C239.601 50.3027 239.466 50.6107 239.466 51.012C239.466 51.376 239.601 51.6653 239.872 51.88C240.142 52.0853 240.52 52.188 241.006 52.188C241.407 52.188 241.757 52.0947 242.056 51.908C242.354 51.7213 242.583 51.4693 242.742 51.152C242.9 50.8253 242.98 50.4567 242.98 50.046H243.666C243.666 50.998 243.432 51.7587 242.966 52.328C242.499 52.888 241.827 53.168 240.95 53.168ZM248.325 53.168C247.811 53.168 247.363 53.0933 246.981 52.944C246.598 52.7853 246.276 52.58 246.015 52.328C245.763 52.076 245.581 51.8007 245.469 51.502L246.449 51.096C246.607 51.4133 246.845 51.67 247.163 51.866C247.48 52.062 247.83 52.16 248.213 52.16C248.651 52.16 249.02 52.076 249.319 51.908C249.617 51.7307 249.767 51.4833 249.767 51.166C249.767 50.8767 249.655 50.6433 249.431 50.466C249.216 50.2887 248.894 50.144 248.465 50.032L247.793 49.85C247.158 49.682 246.663 49.43 246.309 49.094C245.954 48.7487 245.777 48.3613 245.777 47.932C245.777 47.2693 245.991 46.756 246.421 46.392C246.859 46.0187 247.508 45.832 248.367 45.832C248.777 45.832 249.151 45.8927 249.487 46.014C249.823 46.1353 250.112 46.308 250.355 46.532C250.597 46.7467 250.775 47.0033 250.887 47.302L249.907 47.736C249.785 47.4187 249.585 47.19 249.305 47.05C249.025 46.91 248.684 46.84 248.283 46.84C247.853 46.84 247.517 46.9333 247.275 47.12C247.032 47.2973 246.911 47.5493 246.911 47.876C246.911 48.0627 247.009 48.24 247.205 48.408C247.41 48.5667 247.709 48.6973 248.101 48.8L248.801 48.982C249.258 49.094 249.641 49.262 249.949 49.486C250.257 49.7007 250.49 49.948 250.649 50.228C250.807 50.508 250.887 50.8067 250.887 51.124C250.887 51.544 250.775 51.908 250.551 52.216C250.327 52.524 250.023 52.762 249.641 52.93C249.258 53.0887 248.819 53.168 248.325 53.168ZM19.612 73.168C18.9307 73.168 18.4033 72.9907 18.03 72.636C17.6567 72.2813 17.47 71.782 17.47 71.138V63.816H18.59V71.026C18.59 71.3807 18.6833 71.656 18.87 71.852C19.066 72.0387 19.3367 72.132 19.682 72.132C19.794 72.132 19.9013 72.118 20.004 72.09C20.116 72.0527 20.2607 71.9687 20.438 71.838L20.872 72.748C20.6293 72.9067 20.41 73.014 20.214 73.07C20.018 73.1353 19.8173 73.168 19.612 73.168ZM16.252 66.994V66H20.69V66.994H16.252ZM25.324 73.168C24.6427 73.168 24.036 73.014 23.504 72.706C22.9813 72.3887 22.5707 71.9547 22.272 71.404C21.9733 70.8533 21.824 70.2187 21.824 69.5C21.824 68.7813 21.9687 68.1467 22.258 67.596C22.5567 67.0453 22.9673 66.616 23.49 66.308C24.022 65.9907 24.624 65.832 25.296 65.832C25.9867 65.832 26.5933 65.9907 27.116 66.308C27.648 66.616 28.0587 67.0453 28.348 67.596C28.6467 68.1467 28.796 68.7813 28.796 69.5C28.796 70.2187 28.6467 70.8533 28.348 71.404C28.0587 71.9547 27.6527 72.3887 27.13 72.706C26.6073 73.014 26.0053 73.168 25.324 73.168ZM25.324 72.132C25.7907 72.132 26.1967 72.02 26.542 71.796C26.8873 71.572 27.158 71.264 27.354 70.872C27.5593 70.48 27.662 70.0227 27.662 69.5C27.662 68.9773 27.5593 68.52 27.354 68.128C27.158 67.736 26.8827 67.428 26.528 67.204C26.1733 66.98 25.7627 66.868 25.296 66.868C24.8387 66.868 24.4327 66.98 24.078 67.204C23.7327 67.428 23.4573 67.736 23.252 68.128C23.056 68.52 22.958 68.9773 22.958 69.5C22.958 70.0133 23.056 70.4707 23.252 70.872C23.4573 71.264 23.7373 71.572 24.092 71.796C24.456 72.02 24.8667 72.132 25.324 72.132ZM33.4451 73.168C32.7638 73.168 32.1571 73.014 31.6251 72.706C31.1024 72.3887 30.6918 71.9547 30.3931 71.404C30.0944 70.8533 29.9451 70.2187 29.9451 69.5C29.9451 68.7813 30.0898 68.1467 30.3791 67.596C30.6778 67.0453 31.0884 66.616 31.6111 66.308C32.1431 65.9907 32.7451 65.832 33.4171 65.832C34.1078 65.832 34.7144 65.9907 35.2371 66.308C35.7691 66.616 36.1798 67.0453 36.4691 67.596C36.7678 68.1467 36.9171 68.7813 36.9171 69.5C36.9171 70.2187 36.7678 70.8533 36.4691 71.404C36.1798 71.9547 35.7738 72.3887 35.2511 72.706C34.7284 73.014 34.1264 73.168 33.4451 73.168ZM33.4451 72.132C33.9118 72.132 34.3178 72.02 34.6631 71.796C35.0084 71.572 35.2791 71.264 35.4751 70.872C35.6804 70.48 35.7831 70.0227 35.7831 69.5C35.7831 68.9773 35.6804 68.52 35.4751 68.128C35.2791 67.736 35.0038 67.428 34.6491 67.204C34.2944 66.98 33.8838 66.868 33.4171 66.868C32.9598 66.868 32.5538 66.98 32.1991 67.204C31.8538 67.428 31.5784 67.736 31.3731 68.128C31.1771 68.52 31.0791 68.9773 31.0791 69.5C31.0791 70.0133 31.1771 70.4707 31.3731 70.872C31.5784 71.264 31.8584 71.572 32.2131 71.796C32.5771 72.02 32.9878 72.132 33.4451 72.132ZM45.0532 73.168C44.3625 73.168 43.7512 73.014 43.2192 72.706C42.6872 72.3887 42.2718 71.9547 41.9732 71.404C41.6745 70.8533 41.5252 70.2187 41.5252 69.5C41.5252 68.7813 41.6698 68.1467 41.9592 67.596C42.2578 67.0453 42.6732 66.616 43.2052 66.308C43.7372 65.9907 44.3438 65.832 45.0252 65.832C45.6972 65.832 46.2992 65.986 46.8312 66.294C47.3632 66.602 47.7692 67.036 48.0492 67.596L47.0272 68.058C46.8405 67.6847 46.5698 67.3953 46.2152 67.19C45.8605 66.9753 45.4545 66.868 44.9972 66.868C44.5398 66.868 44.1338 66.98 43.7792 67.204C43.4338 67.428 43.1585 67.7407 42.9532 68.142C42.7572 68.534 42.6592 68.9867 42.6592 69.5C42.6592 70.0133 42.7572 70.4707 42.9532 70.872C43.1585 71.264 43.4385 71.572 43.7932 71.796C44.1572 72.02 44.5678 72.132 45.0252 72.132C45.4825 72.132 45.8885 72.0153 46.2432 71.782C46.6072 71.5487 46.8825 71.222 47.0692 70.802L48.0912 71.264C47.8112 71.8613 47.4052 72.328 46.8732 72.664C46.3412 73 45.7345 73.168 45.0532 73.168ZM52.5994 73.168C51.9181 73.168 51.3114 73.014 50.7794 72.706C50.2567 72.3887 49.8461 71.9547 49.5474 71.404C49.2487 70.8533 49.0994 70.2187 49.0994 69.5C49.0994 68.7813 49.2441 68.1467 49.5334 67.596C49.8321 67.0453 50.2427 66.616 50.7654 66.308C51.2974 65.9907 51.8994 65.832 52.5714 65.832C53.2621 65.832 53.8687 65.9907 54.3914 66.308C54.9234 66.616 55.3341 67.0453 55.6234 67.596C55.9221 68.1467 56.0714 68.7813 56.0714 69.5C56.0714 70.2187 55.9221 70.8533 55.6234 71.404C55.3341 71.9547 54.9281 72.3887 54.4054 72.706C53.8827 73.014 53.2807 73.168 52.5994 73.168ZM52.5994 72.132C53.0661 72.132 53.4721 72.02 53.8174 71.796C54.1627 71.572 54.4334 71.264 54.6294 70.872C54.8347 70.48 54.9374 70.0227 54.9374 69.5C54.9374 68.9773 54.8347 68.52 54.6294 68.128C54.4334 67.736 54.1581 67.428 53.8034 67.204C53.4487 66.98 53.0381 66.868 52.5714 66.868C52.1141 66.868 51.7081 66.98 51.3534 67.204C51.0081 67.428 50.7327 67.736 50.5274 68.128C50.3314 68.52 50.2334 68.9773 50.2334 69.5C50.2334 70.0133 50.3314 70.4707 50.5274 70.872C50.7327 71.264 51.0127 71.572 51.3674 71.796C51.7314 72.02 52.1421 72.132 52.5994 72.132ZM57.6265 73V63.2H58.7465V73H57.6265ZM65.8827 73L65.8267 71.698V63.2H66.9467V73H65.8827ZM63.4607 73.168C62.8353 73.168 62.2847 73.014 61.8087 72.706C61.3327 72.398 60.9593 71.9687 60.6887 71.418C60.4273 70.858 60.2967 70.2187 60.2967 69.5C60.2967 68.772 60.4273 68.1327 60.6887 67.582C60.9593 67.0313 61.3327 66.602 61.8087 66.294C62.2847 65.986 62.8353 65.832 63.4607 65.832C64.0487 65.832 64.562 65.986 65.0007 66.294C65.4487 66.602 65.794 67.0313 66.0367 67.582C66.2793 68.1327 66.4007 68.772 66.4007 69.5C66.4007 70.2187 66.2793 70.858 66.0367 71.418C65.794 71.9687 65.4487 72.398 65.0007 72.706C64.562 73.014 64.0487 73.168 63.4607 73.168ZM63.7127 72.146C64.1233 72.146 64.4873 72.034 64.8047 71.81C65.122 71.586 65.3693 71.2733 65.5467 70.872C65.7333 70.4707 65.8267 70.0133 65.8267 69.5C65.8267 68.9867 65.7333 68.5293 65.5467 68.128C65.3693 67.7267 65.122 67.414 64.8047 67.19C64.4873 66.966 64.1187 66.854 63.6987 66.854C63.26 66.854 62.868 66.966 62.5227 67.19C62.1867 67.414 61.9207 67.7267 61.7247 68.128C61.5287 68.5293 61.4307 68.9867 61.4307 69.5C61.4307 70.0133 61.5287 70.4707 61.7247 70.872C61.9207 71.2733 62.1913 71.586 62.5367 71.81C62.882 72.034 63.274 72.146 63.7127 72.146ZM69.3818 73.196C69.1671 73.196 68.9804 73.1213 68.8218 72.972C68.6724 72.8133 68.5978 72.6313 68.5978 72.426C68.5978 72.2113 68.6724 72.0293 68.8218 71.88C68.9804 71.7213 69.1671 71.642 69.3818 71.642C69.5964 71.642 69.7784 71.7213 69.9278 71.88C70.0771 72.0293 70.1518 72.2113 70.1518 72.426C70.1518 72.6313 70.0771 72.8133 69.9278 72.972C69.7784 73.1213 69.5964 73.196 69.3818 73.196Z" fill="#676879"/>
<path fill-rule="evenodd" clip-rule="evenodd" d="M256.853 100.646C257.049 100.842 257.049 101.158 256.853 101.354L255.439 102.768C255.244 102.963 254.927 102.963 254.732 102.768C254.537 102.573 254.537 102.256 254.732 102.061L256.146 100.646C256.342 100.451 256.658 100.451 256.853 100.646Z" fill="#676879"/>
<path fill-rule="evenodd" clip-rule="evenodd" d="M256.853 97.1464C257.049 97.3417 257.049 97.6583 256.853 97.8536L251.904 102.803C251.708 102.999 251.392 102.999 251.197 102.803C251.001 102.608 251.001 102.291 251.197 102.096L256.146 97.1464C256.342 96.9512 256.658 96.9512 256.853 97.1464Z" fill="#676879"/>
</svg>
