<svg width="20" height="20" viewBox="0 0 20 20" fill="none" xmlns="http://www.w3.org/2000/svg">
<path fill-rule="evenodd" clip-rule="evenodd" d="M10.2182 19.9998C15.6209 19.9998 20.0008 15.62 20.0008 10.2172C20.0008 4.81439 15.6209 0.43457 10.2182 0.43457C4.81537 0.43457 0.435547 4.81439 0.435547 10.2172C0.435547 15.62 4.81537 19.9998 10.2182 19.9998Z" fill="#323338"/>
<svg x="4" y="5">
<path fill-rule="evenodd" clip-rule="evenodd" d="M11.6506 1.09681C10.6577 2.14138 10.0744 2.96122 9.2056 3.85022C8.19034 2.78343 7.28679 1.93148 6.2765 0.956055C5.1272 1.95864 4.16656 2.88961 3.0818 3.90948C2.42896 3.08963 1.50803 2.03519 0.783203 1.10175C0.798097 1.37092 0.798097 7.47779 0.798097 7.47779H11.6482C11.6482 7.47779 11.6531 3.61809 11.6482 2.03519C11.6506 1.85245 11.6556 1.30424 11.6506 1.09681Z" fill="white"/></svg>
</svg>