<svg width="20" height="20" viewBox="0 0 20 20" fill="none" xmlns="http://www.w3.org/2000/svg">
  <path fill-rule="evenodd" clip-rule="evenodd" d="M16.4033 7.62725C16.4049 7.60733 16.4057 7.58719 16.4057 7.56686C16.4057 7.54653 16.4049 7.5264 16.4033 7.50648V7.483C16.4032 7.02626 16.2217 6.58807 15.8988 6.265L12.0884 2.45456C11.7653 2.1317 11.3271 1.95029 10.8704 1.9502H4.97333C4.51628 1.9502 4.07794 2.13176 3.75475 2.45495C3.43157 2.77814 3.25 3.21647 3.25 3.67353V16.3269C3.25 16.7839 3.43157 17.2223 3.75475 17.5454C4.07794 17.8686 4.51627 18.0502 4.97333 18.0502H9.54158C9.08358 17.6482 8.70539 17.1365 8.43823 16.5502H4.97333C4.9141 16.5502 4.8573 16.5267 4.81541 16.4848C4.77353 16.4429 4.75 16.3861 4.75 16.3269V3.67353C4.75 3.6143 4.77353 3.55749 4.81541 3.51561C4.8573 3.47372 4.9141 3.4502 4.97333 3.4502L10.0391 3.50488V6.59353C10.0391 7.05059 10.2206 7.48892 10.5438 7.81211C10.867 8.1353 11.3053 8.31686 11.7624 8.31686H14V8.31512H16.4033V7.62725ZM11.5391 4.02658L14.3293 6.81686H11.7624C11.7032 6.81686 11.6464 6.79333 11.6045 6.75145C11.5626 6.70956 11.5391 6.65276 11.5391 6.59353V4.02658ZM5.91895 10.6002C5.91895 10.1859 6.25473 9.85016 6.66895 9.85016H10.4764C10.8906 9.85016 11.2264 10.1859 11.2264 10.6002C11.2264 11.0144 10.8906 11.3502 10.4764 11.3502H6.66895C6.25473 11.3502 5.91895 11.0144 5.91895 10.6002ZM6.6691 13.0502C6.25489 13.0502 5.9191 13.3859 5.9191 13.8002C5.9191 14.2144 6.25489 14.5502 6.6691 14.5502H8.50098C8.91519 14.5502 9.25098 14.2144 9.25098 13.8002C9.25098 13.3859 8.91519 13.0502 8.50098 13.0502H6.6691ZM12.4629 9.91921C12.3019 9.8265 12.1045 9.95863 12.1289 10.1428L12.4489 12.5646C12.4585 12.6378 12.4316 12.711 12.3768 12.7604L10.5632 14.397C10.4253 14.5214 10.49 14.75 10.6726 14.7838L13.0748 15.2278C13.1474 15.2412 13.2087 15.2894 13.2387 15.3568L14.2348 17.5874C14.3105 17.757 14.5479 17.7662 14.6364 17.6029L15.5453 15.927L17.9058 19.1877C18.11 19.4698 18.5043 19.5329 18.7863 19.3287C19.0684 19.1245 19.1316 18.7303 18.9273 18.4482L16.6267 15.2702L18.4036 15.0814C18.5884 15.0618 18.6704 14.8389 18.5425 14.7042L16.86 12.933C16.8092 12.8795 16.788 12.8044 16.8033 12.7323L17.3086 10.3422C17.347 10.1605 17.1603 10.0136 16.9927 10.0936L14.7883 11.1464C14.7217 11.1781 14.6438 11.1751 14.5798 11.1383L12.4629 9.91921Z" fill="currentColor"/>
</svg>
