<svg width="112" height="44" viewBox="0 0 112 44" fill="none" xmlns="http://www.w3.org/2000/svg">
<g id="Vibe logo">
<g id="Union">
<path d="M46.0196 14.7213H36.4658V42.7218H46.0196V14.7213Z" fill="#323338"/>
<path d="M41.2127 10.8757C38.0881 10.8757 35.4443 8.41216 35.4443 5.40781C35.4443 2.34338 38.0881 0 41.2127 0C44.3973 0 46.9209 2.34338 46.9209 5.40781C46.9209 8.41216 44.3973 10.8757 41.2127 10.8757Z" fill="#323338"/>
<path d="M21.451 42.7218H12.6182L0 1.32191H10.4551L17.0647 26.5584L23.554 1.32191H34.1293L21.451 42.7218Z" fill="#323338"/>
<path fill-rule="evenodd" clip-rule="evenodd" d="M59.6719 1.32191H50.1181V42.7218H59.1311V38.6959C60.7534 42.0007 64.3586 43.2625 67.4231 43.2625C74.3331 43.2625 81.0628 37.7345 81.0628 28.6614C81.0628 19.5883 74.3331 14.0002 67.4231 14.0002C64.0582 14.0002 61.4745 15.3221 59.6719 17.305V1.32191ZM71.3287 28.7215C71.3287 31.9061 68.6849 34.5499 65.5003 34.5499C62.3157 34.5499 59.6719 31.9061 59.6719 28.7215C59.6719 25.5369 62.3157 22.8931 65.5003 22.8931C68.6849 22.8931 71.3287 25.5369 71.3287 28.7215Z" fill="#323338"/>
<path fill-rule="evenodd" clip-rule="evenodd" d="M97.459 14.0002C105.451 14.0002 112 19.4681 112 28.3009C112 29.0216 111.88 30.5826 111.82 31.3641L91.7507 31.3653C92.1113 34.0092 95.1156 35.6315 98.18 35.6315C99.7423 35.6315 101.905 35.2109 103.528 33.2881C104.23 33.8428 105.98 35.0801 107.585 36.2159C108.589 36.9256 109.537 37.596 110.137 38.035C107.193 41.9406 101.905 43.2625 97.459 43.2625C89.4073 43.2625 82.5574 37.374 82.5574 28.5413C82.5574 19.7085 89.4073 14.0002 97.459 14.0002ZM97.3388 21.8716C95.8967 21.8716 92.4718 22.4124 91.7507 26.0176H102.927C102.026 22.4124 98.7809 21.8716 97.3388 21.8716Z" fill="#323338"/>
</g>
</g>
</svg>
