<svg width="84" height="33" viewBox="0 0 84 33" fill="none" xmlns="http://www.w3.org/2000/svg">
<path d="M34.5147 11.041H27.3493V32.0413H34.5147V11.041Z" fill="#323338"/>
<path d="M30.9095 8.15679C28.5661 8.15679 26.5832 6.30912 26.5832 4.05586C26.5832 1.75754 28.5661 0 30.9095 0C33.2979 0 35.1907 1.75754 35.1907 4.05586C35.1907 6.30912 33.2979 8.15679 30.9095 8.15679Z" fill="#323338"/>
<path d="M16.0883 32.0413H9.46368L0 0.991433H7.84133L12.7985 19.9188L17.6655 0.991433H25.597L16.0883 32.0413Z" fill="#323338"/>
<path fill-rule="evenodd" clip-rule="evenodd" d="M44.7539 0.991433H37.5885V32.0413H44.3483V29.0219C45.5651 31.5005 48.269 32.4469 50.5673 32.4469C55.7498 32.4469 60.7971 28.3009 60.7971 21.4961C60.7971 14.6912 55.7498 10.5002 50.5673 10.5002C48.0437 10.5002 46.1059 11.4916 44.7539 12.9788V0.991433ZM53.4965 21.5411C53.4965 23.9296 51.5137 25.9125 49.1252 25.9125C46.7368 25.9125 44.7539 23.9296 44.7539 21.5411C44.7539 19.1527 46.7368 17.1698 49.1252 17.1698C51.5137 17.1698 53.4965 19.1527 53.4965 21.5411Z" fill="#323338"/>
<path fill-rule="evenodd" clip-rule="evenodd" d="M73.0942 10.5002C79.0879 10.5002 84 14.6011 84 21.2257C84 21.7662 83.91 22.9369 83.8649 23.5231L68.813 23.524C69.0834 25.5069 71.3367 26.7236 73.635 26.7236C74.8067 26.7236 76.4291 26.4082 77.6458 24.9661C78.1727 25.3821 79.4848 26.3101 80.6891 27.1619C81.4416 27.6942 82.1524 28.197 82.603 28.5262C80.3948 31.4555 76.4291 32.4469 73.0942 32.4469C67.0555 32.4469 61.9181 28.0305 61.9181 21.4059C61.9181 14.7814 67.0555 10.5002 73.0942 10.5002ZM73.0041 16.4037C71.9225 16.4037 69.3538 16.8093 68.813 19.5132H77.1952C76.5192 16.8093 74.0857 16.4037 73.0041 16.4037Z" fill="#323338"/>
</svg>
