<svg width="173" height="126" viewBox="0 0 173 126" fill="none" xmlns="http://www.w3.org/2000/svg">
<path fill-rule="evenodd" clip-rule="evenodd" d="M25.4281 67.4446C23.524 65.0678 23.524 61.7351 25.4281 59.3582C46.4268 33.1476 95.0489 2.27785 147.203 58.7824C149.599 61.3789 149.599 65.4239 147.203 68.0204C95.0489 124.525 46.4268 93.6553 25.4281 67.4446Z" fill="white"/>
<path d="M114.187 63.3112C114.187 78.612 101.783 91.0157 86.4821 91.0157C71.1813 91.0157 58.7776 78.612 58.7776 63.3112C58.7776 48.0104 71.1813 35.6067 86.4821 35.6067C101.783 35.6067 114.187 48.0104 114.187 63.3112Z" fill="#00CA72"/>
<path d="M101.634 63.3127C101.634 71.6811 94.8505 78.465 86.4821 78.465C78.1138 78.465 71.3298 71.6811 71.3298 63.3127C71.3298 54.9443 78.1138 48.1604 86.4821 48.1604C94.8505 48.1604 101.634 54.9443 101.634 63.3127Z" fill="#3F3F91"/>
</svg>
