<svg width="173" height="126" viewBox="0 0 173 126" fill="none" xmlns="http://www.w3.org/2000/svg">
<circle cx="86.5" cy="62.5" r="49.5" fill="white"/>
<mask id="mask0_2071:79592" style="mask-type:alpha" maskUnits="userSpaceOnUse" x="37" y="13" width="99" height="99">
<circle cx="86.4791" cy="62.4791" r="49.4791" fill="#3F3F91"/>
</mask>
<g mask="url(#mask0_2071:79592)">
<circle cx="86.4792" cy="140.065" r="54.1635" fill="#00CA72"/>
</g>
<path d="M83.3003 27.3982C83.3003 25.7006 84.7508 24.2927 86.4999 24.2927C88.249 24.2927 89.6995 25.7006 89.6995 27.3982V33.6093C89.6995 35.3069 88.249 36.7148 86.4999 36.7148C84.7508 36.7148 83.3003 35.3069 83.3003 33.6093V27.3982Z" fill="#3F3F91"/>
<path d="M57.6093 65.6998H51.3982C49.7006 65.6998 48.2927 64.2493 48.2927 62.5002C48.2927 60.751 49.7006 59.3005 51.3982 59.3005H57.6093C59.3069 59.3005 60.7148 60.751 60.7148 62.5002C60.7148 64.2493 59.3069 65.6998 57.6093 65.6998Z" fill="#3F3F91"/>
<path d="M68.0968 44.0963C66.8977 45.2962 64.9128 45.2962 63.7136 44.0963L59.3304 39.7107C58.1313 38.4695 58.1726 36.525 59.4131 35.3251C60.6123 34.1667 62.5145 34.1667 63.7136 35.3251L68.0968 39.7107C69.296 40.9106 69.296 42.8965 68.0968 44.0963Z" fill="#3F3F91"/>
<path d="M86.0857 72.4742C80.6394 72.5561 76.1909 68.2563 76.1494 62.8918C76.1078 60.271 77.1887 57.7321 79.1012 55.8893C82.2608 52.7771 108.37 36.9293 111.363 35.1275C112.361 34.5542 113.608 34.8408 114.232 35.7827C114.648 36.4379 114.648 37.2569 114.232 37.9121C112.403 40.8196 96.3131 66.5773 93.1534 69.6896C91.241 71.4914 88.7049 72.4742 86.0857 72.4742Z" fill="#3F3F91"/>
<path d="M115.391 65.6998C113.693 65.6998 112.285 64.2493 112.285 62.5002C112.285 60.751 113.693 59.3005 115.391 59.3005H121.602C123.299 59.3005 124.707 60.751 124.707 62.5002C124.707 64.2493 123.299 65.6998 121.602 65.6998H115.391Z" fill="#3F3F91"/>
</svg>
