<svg width="281" height="185" viewBox="0 0 281 185" fill="none" xmlns="http://www.w3.org/2000/svg">
<g filter="url(#filter0_d_12900_169942)">
<path d="M20.5 22.6443C20.5 18.226 24.0817 14.6443 28.5 14.6443H252.5C256.918 14.6443 260.5 18.226 260.5 22.6443V150.644C260.5 155.063 256.918 158.644 252.5 158.644H28.5C24.0817 158.644 20.5 155.063 20.5 150.644V22.6443Z" fill="white"/>
<path d="M42.422 39.8583L37.998 33.3203L38.474 33.0683L39.034 32.8443L42.996 38.7103L42.422 39.8583ZM37.802 42.6443V32.8443H38.992V42.6443H37.802ZM42.422 39.8583L41.848 38.7103L45.81 32.8443L46.37 33.0683L46.832 33.3063L42.422 39.8583ZM45.852 42.6443V32.8443H47.028V42.6443H45.852ZM52.3858 42.8123C51.7045 42.8123 51.1025 42.6583 50.5798 42.3503C50.0572 42.033 49.6465 41.599 49.3478 41.0483C49.0585 40.4976 48.9138 39.863 48.9138 39.1443C48.9138 38.4256 49.0585 37.791 49.3478 37.2403C49.6465 36.6896 50.0525 36.2603 50.5658 35.9523C51.0885 35.635 51.6858 35.4763 52.3578 35.4763C53.0018 35.4763 53.5618 35.6396 54.0378 35.9663C54.5232 36.2836 54.8965 36.7316 55.1578 37.3103C55.4192 37.889 55.5498 38.5703 55.5498 39.3543H54.4298C54.4298 38.757 54.3505 38.2483 54.1918 37.8283C54.0332 37.399 53.7952 37.0676 53.4778 36.8343C53.1698 36.601 52.7918 36.4843 52.3438 36.4843C51.8865 36.4843 51.4805 36.5963 51.1258 36.8203C50.7805 37.035 50.5145 37.343 50.3278 37.7443C50.1412 38.1456 50.0478 38.617 50.0478 39.1583C50.0478 39.6903 50.1505 40.1523 50.3558 40.5443C50.5612 40.927 50.8458 41.2303 51.2098 41.4543C51.5738 41.669 51.9845 41.7763 52.4418 41.7763C52.9272 41.7763 53.3378 41.6596 53.6738 41.4263C54.0098 41.193 54.2758 40.8896 54.4718 40.5163L55.4518 41.0063C55.2745 41.3703 55.0365 41.6876 54.7378 41.9583C54.4485 42.229 54.1032 42.439 53.7018 42.5883C53.3098 42.7376 52.8712 42.8123 52.3858 42.8123ZM49.6558 39.3543L49.6698 38.3883H54.8638V39.3543H49.6558ZM56.9624 42.6443V35.6443H58.0124L58.0824 36.9323V42.6443H56.9624ZM61.8764 42.6443V39.0603L62.9964 38.6403V42.6443H61.8764ZM61.8764 39.0603C61.8764 38.3696 61.7971 37.8423 61.6384 37.4783C61.4798 37.1143 61.2604 36.867 60.9804 36.7363C60.7004 36.5963 60.3831 36.5263 60.0284 36.5263C59.4124 36.5263 58.9318 36.7456 58.5864 37.1843C58.2504 37.6136 58.0824 38.225 58.0824 39.0183H57.5364C57.5364 38.281 57.6438 37.6463 57.8584 37.1143C58.0731 36.5823 58.3811 36.1763 58.7824 35.8963C59.1931 35.6163 59.6878 35.4763 60.2664 35.4763C61.1158 35.4763 61.7831 35.7376 62.2684 36.2603C62.7631 36.783 63.0058 37.5763 62.9964 38.6403L61.8764 39.0603ZM69.5711 42.6443L69.5011 41.3563V35.6443H70.6211V42.6443H69.5711ZM64.5871 39.6483V35.6443H65.7071V39.2283L64.5871 39.6483ZM65.7071 39.2283C65.7071 39.919 65.7864 40.4463 65.9451 40.8103C66.1037 41.1743 66.3231 41.4263 66.6031 41.5663C66.8924 41.697 67.2144 41.7623 67.5691 41.7623C68.1757 41.7623 68.6471 41.543 68.9831 41.1043C69.3284 40.6656 69.5011 40.0543 69.5011 39.2703H70.0471C70.0471 40.0076 69.9397 40.6423 69.7251 41.1743C69.5104 41.7063 69.1977 42.1123 68.7871 42.3923C68.3857 42.6723 67.8957 42.8123 67.3171 42.8123C66.4677 42.8123 65.7957 42.551 65.3011 42.0283C64.8157 41.5056 64.5777 40.7123 64.5871 39.6483L65.7071 39.2283ZM78.6667 42.8123C77.9854 42.8123 77.458 42.635 77.0847 42.2803C76.7114 41.9256 76.5247 41.4263 76.5247 40.7823V33.4603H77.6447V40.6703C77.6447 41.025 77.738 41.3003 77.9247 41.4963C78.1207 41.683 78.3914 41.7763 78.7367 41.7763C78.8487 41.7763 78.956 41.7623 79.0587 41.7343C79.1707 41.697 79.3154 41.613 79.4927 41.4823L79.9267 42.3923C79.684 42.551 79.4647 42.6583 79.2687 42.7143C79.0727 42.7796 78.872 42.8123 78.6667 42.8123ZM75.3067 36.6383V35.6443H79.7447V36.6383H75.3067ZM81.3957 42.6443L81.4237 35.6443H82.5437L82.5157 42.6443H81.3957ZM81.9697 34.0203C81.783 34.0203 81.6197 33.9503 81.4797 33.8103C81.3397 33.6703 81.2697 33.507 81.2697 33.3203C81.2697 33.1243 81.3397 32.961 81.4797 32.8303C81.6197 32.6903 81.783 32.6203 81.9697 32.6203C82.1657 32.6203 82.329 32.6903 82.4597 32.8303C82.5997 32.961 82.6697 33.1243 82.6697 33.3203C82.6697 33.507 82.5997 33.6703 82.4597 33.8103C82.329 33.9503 82.1657 34.0203 81.9697 34.0203ZM87.2116 42.8123C86.5303 42.8123 86.0029 42.635 85.6296 42.2803C85.2563 41.9256 85.0696 41.4263 85.0696 40.7823V33.4603H86.1896V40.6703C86.1896 41.025 86.2829 41.3003 86.4696 41.4963C86.6656 41.683 86.9363 41.7763 87.2816 41.7763C87.3936 41.7763 87.5009 41.7623 87.6036 41.7343C87.7156 41.697 87.8603 41.613 88.0376 41.4823L88.4716 42.3923C88.2289 42.551 88.0096 42.6583 87.8136 42.7143C87.6176 42.7796 87.4169 42.8123 87.2116 42.8123ZM83.8516 36.6383V35.6443H88.2896V36.6383H83.8516ZM89.8706 42.6443V32.8443H90.9906V42.6443H89.8706ZM96.0128 42.8123C95.3315 42.8123 94.7295 42.6583 94.2068 42.3503C93.6841 42.033 93.2735 41.599 92.9748 41.0483C92.6855 40.4976 92.5408 39.863 92.5408 39.1443C92.5408 38.4256 92.6855 37.791 92.9748 37.2403C93.2735 36.6896 93.6795 36.2603 94.1928 35.9523C94.7155 35.635 95.3128 35.4763 95.9848 35.4763C96.6288 35.4763 97.1888 35.6396 97.6648 35.9663C98.1501 36.2836 98.5235 36.7316 98.7848 37.3103C99.0461 37.889 99.1768 38.5703 99.1768 39.3543H98.0568C98.0568 38.757 97.9775 38.2483 97.8188 37.8283C97.6601 37.399 97.4221 37.0676 97.1048 36.8343C96.7968 36.601 96.4188 36.4843 95.9708 36.4843C95.5135 36.4843 95.1075 36.5963 94.7528 36.8203C94.4075 37.035 94.1415 37.343 93.9548 37.7443C93.7681 38.1456 93.6748 38.617 93.6748 39.1583C93.6748 39.6903 93.7775 40.1523 93.9828 40.5443C94.1881 40.927 94.4728 41.2303 94.8368 41.4543C95.2008 41.669 95.6115 41.7763 96.0688 41.7763C96.5541 41.7763 96.9648 41.6596 97.3008 41.4263C97.6368 41.193 97.9028 40.8896 98.0988 40.5163L99.0788 41.0063C98.9015 41.3703 98.6635 41.6876 98.3648 41.9583C98.0755 42.229 97.7301 42.439 97.3288 42.5883C96.9368 42.7376 96.4981 42.8123 96.0128 42.8123ZM93.2828 39.3543L93.2968 38.3883H98.4908V39.3543H93.2828Z" fill="#676879"/>
<g clip-path="url(#clip0_12900_169942)">
<path d="M236.502 38.0444C236.833 38.0444 237.102 38.313 237.102 38.6444V41.5327C237.102 41.864 236.833 42.1327 236.502 42.1327C236.17 42.1327 235.902 41.864 235.902 41.5327V38.6444C235.902 38.313 236.17 38.0444 236.502 38.0444Z" fill="#676879"/>
<path d="M236.133 35.5189C236.266 35.4301 236.422 35.3828 236.582 35.3828C236.796 35.3828 237.002 35.4679 237.153 35.6194C237.305 35.7709 237.39 35.9763 237.39 36.1906C237.39 36.3504 237.343 36.5065 237.254 36.6394C237.165 36.7722 237.039 36.8758 236.891 36.9369C236.744 36.9981 236.581 37.014 236.425 36.9829C236.268 36.9517 236.124 36.8748 236.011 36.7618C235.898 36.6488 235.821 36.5049 235.79 36.3482C235.759 36.1915 235.775 36.0291 235.836 35.8814C235.897 35.7338 236 35.6077 236.133 35.5189Z" fill="#676879"/>
<path fill-rule="evenodd" clip-rule="evenodd" d="M231.993 34.1355C233.188 32.9396 234.81 32.2678 236.502 32.2678C238.193 32.2678 239.815 32.9396 241.01 34.1355C242.206 35.3313 242.878 36.9532 242.878 38.6444C242.878 40.3355 242.206 41.9574 241.01 43.1533C239.815 44.3491 238.193 45.0209 236.502 45.0209C234.81 45.0209 233.188 44.3491 231.993 43.1533C230.797 41.9574 230.125 40.3355 230.125 38.6444C230.125 36.9532 230.797 35.3313 231.993 34.1355ZM236.502 33.4678C235.129 33.4678 233.812 34.0132 232.841 34.984C231.87 35.9548 231.325 37.2715 231.325 38.6444C231.325 40.0173 231.87 41.334 232.841 42.3048C233.812 43.2755 235.129 43.8209 236.502 43.8209C237.874 43.8209 239.191 43.2755 240.162 42.3048C241.133 41.334 241.678 40.0173 241.678 38.6444C241.678 37.2715 241.133 35.9548 240.162 34.984C239.191 34.0132 237.874 33.4678 236.502 33.4678Z" fill="#676879"/>
</g>
<g clip-path="url(#clip1_12900_169942)">
<path d="M37.802 75.6443V65.8443H38.992V75.6443H37.802ZM43.9128 75.8123C43.2314 75.8123 42.7041 75.635 42.3308 75.2803C41.9574 74.9256 41.7708 74.4263 41.7708 73.7823V66.4603H42.8908V73.6703C42.8908 74.025 42.9841 74.3003 43.1708 74.4963C43.3668 74.683 43.6374 74.7763 43.9828 74.7763C44.0948 74.7763 44.2021 74.7623 44.3048 74.7343C44.4168 74.697 44.5614 74.613 44.7388 74.4823L45.1728 75.3923C44.9301 75.551 44.7108 75.6583 44.5148 75.7143C44.3188 75.7796 44.1181 75.8123 43.9128 75.8123ZM40.5528 69.6383V68.6443H44.9908V69.6383H40.5528ZM49.5968 75.8123C48.9154 75.8123 48.3134 75.6583 47.7908 75.3503C47.2681 75.033 46.8574 74.599 46.5588 74.0483C46.2694 73.4976 46.1248 72.863 46.1248 72.1443C46.1248 71.4256 46.2694 70.791 46.5588 70.2403C46.8574 69.6896 47.2634 69.2603 47.7768 68.9523C48.2994 68.635 48.8968 68.4763 49.5688 68.4763C50.2128 68.4763 50.7728 68.6396 51.2488 68.9663C51.7341 69.2836 52.1074 69.7316 52.3688 70.3103C52.6301 70.889 52.7608 71.5703 52.7608 72.3543H51.6408C51.6408 71.757 51.5614 71.2483 51.4028 70.8283C51.2441 70.399 51.0061 70.0676 50.6888 69.8343C50.3808 69.601 50.0028 69.4843 49.5548 69.4843C49.0974 69.4843 48.6914 69.5963 48.3368 69.8203C47.9914 70.035 47.7254 70.343 47.5388 70.7443C47.3521 71.1456 47.2588 71.617 47.2588 72.1583C47.2588 72.6903 47.3614 73.1523 47.5668 73.5443C47.7721 73.927 48.0568 74.2303 48.4208 74.4543C48.7848 74.669 49.1954 74.7763 49.6528 74.7763C50.1381 74.7763 50.5488 74.6596 50.8848 74.4263C51.2208 74.193 51.4868 73.8896 51.6828 73.5163L52.6628 74.0063C52.4854 74.3703 52.2474 74.6876 51.9488 74.9583C51.6594 75.229 51.3141 75.439 50.9128 75.5883C50.5208 75.7376 50.0821 75.8123 49.5968 75.8123ZM46.8668 72.3543L46.8808 71.3883H52.0748V72.3543H46.8668ZM54.1734 75.6443V68.6443H55.2234L55.2934 69.9323V75.6443H54.1734ZM59.0874 75.6443V72.0603L60.2074 71.6403V75.6443H59.0874ZM64.0154 75.6443V72.0603L65.1354 71.6403V75.6443H64.0154ZM59.0874 72.0603C59.0874 71.3696 59.008 70.8423 58.8494 70.4783C58.6907 70.1143 58.4714 69.867 58.1914 69.7363C57.9114 69.5963 57.594 69.5263 57.2394 69.5263C56.6234 69.5263 56.1427 69.7456 55.7974 70.1843C55.4614 70.6136 55.2934 71.225 55.2934 72.0183H54.7474C54.7474 71.281 54.8547 70.6463 55.0694 70.1143C55.284 69.5823 55.592 69.1763 55.9934 68.8963C56.404 68.6163 56.8987 68.4763 57.4774 68.4763C58.3267 68.4763 58.994 68.7376 59.4794 69.2603C59.974 69.783 60.2167 70.5763 60.2074 71.6403L59.0874 72.0603ZM64.0154 72.0603C64.0154 71.3696 63.9314 70.8423 63.7634 70.4783C63.6047 70.1143 63.3854 69.867 63.1054 69.7363C62.8254 69.5963 62.508 69.5263 62.1534 69.5263C61.5374 69.5263 61.0567 69.7456 60.7114 70.1843C60.3754 70.6136 60.2074 71.225 60.2074 72.0183H59.6614C59.6614 71.281 59.7687 70.6463 59.9834 70.1143C60.198 69.5823 60.5107 69.1763 60.9214 68.8963C61.332 68.6163 61.8267 68.4763 62.4054 68.4763C63.2454 68.4763 63.908 68.7376 64.3934 69.2603C64.888 69.783 65.1354 70.5763 65.1354 71.6403L64.0154 72.0603ZM72.4049 75.6443L72.4189 66.4743L72.5169 65.8443H73.5809L73.5529 75.6443H72.4049ZM70.2209 68.3643V67.2863C70.4169 67.2956 70.6502 67.2303 70.9209 67.0903C71.1915 66.9503 71.4715 66.7683 71.7609 66.5443C72.0502 66.3203 72.3022 66.087 72.5169 65.8443L73.2449 66.6423C72.9369 66.969 72.6149 67.263 72.2789 67.5243C71.9429 67.7856 71.6022 67.9956 71.2569 68.1543C70.9115 68.3036 70.5662 68.3736 70.2209 68.3643Z" fill="#323338"/>
</g>
<g clip-path="url(#clip2_12900_169942)">
<path d="M37.802 107.644V97.8443H38.992V107.644H37.802ZM43.9128 107.812C43.2314 107.812 42.7041 107.635 42.3308 107.28C41.9574 106.926 41.7708 106.426 41.7708 105.782V98.4603H42.8908V105.67C42.8908 106.025 42.9841 106.3 43.1708 106.496C43.3668 106.683 43.6374 106.776 43.9828 106.776C44.0948 106.776 44.2021 106.762 44.3048 106.734C44.4168 106.697 44.5614 106.613 44.7388 106.482L45.1728 107.392C44.9301 107.551 44.7108 107.658 44.5148 107.714C44.3188 107.78 44.1181 107.812 43.9128 107.812ZM40.5528 101.638V100.644H44.9908V101.638H40.5528ZM49.5968 107.812C48.9154 107.812 48.3134 107.658 47.7908 107.35C47.2681 107.033 46.8574 106.599 46.5588 106.048C46.2694 105.498 46.1248 104.863 46.1248 104.144C46.1248 103.426 46.2694 102.791 46.5588 102.24C46.8574 101.69 47.2634 101.26 47.7768 100.952C48.2994 100.635 48.8968 100.476 49.5688 100.476C50.2128 100.476 50.7728 100.64 51.2488 100.966C51.7341 101.284 52.1074 101.732 52.3688 102.31C52.6301 102.889 52.7608 103.57 52.7608 104.354H51.6408C51.6408 103.757 51.5614 103.248 51.4028 102.828C51.2441 102.399 51.0061 102.068 50.6888 101.834C50.3808 101.601 50.0028 101.484 49.5548 101.484C49.0974 101.484 48.6914 101.596 48.3368 101.82C47.9914 102.035 47.7254 102.343 47.5388 102.744C47.3521 103.146 47.2588 103.617 47.2588 104.158C47.2588 104.69 47.3614 105.152 47.5668 105.544C47.7721 105.927 48.0568 106.23 48.4208 106.454C48.7848 106.669 49.1954 106.776 49.6528 106.776C50.1381 106.776 50.5488 106.66 50.8848 106.426C51.2208 106.193 51.4868 105.89 51.6828 105.516L52.6628 106.006C52.4854 106.37 52.2474 106.688 51.9488 106.958C51.6594 107.229 51.3141 107.439 50.9128 107.588C50.5208 107.738 50.0821 107.812 49.5968 107.812ZM46.8668 104.354L46.8808 103.388H52.0748V104.354H46.8668ZM54.1734 107.644V100.644H55.2234L55.2934 101.932V107.644H54.1734ZM59.0874 107.644V104.06L60.2074 103.64V107.644H59.0874ZM64.0154 107.644V104.06L65.1354 103.64V107.644H64.0154ZM59.0874 104.06C59.0874 103.37 59.008 102.842 58.8494 102.478C58.6907 102.114 58.4714 101.867 58.1914 101.736C57.9114 101.596 57.594 101.526 57.2394 101.526C56.6234 101.526 56.1427 101.746 55.7974 102.184C55.4614 102.614 55.2934 103.225 55.2934 104.018H54.7474C54.7474 103.281 54.8547 102.646 55.0694 102.114C55.284 101.582 55.592 101.176 55.9934 100.896C56.404 100.616 56.8987 100.476 57.4774 100.476C58.3267 100.476 58.994 100.738 59.4794 101.26C59.974 101.783 60.2167 102.576 60.2074 103.64L59.0874 104.06ZM64.0154 104.06C64.0154 103.37 63.9314 102.842 63.7634 102.478C63.6047 102.114 63.3854 101.867 63.1054 101.736C62.8254 101.596 62.508 101.526 62.1534 101.526C61.5374 101.526 61.0567 101.746 60.7114 102.184C60.3754 102.614 60.2074 103.225 60.2074 104.018H59.6614C59.6614 103.281 59.7687 102.646 59.9834 102.114C60.198 101.582 60.5107 101.176 60.9214 100.896C61.332 100.616 61.8267 100.476 62.4054 100.476C63.2454 100.476 63.908 100.738 64.3934 101.26C64.888 101.783 65.1354 102.576 65.1354 103.64L64.0154 104.06ZM71.3549 106.958L70.1789 106.664C70.1789 106.356 70.2395 106.053 70.3609 105.754C70.4915 105.446 70.6735 105.143 70.9069 104.844C71.1495 104.546 71.4435 104.266 71.7889 104.004L73.8189 102.478C74.0615 102.31 74.2715 102.119 74.4489 101.904C74.6355 101.68 74.7802 101.452 74.8829 101.218C74.9855 100.976 75.0369 100.742 75.0369 100.518C75.0369 100.192 74.9575 99.8976 74.7989 99.6363C74.6402 99.3656 74.4162 99.151 74.1269 98.9923C73.8375 98.8336 73.4969 98.7543 73.1049 98.7543C72.7222 98.7543 72.3862 98.829 72.0969 98.9783C71.8075 99.1183 71.5695 99.3096 71.3829 99.5523C71.1962 99.7856 71.0609 100.038 70.9769 100.308L69.7729 100.07C69.8849 99.6503 70.0855 99.2583 70.3749 98.8943C70.6735 98.5303 71.0515 98.2363 71.5089 98.0123C71.9662 97.7883 72.4749 97.6763 73.0349 97.6763C73.6882 97.6763 74.2529 97.8023 74.7289 98.0543C75.2049 98.297 75.5735 98.633 75.8349 99.0623C76.1055 99.4823 76.2409 99.963 76.2409 100.504C76.2409 101.018 76.1009 101.503 75.8209 101.96C75.5409 102.418 75.1349 102.861 74.6029 103.29L72.6849 104.746C72.4142 104.942 72.1762 105.157 71.9709 105.39C71.7749 105.624 71.6209 105.871 71.5089 106.132C71.4062 106.384 71.3549 106.66 71.3549 106.958ZM70.1789 107.644V106.664L71.0749 106.594H76.3809V107.644H70.1789Z" fill="#323338"/>
</g>
<g clip-path="url(#clip3_12900_169942)">
<path d="M37.802 139.644V129.844H38.992V139.644H37.802ZM43.9128 139.812C43.2314 139.812 42.7041 139.635 42.3308 139.28C41.9574 138.926 41.7708 138.426 41.7708 137.782V130.46H42.8908V137.67C42.8908 138.025 42.9841 138.3 43.1708 138.496C43.3668 138.683 43.6374 138.776 43.9828 138.776C44.0948 138.776 44.2021 138.762 44.3048 138.734C44.4168 138.697 44.5614 138.613 44.7388 138.482L45.1728 139.392C44.9301 139.551 44.7108 139.658 44.5148 139.714C44.3188 139.78 44.1181 139.812 43.9128 139.812ZM40.5528 133.638V132.644H44.9908V133.638H40.5528ZM49.5968 139.812C48.9154 139.812 48.3134 139.658 47.7908 139.35C47.2681 139.033 46.8574 138.599 46.5588 138.048C46.2694 137.498 46.1248 136.863 46.1248 136.144C46.1248 135.426 46.2694 134.791 46.5588 134.24C46.8574 133.69 47.2634 133.26 47.7768 132.952C48.2994 132.635 48.8968 132.476 49.5688 132.476C50.2128 132.476 50.7728 132.64 51.2488 132.966C51.7341 133.284 52.1074 133.732 52.3688 134.31C52.6301 134.889 52.7608 135.57 52.7608 136.354H51.6408C51.6408 135.757 51.5614 135.248 51.4028 134.828C51.2441 134.399 51.0061 134.068 50.6888 133.834C50.3808 133.601 50.0028 133.484 49.5548 133.484C49.0974 133.484 48.6914 133.596 48.3368 133.82C47.9914 134.035 47.7254 134.343 47.5388 134.744C47.3521 135.146 47.2588 135.617 47.2588 136.158C47.2588 136.69 47.3614 137.152 47.5668 137.544C47.7721 137.927 48.0568 138.23 48.4208 138.454C48.7848 138.669 49.1954 138.776 49.6528 138.776C50.1381 138.776 50.5488 138.66 50.8848 138.426C51.2208 138.193 51.4868 137.89 51.6828 137.516L52.6628 138.006C52.4854 138.37 52.2474 138.688 51.9488 138.958C51.6594 139.229 51.3141 139.439 50.9128 139.588C50.5208 139.738 50.0821 139.812 49.5968 139.812ZM46.8668 136.354L46.8808 135.388H52.0748V136.354H46.8668ZM54.1734 139.644V132.644H55.2234L55.2934 133.932V139.644H54.1734ZM59.0874 139.644V136.06L60.2074 135.64V139.644H59.0874ZM64.0154 139.644V136.06L65.1354 135.64V139.644H64.0154ZM59.0874 136.06C59.0874 135.37 59.008 134.842 58.8494 134.478C58.6907 134.114 58.4714 133.867 58.1914 133.736C57.9114 133.596 57.594 133.526 57.2394 133.526C56.6234 133.526 56.1427 133.746 55.7974 134.184C55.4614 134.614 55.2934 135.225 55.2934 136.018H54.7474C54.7474 135.281 54.8547 134.646 55.0694 134.114C55.284 133.582 55.592 133.176 55.9934 132.896C56.404 132.616 56.8987 132.476 57.4774 132.476C58.3267 132.476 58.994 132.738 59.4794 133.26C59.974 133.783 60.2167 134.576 60.2074 135.64L59.0874 136.06ZM64.0154 136.06C64.0154 135.37 63.9314 134.842 63.7634 134.478C63.6047 134.114 63.3854 133.867 63.1054 133.736C62.8254 133.596 62.508 133.526 62.1534 133.526C61.5374 133.526 61.0567 133.746 60.7114 134.184C60.3754 134.614 60.2074 135.225 60.2074 136.018H59.6614C59.6614 135.281 59.7687 134.646 59.9834 134.114C60.198 133.582 60.5107 133.176 60.9214 132.896C61.332 132.616 61.8267 132.476 62.4054 132.476C63.2454 132.476 63.908 132.738 64.3934 133.26C64.888 133.783 65.1354 134.576 65.1354 135.64L64.0154 136.06ZM73.1469 139.812C72.6709 139.812 72.2369 139.742 71.8449 139.602C71.4622 139.453 71.1309 139.262 70.8509 139.028C70.5802 138.795 70.3655 138.548 70.2069 138.286L71.1869 137.74C71.2895 137.871 71.4155 138.02 71.5649 138.188C71.7235 138.347 71.9242 138.482 72.1669 138.594C72.4095 138.706 72.7082 138.762 73.0629 138.762C73.6975 138.762 74.2062 138.58 74.5889 138.216C74.9715 137.852 75.1629 137.395 75.1629 136.844C75.1629 136.424 75.0462 136.07 74.8129 135.78C74.5889 135.491 74.2622 135.272 73.8329 135.122C73.4035 134.973 72.8902 134.898 72.2929 134.898H72.0269V133.974H72.2649C72.8529 133.974 73.3942 134.04 73.8889 134.17C74.3835 134.301 74.8129 134.492 75.1769 134.744C75.5502 134.996 75.8349 135.304 76.0309 135.668C76.2362 136.032 76.3389 136.452 76.3389 136.928C76.3389 137.507 76.1942 138.016 75.9049 138.454C75.6249 138.884 75.2422 139.22 74.7569 139.462C74.2715 139.696 73.7349 139.812 73.1469 139.812ZM72.0269 134.8V133.89H72.2929C73.0955 133.89 73.7302 133.755 74.1969 133.484C74.6729 133.204 74.9109 132.808 74.9109 132.294C74.9109 132.014 74.8362 131.758 74.6869 131.524C74.5375 131.282 74.3182 131.09 74.0289 130.95C73.7489 130.801 73.4222 130.726 73.0489 130.726C72.7969 130.726 72.5589 130.764 72.3349 130.838C72.1202 130.904 71.9195 131.006 71.7329 131.146C71.5555 131.277 71.3922 131.445 71.2429 131.65L70.3189 131.118C70.4962 130.829 70.7202 130.577 70.9909 130.362C71.2709 130.148 71.5882 129.98 71.9429 129.858C72.2975 129.737 72.6849 129.676 73.1049 129.676C73.6742 129.676 74.1829 129.788 74.6309 130.012C75.0882 130.236 75.4475 130.544 75.7089 130.936C75.9702 131.319 76.1009 131.753 76.1009 132.238C76.1009 132.649 76.0029 133.013 75.8069 133.33C75.6109 133.648 75.3355 133.918 74.9809 134.142C74.6355 134.366 74.2295 134.534 73.7629 134.646C73.3055 134.749 72.8062 134.8 72.2649 134.8H72.0269Z" fill="#323338"/>
</g>
</g>
<defs>
<filter id="filter0_d_12900_169942" x="0.5" y="0.644287" width="280" height="184" filterUnits="userSpaceOnUse" color-interpolation-filters="sRGB">
<feFlood flood-opacity="0" result="BackgroundImageFix"/>
<feColorMatrix in="SourceAlpha" type="matrix" values="0 0 0 0 0 0 0 0 0 0 0 0 0 0 0 0 0 0 127 0" result="hardAlpha"/>
<feOffset dy="6"/>
<feGaussianBlur stdDeviation="10"/>
<feColorMatrix type="matrix" values="0 0 0 0 0 0 0 0 0 0 0 0 0 0 0 0 0 0 0.2 0"/>
<feBlend mode="normal" in2="BackgroundImageFix" result="effect1_dropShadow_12900_169942"/>
<feBlend mode="normal" in="SourceGraphic" in2="effect1_dropShadow_12900_169942" result="shape"/>
</filter>
<clipPath id="clip0_12900_169942">
<rect width="16" height="16" fill="white" transform="translate(228.5 30.6443)"/>
</clipPath>
<clipPath id="clip1_12900_169942">
<rect width="208" height="22" fill="white" transform="translate(36.5 59.6443)"/>
</clipPath>
<clipPath id="clip2_12900_169942">
<rect width="208" height="22" fill="white" transform="translate(36.5 91.6443)"/>
</clipPath>
<clipPath id="clip3_12900_169942">
<rect width="208" height="22" fill="white" transform="translate(36.5 123.644)"/>
</clipPath>
</defs>
</svg>
