<svg width="281" height="185" viewBox="0 0 281 185" fill="none" xmlns="http://www.w3.org/2000/svg">
<g filter="url(#filter0_d_12900_169989)">
<path d="M20.5 22.6443C20.5 18.226 24.0817 14.6443 28.5 14.6443H252.5C256.918 14.6443 260.5 18.226 260.5 22.6443V150.644C260.5 155.063 256.918 158.644 252.5 158.644H28.5C24.0817 158.644 20.5 155.063 20.5 150.644V22.6443Z" fill="white"/>
<g clip-path="url(#clip0_12900_169989)">
<path d="M44.5016 38.0444C44.8329 38.0444 45.1016 38.313 45.1016 38.6444V41.5327C45.1016 41.864 44.8329 42.1327 44.5016 42.1327C44.1702 42.1327 43.9016 41.864 43.9016 41.5327V38.6444C43.9016 38.313 44.1702 38.0444 44.5016 38.0444Z" fill="#676879"/>
<path d="M44.1333 35.5189C44.2662 35.4301 44.4223 35.3828 44.5821 35.3828C44.7964 35.3828 45.0018 35.4679 45.1533 35.6194C45.3048 35.7709 45.3899 35.9763 45.3899 36.1906C45.3899 36.3504 45.3426 36.5065 45.2538 36.6394C45.165 36.7722 45.0389 36.8758 44.8913 36.9369C44.7436 36.9981 44.5812 37.014 44.4245 36.9829C44.2678 36.9517 44.1239 36.8748 44.0109 36.7618C43.8979 36.6488 43.821 36.5049 43.7898 36.3482C43.7587 36.1915 43.7747 36.0291 43.8358 35.8814C43.8969 35.7338 44.0005 35.6077 44.1333 35.5189Z" fill="#676879"/>
<path fill-rule="evenodd" clip-rule="evenodd" d="M39.9926 34.1355C41.1885 32.9396 42.8104 32.2678 44.5016 32.2678C46.1927 32.2678 47.8146 32.9396 49.0105 34.1355C50.2063 35.3313 50.8781 36.9532 50.8781 38.6444C50.8781 40.3355 50.2063 41.9574 49.0105 43.1533C47.8146 44.3491 46.1927 45.0209 44.5016 45.0209C42.8104 45.0209 41.1885 44.3491 39.9926 43.1533C38.7968 41.9574 38.125 40.3355 38.125 38.6444C38.125 36.9532 38.7968 35.3313 39.9926 34.1355ZM44.5016 33.4678C43.1286 33.4678 41.812 34.0132 40.8412 34.984C39.8704 35.9548 39.325 37.2715 39.325 38.6444C39.325 40.0173 39.8704 41.334 40.8412 42.3048C41.812 43.2755 43.1286 43.8209 44.5016 43.8209C45.8745 43.8209 47.1911 43.2755 48.1619 42.3048C49.1327 41.334 49.6781 40.0173 49.6781 38.6444C49.6781 37.2715 49.1327 35.9548 48.1619 34.984C47.1911 34.0132 45.8745 33.4678 44.5016 33.4678Z" fill="#676879"/>
</g>
<path d="M66.422 39.8583L61.998 33.3203L62.474 33.0683L63.034 32.8443L66.996 38.7103L66.422 39.8583ZM61.802 42.6443V32.8443H62.992V42.6443H61.802ZM66.422 39.8583L65.848 38.7103L69.81 32.8443L70.37 33.0683L70.832 33.3063L66.422 39.8583ZM69.852 42.6443V32.8443H71.028V42.6443H69.852ZM76.3858 42.8123C75.7045 42.8123 75.1025 42.6583 74.5798 42.3503C74.0572 42.033 73.6465 41.599 73.3478 41.0483C73.0585 40.4976 72.9138 39.863 72.9138 39.1443C72.9138 38.4256 73.0585 37.791 73.3478 37.2403C73.6465 36.6896 74.0525 36.2603 74.5658 35.9523C75.0885 35.635 75.6858 35.4763 76.3578 35.4763C77.0018 35.4763 77.5618 35.6396 78.0378 35.9663C78.5232 36.2836 78.8965 36.7316 79.1578 37.3103C79.4192 37.889 79.5498 38.5703 79.5498 39.3543H78.4298C78.4298 38.757 78.3505 38.2483 78.1918 37.8283C78.0332 37.399 77.7952 37.0676 77.4778 36.8343C77.1698 36.601 76.7918 36.4843 76.3438 36.4843C75.8865 36.4843 75.4805 36.5963 75.1258 36.8203C74.7805 37.035 74.5145 37.343 74.3278 37.7443C74.1412 38.1456 74.0478 38.617 74.0478 39.1583C74.0478 39.6903 74.1505 40.1523 74.3558 40.5443C74.5612 40.927 74.8458 41.2303 75.2098 41.4543C75.5738 41.669 75.9845 41.7763 76.4418 41.7763C76.9272 41.7763 77.3378 41.6596 77.6738 41.4263C78.0098 41.193 78.2758 40.8896 78.4718 40.5163L79.4518 41.0063C79.2745 41.3703 79.0365 41.6876 78.7378 41.9583C78.4485 42.229 78.1032 42.439 77.7018 42.5883C77.3098 42.7376 76.8712 42.8123 76.3858 42.8123ZM73.6558 39.3543L73.6698 38.3883H78.8638V39.3543H73.6558ZM80.9624 42.6443V35.6443H82.0124L82.0824 36.9323V42.6443H80.9624ZM85.8764 42.6443V39.0603L86.9964 38.6403V42.6443H85.8764ZM85.8764 39.0603C85.8764 38.3696 85.7971 37.8423 85.6384 37.4783C85.4798 37.1143 85.2604 36.867 84.9804 36.7363C84.7004 36.5963 84.3831 36.5263 84.0284 36.5263C83.4124 36.5263 82.9318 36.7456 82.5864 37.1843C82.2504 37.6136 82.0824 38.225 82.0824 39.0183H81.5364C81.5364 38.281 81.6438 37.6463 81.8584 37.1143C82.0731 36.5823 82.3811 36.1763 82.7824 35.8963C83.1931 35.6163 83.6878 35.4763 84.2664 35.4763C85.1158 35.4763 85.7831 35.7376 86.2684 36.2603C86.7631 36.783 87.0058 37.5763 86.9964 38.6403L85.8764 39.0603ZM93.5711 42.6443L93.5011 41.3563V35.6443H94.6211V42.6443H93.5711ZM88.5871 39.6483V35.6443H89.7071V39.2283L88.5871 39.6483ZM89.7071 39.2283C89.7071 39.919 89.7864 40.4463 89.9451 40.8103C90.1037 41.1743 90.3231 41.4263 90.6031 41.5663C90.8924 41.697 91.2144 41.7623 91.5691 41.7623C92.1757 41.7623 92.6471 41.543 92.9831 41.1043C93.3284 40.6656 93.5011 40.0543 93.5011 39.2703H94.0471C94.0471 40.0076 93.9397 40.6423 93.7251 41.1743C93.5104 41.7063 93.1977 42.1123 92.7871 42.3923C92.3857 42.6723 91.8957 42.8123 91.3171 42.8123C90.4677 42.8123 89.7957 42.551 89.3011 42.0283C88.8157 41.5056 88.5777 40.7123 88.5871 39.6483L89.7071 39.2283ZM102.667 42.8123C101.985 42.8123 101.458 42.635 101.085 42.2803C100.711 41.9256 100.525 41.4263 100.525 40.7823V33.4603H101.645V40.6703C101.645 41.025 101.738 41.3003 101.925 41.4963C102.121 41.683 102.391 41.7763 102.737 41.7763C102.849 41.7763 102.956 41.7623 103.059 41.7343C103.171 41.697 103.315 41.613 103.493 41.4823L103.927 42.3923C103.684 42.551 103.465 42.6583 103.269 42.7143C103.073 42.7796 102.872 42.8123 102.667 42.8123ZM99.3067 36.6383V35.6443H103.745V36.6383H99.3067ZM105.396 42.6443L105.424 35.6443H106.544L106.516 42.6443H105.396ZM105.97 34.0203C105.783 34.0203 105.62 33.9503 105.48 33.8103C105.34 33.6703 105.27 33.507 105.27 33.3203C105.27 33.1243 105.34 32.961 105.48 32.8303C105.62 32.6903 105.783 32.6203 105.97 32.6203C106.166 32.6203 106.329 32.6903 106.46 32.8303C106.6 32.961 106.67 33.1243 106.67 33.3203C106.67 33.507 106.6 33.6703 106.46 33.8103C106.329 33.9503 106.166 34.0203 105.97 34.0203ZM111.212 42.8123C110.53 42.8123 110.003 42.635 109.63 42.2803C109.256 41.9256 109.07 41.4263 109.07 40.7823V33.4603H110.19V40.6703C110.19 41.025 110.283 41.3003 110.47 41.4963C110.666 41.683 110.936 41.7763 111.282 41.7763C111.394 41.7763 111.501 41.7623 111.604 41.7343C111.716 41.697 111.86 41.613 112.038 41.4823L112.472 42.3923C112.229 42.551 112.01 42.6583 111.814 42.7143C111.618 42.7796 111.417 42.8123 111.212 42.8123ZM107.852 36.6383V35.6443H112.29V36.6383H107.852ZM113.871 42.6443V32.8443H114.991V42.6443H113.871ZM120.013 42.8123C119.331 42.8123 118.729 42.6583 118.207 42.3503C117.684 42.033 117.273 41.599 116.975 41.0483C116.685 40.4976 116.541 39.863 116.541 39.1443C116.541 38.4256 116.685 37.791 116.975 37.2403C117.273 36.6896 117.679 36.2603 118.193 35.9523C118.715 35.635 119.313 35.4763 119.985 35.4763C120.629 35.4763 121.189 35.6396 121.665 35.9663C122.15 36.2836 122.523 36.7316 122.785 37.3103C123.046 37.889 123.177 38.5703 123.177 39.3543H122.057C122.057 38.757 121.977 38.2483 121.819 37.8283C121.66 37.399 121.422 37.0676 121.105 36.8343C120.797 36.601 120.419 36.4843 119.971 36.4843C119.513 36.4843 119.107 36.5963 118.753 36.8203C118.407 37.035 118.141 37.343 117.955 37.7443C117.768 38.1456 117.675 38.617 117.675 39.1583C117.675 39.6903 117.777 40.1523 117.983 40.5443C118.188 40.927 118.473 41.2303 118.837 41.4543C119.201 41.669 119.611 41.7763 120.069 41.7763C120.554 41.7763 120.965 41.6596 121.301 41.4263C121.637 41.193 121.903 40.8896 122.099 40.5163L123.079 41.0063C122.901 41.3703 122.663 41.6876 122.365 41.9583C122.075 42.229 121.73 42.439 121.329 42.5883C120.937 42.7376 120.498 42.8123 120.013 42.8123ZM117.283 39.3543L117.297 38.3883H122.491V39.3543H117.283Z" fill="#676879"/>
<g clip-path="url(#clip1_12900_169989)">
<path d="M37.802 75.6443V65.8443H38.992V75.6443H37.802ZM43.9128 75.8123C43.2314 75.8123 42.7041 75.635 42.3308 75.2803C41.9574 74.9256 41.7708 74.4263 41.7708 73.7823V66.4603H42.8908V73.6703C42.8908 74.025 42.9841 74.3003 43.1708 74.4963C43.3668 74.683 43.6374 74.7763 43.9828 74.7763C44.0948 74.7763 44.2021 74.7623 44.3048 74.7343C44.4168 74.697 44.5614 74.613 44.7388 74.4823L45.1728 75.3923C44.9301 75.551 44.7108 75.6583 44.5148 75.7143C44.3188 75.7796 44.1181 75.8123 43.9128 75.8123ZM40.5528 69.6383V68.6443H44.9908V69.6383H40.5528ZM49.5968 75.8123C48.9154 75.8123 48.3134 75.6583 47.7908 75.3503C47.2681 75.033 46.8574 74.599 46.5588 74.0483C46.2694 73.4976 46.1248 72.863 46.1248 72.1443C46.1248 71.4256 46.2694 70.791 46.5588 70.2403C46.8574 69.6896 47.2634 69.2603 47.7768 68.9523C48.2994 68.635 48.8968 68.4763 49.5688 68.4763C50.2128 68.4763 50.7728 68.6396 51.2488 68.9663C51.7341 69.2836 52.1074 69.7316 52.3688 70.3103C52.6301 70.889 52.7608 71.5703 52.7608 72.3543H51.6408C51.6408 71.757 51.5614 71.2483 51.4028 70.8283C51.2441 70.399 51.0061 70.0676 50.6888 69.8343C50.3808 69.601 50.0028 69.4843 49.5548 69.4843C49.0974 69.4843 48.6914 69.5963 48.3368 69.8203C47.9914 70.035 47.7254 70.343 47.5388 70.7443C47.3521 71.1456 47.2588 71.617 47.2588 72.1583C47.2588 72.6903 47.3614 73.1523 47.5668 73.5443C47.7721 73.927 48.0568 74.2303 48.4208 74.4543C48.7848 74.669 49.1954 74.7763 49.6528 74.7763C50.1381 74.7763 50.5488 74.6596 50.8848 74.4263C51.2208 74.193 51.4868 73.8896 51.6828 73.5163L52.6628 74.0063C52.4854 74.3703 52.2474 74.6876 51.9488 74.9583C51.6594 75.229 51.3141 75.439 50.9128 75.5883C50.5208 75.7376 50.0821 75.8123 49.5968 75.8123ZM46.8668 72.3543L46.8808 71.3883H52.0748V72.3543H46.8668ZM54.1734 75.6443V68.6443H55.2234L55.2934 69.9323V75.6443H54.1734ZM59.0874 75.6443V72.0603L60.2074 71.6403V75.6443H59.0874ZM64.0154 75.6443V72.0603L65.1354 71.6403V75.6443H64.0154ZM59.0874 72.0603C59.0874 71.3696 59.008 70.8423 58.8494 70.4783C58.6907 70.1143 58.4714 69.867 58.1914 69.7363C57.9114 69.5963 57.594 69.5263 57.2394 69.5263C56.6234 69.5263 56.1427 69.7456 55.7974 70.1843C55.4614 70.6136 55.2934 71.225 55.2934 72.0183H54.7474C54.7474 71.281 54.8547 70.6463 55.0694 70.1143C55.284 69.5823 55.592 69.1763 55.9934 68.8963C56.404 68.6163 56.8987 68.4763 57.4774 68.4763C58.3267 68.4763 58.994 68.7376 59.4794 69.2603C59.974 69.783 60.2167 70.5763 60.2074 71.6403L59.0874 72.0603ZM64.0154 72.0603C64.0154 71.3696 63.9314 70.8423 63.7634 70.4783C63.6047 70.1143 63.3854 69.867 63.1054 69.7363C62.8254 69.5963 62.508 69.5263 62.1534 69.5263C61.5374 69.5263 61.0567 69.7456 60.7114 70.1843C60.3754 70.6136 60.2074 71.225 60.2074 72.0183H59.6614C59.6614 71.281 59.7687 70.6463 59.9834 70.1143C60.198 69.5823 60.5107 69.1763 60.9214 68.8963C61.332 68.6163 61.8267 68.4763 62.4054 68.4763C63.2454 68.4763 63.908 68.7376 64.3934 69.2603C64.888 69.783 65.1354 70.5763 65.1354 71.6403L64.0154 72.0603ZM72.4049 75.6443L72.4189 66.4743L72.5169 65.8443H73.5809L73.5529 75.6443H72.4049ZM70.2209 68.3643V67.2863C70.4169 67.2956 70.6502 67.2303 70.9209 67.0903C71.1915 66.9503 71.4715 66.7683 71.7609 66.5443C72.0502 66.3203 72.3022 66.087 72.5169 65.8443L73.2449 66.6423C72.9369 66.969 72.6149 67.263 72.2789 67.5243C71.9429 67.7856 71.6022 67.9956 71.2569 68.1543C70.9115 68.3036 70.5662 68.3736 70.2209 68.3643Z" fill="#323338"/>
</g>
<g clip-path="url(#clip2_12900_169989)">
<path d="M37.802 107.644V97.8443H38.992V107.644H37.802ZM43.9128 107.812C43.2314 107.812 42.7041 107.635 42.3308 107.28C41.9574 106.926 41.7708 106.426 41.7708 105.782V98.4603H42.8908V105.67C42.8908 106.025 42.9841 106.3 43.1708 106.496C43.3668 106.683 43.6374 106.776 43.9828 106.776C44.0948 106.776 44.2021 106.762 44.3048 106.734C44.4168 106.697 44.5614 106.613 44.7388 106.482L45.1728 107.392C44.9301 107.551 44.7108 107.658 44.5148 107.714C44.3188 107.78 44.1181 107.812 43.9128 107.812ZM40.5528 101.638V100.644H44.9908V101.638H40.5528ZM49.5968 107.812C48.9154 107.812 48.3134 107.658 47.7908 107.35C47.2681 107.033 46.8574 106.599 46.5588 106.048C46.2694 105.498 46.1248 104.863 46.1248 104.144C46.1248 103.426 46.2694 102.791 46.5588 102.24C46.8574 101.69 47.2634 101.26 47.7768 100.952C48.2994 100.635 48.8968 100.476 49.5688 100.476C50.2128 100.476 50.7728 100.64 51.2488 100.966C51.7341 101.284 52.1074 101.732 52.3688 102.31C52.6301 102.889 52.7608 103.57 52.7608 104.354H51.6408C51.6408 103.757 51.5614 103.248 51.4028 102.828C51.2441 102.399 51.0061 102.068 50.6888 101.834C50.3808 101.601 50.0028 101.484 49.5548 101.484C49.0974 101.484 48.6914 101.596 48.3368 101.82C47.9914 102.035 47.7254 102.343 47.5388 102.744C47.3521 103.146 47.2588 103.617 47.2588 104.158C47.2588 104.69 47.3614 105.152 47.5668 105.544C47.7721 105.927 48.0568 106.23 48.4208 106.454C48.7848 106.669 49.1954 106.776 49.6528 106.776C50.1381 106.776 50.5488 106.66 50.8848 106.426C51.2208 106.193 51.4868 105.89 51.6828 105.516L52.6628 106.006C52.4854 106.37 52.2474 106.688 51.9488 106.958C51.6594 107.229 51.3141 107.439 50.9128 107.588C50.5208 107.738 50.0821 107.812 49.5968 107.812ZM46.8668 104.354L46.8808 103.388H52.0748V104.354H46.8668ZM54.1734 107.644V100.644H55.2234L55.2934 101.932V107.644H54.1734ZM59.0874 107.644V104.06L60.2074 103.64V107.644H59.0874ZM64.0154 107.644V104.06L65.1354 103.64V107.644H64.0154ZM59.0874 104.06C59.0874 103.37 59.008 102.842 58.8494 102.478C58.6907 102.114 58.4714 101.867 58.1914 101.736C57.9114 101.596 57.594 101.526 57.2394 101.526C56.6234 101.526 56.1427 101.746 55.7974 102.184C55.4614 102.614 55.2934 103.225 55.2934 104.018H54.7474C54.7474 103.281 54.8547 102.646 55.0694 102.114C55.284 101.582 55.592 101.176 55.9934 100.896C56.404 100.616 56.8987 100.476 57.4774 100.476C58.3267 100.476 58.994 100.738 59.4794 101.26C59.974 101.783 60.2167 102.576 60.2074 103.64L59.0874 104.06ZM64.0154 104.06C64.0154 103.37 63.9314 102.842 63.7634 102.478C63.6047 102.114 63.3854 101.867 63.1054 101.736C62.8254 101.596 62.508 101.526 62.1534 101.526C61.5374 101.526 61.0567 101.746 60.7114 102.184C60.3754 102.614 60.2074 103.225 60.2074 104.018H59.6614C59.6614 103.281 59.7687 102.646 59.9834 102.114C60.198 101.582 60.5107 101.176 60.9214 100.896C61.332 100.616 61.8267 100.476 62.4054 100.476C63.2454 100.476 63.908 100.738 64.3934 101.26C64.888 101.783 65.1354 102.576 65.1354 103.64L64.0154 104.06ZM71.3549 106.958L70.1789 106.664C70.1789 106.356 70.2395 106.053 70.3609 105.754C70.4915 105.446 70.6735 105.143 70.9069 104.844C71.1495 104.546 71.4435 104.266 71.7889 104.004L73.8189 102.478C74.0615 102.31 74.2715 102.119 74.4489 101.904C74.6355 101.68 74.7802 101.452 74.8829 101.218C74.9855 100.976 75.0369 100.742 75.0369 100.518C75.0369 100.192 74.9575 99.8976 74.7989 99.6363C74.6402 99.3656 74.4162 99.151 74.1269 98.9923C73.8375 98.8336 73.4969 98.7543 73.1049 98.7543C72.7222 98.7543 72.3862 98.829 72.0969 98.9783C71.8075 99.1183 71.5695 99.3096 71.3829 99.5523C71.1962 99.7856 71.0609 100.038 70.9769 100.308L69.7729 100.07C69.8849 99.6503 70.0855 99.2583 70.3749 98.8943C70.6735 98.5303 71.0515 98.2363 71.5089 98.0123C71.9662 97.7883 72.4749 97.6763 73.0349 97.6763C73.6882 97.6763 74.2529 97.8023 74.7289 98.0543C75.2049 98.297 75.5735 98.633 75.8349 99.0623C76.1055 99.4823 76.2409 99.963 76.2409 100.504C76.2409 101.018 76.1009 101.503 75.8209 101.96C75.5409 102.418 75.1349 102.861 74.6029 103.29L72.6849 104.746C72.4142 104.942 72.1762 105.157 71.9709 105.39C71.7749 105.624 71.6209 105.871 71.5089 106.132C71.4062 106.384 71.3549 106.66 71.3549 106.958ZM70.1789 107.644V106.664L71.0749 106.594H76.3809V107.644H70.1789Z" fill="#323338"/>
</g>
<g clip-path="url(#clip3_12900_169989)">
<path d="M37.802 139.644V129.844H38.992V139.644H37.802ZM43.9128 139.812C43.2314 139.812 42.7041 139.635 42.3308 139.28C41.9574 138.926 41.7708 138.426 41.7708 137.782V130.46H42.8908V137.67C42.8908 138.025 42.9841 138.3 43.1708 138.496C43.3668 138.683 43.6374 138.776 43.9828 138.776C44.0948 138.776 44.2021 138.762 44.3048 138.734C44.4168 138.697 44.5614 138.613 44.7388 138.482L45.1728 139.392C44.9301 139.551 44.7108 139.658 44.5148 139.714C44.3188 139.78 44.1181 139.812 43.9128 139.812ZM40.5528 133.638V132.644H44.9908V133.638H40.5528ZM49.5968 139.812C48.9154 139.812 48.3134 139.658 47.7908 139.35C47.2681 139.033 46.8574 138.599 46.5588 138.048C46.2694 137.498 46.1248 136.863 46.1248 136.144C46.1248 135.426 46.2694 134.791 46.5588 134.24C46.8574 133.69 47.2634 133.26 47.7768 132.952C48.2994 132.635 48.8968 132.476 49.5688 132.476C50.2128 132.476 50.7728 132.64 51.2488 132.966C51.7341 133.284 52.1074 133.732 52.3688 134.31C52.6301 134.889 52.7608 135.57 52.7608 136.354H51.6408C51.6408 135.757 51.5614 135.248 51.4028 134.828C51.2441 134.399 51.0061 134.068 50.6888 133.834C50.3808 133.601 50.0028 133.484 49.5548 133.484C49.0974 133.484 48.6914 133.596 48.3368 133.82C47.9914 134.035 47.7254 134.343 47.5388 134.744C47.3521 135.146 47.2588 135.617 47.2588 136.158C47.2588 136.69 47.3614 137.152 47.5668 137.544C47.7721 137.927 48.0568 138.23 48.4208 138.454C48.7848 138.669 49.1954 138.776 49.6528 138.776C50.1381 138.776 50.5488 138.66 50.8848 138.426C51.2208 138.193 51.4868 137.89 51.6828 137.516L52.6628 138.006C52.4854 138.37 52.2474 138.688 51.9488 138.958C51.6594 139.229 51.3141 139.439 50.9128 139.588C50.5208 139.738 50.0821 139.812 49.5968 139.812ZM46.8668 136.354L46.8808 135.388H52.0748V136.354H46.8668ZM54.1734 139.644V132.644H55.2234L55.2934 133.932V139.644H54.1734ZM59.0874 139.644V136.06L60.2074 135.64V139.644H59.0874ZM64.0154 139.644V136.06L65.1354 135.64V139.644H64.0154ZM59.0874 136.06C59.0874 135.37 59.008 134.842 58.8494 134.478C58.6907 134.114 58.4714 133.867 58.1914 133.736C57.9114 133.596 57.594 133.526 57.2394 133.526C56.6234 133.526 56.1427 133.746 55.7974 134.184C55.4614 134.614 55.2934 135.225 55.2934 136.018H54.7474C54.7474 135.281 54.8547 134.646 55.0694 134.114C55.284 133.582 55.592 133.176 55.9934 132.896C56.404 132.616 56.8987 132.476 57.4774 132.476C58.3267 132.476 58.994 132.738 59.4794 133.26C59.974 133.783 60.2167 134.576 60.2074 135.64L59.0874 136.06ZM64.0154 136.06C64.0154 135.37 63.9314 134.842 63.7634 134.478C63.6047 134.114 63.3854 133.867 63.1054 133.736C62.8254 133.596 62.508 133.526 62.1534 133.526C61.5374 133.526 61.0567 133.746 60.7114 134.184C60.3754 134.614 60.2074 135.225 60.2074 136.018H59.6614C59.6614 135.281 59.7687 134.646 59.9834 134.114C60.198 133.582 60.5107 133.176 60.9214 132.896C61.332 132.616 61.8267 132.476 62.4054 132.476C63.2454 132.476 63.908 132.738 64.3934 133.26C64.888 133.783 65.1354 134.576 65.1354 135.64L64.0154 136.06ZM73.1469 139.812C72.6709 139.812 72.2369 139.742 71.8449 139.602C71.4622 139.453 71.1309 139.262 70.8509 139.028C70.5802 138.795 70.3655 138.548 70.2069 138.286L71.1869 137.74C71.2895 137.871 71.4155 138.02 71.5649 138.188C71.7235 138.347 71.9242 138.482 72.1669 138.594C72.4095 138.706 72.7082 138.762 73.0629 138.762C73.6975 138.762 74.2062 138.58 74.5889 138.216C74.9715 137.852 75.1629 137.395 75.1629 136.844C75.1629 136.424 75.0462 136.07 74.8129 135.78C74.5889 135.491 74.2622 135.272 73.8329 135.122C73.4035 134.973 72.8902 134.898 72.2929 134.898H72.0269V133.974H72.2649C72.8529 133.974 73.3942 134.04 73.8889 134.17C74.3835 134.301 74.8129 134.492 75.1769 134.744C75.5502 134.996 75.8349 135.304 76.0309 135.668C76.2362 136.032 76.3389 136.452 76.3389 136.928C76.3389 137.507 76.1942 138.016 75.9049 138.454C75.6249 138.884 75.2422 139.22 74.7569 139.462C74.2715 139.696 73.7349 139.812 73.1469 139.812ZM72.0269 134.8V133.89H72.2929C73.0955 133.89 73.7302 133.755 74.1969 133.484C74.6729 133.204 74.9109 132.808 74.9109 132.294C74.9109 132.014 74.8362 131.758 74.6869 131.524C74.5375 131.282 74.3182 131.09 74.0289 130.95C73.7489 130.801 73.4222 130.726 73.0489 130.726C72.7969 130.726 72.5589 130.764 72.3349 130.838C72.1202 130.904 71.9195 131.006 71.7329 131.146C71.5555 131.277 71.3922 131.445 71.2429 131.65L70.3189 131.118C70.4962 130.829 70.7202 130.577 70.9909 130.362C71.2709 130.148 71.5882 129.98 71.9429 129.858C72.2975 129.737 72.6849 129.676 73.1049 129.676C73.6742 129.676 74.1829 129.788 74.6309 130.012C75.0882 130.236 75.4475 130.544 75.7089 130.936C75.9702 131.319 76.1009 131.753 76.1009 132.238C76.1009 132.649 76.0029 133.013 75.8069 133.33C75.6109 133.648 75.3355 133.918 74.9809 134.142C74.6355 134.366 74.2295 134.534 73.7629 134.646C73.3055 134.749 72.8062 134.8 72.2649 134.8H72.0269Z" fill="#323338"/>
</g>
</g>
<defs>
<filter id="filter0_d_12900_169989" x="0.5" y="0.644287" width="280" height="184" filterUnits="userSpaceOnUse" color-interpolation-filters="sRGB">
<feFlood flood-opacity="0" result="BackgroundImageFix"/>
<feColorMatrix in="SourceAlpha" type="matrix" values="0 0 0 0 0 0 0 0 0 0 0 0 0 0 0 0 0 0 127 0" result="hardAlpha"/>
<feOffset dy="6"/>
<feGaussianBlur stdDeviation="10"/>
<feColorMatrix type="matrix" values="0 0 0 0 0 0 0 0 0 0 0 0 0 0 0 0 0 0 0.2 0"/>
<feBlend mode="normal" in2="BackgroundImageFix" result="effect1_dropShadow_12900_169989"/>
<feBlend mode="normal" in="SourceGraphic" in2="effect1_dropShadow_12900_169989" result="shape"/>
</filter>
<clipPath id="clip0_12900_169989">
<rect width="16" height="16" fill="white" transform="translate(36.5 30.6443)"/>
</clipPath>
<clipPath id="clip1_12900_169989">
<rect width="208" height="22" fill="white" transform="translate(36.5 59.6443)"/>
</clipPath>
<clipPath id="clip2_12900_169989">
<rect width="208" height="22" fill="white" transform="translate(36.5 91.6443)"/>
</clipPath>
<clipPath id="clip3_12900_169989">
<rect width="208" height="22" fill="white" transform="translate(36.5 123.644)"/>
</clipPath>
</defs>
</svg>
