<svg width="243" height="76" viewBox="0 0 243 76" fill="none" xmlns="http://www.w3.org/2000/svg">
<g filter="url(#filter0_d_12564_10643)">
<g clip-path="url(#clip0_12564_10643)">
<rect x="26" y="16" width="192" height="36" rx="4" fill="#323338"/>
<rect width="192" height="36" transform="translate(26 16)" fill="#323338"/>
<path d="M42.98 39V29.018H44.1V39H42.98ZM47.908 39V35.416L49.028 34.996V39H47.908ZM47.908 35.416C47.908 34.7253 47.824 34.198 47.656 33.834C47.4973 33.47 47.278 33.2227 46.998 33.092C46.718 32.952 46.4007 32.882 46.046 32.882C45.43 32.882 44.9493 33.1013 44.604 33.54C44.268 33.9693 44.1 34.5807 44.1 35.374H43.554C43.554 34.6367 43.6613 34.002 43.876 33.47C44.0907 32.938 44.4033 32.532 44.814 32.252C45.2247 31.972 45.7193 31.832 46.298 31.832C47.138 31.832 47.8053 32.0933 48.3 32.616C48.7947 33.1387 49.0373 33.932 49.028 34.996L47.908 35.416ZM53.4186 39.168C52.7373 39.168 52.21 38.9907 51.8366 38.636C51.4633 38.2813 51.2766 37.782 51.2766 37.138V29.816H52.3966V37.026C52.3966 37.3807 52.49 37.656 52.6766 37.852C52.8726 38.0387 53.1433 38.132 53.4886 38.132C53.6006 38.132 53.708 38.118 53.8106 38.09C53.9226 38.0527 54.0673 37.9687 54.2446 37.838L54.6786 38.748C54.436 38.9067 54.2166 39.014 54.0206 39.07C53.8246 39.1353 53.624 39.168 53.4186 39.168ZM50.0586 32.994V32H54.4966V32.994H50.0586ZM58.7097 39.168C58.0283 39.168 57.501 38.9907 57.1277 38.636C56.7543 38.2813 56.5677 37.782 56.5677 37.138V29.816H57.6877V37.026C57.6877 37.3807 57.781 37.656 57.9677 37.852C58.1637 38.0387 58.4343 38.132 58.7797 38.132C58.8917 38.132 58.999 38.118 59.1017 38.09C59.2137 38.0527 59.3583 37.9687 59.5357 37.838L59.9697 38.748C59.727 38.9067 59.5077 39.014 59.3117 39.07C59.1157 39.1353 58.915 39.168 58.7097 39.168ZM55.3497 32.994V32H59.7877V32.994H55.3497ZM61.4387 41.8V32H62.4887L62.5587 33.288V41.8H61.4387ZM64.9247 39.168C64.3367 39.168 63.8187 39.014 63.3707 38.706C62.932 38.398 62.5913 37.9687 62.3487 37.418C62.106 36.858 61.9847 36.2187 61.9847 35.5C61.9847 34.772 62.106 34.1327 62.3487 33.582C62.5913 33.0313 62.932 32.602 63.3707 32.294C63.8187 31.986 64.3367 31.832 64.9247 31.832C65.55 31.832 66.1007 31.986 66.5767 32.294C67.0527 32.602 67.4213 33.0313 67.6827 33.582C67.9533 34.1327 68.0887 34.772 68.0887 35.5C68.0887 36.2187 67.9533 36.858 67.6827 37.418C67.4213 37.9687 67.0527 38.398 66.5767 38.706C66.1007 39.014 65.55 39.168 64.9247 39.168ZM64.6727 38.146C65.1113 38.146 65.4987 38.034 65.8347 37.81C66.18 37.586 66.4507 37.2733 66.6467 36.872C66.852 36.4707 66.9547 36.0133 66.9547 35.5C66.9547 34.9867 66.8567 34.5293 66.6607 34.128C66.474 33.7267 66.208 33.414 65.8627 33.19C65.5173 32.966 65.1253 32.854 64.6867 32.854C64.276 32.854 63.9073 32.966 63.5807 33.19C63.2633 33.414 63.0113 33.7267 62.8247 34.128C62.6473 34.5293 62.5587 34.9867 62.5587 35.5C62.5587 36.0133 62.6473 36.4707 62.8247 36.872C63.0113 37.2733 63.2633 37.586 63.5807 37.81C63.898 38.034 64.262 38.146 64.6727 38.146ZM72.0902 39.168C71.5768 39.168 71.1288 39.0933 70.7462 38.944C70.3635 38.7853 70.0415 38.58 69.7802 38.328C69.5282 38.076 69.3462 37.8007 69.2342 37.502L70.2142 37.096C70.3728 37.4133 70.6108 37.67 70.9282 37.866C71.2455 38.062 71.5955 38.16 71.9782 38.16C72.4168 38.16 72.7855 38.076 73.0842 37.908C73.3828 37.7307 73.5322 37.4833 73.5322 37.166C73.5322 36.8767 73.4202 36.6433 73.1962 36.466C72.9815 36.2887 72.6595 36.144 72.2302 36.032L71.5582 35.85C70.9235 35.682 70.4288 35.43 70.0742 35.094C69.7195 34.7487 69.5422 34.3613 69.5422 33.932C69.5422 33.2693 69.7568 32.756 70.1862 32.392C70.6248 32.0187 71.2735 31.832 72.1322 31.832C72.5428 31.832 72.9162 31.8927 73.2522 32.014C73.5882 32.1353 73.8775 32.308 74.1202 32.532C74.3628 32.7467 74.5402 33.0033 74.6522 33.302L73.6722 33.736C73.5508 33.4187 73.3502 33.19 73.0702 33.05C72.7902 32.91 72.4495 32.84 72.0482 32.84C71.6188 32.84 71.2828 32.9333 71.0402 33.12C70.7975 33.2973 70.6762 33.5493 70.6762 33.876C70.6762 34.0627 70.7742 34.24 70.9702 34.408C71.1755 34.5667 71.4742 34.6973 71.8662 34.8L72.5662 34.982C73.0235 35.094 73.4062 35.262 73.7142 35.486C74.0222 35.7007 74.2555 35.948 74.4142 36.228C74.5728 36.508 74.6522 36.8067 74.6522 37.124C74.6522 37.544 74.5402 37.908 74.3162 38.216C74.0922 38.524 73.7888 38.762 73.4062 38.93C73.0235 39.0887 72.5848 39.168 72.0902 39.168ZM76.9456 33.526C76.731 33.526 76.5443 33.4513 76.3856 33.302C76.2363 33.1527 76.1616 32.9707 76.1616 32.756C76.1616 32.5413 76.2363 32.3593 76.3856 32.21C76.5443 32.0513 76.731 31.972 76.9456 31.972C77.151 31.972 77.3283 32.0513 77.4776 32.21C77.6363 32.3593 77.7156 32.5413 77.7156 32.756C77.7156 32.9707 77.6363 33.1527 77.4776 33.302C77.3283 33.4513 77.151 33.526 76.9456 33.526ZM76.9596 39.028C76.745 39.028 76.563 38.9533 76.4136 38.804C76.2643 38.6453 76.1896 38.4587 76.1896 38.244C76.1896 38.0293 76.2643 37.8473 76.4136 37.698C76.563 37.5487 76.745 37.474 76.9596 37.474C77.1743 37.474 77.3563 37.5487 77.5056 37.698C77.6643 37.8473 77.7436 38.0293 77.7436 38.244C77.7436 38.4587 77.6643 38.6453 77.5056 38.804C77.3563 38.9533 77.1743 39.028 76.9596 39.028ZM78.9327 40.176L82.7967 28.542H83.9587L80.1227 40.176H78.9327ZM84.3741 40.176L88.2381 28.542H89.4001L85.5641 40.176H84.3741ZM92.7275 39L95.5835 32H96.7595L93.8335 39H92.7275ZM92.6575 39L89.7315 32H90.8935L93.7495 39H92.6575ZM97.9289 39L97.9569 32H99.0769L99.0489 39H97.9289ZM98.5029 30.376C98.3162 30.376 98.1529 30.306 98.0129 30.166C97.8729 30.026 97.8029 29.8627 97.8029 29.676C97.8029 29.48 97.8729 29.3167 98.0129 29.186C98.1529 29.046 98.3162 28.976 98.5029 28.976C98.6989 28.976 98.8622 29.046 98.9929 29.186C99.1329 29.3167 99.2029 29.48 99.2029 29.676C99.2029 29.8627 99.1329 30.026 98.9929 30.166C98.8622 30.306 98.6989 30.376 98.5029 30.376ZM101.113 39V29.2H102.233V37.698L102.177 39H101.113ZM104.599 39.168C104.011 39.168 103.493 39.014 103.045 38.706C102.606 38.398 102.265 37.9687 102.023 37.418C101.78 36.858 101.659 36.2187 101.659 35.5C101.659 34.772 101.78 34.1327 102.023 33.582C102.265 33.0313 102.606 32.602 103.045 32.294C103.493 31.986 104.011 31.832 104.599 31.832C105.224 31.832 105.775 31.986 106.251 32.294C106.727 32.602 107.095 33.0313 107.357 33.582C107.627 34.1327 107.763 34.772 107.763 35.5C107.763 36.2187 107.627 36.858 107.357 37.418C107.095 37.9687 106.727 38.398 106.251 38.706C105.775 39.014 105.224 39.168 104.599 39.168ZM104.347 38.146C104.785 38.146 105.173 38.034 105.509 37.81C105.854 37.586 106.125 37.2733 106.321 36.872C106.526 36.4707 106.629 36.0133 106.629 35.5C106.629 34.9867 106.531 34.5293 106.335 34.128C106.148 33.7267 105.882 33.414 105.537 33.19C105.191 32.966 104.799 32.854 104.361 32.854C103.95 32.854 103.581 32.966 103.255 33.19C102.937 33.414 102.685 33.7267 102.499 34.128C102.321 34.5293 102.233 34.9867 102.233 35.5C102.233 36.0133 102.321 36.4707 102.499 36.872C102.685 37.2733 102.937 37.586 103.255 37.81C103.572 38.034 103.936 38.146 104.347 38.146ZM112.382 39.168C111.701 39.168 111.099 39.014 110.576 38.706C110.053 38.3887 109.643 37.9547 109.344 37.404C109.055 36.8533 108.91 36.2187 108.91 35.5C108.91 34.7813 109.055 34.1467 109.344 33.596C109.643 33.0453 110.049 32.616 110.562 32.308C111.085 31.9907 111.682 31.832 112.354 31.832C112.998 31.832 113.558 31.9953 114.034 32.322C114.519 32.6393 114.893 33.0873 115.154 33.666C115.415 34.2447 115.546 34.926 115.546 35.71H114.426C114.426 35.1127 114.347 34.604 114.188 34.184C114.029 33.7547 113.791 33.4233 113.474 33.19C113.166 32.9567 112.788 32.84 112.34 32.84C111.883 32.84 111.477 32.952 111.122 33.176C110.777 33.3907 110.511 33.6987 110.324 34.1C110.137 34.5013 110.044 34.9727 110.044 35.514C110.044 36.046 110.147 36.508 110.352 36.9C110.557 37.2827 110.842 37.586 111.206 37.81C111.57 38.0247 111.981 38.132 112.438 38.132C112.923 38.132 113.334 38.0153 113.67 37.782C114.006 37.5487 114.272 37.2453 114.468 36.872L115.448 37.362C115.271 37.726 115.033 38.0433 114.734 38.314C114.445 38.5847 114.099 38.7947 113.698 38.944C113.306 39.0933 112.867 39.168 112.382 39.168ZM109.652 35.71L109.666 34.744H114.86V35.71H109.652ZM117.435 39.196C117.22 39.196 117.033 39.1213 116.875 38.972C116.725 38.8133 116.651 38.6313 116.651 38.426C116.651 38.2113 116.725 38.0293 116.875 37.88C117.033 37.7213 117.22 37.642 117.435 37.642C117.649 37.642 117.831 37.7213 117.981 37.88C118.13 38.0293 118.205 38.2113 118.205 38.426C118.205 38.6313 118.13 38.8133 117.981 38.972C117.831 39.1213 117.649 39.196 117.435 39.196ZM119.871 39V32H120.921L120.991 33.288V39H119.871ZM124.785 39V35.416L125.905 34.996V39H124.785ZM129.713 39V35.416L130.833 34.996V39H129.713ZM124.785 35.416C124.785 34.7253 124.705 34.198 124.547 33.834C124.388 33.47 124.169 33.2227 123.889 33.092C123.609 32.952 123.291 32.882 122.937 32.882C122.321 32.882 121.84 33.1013 121.495 33.54C121.159 33.9693 120.991 34.5807 120.991 35.374H120.445C120.445 34.6367 120.552 34.002 120.767 33.47C120.981 32.938 121.289 32.532 121.691 32.252C122.101 31.972 122.596 31.832 123.175 31.832C124.024 31.832 124.691 32.0933 125.177 32.616C125.671 33.1387 125.914 33.932 125.905 34.996L124.785 35.416ZM129.713 35.416C129.713 34.7253 129.629 34.198 129.461 33.834C129.302 33.47 129.083 33.2227 128.803 33.092C128.523 32.952 128.205 32.882 127.851 32.882C127.235 32.882 126.754 33.1013 126.409 33.54C126.073 33.9693 125.905 34.5807 125.905 35.374H125.359C125.359 34.6367 125.466 34.002 125.681 33.47C125.895 32.938 126.208 32.532 126.619 32.252C127.029 31.972 127.524 31.832 128.103 31.832C128.943 31.832 129.605 32.0933 130.091 32.616C130.585 33.1387 130.833 33.932 130.833 34.996L129.713 35.416ZM135.693 39.168C135.012 39.168 134.405 39.014 133.873 38.706C133.35 38.3887 132.94 37.9547 132.641 37.404C132.342 36.8533 132.193 36.2187 132.193 35.5C132.193 34.7813 132.338 34.1467 132.627 33.596C132.926 33.0453 133.336 32.616 133.859 32.308C134.391 31.9907 134.993 31.832 135.665 31.832C136.356 31.832 136.962 31.9907 137.485 32.308C138.017 32.616 138.428 33.0453 138.717 33.596C139.016 34.1467 139.165 34.7813 139.165 35.5C139.165 36.2187 139.016 36.8533 138.717 37.404C138.428 37.9547 138.022 38.3887 137.499 38.706C136.976 39.014 136.374 39.168 135.693 39.168ZM135.693 38.132C136.16 38.132 136.566 38.02 136.911 37.796C137.256 37.572 137.527 37.264 137.723 36.872C137.928 36.48 138.031 36.0227 138.031 35.5C138.031 34.9773 137.928 34.52 137.723 34.128C137.527 33.736 137.252 33.428 136.897 33.204C136.542 32.98 136.132 32.868 135.665 32.868C135.208 32.868 134.802 32.98 134.447 33.204C134.102 33.428 133.826 33.736 133.621 34.128C133.425 34.52 133.327 34.9773 133.327 35.5C133.327 36.0133 133.425 36.4707 133.621 36.872C133.826 37.264 134.106 37.572 134.461 37.796C134.825 38.02 135.236 38.132 135.693 38.132ZM140.72 39V32H141.77L141.84 33.288V39H140.72ZM145.634 39V35.416L146.754 34.996V39H145.634ZM145.634 35.416C145.634 34.7253 145.555 34.198 145.396 33.834C145.238 33.47 145.018 33.2227 144.738 33.092C144.458 32.952 144.141 32.882 143.786 32.882C143.17 32.882 142.69 33.1013 142.344 33.54C142.008 33.9693 141.84 34.5807 141.84 35.374H141.294C141.294 34.6367 141.402 34.002 141.616 33.47C141.831 32.938 142.139 32.532 142.54 32.252C142.951 31.972 143.446 31.832 144.024 31.832C144.874 31.832 145.541 32.0933 146.026 32.616C146.521 33.1387 146.764 33.932 146.754 34.996L145.634 35.416ZM153.707 39L153.651 37.698V29.2H154.771V39H153.707ZM151.285 39.168C150.66 39.168 150.109 39.014 149.633 38.706C149.157 38.398 148.784 37.9687 148.513 37.418C148.252 36.858 148.121 36.2187 148.121 35.5C148.121 34.772 148.252 34.1327 148.513 33.582C148.784 33.0313 149.157 32.602 149.633 32.294C150.109 31.986 150.66 31.832 151.285 31.832C151.873 31.832 152.386 31.986 152.825 32.294C153.273 32.602 153.618 33.0313 153.861 33.582C154.104 34.1327 154.225 34.772 154.225 35.5C154.225 36.2187 154.104 36.858 153.861 37.418C153.618 37.9687 153.273 38.398 152.825 38.706C152.386 39.014 151.873 39.168 151.285 39.168ZM151.537 38.146C151.948 38.146 152.312 38.034 152.629 37.81C152.946 37.586 153.194 37.2733 153.371 36.872C153.558 36.4707 153.651 36.0133 153.651 35.5C153.651 34.9867 153.558 34.5293 153.371 34.128C153.194 33.7267 152.946 33.414 152.629 33.19C152.312 32.966 151.943 32.854 151.523 32.854C151.084 32.854 150.692 32.966 150.347 33.19C150.011 33.414 149.745 33.7267 149.549 34.128C149.353 34.5293 149.255 34.9867 149.255 35.5C149.255 36.0133 149.353 36.4707 149.549 36.872C149.745 37.2733 150.016 37.586 150.361 37.81C150.706 38.034 151.098 38.146 151.537 38.146ZM161.042 39L160.972 37.852V35.304C160.972 34.7533 160.907 34.3007 160.776 33.946C160.655 33.582 160.463 33.3113 160.202 33.134C159.95 32.9473 159.614 32.854 159.194 32.854C158.793 32.854 158.443 32.9333 158.144 33.092C157.855 33.2507 157.617 33.498 157.43 33.834L156.422 33.428C156.609 33.1013 156.833 32.8167 157.094 32.574C157.355 32.3313 157.659 32.1493 158.004 32.028C158.359 31.8973 158.76 31.832 159.208 31.832C159.852 31.832 160.389 31.958 160.818 32.21C161.247 32.462 161.569 32.84 161.784 33.344C161.999 33.8387 162.101 34.4593 162.092 35.206L162.078 39H161.042ZM158.942 39.168C158.121 39.168 157.477 38.9813 157.01 38.608C156.553 38.2253 156.324 37.698 156.324 37.026C156.324 36.3167 156.557 35.7753 157.024 35.402C157.5 35.0193 158.163 34.828 159.012 34.828H161.014V35.766H159.264C158.611 35.766 158.144 35.8733 157.864 36.088C157.593 36.3027 157.458 36.6107 157.458 37.012C157.458 37.376 157.593 37.6653 157.864 37.88C158.135 38.0853 158.513 38.188 158.998 38.188C159.399 38.188 159.749 38.0947 160.048 37.908C160.347 37.7213 160.575 37.4693 160.734 37.152C160.893 36.8253 160.972 36.4567 160.972 36.046H161.658C161.658 36.998 161.425 37.7587 160.958 38.328C160.491 38.888 159.819 39.168 158.942 39.168ZM164.387 41.968C164.21 41.968 164.005 41.9307 163.771 41.856C163.538 41.7907 163.291 41.702 163.029 41.59L163.449 40.652C163.664 40.7453 163.851 40.8153 164.009 40.862C164.177 40.9087 164.308 40.932 164.401 40.932C164.653 40.932 164.859 40.862 165.017 40.722C165.185 40.5913 165.325 40.4 165.437 40.148L166.235 38.244L168.825 32H170.029L166.669 39.98C166.492 40.3907 166.305 40.7453 166.109 41.044C165.923 41.3427 165.694 41.5713 165.423 41.73C165.153 41.8887 164.807 41.968 164.387 41.968ZM165.927 39L162.903 32H164.093L166.697 38.23L167.033 39H165.927ZM171.602 39.196C171.388 39.196 171.201 39.1213 171.042 38.972C170.893 38.8133 170.818 38.6313 170.818 38.426C170.818 38.2113 170.893 38.0293 171.042 37.88C171.201 37.7213 171.388 37.642 171.602 37.642C171.817 37.642 171.999 37.7213 172.148 37.88C172.298 38.0293 172.372 38.2113 172.372 38.426C172.372 38.6313 172.298 38.8133 172.148 38.972C171.999 39.1213 171.817 39.196 171.602 39.196ZM177.161 39.168C176.47 39.168 175.859 39.014 175.327 38.706C174.795 38.3887 174.379 37.9547 174.081 37.404C173.782 36.8533 173.633 36.2187 173.633 35.5C173.633 34.7813 173.777 34.1467 174.067 33.596C174.365 33.0453 174.781 32.616 175.313 32.308C175.845 31.9907 176.451 31.832 177.133 31.832C177.805 31.832 178.407 31.986 178.939 32.294C179.471 32.602 179.877 33.036 180.157 33.596L179.135 34.058C178.948 33.6847 178.677 33.3953 178.323 33.19C177.968 32.9753 177.562 32.868 177.105 32.868C176.647 32.868 176.241 32.98 175.887 33.204C175.541 33.428 175.266 33.7407 175.061 34.142C174.865 34.534 174.767 34.9867 174.767 35.5C174.767 36.0133 174.865 36.4707 175.061 36.872C175.266 37.264 175.546 37.572 175.901 37.796C176.265 38.02 176.675 38.132 177.133 38.132C177.59 38.132 177.996 38.0153 178.351 37.782C178.715 37.5487 178.99 37.222 179.177 36.802L180.199 37.264C179.919 37.8613 179.513 38.328 178.981 38.664C178.449 39 177.842 39.168 177.161 39.168ZM184.707 39.168C184.025 39.168 183.419 39.014 182.887 38.706C182.364 38.3887 181.953 37.9547 181.655 37.404C181.356 36.8533 181.207 36.2187 181.207 35.5C181.207 34.7813 181.351 34.1467 181.641 33.596C181.939 33.0453 182.35 32.616 182.873 32.308C183.405 31.9907 184.007 31.832 184.679 31.832C185.369 31.832 185.976 31.9907 186.499 32.308C187.031 32.616 187.441 33.0453 187.731 33.596C188.029 34.1467 188.179 34.7813 188.179 35.5C188.179 36.2187 188.029 36.8533 187.731 37.404C187.441 37.9547 187.035 38.3887 186.513 38.706C185.99 39.014 185.388 39.168 184.707 39.168ZM184.707 38.132C185.173 38.132 185.579 38.02 185.925 37.796C186.27 37.572 186.541 37.264 186.737 36.872C186.942 36.48 187.045 36.0227 187.045 35.5C187.045 34.9773 186.942 34.52 186.737 34.128C186.541 33.736 186.265 33.428 185.911 33.204C185.556 32.98 185.145 32.868 184.679 32.868C184.221 32.868 183.815 32.98 183.461 33.204C183.115 33.428 182.84 33.736 182.635 34.128C182.439 34.52 182.341 34.9773 182.341 35.5C182.341 36.0133 182.439 36.4707 182.635 36.872C182.84 37.264 183.12 37.572 183.475 37.796C183.839 38.02 184.249 38.132 184.707 38.132ZM189.734 39V32H190.784L190.854 33.288V39H189.734ZM194.648 39V35.416L195.768 34.996V39H194.648ZM199.576 39V35.416L200.696 34.996V39H199.576ZM194.648 35.416C194.648 34.7253 194.569 34.198 194.41 33.834C194.251 33.47 194.032 33.2227 193.752 33.092C193.472 32.952 193.155 32.882 192.8 32.882C192.184 32.882 191.703 33.1013 191.358 33.54C191.022 33.9693 190.854 34.5807 190.854 35.374H190.308C190.308 34.6367 190.415 34.002 190.63 33.47C190.845 32.938 191.153 32.532 191.554 32.252C191.965 31.972 192.459 31.832 193.038 31.832C193.887 31.832 194.555 32.0933 195.04 32.616C195.535 33.1387 195.777 33.932 195.768 34.996L194.648 35.416ZM199.576 35.416C199.576 34.7253 199.492 34.198 199.324 33.834C199.165 33.47 198.946 33.2227 198.666 33.092C198.386 32.952 198.069 32.882 197.714 32.882C197.098 32.882 196.617 33.1013 196.272 33.54C195.936 33.9693 195.768 34.5807 195.768 35.374H195.222C195.222 34.6367 195.329 34.002 195.544 33.47C195.759 32.938 196.071 32.532 196.482 32.252C196.893 31.972 197.387 31.832 197.966 31.832C198.806 31.832 199.469 32.0933 199.954 32.616C200.449 33.1387 200.696 33.932 200.696 34.996L199.576 35.416Z" fill="white"/>
<path d="M42 40.75H60.7375V41.45H42V40.75ZM63.2625 40.75H162.394V41.45H63.2625V40.75ZM166.989 40.75H201.48V41.45H166.989V40.75Z" fill="white"/>
</g>
<path fill-rule="evenodd" clip-rule="evenodd" d="M114 52H130L123.33 59.3919C122.595 60.2059 121.399 60.1995 120.67 59.3919L114 52Z" fill="#323338"/>
</g>
<g filter="url(#filter1_d_12564_10643)">
<path d="M215.923 62.0296C216.098 62.4505 215.93 64.0447 215 64.4142C214.07 64.7837 212.882 64.4142 212.882 64.4142L210.726 60.1024L207 63.8284V47L218.414 58.4142H214.162C214.37 58.8144 215.7 61.4948 215.923 62.0296Z" fill="white"/>
<path fill-rule="evenodd" clip-rule="evenodd" d="M208 49.4143V61.4143L211 58.4143L213.5 63.4143C213.5 63.4143 214.176 63.6301 214.5 63.4143C214.824 63.1985 215.146 62.7639 215 62.4143C214.312 60.7639 212.5 57.4143 212.5 57.4143H216L208 49.4143Z" fill="black"/>
</g>
<defs>
<filter id="filter0_d_12564_10643" x="18" y="12" width="208" height="60" filterUnits="userSpaceOnUse" color-interpolation-filters="sRGB">
<feFlood flood-opacity="0" result="BackgroundImageFix"/>
<feColorMatrix in="SourceAlpha" type="matrix" values="0 0 0 0 0 0 0 0 0 0 0 0 0 0 0 0 0 0 127 0" result="hardAlpha"/>
<feOffset dy="4"/>
<feGaussianBlur stdDeviation="4"/>
<feColorMatrix type="matrix" values="0 0 0 0 0 0 0 0 0 0 0 0 0 0 0 0 0 0 0.200691 0"/>
<feBlend mode="normal" in2="BackgroundImageFix" result="effect1_dropShadow_12564_10643"/>
<feBlend mode="normal" in="SourceGraphic" in2="effect1_dropShadow_12564_10643" result="shape"/>
</filter>
<filter id="filter1_d_12564_10643" x="205.2" y="46.2" width="15.0143" height="21.1784" filterUnits="userSpaceOnUse" color-interpolation-filters="sRGB">
<feFlood flood-opacity="0" result="BackgroundImageFix"/>
<feColorMatrix in="SourceAlpha" type="matrix" values="0 0 0 0 0 0 0 0 0 0 0 0 0 0 0 0 0 0 127 0" result="hardAlpha"/>
<feOffset dy="1"/>
<feGaussianBlur stdDeviation="0.9"/>
<feColorMatrix type="matrix" values="0 0 0 0 0 0 0 0 0 0 0 0 0 0 0 0 0 0 0.65 0"/>
<feBlend mode="normal" in2="BackgroundImageFix" result="effect1_dropShadow_12564_10643"/>
<feBlend mode="normal" in="SourceGraphic" in2="effect1_dropShadow_12564_10643" result="shape"/>
</filter>
<clipPath id="clip0_12564_10643">
<rect x="26" y="16" width="192" height="36" rx="4" fill="white"/>
</clipPath>
</defs>
</svg>
