<svg width="243" height="76" viewBox="0 0 243 76" fill="none" xmlns="http://www.w3.org/2000/svg">
<g filter="url(#filter0_d_12564_10646)">
<g clip-path="url(#clip0_12564_10646)">
<rect x="25.5" y="15" width="192" height="36" rx="4" fill="#323338"/>
<rect width="192" height="36" transform="translate(25.5 15)" fill="#323338"/>
<path d="M42.48 38V28.018H43.6V38H42.48ZM47.408 38V34.416L48.528 33.996V38H47.408ZM47.408 34.416C47.408 33.7253 47.324 33.198 47.156 32.834C46.9973 32.47 46.778 32.2227 46.498 32.092C46.218 31.952 45.9007 31.882 45.546 31.882C44.93 31.882 44.4493 32.1013 44.104 32.54C43.768 32.9693 43.6 33.5807 43.6 34.374H43.054C43.054 33.6367 43.1613 33.002 43.376 32.47C43.5907 31.938 43.9033 31.532 44.314 31.252C44.7247 30.972 45.2193 30.832 45.798 30.832C46.638 30.832 47.3053 31.0933 47.8 31.616C48.2947 32.1387 48.5373 32.932 48.528 33.996L47.408 34.416ZM52.9186 38.168C52.2373 38.168 51.71 37.9907 51.3366 37.636C50.9633 37.2813 50.7766 36.782 50.7766 36.138V28.816H51.8966V36.026C51.8966 36.3807 51.99 36.656 52.1766 36.852C52.3726 37.0387 52.6433 37.132 52.9886 37.132C53.1006 37.132 53.208 37.118 53.3106 37.09C53.4226 37.0527 53.5673 36.9687 53.7446 36.838L54.1786 37.748C53.936 37.9067 53.7166 38.014 53.5206 38.07C53.3246 38.1353 53.124 38.168 52.9186 38.168ZM49.5586 31.994V31H53.9966V31.994H49.5586ZM58.2097 38.168C57.5283 38.168 57.001 37.9907 56.6277 37.636C56.2543 37.2813 56.0677 36.782 56.0677 36.138V28.816H57.1877V36.026C57.1877 36.3807 57.281 36.656 57.4677 36.852C57.6637 37.0387 57.9343 37.132 58.2797 37.132C58.3917 37.132 58.499 37.118 58.6017 37.09C58.7137 37.0527 58.8583 36.9687 59.0357 36.838L59.4697 37.748C59.227 37.9067 59.0077 38.014 58.8117 38.07C58.6157 38.1353 58.415 38.168 58.2097 38.168ZM54.8497 31.994V31H59.2877V31.994H54.8497ZM60.9387 40.8V31H61.9887L62.0587 32.288V40.8H60.9387ZM64.4247 38.168C63.8367 38.168 63.3187 38.014 62.8707 37.706C62.432 37.398 62.0913 36.9687 61.8487 36.418C61.606 35.858 61.4847 35.2187 61.4847 34.5C61.4847 33.772 61.606 33.1327 61.8487 32.582C62.0913 32.0313 62.432 31.602 62.8707 31.294C63.3187 30.986 63.8367 30.832 64.4247 30.832C65.05 30.832 65.6007 30.986 66.0767 31.294C66.5527 31.602 66.9213 32.0313 67.1827 32.582C67.4533 33.1327 67.5887 33.772 67.5887 34.5C67.5887 35.2187 67.4533 35.858 67.1827 36.418C66.9213 36.9687 66.5527 37.398 66.0767 37.706C65.6007 38.014 65.05 38.168 64.4247 38.168ZM64.1727 37.146C64.6113 37.146 64.9987 37.034 65.3347 36.81C65.68 36.586 65.9507 36.2733 66.1467 35.872C66.352 35.4707 66.4547 35.0133 66.4547 34.5C66.4547 33.9867 66.3567 33.5293 66.1607 33.128C65.974 32.7267 65.708 32.414 65.3627 32.19C65.0173 31.966 64.6253 31.854 64.1867 31.854C63.776 31.854 63.4073 31.966 63.0807 32.19C62.7633 32.414 62.5113 32.7267 62.3247 33.128C62.1473 33.5293 62.0587 33.9867 62.0587 34.5C62.0587 35.0133 62.1473 35.4707 62.3247 35.872C62.5113 36.2733 62.7633 36.586 63.0807 36.81C63.398 37.034 63.762 37.146 64.1727 37.146ZM71.5902 38.168C71.0768 38.168 70.6288 38.0933 70.2462 37.944C69.8635 37.7853 69.5415 37.58 69.2802 37.328C69.0282 37.076 68.8462 36.8007 68.7342 36.502L69.7142 36.096C69.8728 36.4133 70.1108 36.67 70.4282 36.866C70.7455 37.062 71.0955 37.16 71.4782 37.16C71.9168 37.16 72.2855 37.076 72.5842 36.908C72.8828 36.7307 73.0322 36.4833 73.0322 36.166C73.0322 35.8767 72.9202 35.6433 72.6962 35.466C72.4815 35.2887 72.1595 35.144 71.7302 35.032L71.0582 34.85C70.4235 34.682 69.9288 34.43 69.5742 34.094C69.2195 33.7487 69.0422 33.3613 69.0422 32.932C69.0422 32.2693 69.2568 31.756 69.6862 31.392C70.1248 31.0187 70.7735 30.832 71.6322 30.832C72.0428 30.832 72.4162 30.8927 72.7522 31.014C73.0882 31.1353 73.3775 31.308 73.6202 31.532C73.8628 31.7467 74.0402 32.0033 74.1522 32.302L73.1722 32.736C73.0508 32.4187 72.8502 32.19 72.5702 32.05C72.2902 31.91 71.9495 31.84 71.5482 31.84C71.1188 31.84 70.7828 31.9333 70.5402 32.12C70.2975 32.2973 70.1762 32.5493 70.1762 32.876C70.1762 33.0627 70.2742 33.24 70.4702 33.408C70.6755 33.5667 70.9742 33.6973 71.3662 33.8L72.0662 33.982C72.5235 34.094 72.9062 34.262 73.2142 34.486C73.5222 34.7007 73.7555 34.948 73.9142 35.228C74.0728 35.508 74.1522 35.8067 74.1522 36.124C74.1522 36.544 74.0402 36.908 73.8162 37.216C73.5922 37.524 73.2888 37.762 72.9062 37.93C72.5235 38.0887 72.0848 38.168 71.5902 38.168ZM76.4456 32.526C76.231 32.526 76.0443 32.4513 75.8856 32.302C75.7363 32.1527 75.6616 31.9707 75.6616 31.756C75.6616 31.5413 75.7363 31.3593 75.8856 31.21C76.0443 31.0513 76.231 30.972 76.4456 30.972C76.651 30.972 76.8283 31.0513 76.9776 31.21C77.1363 31.3593 77.2156 31.5413 77.2156 31.756C77.2156 31.9707 77.1363 32.1527 76.9776 32.302C76.8283 32.4513 76.651 32.526 76.4456 32.526ZM76.4596 38.028C76.245 38.028 76.063 37.9533 75.9136 37.804C75.7643 37.6453 75.6896 37.4587 75.6896 37.244C75.6896 37.0293 75.7643 36.8473 75.9136 36.698C76.063 36.5487 76.245 36.474 76.4596 36.474C76.6743 36.474 76.8563 36.5487 77.0056 36.698C77.1643 36.8473 77.2436 37.0293 77.2436 37.244C77.2436 37.4587 77.1643 37.6453 77.0056 37.804C76.8563 37.9533 76.6743 38.028 76.4596 38.028ZM78.4327 39.176L82.2967 27.542H83.4587L79.6227 39.176H78.4327ZM83.8741 39.176L87.7381 27.542H88.9001L85.0641 39.176H83.8741ZM92.2275 38L95.0835 31H96.2595L93.3335 38H92.2275ZM92.1575 38L89.2315 31H90.3935L93.2495 38H92.1575ZM97.4289 38L97.4569 31H98.5769L98.5489 38H97.4289ZM98.0029 29.376C97.8162 29.376 97.6529 29.306 97.5129 29.166C97.3729 29.026 97.3029 28.8627 97.3029 28.676C97.3029 28.48 97.3729 28.3167 97.5129 28.186C97.6529 28.046 97.8162 27.976 98.0029 27.976C98.1989 27.976 98.3622 28.046 98.4929 28.186C98.6329 28.3167 98.7029 28.48 98.7029 28.676C98.7029 28.8627 98.6329 29.026 98.4929 29.166C98.3622 29.306 98.1989 29.376 98.0029 29.376ZM100.613 38V28.2H101.733V36.698L101.677 38H100.613ZM104.099 38.168C103.511 38.168 102.993 38.014 102.545 37.706C102.106 37.398 101.765 36.9687 101.523 36.418C101.28 35.858 101.159 35.2187 101.159 34.5C101.159 33.772 101.28 33.1327 101.523 32.582C101.765 32.0313 102.106 31.602 102.545 31.294C102.993 30.986 103.511 30.832 104.099 30.832C104.724 30.832 105.275 30.986 105.751 31.294C106.227 31.602 106.595 32.0313 106.857 32.582C107.127 33.1327 107.263 33.772 107.263 34.5C107.263 35.2187 107.127 35.858 106.857 36.418C106.595 36.9687 106.227 37.398 105.751 37.706C105.275 38.014 104.724 38.168 104.099 38.168ZM103.847 37.146C104.285 37.146 104.673 37.034 105.009 36.81C105.354 36.586 105.625 36.2733 105.821 35.872C106.026 35.4707 106.129 35.0133 106.129 34.5C106.129 33.9867 106.031 33.5293 105.835 33.128C105.648 32.7267 105.382 32.414 105.037 32.19C104.691 31.966 104.299 31.854 103.861 31.854C103.45 31.854 103.081 31.966 102.755 32.19C102.437 32.414 102.185 32.7267 101.999 33.128C101.821 33.5293 101.733 33.9867 101.733 34.5C101.733 35.0133 101.821 35.4707 101.999 35.872C102.185 36.2733 102.437 36.586 102.755 36.81C103.072 37.034 103.436 37.146 103.847 37.146ZM111.882 38.168C111.201 38.168 110.599 38.014 110.076 37.706C109.553 37.3887 109.143 36.9547 108.844 36.404C108.555 35.8533 108.41 35.2187 108.41 34.5C108.41 33.7813 108.555 33.1467 108.844 32.596C109.143 32.0453 109.549 31.616 110.062 31.308C110.585 30.9907 111.182 30.832 111.854 30.832C112.498 30.832 113.058 30.9953 113.534 31.322C114.019 31.6393 114.393 32.0873 114.654 32.666C114.915 33.2447 115.046 33.926 115.046 34.71H113.926C113.926 34.1127 113.847 33.604 113.688 33.184C113.529 32.7547 113.291 32.4233 112.974 32.19C112.666 31.9567 112.288 31.84 111.84 31.84C111.383 31.84 110.977 31.952 110.622 32.176C110.277 32.3907 110.011 32.6987 109.824 33.1C109.637 33.5013 109.544 33.9727 109.544 34.514C109.544 35.046 109.647 35.508 109.852 35.9C110.057 36.2827 110.342 36.586 110.706 36.81C111.07 37.0247 111.481 37.132 111.938 37.132C112.423 37.132 112.834 37.0153 113.17 36.782C113.506 36.5487 113.772 36.2453 113.968 35.872L114.948 36.362C114.771 36.726 114.533 37.0433 114.234 37.314C113.945 37.5847 113.599 37.7947 113.198 37.944C112.806 38.0933 112.367 38.168 111.882 38.168ZM109.152 34.71L109.166 33.744H114.36V34.71H109.152ZM116.935 38.196C116.72 38.196 116.533 38.1213 116.375 37.972C116.225 37.8133 116.151 37.6313 116.151 37.426C116.151 37.2113 116.225 37.0293 116.375 36.88C116.533 36.7213 116.72 36.642 116.935 36.642C117.149 36.642 117.331 36.7213 117.481 36.88C117.63 37.0293 117.705 37.2113 117.705 37.426C117.705 37.6313 117.63 37.8133 117.481 37.972C117.331 38.1213 117.149 38.196 116.935 38.196ZM119.371 38V31H120.421L120.491 32.288V38H119.371ZM124.285 38V34.416L125.405 33.996V38H124.285ZM129.213 38V34.416L130.333 33.996V38H129.213ZM124.285 34.416C124.285 33.7253 124.205 33.198 124.047 32.834C123.888 32.47 123.669 32.2227 123.389 32.092C123.109 31.952 122.791 31.882 122.437 31.882C121.821 31.882 121.34 32.1013 120.995 32.54C120.659 32.9693 120.491 33.5807 120.491 34.374H119.945C119.945 33.6367 120.052 33.002 120.267 32.47C120.481 31.938 120.789 31.532 121.191 31.252C121.601 30.972 122.096 30.832 122.675 30.832C123.524 30.832 124.191 31.0933 124.677 31.616C125.171 32.1387 125.414 32.932 125.405 33.996L124.285 34.416ZM129.213 34.416C129.213 33.7253 129.129 33.198 128.961 32.834C128.802 32.47 128.583 32.2227 128.303 32.092C128.023 31.952 127.705 31.882 127.351 31.882C126.735 31.882 126.254 32.1013 125.909 32.54C125.573 32.9693 125.405 33.5807 125.405 34.374H124.859C124.859 33.6367 124.966 33.002 125.181 32.47C125.395 31.938 125.708 31.532 126.119 31.252C126.529 30.972 127.024 30.832 127.603 30.832C128.443 30.832 129.105 31.0933 129.591 31.616C130.085 32.1387 130.333 32.932 130.333 33.996L129.213 34.416ZM135.193 38.168C134.512 38.168 133.905 38.014 133.373 37.706C132.85 37.3887 132.44 36.9547 132.141 36.404C131.842 35.8533 131.693 35.2187 131.693 34.5C131.693 33.7813 131.838 33.1467 132.127 32.596C132.426 32.0453 132.836 31.616 133.359 31.308C133.891 30.9907 134.493 30.832 135.165 30.832C135.856 30.832 136.462 30.9907 136.985 31.308C137.517 31.616 137.928 32.0453 138.217 32.596C138.516 33.1467 138.665 33.7813 138.665 34.5C138.665 35.2187 138.516 35.8533 138.217 36.404C137.928 36.9547 137.522 37.3887 136.999 37.706C136.476 38.014 135.874 38.168 135.193 38.168ZM135.193 37.132C135.66 37.132 136.066 37.02 136.411 36.796C136.756 36.572 137.027 36.264 137.223 35.872C137.428 35.48 137.531 35.0227 137.531 34.5C137.531 33.9773 137.428 33.52 137.223 33.128C137.027 32.736 136.752 32.428 136.397 32.204C136.042 31.98 135.632 31.868 135.165 31.868C134.708 31.868 134.302 31.98 133.947 32.204C133.602 32.428 133.326 32.736 133.121 33.128C132.925 33.52 132.827 33.9773 132.827 34.5C132.827 35.0133 132.925 35.4707 133.121 35.872C133.326 36.264 133.606 36.572 133.961 36.796C134.325 37.02 134.736 37.132 135.193 37.132ZM140.22 38V31H141.27L141.34 32.288V38H140.22ZM145.134 38V34.416L146.254 33.996V38H145.134ZM145.134 34.416C145.134 33.7253 145.055 33.198 144.896 32.834C144.738 32.47 144.518 32.2227 144.238 32.092C143.958 31.952 143.641 31.882 143.286 31.882C142.67 31.882 142.19 32.1013 141.844 32.54C141.508 32.9693 141.34 33.5807 141.34 34.374H140.794C140.794 33.6367 140.902 33.002 141.116 32.47C141.331 31.938 141.639 31.532 142.04 31.252C142.451 30.972 142.946 30.832 143.524 30.832C144.374 30.832 145.041 31.0933 145.526 31.616C146.021 32.1387 146.264 32.932 146.254 33.996L145.134 34.416ZM153.207 38L153.151 36.698V28.2H154.271V38H153.207ZM150.785 38.168C150.16 38.168 149.609 38.014 149.133 37.706C148.657 37.398 148.284 36.9687 148.013 36.418C147.752 35.858 147.621 35.2187 147.621 34.5C147.621 33.772 147.752 33.1327 148.013 32.582C148.284 32.0313 148.657 31.602 149.133 31.294C149.609 30.986 150.16 30.832 150.785 30.832C151.373 30.832 151.886 30.986 152.325 31.294C152.773 31.602 153.118 32.0313 153.361 32.582C153.604 33.1327 153.725 33.772 153.725 34.5C153.725 35.2187 153.604 35.858 153.361 36.418C153.118 36.9687 152.773 37.398 152.325 37.706C151.886 38.014 151.373 38.168 150.785 38.168ZM151.037 37.146C151.448 37.146 151.812 37.034 152.129 36.81C152.446 36.586 152.694 36.2733 152.871 35.872C153.058 35.4707 153.151 35.0133 153.151 34.5C153.151 33.9867 153.058 33.5293 152.871 33.128C152.694 32.7267 152.446 32.414 152.129 32.19C151.812 31.966 151.443 31.854 151.023 31.854C150.584 31.854 150.192 31.966 149.847 32.19C149.511 32.414 149.245 32.7267 149.049 33.128C148.853 33.5293 148.755 33.9867 148.755 34.5C148.755 35.0133 148.853 35.4707 149.049 35.872C149.245 36.2733 149.516 36.586 149.861 36.81C150.206 37.034 150.598 37.146 151.037 37.146ZM160.542 38L160.472 36.852V34.304C160.472 33.7533 160.407 33.3007 160.276 32.946C160.155 32.582 159.963 32.3113 159.702 32.134C159.45 31.9473 159.114 31.854 158.694 31.854C158.293 31.854 157.943 31.9333 157.644 32.092C157.355 32.2507 157.117 32.498 156.93 32.834L155.922 32.428C156.109 32.1013 156.333 31.8167 156.594 31.574C156.855 31.3313 157.159 31.1493 157.504 31.028C157.859 30.8973 158.26 30.832 158.708 30.832C159.352 30.832 159.889 30.958 160.318 31.21C160.747 31.462 161.069 31.84 161.284 32.344C161.499 32.8387 161.601 33.4593 161.592 34.206L161.578 38H160.542ZM158.442 38.168C157.621 38.168 156.977 37.9813 156.51 37.608C156.053 37.2253 155.824 36.698 155.824 36.026C155.824 35.3167 156.057 34.7753 156.524 34.402C157 34.0193 157.663 33.828 158.512 33.828H160.514V34.766H158.764C158.111 34.766 157.644 34.8733 157.364 35.088C157.093 35.3027 156.958 35.6107 156.958 36.012C156.958 36.376 157.093 36.6653 157.364 36.88C157.635 37.0853 158.013 37.188 158.498 37.188C158.899 37.188 159.249 37.0947 159.548 36.908C159.847 36.7213 160.075 36.4693 160.234 36.152C160.393 35.8253 160.472 35.4567 160.472 35.046H161.158C161.158 35.998 160.925 36.7587 160.458 37.328C159.991 37.888 159.319 38.168 158.442 38.168ZM163.887 40.968C163.71 40.968 163.505 40.9307 163.271 40.856C163.038 40.7907 162.791 40.702 162.529 40.59L162.949 39.652C163.164 39.7453 163.351 39.8153 163.509 39.862C163.677 39.9087 163.808 39.932 163.901 39.932C164.153 39.932 164.359 39.862 164.517 39.722C164.685 39.5913 164.825 39.4 164.937 39.148L165.735 37.244L168.325 31H169.529L166.169 38.98C165.992 39.3907 165.805 39.7453 165.609 40.044C165.423 40.3427 165.194 40.5713 164.923 40.73C164.653 40.8887 164.307 40.968 163.887 40.968ZM165.427 38L162.403 31H163.593L166.197 37.23L166.533 38H165.427ZM171.102 38.196C170.888 38.196 170.701 38.1213 170.542 37.972C170.393 37.8133 170.318 37.6313 170.318 37.426C170.318 37.2113 170.393 37.0293 170.542 36.88C170.701 36.7213 170.888 36.642 171.102 36.642C171.317 36.642 171.499 36.7213 171.648 36.88C171.798 37.0293 171.872 37.2113 171.872 37.426C171.872 37.6313 171.798 37.8133 171.648 37.972C171.499 38.1213 171.317 38.196 171.102 38.196ZM176.661 38.168C175.97 38.168 175.359 38.014 174.827 37.706C174.295 37.3887 173.879 36.9547 173.581 36.404C173.282 35.8533 173.133 35.2187 173.133 34.5C173.133 33.7813 173.277 33.1467 173.567 32.596C173.865 32.0453 174.281 31.616 174.813 31.308C175.345 30.9907 175.951 30.832 176.633 30.832C177.305 30.832 177.907 30.986 178.439 31.294C178.971 31.602 179.377 32.036 179.657 32.596L178.635 33.058C178.448 32.6847 178.177 32.3953 177.823 32.19C177.468 31.9753 177.062 31.868 176.605 31.868C176.147 31.868 175.741 31.98 175.387 32.204C175.041 32.428 174.766 32.7407 174.561 33.142C174.365 33.534 174.267 33.9867 174.267 34.5C174.267 35.0133 174.365 35.4707 174.561 35.872C174.766 36.264 175.046 36.572 175.401 36.796C175.765 37.02 176.175 37.132 176.633 37.132C177.09 37.132 177.496 37.0153 177.851 36.782C178.215 36.5487 178.49 36.222 178.677 35.802L179.699 36.264C179.419 36.8613 179.013 37.328 178.481 37.664C177.949 38 177.342 38.168 176.661 38.168ZM184.207 38.168C183.525 38.168 182.919 38.014 182.387 37.706C181.864 37.3887 181.453 36.9547 181.155 36.404C180.856 35.8533 180.707 35.2187 180.707 34.5C180.707 33.7813 180.851 33.1467 181.141 32.596C181.439 32.0453 181.85 31.616 182.373 31.308C182.905 30.9907 183.507 30.832 184.179 30.832C184.869 30.832 185.476 30.9907 185.999 31.308C186.531 31.616 186.941 32.0453 187.231 32.596C187.529 33.1467 187.679 33.7813 187.679 34.5C187.679 35.2187 187.529 35.8533 187.231 36.404C186.941 36.9547 186.535 37.3887 186.013 37.706C185.49 38.014 184.888 38.168 184.207 38.168ZM184.207 37.132C184.673 37.132 185.079 37.02 185.425 36.796C185.77 36.572 186.041 36.264 186.237 35.872C186.442 35.48 186.545 35.0227 186.545 34.5C186.545 33.9773 186.442 33.52 186.237 33.128C186.041 32.736 185.765 32.428 185.411 32.204C185.056 31.98 184.645 31.868 184.179 31.868C183.721 31.868 183.315 31.98 182.961 32.204C182.615 32.428 182.34 32.736 182.135 33.128C181.939 33.52 181.841 33.9773 181.841 34.5C181.841 35.0133 181.939 35.4707 182.135 35.872C182.34 36.264 182.62 36.572 182.975 36.796C183.339 37.02 183.749 37.132 184.207 37.132ZM189.234 38V31H190.284L190.354 32.288V38H189.234ZM194.148 38V34.416L195.268 33.996V38H194.148ZM199.076 38V34.416L200.196 33.996V38H199.076ZM194.148 34.416C194.148 33.7253 194.069 33.198 193.91 32.834C193.751 32.47 193.532 32.2227 193.252 32.092C192.972 31.952 192.655 31.882 192.3 31.882C191.684 31.882 191.203 32.1013 190.858 32.54C190.522 32.9693 190.354 33.5807 190.354 34.374H189.808C189.808 33.6367 189.915 33.002 190.13 32.47C190.345 31.938 190.653 31.532 191.054 31.252C191.465 30.972 191.959 30.832 192.538 30.832C193.387 30.832 194.055 31.0933 194.54 31.616C195.035 32.1387 195.277 32.932 195.268 33.996L194.148 34.416ZM199.076 34.416C199.076 33.7253 198.992 33.198 198.824 32.834C198.665 32.47 198.446 32.2227 198.166 32.092C197.886 31.952 197.569 31.882 197.214 31.882C196.598 31.882 196.117 32.1013 195.772 32.54C195.436 32.9693 195.268 33.5807 195.268 34.374H194.722C194.722 33.6367 194.829 33.002 195.044 32.47C195.259 31.938 195.571 31.532 195.982 31.252C196.393 30.972 196.887 30.832 197.466 30.832C198.306 30.832 198.969 31.0933 199.454 31.616C199.949 32.1387 200.196 32.932 200.196 33.996L199.076 34.416Z" fill="white"/>
<path d="M41.5 39.75H60.2375V40.45H41.5V39.75ZM62.7625 39.75H161.894V40.45H62.7625V39.75ZM166.489 39.75H200.98V40.45H166.489V39.75Z" fill="white"/>
</g>
<path fill-rule="evenodd" clip-rule="evenodd" d="M114 51H130L123.33 58.3919C122.595 59.2059 121.399 59.1995 120.67 58.3919L114 51Z" fill="#323338"/>
</g>
<g filter="url(#filter1_d_12564_10646)">
<path d="M162.27 47.2799C161.99 46.9199 161.64 46.1899 161.03 45.2799C160.68 44.7799 159.82 43.8299 159.56 43.3399C159.373 43.0422 159.318 42.6796 159.41 42.3399C159.567 41.6941 160.18 41.2657 160.84 41.3399C161.351 41.4425 161.82 41.6929 162.19 42.0599C162.448 42.3031 162.686 42.5673 162.9 42.8499C163.06 43.0499 163.1 43.1299 163.28 43.3599C163.46 43.5899 163.58 43.8199 163.49 43.4799C163.42 42.9799 163.3 42.1399 163.13 41.3899C163 40.8199 162.97 40.7299 162.85 40.2999C162.73 39.8699 162.66 39.5099 162.53 39.0199C162.411 38.5385 162.318 38.0512 162.25 37.5599C162.124 36.9316 162.216 36.2791 162.51 35.7099C162.86 35.3813 163.372 35.2946 163.81 35.4899C164.251 35.8153 164.579 36.2696 164.75 36.7899C165.012 37.4303 165.187 38.103 165.27 38.7899C165.43 39.7899 165.74 41.2499 165.75 41.5499C165.75 41.1799 165.68 40.3999 165.75 40.0499C165.819 39.6851 166.073 39.3822 166.42 39.2499C166.718 39.1586 167.033 39.138 167.34 39.1899C167.65 39.2547 167.925 39.4331 168.11 39.6899C168.342 40.2733 168.47 40.8925 168.49 41.5199C168.517 40.9705 168.611 40.4265 168.77 39.8999C168.937 39.6645 169.181 39.4947 169.46 39.4199C169.791 39.3595 170.13 39.3595 170.46 39.4199C170.731 39.5106 170.968 39.6814 171.14 39.9099C171.352 40.4403 171.48 41.0003 171.52 41.5699C171.52 41.7099 171.59 41.1799 171.81 40.8299C171.924 40.4905 172.211 40.2379 172.562 40.1672C172.913 40.0965 173.275 40.2185 173.512 40.4872C173.749 40.7559 173.824 41.1305 173.71 41.4699C173.71 42.1199 173.71 42.0899 173.71 42.5299C173.71 42.9699 173.71 43.3599 173.71 43.7299C173.674 44.3151 173.593 44.8967 173.47 45.4699C173.296 45.977 173.054 46.4581 172.75 46.8999C172.265 47.4399 171.863 48.0501 171.56 48.7099C171.485 49.0377 171.451 49.3737 171.46 49.7099C171.459 50.0206 171.499 50.3299 171.58 50.6299C171.171 50.6731 170.759 50.6731 170.35 50.6299C169.96 50.5699 169.48 49.7899 169.35 49.5499C169.286 49.4211 169.154 49.3396 169.01 49.3396C168.866 49.3396 168.734 49.4211 168.67 49.5499C168.45 49.9299 167.96 50.6199 167.62 50.6599C166.95 50.7399 165.57 50.6599 164.48 50.6599C164.48 50.6599 164.66 49.6599 164.25 49.2999C163.84 48.9399 163.42 48.5199 163.11 48.2399L162.27 47.2799Z" fill="white"/>
<path fill-rule="evenodd" clip-rule="evenodd" d="M162.27 47.2799C161.99 46.9199 161.64 46.1899 161.03 45.2799C160.68 44.7799 159.82 43.8299 159.56 43.3399C159.373 43.0422 159.318 42.6796 159.41 42.3399C159.567 41.6941 160.18 41.2657 160.84 41.3399C161.351 41.4425 161.82 41.6929 162.19 42.0599C162.448 42.3031 162.686 42.5673 162.9 42.8499C163.06 43.0499 163.1 43.1299 163.28 43.3599C163.46 43.5899 163.58 43.8199 163.49 43.4799C163.42 42.9799 163.3 42.1399 163.13 41.3899C163 40.8199 162.97 40.7299 162.85 40.2999C162.73 39.8699 162.66 39.5099 162.53 39.0199C162.411 38.5385 162.318 38.0512 162.25 37.5599C162.124 36.9316 162.216 36.2791 162.51 35.7099C162.86 35.3813 163.372 35.2946 163.81 35.4899C164.251 35.8153 164.579 36.2696 164.75 36.7899C165.012 37.4303 165.187 38.103 165.27 38.7899C165.43 39.7899 165.74 41.2499 165.75 41.5499C165.75 41.1799 165.68 40.3999 165.75 40.0499C165.819 39.6851 166.073 39.3822 166.42 39.2499C166.718 39.1586 167.033 39.138 167.34 39.1899C167.65 39.2547 167.925 39.4331 168.11 39.6899C168.342 40.2733 168.47 40.8925 168.49 41.5199C168.517 40.9705 168.611 40.4265 168.77 39.8999C168.937 39.6645 169.181 39.4947 169.46 39.4199C169.791 39.3595 170.13 39.3595 170.46 39.4199C170.731 39.5106 170.968 39.6814 171.14 39.9099C171.352 40.4403 171.48 41.0003 171.52 41.5699C171.52 41.7099 171.59 41.1799 171.81 40.8299C171.924 40.4905 172.211 40.2379 172.562 40.1672C172.913 40.0965 173.275 40.2185 173.512 40.4872C173.749 40.7559 173.824 41.1305 173.71 41.4699C173.71 42.1199 173.71 42.0899 173.71 42.5299C173.71 42.9699 173.71 43.3599 173.71 43.7299C173.674 44.3151 173.593 44.8967 173.47 45.4699C173.296 45.977 173.054 46.4581 172.75 46.8999C172.265 47.4399 171.863 48.0501 171.56 48.7099C171.485 49.0377 171.451 49.3737 171.46 49.7099C171.459 50.0206 171.499 50.3299 171.58 50.6299C171.171 50.6731 170.759 50.6731 170.35 50.6299C169.96 50.5699 169.48 49.7899 169.35 49.5499C169.286 49.4211 169.154 49.3396 169.01 49.3396C168.866 49.3396 168.734 49.4211 168.67 49.5499C168.45 49.9299 167.96 50.6199 167.62 50.6599C166.95 50.7399 165.57 50.6599 164.48 50.6599C164.48 50.6599 164.66 49.6599 164.25 49.2999C163.84 48.9399 163.42 48.5199 163.11 48.2399L162.27 47.2799Z" stroke="black" stroke-width="0.75" stroke-linecap="round" stroke-linejoin="round"/>
<path d="M170.75 47.8259V44.3741C170.75 44.1675 170.582 44 170.375 44C170.168 44 170 44.1675 170 44.3741V47.8259C170 48.0325 170.168 48.2 170.375 48.2C170.582 48.2 170.75 48.0325 170.75 47.8259Z" fill="black"/>
<path d="M168.77 47.8246L168.75 44.3711C168.749 44.1649 168.58 43.9988 168.373 44C168.166 44.0012 167.999 44.1693 168 44.3754L168.02 47.8289C168.021 48.035 168.19 48.2012 168.397 48.2C168.604 48.1988 168.771 48.0307 168.77 47.8246Z" fill="black"/>
<path d="M166 44.379L166.02 47.8254C166.021 48.0335 166.19 48.2012 166.397 48.2C166.604 48.1988 166.771 48.0291 166.77 47.821L166.75 44.3746C166.749 44.1665 166.58 43.9988 166.373 44C166.166 44.0012 165.999 44.1709 166 44.379Z" fill="black"/>
</g>
<defs>
<filter id="filter0_d_12564_10646" x="17.5" y="11" width="208" height="71" filterUnits="userSpaceOnUse" color-interpolation-filters="sRGB">
<feFlood flood-opacity="0" result="BackgroundImageFix"/>
<feColorMatrix in="SourceAlpha" type="matrix" values="0 0 0 0 0 0 0 0 0 0 0 0 0 0 0 0 0 0 127 0" result="hardAlpha"/>
<feOffset dy="4"/>
<feGaussianBlur stdDeviation="4"/>
<feColorMatrix type="matrix" values="0 0 0 0 0 0 0 0 0 0 0 0 0 0 0 0 0 0 0.200691 0"/>
<feBlend mode="normal" in2="BackgroundImageFix" result="effect1_dropShadow_12564_10646"/>
<feBlend mode="normal" in="SourceGraphic" in2="effect1_dropShadow_12564_10646" result="shape"/>
</filter>
<filter id="filter1_d_12564_10646" x="158.191" y="35.0117" width="16.7462" height="17.8588" filterUnits="userSpaceOnUse" color-interpolation-filters="sRGB">
<feFlood flood-opacity="0" result="BackgroundImageFix"/>
<feColorMatrix in="SourceAlpha" type="matrix" values="0 0 0 0 0 0 0 0 0 0 0 0 0 0 0 0 0 0 127 0" result="hardAlpha"/>
<feOffset dy="1"/>
<feGaussianBlur stdDeviation="0.4"/>
<feColorMatrix type="matrix" values="0 0 0 0 0 0 0 0 0 0 0 0 0 0 0 0 0 0 0.5 0"/>
<feBlend mode="normal" in2="BackgroundImageFix" result="effect1_dropShadow_12564_10646"/>
<feBlend mode="normal" in="SourceGraphic" in2="effect1_dropShadow_12564_10646" result="shape"/>
</filter>
<clipPath id="clip0_12564_10646">
<rect x="25.5" y="15" width="192" height="36" rx="4" fill="white"/>
</clipPath>
</defs>
</svg>
