<svg width="240" height="136" viewBox="0 0 240 136" fill="none" xmlns="http://www.w3.org/2000/svg">
<rect width="240" height="136" fill="#6161FF"/>
<path fill-rule="evenodd" clip-rule="evenodd" d="M147.009 22.0718C146.379 21.4418 145.302 21.888 145.302 22.7789V26.5125H110.65V42.7205H145.302V46.4048C145.302 47.2957 146.379 47.7419 147.009 47.1119L158.822 35.299C159.212 34.9084 159.212 34.2753 158.822 33.8847L147.009 22.0718Z" fill="url(#paint0_linear_185_430)"/>
<path fill-rule="evenodd" clip-rule="evenodd" d="M194.71 71.7587C193.603 70.6511 191.709 71.4356 191.709 73.002V79.5665H130.782V108.064H191.709V114.543C191.709 116.109 193.603 116.893 194.71 115.786L215.48 95.0156C216.167 94.3289 216.167 93.2157 215.48 92.529L194.71 71.7587Z" fill="url(#paint1_linear_185_430)"/>
<path d="M185.173 49.013C185.4 48.4004 186.267 48.4004 186.493 49.013L187.155 50.8015C187.226 50.9941 187.378 51.146 187.571 51.2173L189.359 51.879C189.972 52.1057 189.972 52.9723 189.359 53.199L187.571 53.8608C187.378 53.9321 187.226 54.0839 187.155 54.2765L186.493 56.065C186.267 56.6777 185.4 56.6777 185.173 56.065L184.512 54.2765C184.44 54.0839 184.288 53.9321 184.096 53.8608L182.307 53.199C181.695 52.9723 181.695 52.1057 182.307 51.879L184.096 51.2173C184.288 51.146 184.44 50.9941 184.512 50.8015L185.173 49.013Z" fill="white"/>
<path d="M84.013 17.6278C84.2397 17.0151 85.1062 17.0151 85.3329 17.6278L85.9947 19.4162C86.066 19.6089 86.2178 19.7607 86.4104 19.832L88.1989 20.4938C88.8116 20.7205 88.8116 21.587 88.1989 21.8137L86.4104 22.4755C86.2178 22.5468 86.066 22.6987 85.9947 22.8913L85.3329 24.6797C85.1062 25.2924 84.2397 25.2924 84.013 24.6797L83.3512 22.8913C83.2799 22.6987 83.128 22.5468 82.9354 22.4755L81.1469 21.8137C80.5343 21.587 80.5343 20.7205 81.1469 20.4938L82.9354 19.832C83.128 19.7607 83.2799 19.6089 83.3512 19.4162L84.013 17.6278Z" fill="white"/>
<path d="M176.754 60.6518C176.897 60.2649 177.444 60.2649 177.587 60.6518L178.005 61.7814C178.05 61.903 178.146 61.999 178.268 62.044L179.397 62.462C179.784 62.6051 179.784 63.1524 179.397 63.2956L178.268 63.7136C178.146 63.7586 178.05 63.8545 178.005 63.9762L177.587 65.1057C177.444 65.4927 176.897 65.4927 176.754 65.1057L176.336 63.9762C176.291 63.8545 176.195 63.7586 176.073 63.7136L174.943 63.2956C174.557 63.1524 174.557 62.6051 174.943 62.462L176.073 62.044C176.195 61.999 176.291 61.903 176.336 61.7814L176.754 60.6518Z" fill="white"/>
<path d="M16.8426 90.0605C17.0812 89.4156 17.9934 89.4156 18.232 90.0605L18.9286 91.9431C19.0037 92.1459 19.1635 92.3057 19.3663 92.3808L21.2489 93.0774C21.8938 93.316 21.8938 94.2281 21.2489 94.4668L19.3663 95.1634C19.1635 95.2384 19.0037 95.3983 18.9286 95.601L18.232 97.4836C17.9934 98.1285 17.0812 98.1285 16.8426 97.4836L16.146 95.601C16.071 95.3983 15.9111 95.2384 15.7083 95.1634L13.8257 94.4668C13.1808 94.2281 13.1808 93.316 13.8257 93.0774L15.7083 92.3808C15.9111 92.3057 16.071 92.1459 16.146 91.9431L16.8426 90.0605Z" fill="white"/>
<path d="M75.5932 107.04C75.7364 106.653 76.2837 106.653 76.4269 107.04L76.8448 108.17C76.8898 108.291 76.9858 108.387 77.1074 108.432L78.237 108.85C78.6239 108.993 78.6239 109.541 78.237 109.684L77.1074 110.102C76.9858 110.147 76.8898 110.243 76.8448 110.364L76.4269 111.494C76.2837 111.881 75.7364 111.881 75.5932 111.494L75.1752 110.364C75.1302 110.243 75.0343 110.147 74.9126 110.102L73.7831 109.684C73.3962 109.541 73.3962 108.993 73.7831 108.85L74.9126 108.432C75.0343 108.387 75.1302 108.291 75.1752 108.17L75.5932 107.04Z" fill="white"/>
<path d="M219.23 107.599C219.373 107.212 219.92 107.212 220.063 107.599L220.481 108.729C220.526 108.85 220.622 108.946 220.744 108.991L221.874 109.409C222.26 109.552 222.26 110.1 221.874 110.243L220.744 110.661C220.622 110.706 220.526 110.802 220.481 110.923L220.063 112.053C219.92 112.44 219.373 112.44 219.23 112.053L218.812 110.923C218.767 110.802 218.671 110.706 218.549 110.661L217.42 110.243C217.033 110.1 217.033 109.552 217.42 109.409L218.549 108.991C218.671 108.946 218.767 108.85 218.812 108.729L219.23 107.599Z" fill="white"/>
<path fill-rule="evenodd" clip-rule="evenodd" d="M67.8393 49.1586C67.0646 48.3838 65.74 48.9325 65.74 50.0281V54.6196H23.1263V74.5518H65.74V79.0828C65.74 80.1784 67.0646 80.7271 67.8393 79.9524L82.3667 65.425C82.8469 64.9448 82.8469 64.1661 82.3667 63.6859L67.8393 49.1586Z" fill="url(#paint2_linear_185_430)"/>
<defs>
<linearGradient id="paint0_linear_185_430" x1="161.875" y1="34.3489" x2="110.659" y2="36.6752" gradientUnits="userSpaceOnUse">
<stop stop-color="white"/>
<stop offset="1" stop-color="white" stop-opacity="0"/>
</linearGradient>
<linearGradient id="paint1_linear_185_430" x1="220.85" y1="93.3452" x2="130.797" y2="97.4354" gradientUnits="userSpaceOnUse">
<stop stop-color="white"/>
<stop offset="1" stop-color="white" stop-opacity="0"/>
</linearGradient>
<linearGradient id="paint2_linear_185_430" x1="86.122" y1="64.2567" x2="23.1371" y2="67.1175" gradientUnits="userSpaceOnUse">
<stop stop-color="white"/>
<stop offset="1" stop-color="white" stop-opacity="0"/>
</linearGradient>
</defs>
</svg>
