<svg width="260" height="106" viewBox="0 0 260 106" fill="none" xmlns="http://www.w3.org/2000/svg">
<path d="M1.20435 14V4.935H2.3051V14H1.20435ZM2.1756 14V13.0028H6.59155V14H2.1756ZM2.1756 9.84305V8.85885H6.1901V9.84305H2.1756ZM2.1756 5.93215V4.935H6.56565V5.93215H2.1756ZM8.57027 14V7.525H9.54152L9.60627 8.7164V14H8.57027ZM13.1157 14V10.6848L14.1517 10.2963V14H13.1157ZM17.6741 14V10.6848L18.7101 10.2963V14H17.6741ZM13.1157 10.6848C13.1157 10.0459 13.0423 9.55815 12.8956 9.22145C12.7488 8.88475 12.5459 8.65597 12.2869 8.5351C12.0279 8.4056 11.7344 8.34085 11.4063 8.34085C10.8365 8.34085 10.3919 8.54373 10.0725 8.9495C9.76167 9.34663 9.60627 9.91212 9.60627 10.646H9.10122C9.10122 9.96392 9.2005 9.37685 9.39907 8.88475C9.59764 8.39265 9.88254 8.0171 10.2538 7.7581C10.6336 7.4991 11.0912 7.3696 11.6265 7.3696C12.4121 7.3696 13.0294 7.61133 13.4783 8.0948C13.9359 8.57827 14.1604 9.3121 14.1517 10.2963L13.1157 10.6848ZM17.6741 10.6848C17.6741 10.0459 17.5964 9.55815 17.441 9.22145C17.2943 8.88475 17.0914 8.65597 16.8324 8.5351C16.5734 8.4056 16.2798 8.34085 15.9518 8.34085C15.382 8.34085 14.9374 8.54373 14.6179 8.9495C14.3071 9.34663 14.1517 9.91212 14.1517 10.646H13.6467C13.6467 9.96392 13.746 9.37685 13.9445 8.88475C14.1431 8.39265 14.4323 8.0171 14.8122 7.7581C15.192 7.4991 15.6496 7.3696 16.1849 7.3696C16.9619 7.3696 17.5748 7.61133 18.0238 8.0948C18.4813 8.57827 18.7101 9.3121 18.7101 10.2963L17.6741 10.6848ZM24.3327 14L24.268 12.9381V10.5812C24.268 10.0718 24.2076 9.65312 24.0867 9.32505C23.9745 8.98835 23.7975 8.73798 23.5557 8.57395C23.3226 8.40128 23.0118 8.31495 22.6233 8.31495C22.2521 8.31495 21.9284 8.38833 21.6521 8.5351C21.3845 8.68187 21.1643 8.91065 20.9916 9.22145L20.0592 8.8459C20.2319 8.54373 20.4391 8.28042 20.6808 8.05595C20.9226 7.83148 21.2032 7.66313 21.5226 7.5509C21.8507 7.43003 22.2219 7.3696 22.6363 7.3696C23.232 7.3696 23.7284 7.48615 24.1255 7.71925C24.5227 7.95235 24.8205 8.302 25.0191 8.7682C25.2177 9.22577 25.3126 9.79988 25.304 10.4905L25.291 14H24.3327ZM22.3902 14.1554C21.6305 14.1554 21.0348 13.9827 20.6031 13.6374C20.1801 13.2834 19.9686 12.7956 19.9686 12.174C19.9686 11.5179 20.1844 11.0172 20.6161 10.6719C21.0564 10.3179 21.6694 10.1409 22.455 10.1409H24.3068V11.0085H22.6881C22.0838 11.0085 21.6521 11.1078 21.3931 11.3064C21.1427 11.505 21.0175 11.7899 21.0175 12.1611C21.0175 12.4978 21.1427 12.7654 21.3931 12.964C21.6435 13.1539 21.9931 13.2489 22.442 13.2489C22.8133 13.2489 23.137 13.1626 23.4133 12.9899C23.6896 12.8172 23.9011 12.5841 24.0478 12.2906C24.1946 11.9884 24.268 11.6474 24.268 11.2675H24.9025C24.9025 12.1481 24.6867 12.8518 24.255 13.3784C23.8234 13.8964 23.2018 14.1554 22.3902 14.1554ZM27.0104 14L27.0363 7.525H28.0723L28.0464 14H27.0104ZM27.5413 6.0228C27.3686 6.0228 27.2176 5.95805 27.0881 5.82855C26.9586 5.69905 26.8938 5.54797 26.8938 5.3753C26.8938 5.194 26.9586 5.04292 27.0881 4.92205C27.2176 4.79255 27.3686 4.7278 27.5413 4.7278C27.7226 4.7278 27.8737 4.79255 27.9946 4.92205C28.1241 5.04292 28.1888 5.194 28.1888 5.3753C28.1888 5.54797 28.1241 5.69905 27.9946 5.82855C27.8737 5.95805 27.7226 6.0228 27.5413 6.0228ZM29.9555 14V4.935H30.9915V14H29.9555Z" fill="#323338"/>
<rect x="0.5" y="26.5" width="259" height="79" rx="3.5" fill="white"/>
<rect x="0.5" y="26.5" width="259" height="79" rx="3.5" stroke="#C3C6D4"/>
<path d="M20.2637 54.1445C19.7193 54.1445 19.2255 54.053 18.7822 53.8699C18.3438 53.682 17.9656 53.4195 17.6477 53.0822C17.3345 52.745 17.0936 52.3451 16.925 51.8826C16.7564 51.4201 16.6721 50.9143 16.6721 50.365V50.0615C16.6721 49.4256 16.766 48.8595 16.9539 48.3633C17.1418 47.8622 17.3971 47.4383 17.7199 47.0914C18.0427 46.7445 18.4089 46.482 18.8184 46.3037C19.2279 46.1255 19.6518 46.0363 20.0902 46.0363C20.6491 46.0363 21.1309 46.1327 21.5355 46.3254C21.9451 46.5181 22.2799 46.7879 22.54 47.1348C22.8002 47.4768 22.9929 47.8815 23.1182 48.3488C23.2434 48.8113 23.3061 49.3172 23.3061 49.8664V50.4662H17.467V49.375H21.9691V49.2738C21.9499 48.927 21.8776 48.5897 21.7523 48.2621C21.6319 47.9345 21.4392 47.6647 21.1742 47.4527C20.9092 47.2408 20.5479 47.1348 20.0902 47.1348C19.7867 47.1348 19.5073 47.1998 19.252 47.3299C18.9966 47.4551 18.7774 47.643 18.5943 47.8936C18.4113 48.1441 18.2691 48.45 18.168 48.8113C18.0668 49.1727 18.0162 49.5894 18.0162 50.0615V50.365C18.0162 50.736 18.0668 51.0853 18.168 51.4129C18.274 51.7357 18.4257 52.0199 18.6232 52.2656C18.8256 52.5113 19.0689 52.704 19.3531 52.8437C19.6422 52.9835 19.9698 53.0533 20.3359 53.0533C20.8081 53.0533 21.2079 52.957 21.5355 52.7643C21.8632 52.5715 22.1498 52.3138 22.3955 51.991L23.2049 52.6342C23.0363 52.8895 22.8219 53.1328 22.5617 53.3641C22.3016 53.5953 21.9812 53.7832 21.6006 53.9277C21.2248 54.0723 20.7792 54.1445 20.2637 54.1445ZM26.1967 47.7346V54H24.8525V46.1809H26.1244L26.1967 47.7346ZM25.9221 49.7941L25.3006 49.7725C25.3054 49.2377 25.3753 48.7439 25.5102 48.291C25.6451 47.8333 25.845 47.4359 26.11 47.0986C26.3749 46.7614 26.7049 46.5012 27.1 46.3182C27.4951 46.1303 27.9527 46.0363 28.473 46.0363C28.8392 46.0363 29.1764 46.0893 29.4848 46.1953C29.7931 46.2965 30.0605 46.4579 30.2869 46.6795C30.5133 46.9011 30.6892 47.1854 30.8145 47.5322C30.9397 47.8791 31.0023 48.2982 31.0023 48.7896V54H29.6654V48.8547C29.6654 48.4452 29.5956 48.1176 29.4559 47.8719C29.321 47.6262 29.1283 47.4479 28.8777 47.3371C28.6272 47.2215 28.3333 47.1637 27.9961 47.1637C27.601 47.1637 27.271 47.2335 27.0061 47.3732C26.7411 47.513 26.5291 47.7057 26.3701 47.9514C26.2111 48.1971 26.0955 48.4789 26.0232 48.7969C25.9558 49.11 25.9221 49.4424 25.9221 49.7941ZM30.9879 49.057L30.0918 49.3316C30.0966 48.9029 30.1665 48.491 30.3014 48.0959C30.4411 47.7008 30.641 47.3492 30.9012 47.0408C31.1661 46.7325 31.4913 46.4892 31.8768 46.3109C32.2622 46.1279 32.703 46.0363 33.1992 46.0363C33.6184 46.0363 33.9893 46.0917 34.3121 46.2025C34.6397 46.3133 34.9143 46.4844 35.1359 46.7156C35.3624 46.9421 35.5334 47.2335 35.649 47.59C35.7646 47.9465 35.8225 48.3705 35.8225 48.8619V54H34.4783V48.8475C34.4783 48.409 34.4085 48.0694 34.2688 47.8285C34.1339 47.5828 33.9411 47.4118 33.6906 47.3154C33.4449 47.2143 33.151 47.1637 32.809 47.1637C32.5151 47.1637 32.2549 47.2143 32.0285 47.3154C31.8021 47.4166 31.6118 47.5563 31.4576 47.7346C31.3035 47.908 31.1854 48.1079 31.1035 48.3344C31.0264 48.5608 30.9879 48.8017 30.9879 49.057ZM42.4564 52.6631V48.6379C42.4564 48.3296 42.3938 48.0622 42.2686 47.8357C42.1481 47.6045 41.965 47.4262 41.7193 47.301C41.4736 47.1757 41.1701 47.1131 40.8088 47.1131C40.4716 47.1131 40.1753 47.1709 39.9199 47.2865C39.6694 47.4021 39.4719 47.5539 39.3273 47.7418C39.1876 47.9297 39.1178 48.132 39.1178 48.3488H37.7809C37.7809 48.0694 37.8531 47.7924 37.9977 47.5178C38.1422 47.2432 38.3493 46.9951 38.6191 46.7734C38.8938 46.547 39.2214 46.3687 39.602 46.2387C39.9874 46.1038 40.4161 46.0363 40.8883 46.0363C41.4568 46.0363 41.9578 46.1327 42.3914 46.3254C42.8298 46.5181 43.1719 46.8096 43.4176 47.1998C43.6681 47.5852 43.7934 48.0694 43.7934 48.6523V52.2945C43.7934 52.5547 43.815 52.8317 43.8584 53.1256C43.9066 53.4195 43.9764 53.6724 44.068 53.8844V54H42.6732C42.6058 53.8458 42.5528 53.6411 42.5143 53.3857C42.4757 53.1256 42.4564 52.8847 42.4564 52.6631ZM42.6877 49.2594L42.7021 50.1988H41.3508C40.9702 50.1988 40.6305 50.2301 40.3318 50.2928C40.0331 50.3506 39.7826 50.4397 39.5803 50.5602C39.3779 50.6806 39.2238 50.8324 39.1178 51.0154C39.0118 51.1937 38.9588 51.4033 38.9588 51.6441C38.9588 51.8898 39.0142 52.1139 39.125 52.3162C39.2358 52.5186 39.402 52.6799 39.6236 52.8004C39.8501 52.916 40.1271 52.9738 40.4547 52.9738C40.8642 52.9738 41.2255 52.8871 41.5387 52.7137C41.8518 52.5402 42.0999 52.3283 42.283 52.0777C42.4709 51.8272 42.5721 51.5839 42.5865 51.3479L43.1574 51.991C43.1237 52.1934 43.0322 52.4174 42.8828 52.6631C42.7335 52.9088 42.5335 53.1449 42.283 53.3713C42.0373 53.5929 41.7434 53.7784 41.4014 53.9277C41.0641 54.0723 40.6835 54.1445 40.2596 54.1445C39.7296 54.1445 39.2647 54.041 38.8648 53.8338C38.4698 53.6266 38.1615 53.3496 37.9398 53.0027C37.723 52.651 37.6146 52.2584 37.6146 51.8248C37.6146 51.4057 37.6966 51.0371 37.8604 50.7191C38.0242 50.3964 38.2602 50.129 38.5686 49.917C38.8769 49.7002 39.2479 49.5364 39.6814 49.4256C40.115 49.3148 40.5992 49.2594 41.134 49.2594H42.6877ZM47.3488 46.1809V54H46.0047V46.1809H47.3488ZM45.9035 44.1068C45.9035 43.89 45.9686 43.707 46.0986 43.5576C46.2335 43.4083 46.4311 43.3336 46.6912 43.3336C46.9465 43.3336 47.1417 43.4083 47.2766 43.5576C47.4163 43.707 47.4861 43.89 47.4861 44.1068C47.4861 44.314 47.4163 44.4923 47.2766 44.6416C47.1417 44.7861 46.9465 44.8584 46.6912 44.8584C46.4311 44.8584 46.2335 44.7861 46.0986 44.6416C45.9686 44.4923 45.9035 44.314 45.9035 44.1068ZM50.9477 42.9V54H49.6035V42.9H50.9477ZM64.6203 50.365C64.601 50.8083 64.5336 51.2539 64.418 51.702C64.3023 52.1452 64.1289 52.5523 63.8977 52.9232C63.6664 53.2942 63.3653 53.5929 62.9943 53.8193C62.6282 54.041 62.185 54.1518 61.6646 54.1518C61.3322 54.1518 61.0408 54.0939 60.7902 53.9783C60.5445 53.8579 60.3422 53.6868 60.1832 53.4652C60.029 53.2436 59.9206 52.9762 59.858 52.6631C59.8002 52.3499 59.7906 52.0007 59.8291 51.6152L60.1977 47.6117H61.26L60.8914 51.6152C60.8625 51.9669 60.8697 52.2536 60.9131 52.4752C60.9613 52.6968 61.0335 52.8678 61.1299 52.9883C61.2262 53.1039 61.3346 53.1834 61.4551 53.2268C61.5803 53.2701 61.7008 53.2918 61.8164 53.2918C62.1055 53.2918 62.3632 53.2171 62.5896 53.0678C62.8161 52.9136 63.0064 52.704 63.1605 52.4391C63.3195 52.1693 63.4424 51.8585 63.5291 51.5068C63.6158 51.1503 63.6688 50.7697 63.6881 50.365C63.7218 49.6472 63.6881 48.9872 63.5869 48.385C63.4906 47.7827 63.3243 47.248 63.0883 46.7807C62.857 46.3133 62.5535 45.9183 62.1777 45.5955C61.802 45.2727 61.3539 45.027 60.8336 44.8584C60.3133 44.6898 59.7183 44.6055 59.0486 44.6055C58.4416 44.6055 57.8803 44.6994 57.3648 44.8873C56.8542 45.0704 56.3941 45.3354 55.9846 45.6822C55.5799 46.0291 55.2306 46.4458 54.9367 46.9324C54.6477 47.419 54.4188 47.9682 54.2502 48.5801C54.0864 49.1871 53.99 49.8423 53.9611 50.5457C53.9274 51.2684 53.966 51.9332 54.0768 52.5402C54.1876 53.1424 54.3658 53.6796 54.6115 54.1518C54.862 54.6287 55.1776 55.031 55.5582 55.3586C55.9388 55.691 56.3796 55.9415 56.8807 56.1102C57.3817 56.2836 57.9406 56.3703 58.5572 56.3703C58.9812 56.3703 59.41 56.3197 59.8436 56.2186C60.282 56.1174 60.6481 55.9801 60.942 55.8066L61.2166 56.6305C60.8794 56.8473 60.4578 57.0087 59.952 57.1146C59.4509 57.2206 58.9764 57.2736 58.5283 57.2736C57.796 57.2736 57.1264 57.1725 56.5193 56.9701C55.9171 56.7726 55.3824 56.4811 54.915 56.0957C54.4525 55.7151 54.0671 55.2502 53.7588 54.701C53.4505 54.1566 53.224 53.5351 53.0795 52.8365C52.935 52.138 52.8796 51.3743 52.9133 50.5457C52.947 49.7556 53.065 49.0113 53.2674 48.3127C53.4745 47.6141 53.7564 46.9806 54.1129 46.4121C54.4694 45.8436 54.8934 45.3546 55.3848 44.9451C55.881 44.5308 56.4374 44.2128 57.0541 43.9912C57.6756 43.7696 58.3501 43.6588 59.0775 43.6588C59.8195 43.6588 60.4915 43.76 61.0938 43.9623C61.696 44.1646 62.2235 44.4561 62.6764 44.8367C63.1341 45.2173 63.5122 45.6822 63.8109 46.2314C64.1096 46.7807 64.3264 47.4021 64.4613 48.0959C64.601 48.7896 64.654 49.546 64.6203 50.365ZM57.1986 50.9793C57.1649 51.3165 57.1649 51.6176 57.1986 51.8826C57.2324 52.1476 57.2974 52.3716 57.3938 52.5547C57.4901 52.7378 57.6154 52.8775 57.7695 52.9738C57.9285 53.0654 58.114 53.1111 58.326 53.1111C58.4657 53.1111 58.6126 53.0774 58.7668 53.01C58.921 52.9377 59.0727 52.8269 59.2221 52.6775C59.3714 52.5282 59.5111 52.3331 59.6412 52.0922C59.7713 51.8513 59.8797 51.5622 59.9664 51.225L60.4434 51.7453C60.3326 52.1404 60.188 52.4872 60.0098 52.7859C59.8363 53.0846 59.6412 53.3352 59.4244 53.5375C59.2076 53.7398 58.9764 53.894 58.7307 54C58.4898 54.1012 58.2441 54.1518 57.9936 54.1518C57.6419 54.1518 57.3335 54.0771 57.0686 53.9277C56.8036 53.7736 56.5892 53.5568 56.4254 53.2773C56.2616 52.9979 56.146 52.6655 56.0785 52.2801C56.0159 51.8898 56.0063 51.4562 56.0496 50.9793C56.093 50.4734 56.1821 50.0061 56.317 49.5773C56.4519 49.1486 56.6181 48.7656 56.8156 48.4283C57.018 48.0911 57.2444 47.8044 57.4949 47.5684C57.7503 47.3323 58.0201 47.154 58.3043 47.0336C58.5885 46.9083 58.88 46.8457 59.1787 46.8457C59.699 46.8457 60.1085 46.9228 60.4072 47.077C60.7059 47.2263 60.9902 47.4046 61.26 47.6117L60.6457 48.3271C60.506 48.1923 60.3229 48.067 60.0965 47.9514C59.8701 47.8357 59.6027 47.7779 59.2943 47.7779C59.0294 47.7779 58.7813 47.8454 58.55 47.9803C58.3188 48.1152 58.1092 48.3175 57.9213 48.5873C57.7382 48.8571 57.5841 49.1919 57.4588 49.5918C57.3335 49.9868 57.2468 50.4493 57.1986 50.9793ZM67.7205 47.7346V54H66.3764V46.1809H67.6482L67.7205 47.7346ZM67.4459 49.7941L66.8244 49.7725C66.8292 49.2377 66.8991 48.7439 67.034 48.291C67.1689 47.8333 67.3688 47.4359 67.6338 47.0986C67.8988 46.7614 68.2288 46.5012 68.6238 46.3182C69.0189 46.1303 69.4766 46.0363 69.9969 46.0363C70.363 46.0363 70.7003 46.0893 71.0086 46.1953C71.3169 46.2965 71.5843 46.4579 71.8107 46.6795C72.0372 46.9011 72.213 47.1854 72.3383 47.5322C72.4635 47.8791 72.5262 48.2982 72.5262 48.7896V54H71.1893V48.8547C71.1893 48.4452 71.1194 48.1176 70.9797 47.8719C70.8448 47.6262 70.6521 47.4479 70.4016 47.3371C70.151 47.2215 69.8572 47.1637 69.5199 47.1637C69.1249 47.1637 68.7949 47.2335 68.5299 47.3732C68.2649 47.513 68.0529 47.7057 67.8939 47.9514C67.735 48.1971 67.6193 48.4789 67.5471 48.7969C67.4796 49.11 67.4459 49.4424 67.4459 49.7941ZM72.5117 49.057L71.6156 49.3316C71.6204 48.9029 71.6903 48.491 71.8252 48.0959C71.9649 47.7008 72.1648 47.3492 72.425 47.0408C72.69 46.7325 73.0152 46.4892 73.4006 46.3109C73.786 46.1279 74.2268 46.0363 74.723 46.0363C75.1422 46.0363 75.5132 46.0917 75.8359 46.2025C76.1635 46.3133 76.4382 46.4844 76.6598 46.7156C76.8862 46.9421 77.0572 47.2335 77.1729 47.59C77.2885 47.9465 77.3463 48.3705 77.3463 48.8619V54H76.0021V48.8475C76.0021 48.409 75.9323 48.0694 75.7926 47.8285C75.6577 47.5828 75.465 47.4118 75.2145 47.3154C74.9688 47.2143 74.6749 47.1637 74.3328 47.1637C74.0389 47.1637 73.7788 47.2143 73.5523 47.3154C73.3259 47.4166 73.1356 47.5563 72.9814 47.7346C72.8273 47.908 72.7092 48.1079 72.6273 48.3344C72.5503 48.5608 72.5117 48.8017 72.5117 49.057ZM79.0156 50.1771V50.0109C79.0156 49.4473 79.0975 48.9245 79.2613 48.4428C79.4251 47.9562 79.6612 47.5346 79.9695 47.1781C80.2779 46.8168 80.6512 46.5374 81.0897 46.3398C81.5281 46.1375 82.0195 46.0363 82.5639 46.0363C83.1131 46.0363 83.6069 46.1375 84.0453 46.3398C84.4885 46.5374 84.8643 46.8168 85.1727 47.1781C85.4858 47.5346 85.7243 47.9562 85.8881 48.4428C86.0519 48.9245 86.1338 49.4473 86.1338 50.0109V50.1771C86.1338 50.7408 86.0519 51.2635 85.8881 51.7453C85.7243 52.2271 85.4858 52.6486 85.1727 53.01C84.8643 53.3665 84.491 53.6459 84.0525 53.8482C83.6189 54.0458 83.1275 54.1445 82.5783 54.1445C82.0291 54.1445 81.5353 54.0458 81.0969 53.8482C80.6585 53.6459 80.2827 53.3665 79.9695 53.01C79.6612 52.6486 79.4251 52.2271 79.2613 51.7453C79.0975 51.2635 79.0156 50.7408 79.0156 50.1771ZM80.3525 50.0109V50.1771C80.3525 50.5674 80.3983 50.9359 80.4898 51.2828C80.5814 51.6249 80.7187 51.9284 80.9018 52.1934C81.0897 52.4583 81.3233 52.6679 81.6027 52.8221C81.8822 52.9714 82.2074 53.0461 82.5783 53.0461C82.9445 53.0461 83.2648 52.9714 83.5395 52.8221C83.8189 52.6679 84.0501 52.4583 84.2332 52.1934C84.4163 51.9284 84.5536 51.6249 84.6451 51.2828C84.7415 50.9359 84.7897 50.5674 84.7897 50.1771V50.0109C84.7897 49.6255 84.7415 49.2618 84.6451 48.9197C84.5536 48.5729 84.4139 48.2669 84.226 48.002C84.0429 47.7322 83.8117 47.5202 83.5322 47.366C83.2576 47.2118 82.9348 47.1348 82.5639 47.1348C82.1977 47.1348 81.8749 47.2118 81.5955 47.366C81.3209 47.5202 81.0897 47.7322 80.9018 48.002C80.7187 48.2669 80.5814 48.5729 80.4898 48.9197C80.3983 49.2618 80.3525 49.6255 80.3525 50.0109ZM89.1473 47.8502V54H87.8104V46.1809H89.075L89.1473 47.8502ZM88.8293 49.7941L88.2729 49.7725C88.2777 49.2377 88.3572 48.7439 88.5113 48.291C88.6655 47.8333 88.8823 47.4359 89.1617 47.0986C89.4411 46.7614 89.7736 46.5012 90.159 46.3182C90.5492 46.1303 90.9804 46.0363 91.4525 46.0363C91.838 46.0363 92.1848 46.0893 92.4932 46.1953C92.8015 46.2965 93.0641 46.4603 93.2809 46.6867C93.5025 46.9132 93.6711 47.207 93.7867 47.5684C93.9023 47.9249 93.9602 48.3609 93.9602 48.8764V54H92.616V48.8619C92.616 48.4524 92.5558 48.1248 92.4354 47.8791C92.3149 47.6286 92.1391 47.4479 91.9078 47.3371C91.6766 47.2215 91.3923 47.1637 91.0551 47.1637C90.7227 47.1637 90.4191 47.2335 90.1445 47.3732C89.8747 47.513 89.6411 47.7057 89.4436 47.9514C89.2508 48.1971 89.0991 48.4789 88.9883 48.7969C88.8823 49.11 88.8293 49.4424 88.8293 49.7941ZM100.919 52.4824V42.9H102.263V54H101.035L100.919 52.4824ZM95.6584 50.1771V50.0254C95.6584 49.428 95.7307 48.886 95.8752 48.3994C96.0245 47.908 96.2341 47.4865 96.5039 47.1348C96.7785 46.7831 97.1037 46.5133 97.4795 46.3254C97.8601 46.1327 98.2841 46.0363 98.7514 46.0363C99.2428 46.0363 99.6716 46.123 100.038 46.2965C100.409 46.4651 100.722 46.7132 100.977 47.0408C101.237 47.3636 101.442 47.7538 101.591 48.2115C101.741 48.6692 101.844 49.1871 101.902 49.7652V50.4301C101.849 51.0034 101.746 51.5189 101.591 51.9766C101.442 52.4342 101.237 52.8245 100.977 53.1473C100.722 53.4701 100.409 53.7182 100.038 53.8916C99.6667 54.0602 99.2331 54.1445 98.7369 54.1445C98.2792 54.1445 97.8601 54.0458 97.4795 53.8482C97.1037 53.6507 96.7785 53.3737 96.5039 53.0172C96.2341 52.6607 96.0245 52.2415 95.8752 51.7598C95.7307 51.2732 95.6584 50.7456 95.6584 50.1771ZM97.0025 50.0254V50.1771C97.0025 50.5674 97.0411 50.9335 97.1182 51.2756C97.2001 51.6176 97.3253 51.9187 97.4939 52.1789C97.6626 52.4391 97.877 52.6438 98.1371 52.7932C98.3973 52.9377 98.708 53.01 99.0693 53.01C99.5126 53.01 99.8763 52.916 100.161 52.7281C100.45 52.5402 100.681 52.2921 100.854 51.9838C101.028 51.6755 101.163 51.3406 101.259 50.9793V49.2377C101.201 48.9727 101.117 48.7174 101.006 48.4717C100.9 48.2212 100.76 47.9995 100.587 47.8068C100.418 47.6093 100.209 47.4527 99.9582 47.3371C99.7125 47.2215 99.421 47.1637 99.0838 47.1637C98.7176 47.1637 98.4021 47.2408 98.1371 47.3949C97.877 47.5443 97.6626 47.7514 97.4939 48.0164C97.3253 48.2766 97.2001 48.5801 97.1182 48.927C97.0411 49.269 97.0025 49.6352 97.0025 50.0254ZM108.955 52.6631V48.6379C108.955 48.3296 108.893 48.0622 108.767 47.8357C108.647 47.6045 108.464 47.4262 108.218 47.301C107.972 47.1757 107.669 47.1131 107.308 47.1131C106.97 47.1131 106.674 47.1709 106.419 47.2865C106.168 47.4021 105.971 47.5539 105.826 47.7418C105.686 47.9297 105.617 48.132 105.617 48.3488H104.28C104.28 48.0694 104.352 47.7924 104.496 47.5178C104.641 47.2432 104.848 46.9951 105.118 46.7734C105.393 46.547 105.72 46.3687 106.101 46.2387C106.486 46.1038 106.915 46.0363 107.387 46.0363C107.956 46.0363 108.457 46.1327 108.89 46.3254C109.329 46.5181 109.671 46.8096 109.916 47.1998C110.167 47.5852 110.292 48.0694 110.292 48.6523V52.2945C110.292 52.5547 110.314 52.8317 110.357 53.1256C110.405 53.4195 110.475 53.6724 110.567 53.8844V54H109.172C109.105 53.8458 109.052 53.6411 109.013 53.3857C108.975 53.1256 108.955 52.8847 108.955 52.6631ZM109.187 49.2594L109.201 50.1988H107.85C107.469 50.1988 107.129 50.2301 106.831 50.2928C106.532 50.3506 106.281 50.4397 106.079 50.5602C105.877 50.6806 105.723 50.8324 105.617 51.0154C105.511 51.1937 105.458 51.4033 105.458 51.6441C105.458 51.8898 105.513 52.1139 105.624 52.3162C105.735 52.5186 105.901 52.6799 106.122 52.8004C106.349 52.916 106.626 52.9738 106.954 52.9738C107.363 52.9738 107.724 52.8871 108.038 52.7137C108.351 52.5402 108.599 52.3283 108.782 52.0777C108.97 51.8272 109.071 51.5839 109.085 51.3479L109.656 51.991C109.623 52.1934 109.531 52.4174 109.382 52.6631C109.232 52.9088 109.032 53.1449 108.782 53.3713C108.536 53.5929 108.242 53.7784 107.9 53.9277C107.563 54.0723 107.182 54.1445 106.758 54.1445C106.228 54.1445 105.764 54.041 105.364 53.8338C104.969 53.6266 104.66 53.3496 104.439 53.0027C104.222 52.651 104.113 52.2584 104.113 51.8248C104.113 51.4057 104.195 51.0371 104.359 50.7191C104.523 50.3964 104.759 50.129 105.067 49.917C105.376 49.7002 105.747 49.5364 106.18 49.4256C106.614 49.3148 107.098 49.2594 107.633 49.2594H109.187ZM114.476 53.1906L116.652 46.1809H118.082L114.946 55.2068C114.874 55.3995 114.777 55.6067 114.657 55.8283C114.541 56.0548 114.392 56.2691 114.209 56.4715C114.026 56.6738 113.804 56.8376 113.544 56.9629C113.289 57.093 112.983 57.158 112.626 57.158C112.52 57.158 112.385 57.1436 112.222 57.1146C112.058 57.0857 111.942 57.0617 111.875 57.0424L111.868 55.9584C111.906 55.9632 111.966 55.968 112.048 55.9729C112.135 55.9825 112.195 55.9873 112.229 55.9873C112.532 55.9873 112.79 55.9464 113.002 55.8645C113.214 55.7874 113.392 55.6549 113.537 55.467C113.686 55.2839 113.814 55.031 113.92 54.7082L114.476 53.1906ZM112.879 46.1809L114.91 52.2512L115.257 53.6604L114.296 54.1518L111.42 46.1809H112.879ZM118.53 53.2918C118.53 53.0654 118.6 52.8751 118.74 52.7209C118.885 52.5619 119.092 52.4824 119.362 52.4824C119.631 52.4824 119.836 52.5619 119.976 52.7209C120.12 52.8751 120.193 53.0654 120.193 53.2918C120.193 53.5134 120.12 53.7013 119.976 53.8555C119.836 54.0096 119.631 54.0867 119.362 54.0867C119.092 54.0867 118.885 54.0096 118.74 53.8555C118.6 53.7013 118.53 53.5134 118.53 53.2918ZM125.54 53.0461C125.858 53.0461 126.152 52.9811 126.422 52.851C126.692 52.7209 126.913 52.5426 127.087 52.3162C127.26 52.085 127.359 51.8224 127.383 51.5285H128.655C128.631 51.991 128.474 52.4222 128.185 52.8221C127.901 53.2171 127.528 53.5375 127.065 53.7832C126.603 54.0241 126.094 54.1445 125.54 54.1445C124.952 54.1445 124.439 54.041 124.001 53.8338C123.567 53.6266 123.206 53.3424 122.917 52.9811C122.633 52.6197 122.418 52.2054 122.274 51.7381C122.134 51.266 122.064 50.7673 122.064 50.2422V49.9387C122.064 49.4135 122.134 48.9173 122.274 48.45C122.418 47.9779 122.633 47.5611 122.917 47.1998C123.206 46.8385 123.567 46.5542 124.001 46.3471C124.439 46.1399 124.952 46.0363 125.54 46.0363C126.152 46.0363 126.687 46.1616 127.145 46.4121C127.602 46.6578 127.961 46.9951 128.221 47.4238C128.486 47.8478 128.631 48.3296 128.655 48.8691H127.383C127.359 48.5464 127.267 48.2549 127.108 47.9947C126.954 47.7346 126.742 47.5274 126.472 47.3732C126.207 47.2143 125.897 47.1348 125.54 47.1348C125.131 47.1348 124.786 47.2167 124.507 47.3805C124.232 47.5395 124.013 47.7562 123.849 48.0309C123.69 48.3007 123.575 48.6018 123.502 48.9342C123.435 49.2618 123.401 49.5966 123.401 49.9387V50.2422C123.401 50.5842 123.435 50.9215 123.502 51.2539C123.57 51.5863 123.683 51.8874 123.842 52.1572C124.006 52.427 124.225 52.6438 124.5 52.8076C124.779 52.9666 125.126 53.0461 125.54 53.0461ZM129.804 50.1771V50.0109C129.804 49.4473 129.886 48.9245 130.05 48.4428C130.213 47.9562 130.449 47.5346 130.758 47.1781C131.066 46.8168 131.44 46.5374 131.878 46.3398C132.316 46.1375 132.808 46.0363 133.352 46.0363C133.901 46.0363 134.395 46.1375 134.834 46.3398C135.277 46.5374 135.653 46.8168 135.961 47.1781C136.274 47.5346 136.513 47.9562 136.676 48.4428C136.84 48.9245 136.922 49.4473 136.922 50.0109V50.1771C136.922 50.7408 136.84 51.2635 136.676 51.7453C136.513 52.2271 136.274 52.6486 135.961 53.01C135.653 53.3665 135.279 53.6459 134.841 53.8482C134.407 54.0458 133.916 54.1445 133.367 54.1445C132.817 54.1445 132.324 54.0458 131.885 53.8482C131.447 53.6459 131.071 53.3665 130.758 53.01C130.449 52.6486 130.213 52.2271 130.05 51.7453C129.886 51.2635 129.804 50.7408 129.804 50.1771ZM131.141 50.0109V50.1771C131.141 50.5674 131.187 50.9359 131.278 51.2828C131.37 51.6249 131.507 51.9284 131.69 52.1934C131.878 52.4583 132.112 52.6679 132.391 52.8221C132.67 52.9714 132.996 53.0461 133.367 53.0461C133.733 53.0461 134.053 52.9714 134.328 52.8221C134.607 52.6679 134.838 52.4583 135.021 52.1934C135.205 51.9284 135.342 51.6249 135.433 51.2828C135.53 50.9359 135.578 50.5674 135.578 50.1771V50.0109C135.578 49.6255 135.53 49.2618 135.433 48.9197C135.342 48.5729 135.202 48.2669 135.014 48.002C134.831 47.7322 134.6 47.5202 134.321 47.366C134.046 47.2118 133.723 47.1348 133.352 47.1348C132.986 47.1348 132.663 47.2118 132.384 47.366C132.109 47.5202 131.878 47.7322 131.69 48.002C131.507 48.2669 131.37 48.5729 131.278 48.9197C131.187 49.2618 131.141 49.6255 131.141 50.0109ZM139.928 47.7346V54H138.584V46.1809H139.856L139.928 47.7346ZM139.654 49.7941L139.032 49.7725C139.037 49.2377 139.107 48.7439 139.242 48.291C139.377 47.8333 139.577 47.4359 139.842 47.0986C140.107 46.7614 140.437 46.5012 140.832 46.3182C141.227 46.1303 141.684 46.0363 142.205 46.0363C142.571 46.0363 142.908 46.0893 143.216 46.1953C143.525 46.2965 143.792 46.4579 144.019 46.6795C144.245 46.9011 144.421 47.1854 144.546 47.5322C144.671 47.8791 144.734 48.2982 144.734 48.7896V54H143.397V48.8547C143.397 48.4452 143.327 48.1176 143.188 47.8719C143.053 47.6262 142.86 47.4479 142.609 47.3371C142.359 47.2215 142.065 47.1637 141.728 47.1637C141.333 47.1637 141.003 47.2335 140.738 47.3732C140.473 47.513 140.261 47.7057 140.102 47.9514C139.943 48.1971 139.827 48.4789 139.755 48.7969C139.687 49.11 139.654 49.4424 139.654 49.7941ZM144.72 49.057L143.823 49.3316C143.828 48.9029 143.898 48.491 144.033 48.0959C144.173 47.7008 144.373 47.3492 144.633 47.0408C144.898 46.7325 145.223 46.4892 145.608 46.3109C145.994 46.1279 146.435 46.0363 146.931 46.0363C147.35 46.0363 147.721 46.0917 148.044 46.2025C148.371 46.3133 148.646 46.4844 148.868 46.7156C149.094 46.9421 149.265 47.2335 149.381 47.59C149.496 47.9465 149.554 48.3705 149.554 48.8619V54H148.21V48.8475C148.21 48.409 148.14 48.0694 148 47.8285C147.865 47.5828 147.673 47.4118 147.422 47.3154C147.177 47.2143 146.883 47.1637 146.541 47.1637C146.247 47.1637 145.987 47.2143 145.76 47.3154C145.534 47.4166 145.343 47.5563 145.189 47.7346C145.035 47.908 144.917 48.1079 144.835 48.3344C144.758 48.5608 144.72 48.8017 144.72 49.057Z" fill="#676879"/>
<path fill-rule="evenodd" clip-rule="evenodd" d="M256.853 100.646C257.049 100.842 257.049 101.158 256.853 101.354L255.439 102.768C255.244 102.963 254.927 102.963 254.732 102.768C254.537 102.573 254.537 102.256 254.732 102.061L256.146 100.646C256.342 100.451 256.658 100.451 256.853 100.646Z" fill="#676879"/>
<path fill-rule="evenodd" clip-rule="evenodd" d="M256.853 97.1464C257.049 97.3417 257.049 97.6583 256.853 97.8536L251.904 102.803C251.708 102.999 251.392 102.999 251.197 102.803C251.001 102.608 251.001 102.291 251.197 102.096L256.146 97.1464C256.342 96.9512 256.658 96.9512 256.853 97.1464Z" fill="#676879"/>
</svg>
