<svg width="84" height="33" viewBox="0 0 84 33" fill="none" xmlns="http://www.w3.org/2000/svg">
<path d="M9.46368 32.0413H16.0883L25.597 0.991433H17.6655L12.7985 19.9188L7.84133 0.991433H0L9.46368 32.0413Z" fill="#5034FF"/>
<path d="M27.3493 11.041H34.5147V32.0413H27.3493V11.041ZM26.5832 4.05586C26.5832 6.30912 28.5661 8.15679 30.9095 8.15679C33.2979 8.15679 35.1907 6.30912 35.1907 4.05586C35.1907 1.75754 33.2979 0 30.9095 0C28.5661 0 26.5832 1.75754 26.5832 4.05586Z" fill="#5034FF"/>
<path d="M44.7539 0.991433H37.5885V32.0413H44.3483V29.0219C45.5651 31.5005 48.269 32.4469 50.5673 32.4469C55.7498 32.4469 60.7971 28.3009 60.7971 21.4961C60.7971 14.6912 55.7498 10.5002 50.5673 10.5002C48.0437 10.5002 46.1059 11.4916 44.7539 12.9788V0.991433ZM53.4965 21.5411C53.4965 23.9296 51.5137 25.9125 49.1252 25.9125C46.7368 25.9125 44.7539 23.9296 44.7539 21.5411C44.7539 19.1527 46.7368 17.1698 49.1252 17.1698C51.5137 17.1698 53.4965 19.1527 53.4965 21.5411Z" fill="#5034FF"/>
<path d="M84 21.2257C84 14.6011 79.0879 10.5002 73.0942 10.5002C67.0555 10.5002 61.9181 14.7814 61.9181 21.4059C61.9181 28.0305 67.0555 32.4469 73.0942 32.4469C76.4291 32.4469 80.3948 31.4555 82.603 28.5262C81.4313 27.67 78.5021 25.6421 77.6458 24.9661C76.4291 26.4082 74.8067 26.7236 73.635 26.7236C71.3367 26.7236 69.0834 25.5069 68.813 23.524H83.8648C83.9099 22.9382 84 21.7665 84 21.2257ZM68.813 19.5132C69.3538 16.8093 71.9225 16.4037 73.0041 16.4037C74.0857 16.4037 76.5192 16.8093 77.1952 19.5132H68.813Z" fill="#5034FF"/>
</svg>
