<svg width="288" height="145" viewBox="0 0 288 145" fill="none" xmlns="http://www.w3.org/2000/svg">
<g clip-path="url(#clip0_56661_34367)">
<rect width="290" height="145" fill="#6C6CFF"/>
<rect opacity="0.2" width="195.146" height="143.413" rx="4" transform="matrix(0.866044 -0.499967 0.866044 0.499967 86.0872 112.804)" fill="white"/>
<rect opacity="0.2" width="40.654" height="143.413" rx="4" transform="matrix(0.866044 -0.499967 0.866044 0.499967 45.634 136.844)" fill="white"/>
<rect opacity="0.1" width="25.8673" height="7.7747" rx="3.88735" transform="matrix(0.866044 -0.499967 0.866044 0.499967 57.823 136.086)" fill="white"/>
<rect opacity="0.1" width="25.8673" height="7.7747" rx="3.88735" transform="matrix(0.866044 -0.499967 0.866044 0.499967 70.0117 142.889)" fill="white"/>
<rect opacity="0.1" width="25.8673" height="7.7747" rx="3.88735" transform="matrix(0.866044 -0.499967 0.866044 0.499967 82.2004 150.059)" fill="white"/>
<rect opacity="0.1" width="25.8673" height="7.7747" rx="3.88735" transform="matrix(0.866044 -0.499967 0.866044 0.499967 94.3894 157.229)" fill="white"/>
<rect opacity="0.1" width="97.4952" height="35.9932" rx="14.8194" transform="matrix(0.866044 -0.499967 0.866044 0.499967 102.276 112.058)" fill="white"/>
<rect opacity="0.1" width="212.192" height="9.3922" rx="4" transform="matrix(0.866044 -0.499967 -0.866044 -0.499967 42.0493 131.417)" fill="white"/>
<rect opacity="0.1" width="54.0554" height="35.9932" rx="14.8194" transform="matrix(-0.866044 0.499967 0.866044 0.499967 239.261 32.7026)" fill="white"/>
<rect opacity="0.1" width="123.085" height="35.9932" rx="14.8194" transform="matrix(0.866044 -0.499967 0.866044 0.499967 183.296 152.777)" fill="white"/>
<rect opacity="0.1" width="57.5582" height="35.9932" rx="14.8194" transform="matrix(0.866044 -0.499967 0.866044 0.499967 139.56 133.638)" fill="white"/>
<rect opacity="0.1" width="57.5582" height="35.9932" rx="14.8194" transform="matrix(0.866044 -0.499967 0.866044 0.499967 194.768 101.375)" fill="white"/>
</g>
<defs>
<clipPath id="clip0_56661_34367">
<rect width="290" height="145" fill="white"/>
</clipPath>
</defs>
</svg>
