<svg width="93" height="33" viewBox="0 0 93 33" fill="none" xmlns="http://www.w3.org/2000/svg">
<path d="M34.5147 11.041H27.3493V32.0413H34.5147V11.041Z" fill="#5034FF"/>
<path d="M30.9095 8.15679C28.5661 8.15679 26.5832 6.30912 26.5832 4.05586C26.5832 1.75754 28.5661 0 30.9095 0C33.2979 0 35.1907 1.75754 35.1907 4.05586C35.1907 6.30912 33.2979 8.15679 30.9095 8.15679Z" fill="#5034FF"/>
<path d="M16.0883 32.0413H9.46368L0 0.991433H7.84133L12.7985 19.9188L17.6655 0.991433H25.597L16.0883 32.0413Z" fill="#5034FF"/>
<path fill-rule="evenodd" clip-rule="evenodd" d="M44.7539 0.991433H37.5885V32.0413H44.3483V29.0219C45.5651 31.5005 48.269 32.4469 50.5673 32.4469C55.7498 32.4469 60.7971 28.3009 60.7971 21.4961C60.7971 14.6912 55.7498 10.5002 50.5673 10.5002C48.0437 10.5002 46.1059 11.4916 44.7539 12.9788V0.991433ZM53.4965 21.5411C53.4965 23.9296 51.5137 25.9125 49.1252 25.9125C46.7368 25.9125 44.7539 23.9296 44.7539 21.5411C44.7539 19.1527 46.7368 17.1698 49.1252 17.1698C51.5137 17.1698 53.4965 19.1527 53.4965 21.5411Z" fill="#5034FF"/>
<path fill-rule="evenodd" clip-rule="evenodd" d="M73.0942 10.5002C79.0879 10.5002 84 14.6011 84 21.2257C84 21.7662 83.91 22.9369 83.8649 23.5231L68.813 23.524C69.0834 25.5069 71.3367 26.7236 73.635 26.7236C74.8067 26.7236 76.4291 26.4082 77.6458 24.9661C78.1727 25.3821 79.4848 26.3101 80.6891 27.1619C81.4416 27.6942 82.1524 28.197 82.603 28.5262C80.3948 31.4555 76.4291 32.4469 73.0942 32.4469C67.0555 32.4469 61.9181 28.0305 61.9181 21.4059C61.9181 14.7814 67.0555 10.5002 73.0942 10.5002ZM73.0041 16.4037C71.9225 16.4037 69.3538 16.8093 68.813 19.5132H77.1952C76.5192 16.8093 74.0857 16.4037 73.0041 16.4037Z" fill="#5034FF"/>
<path d="M84.8749 11.688C85.587 12.0024 86.4014 12.1596 87.3181 12.1596C88.2689 12.1596 89.1079 12.01 89.8351 11.7108C90.5662 11.4115 91.1363 10.9986 91.5454 10.4721C91.9582 9.94561 92.1628 9.34144 92.159 8.65962C92.1666 7.9475 91.9336 7.35659 91.4601 6.8869C90.9867 6.41341 90.2802 6.12553 89.3408 6.02326V5.93235C90.034 5.85659 90.606 5.61038 91.0567 5.19371C91.5113 4.77705 91.7348 4.24296 91.7272 3.59144C91.731 2.93614 91.5454 2.3547 91.1704 1.84712C90.7992 1.33576 90.2821 0.934245 89.6192 0.642578C88.9601 0.350911 88.2007 0.205078 87.3408 0.205078C86.462 0.205078 85.6836 0.360381 85.0056 0.670987C84.3276 0.981593 83.7935 1.40962 83.4033 1.95508C83.017 2.50053 82.8219 3.12932 82.8181 3.84144H85.8408C85.8446 3.60659 85.9109 3.39826 86.0397 3.21644C86.1685 3.03462 86.3446 2.89258 86.5681 2.79031C86.7954 2.68803 87.0529 2.6369 87.3408 2.6369C87.606 2.6369 87.8389 2.68614 88.0397 2.78462C88.2442 2.88311 88.4033 3.01947 88.517 3.19372C88.6306 3.36796 88.6855 3.56871 88.6817 3.79599C88.6855 4.03084 88.6192 4.23917 88.4829 4.42099C88.3503 4.60281 88.1628 4.74485 87.9204 4.84712C87.6817 4.9494 87.4052 5.00053 87.0908 5.00053H85.909V7.18235H87.0908C87.4317 7.18235 87.7329 7.23349 87.9942 7.33576C88.2556 7.43803 88.4582 7.58008 88.6022 7.7619C88.7499 7.94371 88.8219 8.15205 88.8181 8.3869C88.8219 8.62553 88.7613 8.83765 88.6363 9.02326C88.5113 9.20887 88.337 9.3547 88.1135 9.46076C87.8901 9.56303 87.6325 9.61417 87.3408 9.61417C87.0378 9.61417 86.7689 9.56493 86.534 9.46644C86.2992 9.36796 86.1135 9.23159 85.9772 9.05735C85.8446 8.87932 85.7764 8.67856 85.7726 8.45508H82.5908C82.5946 9.17856 82.7992 9.81872 83.2045 10.3755C83.6098 10.9324 84.1666 11.3699 84.8749 11.688Z" fill="#5034FF"/>
</svg>
